<?xml version="1.0" standalone="no"?>
 <!DOCTYPE svg PUBLIC "-//W3C//DTD SVG 1.1//EN" 
 "http://www.w3.org/Graphics/SVG/1.1/DTD/svg11.dtd"> 
<svg xmlns="http://www.w3.org/2000/svg" version="1.1" 
    width="29.7002cm" height="21.0007cm" viewBox="0 0 116930 82680 ">
<title>SVG Picture created as Telescopio-F.SilkS.svg date 2018/03/02 17:51:30 </title>
  <desc>Picture generated by PCBNEW </desc>
<g style="fill:#000000; fill-opacity:1;stroke:#000000; stroke-opacity:1;
stroke-linecap:round; stroke-linejoin:round; "
 transform="translate(0 0) scale(1 1)">
</g>
<g style="fill:#000000; fill-opacity:0.0; 
stroke:#000000; stroke-width:-0.000393701; stroke-opacity:1; 
stroke-linecap:round; stroke-linejoin:round;">
</g>
<g style="fill:#000000; fill-opacity:0.0; 
stroke:#000000; stroke-width:59.0551; stroke-opacity:1; 
stroke-linecap:round; stroke-linejoin:round;">
<path d="M40700 32300
L40700 27300
" />
<path d="M40700 27300
L41700 27300
" />
<path d="M41700 27300
L41700 32300
" />
<path d="M40589 33410
L40589 32800
" />
<path d="M40700 32300
L41700 32300
" />
<path d="M41810 32800
L41810 33410
" />
<path d="M41810 33410
L40589 33410
" />
<path d="M65020 27560
L65020 30560
" />
<path d="M66020 27560
L66020 30560
" />
<path d="M66130 26449
L66130 27060
" />
<path d="M65020 30560
L66020 30560
" />
<path d="M66020 27560
L65020 27560
" />
<path d="M64909 27060
L64909 26449
" />
<path d="M64909 26449
L66130 26449
" />
<path d="M74025 26575
L74025 31575
" />
<path d="M74025 31575
L73025 31575
" />
<path d="M73025 31575
L73025 26575
" />
<path d="M74135 25464
L74135 26075
" />
<path d="M74025 26575
L73025 26575
" />
<path d="M72914 26075
L72914 25464
" />
<path d="M72914 25464
L74135 25464
" />
<path d="M45700 32300
L45700 27300
" />
<path d="M45700 27300
L46700 27300
" />
<path d="M46700 27300
L46700 32300
" />
<path d="M45589 33410
L45589 32800
" />
<path d="M45700 32300
L46700 32300
" />
<path d="M46810 32800
L46810 33410
" />
<path d="M46810 33410
L45589 33410
" />
<path d="M57750 41750
L56750 41750
" />
<path d="M58860 41860
L58250 41860
" />
<path d="M57750 41750
L57750 40750
" />
<path d="M58250 40639
L58860 40639
" />
<path d="M58860 40639
L58860 41860
" />
<path d="M57750 40750
L56750 40750
" />
<path d="M56750 40750
L56750 41750
" />
<path d="M44500 35500
L45500 35500
" />
<path d="M43389 35389
L44000 35389
" />
<path d="M44500 35500
L44500 36500
" />
<path d="M44000 36610
L43389 36610
" />
<path d="M43389 36610
L43389 35389
" />
<path d="M44500 36500
L45500 36500
" />
<path d="M45500 36500
L45500 35500
" />
<path d="M53500 22500
L53500 39500
" />
<path d="M53500 39500
L52500 39500
" />
<path d="M52500 39500
L52500 22500
" />
<path d="M53610 21389
L53610 22000
" />
<path d="M53500 22500
L52500 22500
" />
<path d="M52389 22000
L52389 21389
" />
<path d="M52389 21389
L53610 21389
" />
<path d="M62500 38500
L62500 21500
" />
<path d="M62500 21500
L63500 21500
" />
<path d="M63500 21500
L63500 38500
" />
<path d="M62389 39610
L62389 39000
" />
<path d="M62500 38500
L63500 38500
" />
<path d="M63610 39000
L63610 39610
" />
<path d="M63610 39610
L62389 39610
" />
</g>
<g style="fill:#000000; fill-opacity:0.0; 
stroke:#000000; stroke-width:47.2441; stroke-opacity:1; 
stroke-linecap:round; stroke-linejoin:round;">
<path d="M41406 22159
L38996 22159
" />
<path d="M38996 22159
L38996 23040
" />
<path d="M38996 23040
L41406 23040
" />
<path d="M41406 23040
L41406 22159
" />
<path d="M41800 22159
L42240 22159
" />
<path d="M42240 22159
L42240 22600
" />
<path d="M75759 28693
L75759 31103
" />
<path d="M75759 31103
L76640 31103
" />
<path d="M76640 31103
L76640 28693
" />
<path d="M76640 28693
L75759 28693
" />
<path d="M75759 28300
L75759 27859
" />
<path d="M75759 27859
L76200 27859
" />
</g>
<g style="fill:#000000; fill-opacity:0.0; 
stroke:#000000; stroke-width:59.0551; stroke-opacity:1; 
stroke-linecap:round; stroke-linejoin:round;">
<circle cx="78000" cy="21300" r="900" /> 
<circle cx="78000" cy="41900" r="900" /> 
<circle cx="37700" cy="41900" r="900" /> 
<path d="M40900 34967
L40956 34985
L41050 34985
L41087 34967
L41106 34948
L41125 34910
L41125 34873
L41106 34835
L41087 34817
L41050 34798
L40975 34779
L40937 34761
L40918 34742
L40900 34704
L40900 34667
L40918 34629
L40937 34611
L40975 34592
L41068 34592
L41125 34611
" />
<path d="M41274 34629
L41293 34611
L41331 34592
L41424 34592
L41462 34611
L41481 34629
L41499 34667
L41499 34704
L41481 34761
L41256 34985
L41499 34985
" />
<path d="M65388 24836
L65388 25117
L65370 25173
L65332 25211
L65276 25230
L65238 25230
" />
<path d="M65782 25230
L65557 25230
" />
<path d="M65669 25230
L65669 24836
L65632 24892
L65594 24930
L65557 24949
" />
<path d="M73393 23851
L73393 24132
L73375 24188
L73337 24226
L73281 24245
L73243 24245
" />
<path d="M73562 23889
L73581 23870
L73618 23851
L73712 23851
L73749 23870
L73768 23889
L73787 23926
L73787 23964
L73768 24020
L73543 24245
L73787 24245
" />
<path d="M45900 34967
L45956 34985
L46050 34985
L46087 34967
L46106 34948
L46125 34910
L46125 34873
L46106 34835
L46087 34817
L46050 34798
L45975 34779
L45937 34761
L45918 34742
L45900 34704
L45900 34667
L45918 34629
L45937 34611
L45975 34592
L46068 34592
L46125 34611
" />
<path d="M46499 34985
L46274 34985
" />
<path d="M46387 34985
L46387 34592
L46349 34648
L46312 34686
L46274 34704
" />
<path d="M60042 41568
L60042 41306
L60435 41568
L60435 41306
" />
<path d="M60435 40950
L60435 41175
" />
<path d="M60435 41062
L60042 41062
L60098 41100
L60136 41137
L60154 41175
" />
<path d="M41776 36318
L41776 36056
L42170 36318
L42170 36056
" />
<path d="M41814 35925
L41795 35906
L41776 35868
L41776 35775
L41795 35737
L41814 35718
L41851 35700
L41889 35700
L41945 35718
L42170 35943
L42170 35700
" />
<path d="M52709 20170
L52709 19776
L52859 19776
L52896 19795
L52915 19814
L52934 19851
L52934 19907
L52915 19945
L52896 19964
L52859 19982
L52709 19982
" />
<path d="M53271 19907
L53271 20170
" />
<path d="M53178 19757
L53084 20038
L53328 20038
" />
<path d="M62709 41185
L62709 40792
L62859 40792
L62896 40811
L62915 40829
L62934 40867
L62934 40923
L62915 40961
L62896 40979
L62859 40998
L62709 40998
" />
<path d="M63290 40792
L63103 40792
L63084 40979
L63103 40961
L63140 40942
L63234 40942
L63271 40961
L63290 40979
L63309 41017
L63309 41110
L63290 41148
L63271 41167
L63234 41185
L63140 41185
L63103 41167
L63084 41148
" />
<path d="M42812 22899
L42419 22899
" />
<path d="M42606 22899
L42606 22674
" />
<path d="M42812 22674
L42419 22674
" />
<path d="M42812 22281
L42812 22506
" />
<path d="M42812 22393
L42419 22393
L42475 22431
L42512 22468
L42531 22506
" />
<path d="M76068 27249
L76068 27530
L76050 27587
L76012 27624
L75956 27643
L75918 27643
" />
<path d="M76218 27249
L76462 27249
L76331 27399
L76387 27399
L76424 27418
L76443 27437
L76462 27474
L76462 27568
L76443 27605
L76424 27624
L76387 27643
L76274 27643
L76237 27624
L76218 27605
" />
<path d="M77475 20278
L77343 20090
" />
<path d="M77250 20278
L77250 19884
L77400 19884
L77437 19903
L77456 19921
L77475 19959
L77475 20015
L77456 20053
L77437 20071
L77400 20090
L77250 20090
" />
<path d="M77643 20071
L77775 20071
" />
<path d="M77831 20278
L77643 20278
L77643 19884
L77831 19884
" />
<path d="M78131 20071
L78000 20071
" />
<path d="M78000 20278
L78000 19884
L78187 19884
" />
<path d="M78393 19884
L78393 19978
" />
<path d="M78299 19940
L78393 19978
L78487 19940
" />
<path d="M78337 20053
L78393 19978
L78449 20053
" />
<path d="M78693 19884
L78693 19978
" />
<path d="M78599 19940
L78693 19978
L78787 19940
" />
<path d="M78637 20053
L78693 19978
L78749 20053
" />
<path d="M77475 40878
L77343 40690
" />
<path d="M77250 40878
L77250 40484
L77400 40484
L77437 40503
L77456 40521
L77475 40559
L77475 40615
L77456 40653
L77437 40671
L77400 40690
L77250 40690
" />
<path d="M77643 40671
L77775 40671
" />
<path d="M77831 40878
L77643 40878
L77643 40484
L77831 40484
" />
<path d="M78131 40671
L78000 40671
" />
<path d="M78000 40878
L78000 40484
L78187 40484
" />
<path d="M78393 40484
L78393 40578
" />
<path d="M78299 40540
L78393 40578
L78487 40540
" />
<path d="M78337 40653
L78393 40578
L78449 40653
" />
<path d="M78693 40484
L78693 40578
" />
<path d="M78599 40540
L78693 40578
L78787 40540
" />
<path d="M78637 40653
L78693 40578
L78749 40653
" />
<path d="M37175 40878
L37043 40690
" />
<path d="M36950 40878
L36950 40484
L37100 40484
L37137 40503
L37156 40521
L37175 40559
L37175 40615
L37156 40653
L37137 40671
L37100 40690
L36950 40690
" />
<path d="M37343 40671
L37475 40671
" />
<path d="M37531 40878
L37343 40878
L37343 40484
L37531 40484
" />
<path d="M37831 40671
L37700 40671
" />
<path d="M37700 40878
L37700 40484
L37887 40484
" />
<path d="M38093 40484
L38093 40578
" />
<path d="M37999 40540
L38093 40578
L38187 40540
" />
<path d="M38037 40653
L38093 40578
L38149 40653
" />
<path d="M38393 40484
L38393 40578
" />
<path d="M38299 40540
L38393 40578
L38487 40540
" />
<path d="M38337 40653
L38393 40578
L38449 40653
" />
</g> 
</svg>
