G04 #@! TF.FileFunction,Copper,L2,Bot,Signal*
%FSLAX46Y46*%
G04 Gerber Fmt 4.6, Leading zero omitted, Abs format (unit mm)*
G04 Created by KiCad (PCBNEW 4.0.2+dfsg1-stable) date Fri 02 Mar 2018 05:51:11 PM -05*
%MOMM*%
G01*
G04 APERTURE LIST*
%ADD10C,0.100000*%
%ADD11R,2.032000X1.727200*%
%ADD12O,2.032000X1.727200*%
%ADD13R,2.032000X2.032000*%
%ADD14O,2.032000X2.032000*%
%ADD15R,1.350000X1.350000*%
%ADD16O,1.350000X1.350000*%
%ADD17C,4.064000*%
%ADD18C,1.000000*%
%ADD19C,0.254000*%
G04 APERTURE END LIST*
D10*
D11*
X104648000Y-83312000D03*
D12*
X104648000Y-80772000D03*
X104648000Y-78232000D03*
X104648000Y-75692000D03*
X104648000Y-73152000D03*
X104648000Y-70612000D03*
D11*
X166420800Y-68732400D03*
D12*
X166420800Y-71272400D03*
X166420800Y-73812400D03*
X166420800Y-76352400D03*
D11*
X186753500Y-66230500D03*
D12*
X186753500Y-68770500D03*
X186753500Y-71310500D03*
X186753500Y-73850500D03*
X186753500Y-76390500D03*
X186753500Y-78930500D03*
D11*
X117348000Y-83312000D03*
D12*
X117348000Y-80772000D03*
X117348000Y-78232000D03*
X117348000Y-75692000D03*
X117348000Y-73152000D03*
X117348000Y-70612000D03*
D13*
X147955000Y-104775000D03*
D14*
X145415000Y-104775000D03*
D13*
X111760000Y-91440000D03*
D14*
X114300000Y-91440000D03*
D11*
X134620000Y-55880000D03*
D12*
X134620000Y-58420000D03*
X134620000Y-60960000D03*
X134620000Y-63500000D03*
X134620000Y-66040000D03*
X134620000Y-68580000D03*
X134620000Y-71120000D03*
X134620000Y-73660000D03*
X134620000Y-76200000D03*
X134620000Y-78740000D03*
X134620000Y-81280000D03*
X134620000Y-83820000D03*
X134620000Y-86360000D03*
X134620000Y-88900000D03*
X134620000Y-91440000D03*
X134620000Y-93980000D03*
X134620000Y-96520000D03*
X134620000Y-99060000D03*
D11*
X160020000Y-99060000D03*
D12*
X160020000Y-96520000D03*
X160020000Y-93980000D03*
X160020000Y-91440000D03*
X160020000Y-88900000D03*
X160020000Y-86360000D03*
X160020000Y-83820000D03*
X160020000Y-81280000D03*
X160020000Y-78740000D03*
X160020000Y-76200000D03*
X160020000Y-73660000D03*
X160020000Y-71120000D03*
X160020000Y-68580000D03*
X160020000Y-66040000D03*
X160020000Y-63500000D03*
X160020000Y-60960000D03*
X160020000Y-58420000D03*
X160020000Y-55880000D03*
D15*
X106172000Y-57404000D03*
D16*
X104172000Y-57404000D03*
X102172000Y-57404000D03*
X100172000Y-57404000D03*
D15*
X193548000Y-71882000D03*
D16*
X193548000Y-73882000D03*
X193548000Y-75882000D03*
X193548000Y-77882000D03*
D17*
X198120000Y-54102000D03*
X198120000Y-106426000D03*
X95758000Y-106426000D03*
D18*
X104172000Y-57404000D02*
X104172000Y-59722000D01*
X115062000Y-70612000D02*
X117348000Y-70612000D01*
X104172000Y-59722000D02*
X115062000Y-70612000D01*
X117348000Y-70612000D02*
X117348000Y-68072000D01*
X127000000Y-58420000D02*
X134620000Y-58420000D01*
X117348000Y-68072000D02*
X127000000Y-58420000D01*
X102172000Y-57404000D02*
X102172000Y-55436000D01*
X128778000Y-96520000D02*
X134620000Y-96520000D01*
X119634000Y-105664000D02*
X128778000Y-96520000D01*
X105156000Y-105664000D02*
X119634000Y-105664000D01*
X97790000Y-98298000D02*
X105156000Y-105664000D01*
X97790000Y-87376000D02*
X97790000Y-98298000D01*
X95504000Y-85090000D02*
X97790000Y-87376000D01*
X95504000Y-56134000D02*
X95504000Y-85090000D01*
X97790000Y-53848000D02*
X95504000Y-56134000D01*
X100584000Y-53848000D02*
X97790000Y-53848000D01*
X102172000Y-55436000D02*
X100584000Y-53848000D01*
X100172000Y-57404000D02*
X100172000Y-61372000D01*
X132588000Y-81280000D02*
X134620000Y-81280000D01*
X130556000Y-83312000D02*
X132588000Y-81280000D01*
X130556000Y-90424000D02*
X130556000Y-83312000D01*
X118110000Y-102870000D02*
X130556000Y-90424000D01*
X105156000Y-102870000D02*
X118110000Y-102870000D01*
X100076000Y-97790000D02*
X105156000Y-102870000D01*
X100076000Y-87122000D02*
X100076000Y-97790000D01*
X99314000Y-86360000D02*
X100076000Y-87122000D01*
X99314000Y-62230000D02*
X99314000Y-86360000D01*
X100172000Y-61372000D02*
X99314000Y-62230000D01*
X160020000Y-58420000D02*
X161290000Y-58420000D01*
X166420800Y-63550800D02*
X166420800Y-68732400D01*
X161290000Y-58420000D02*
X166420800Y-63550800D01*
X166420800Y-68732400D02*
X166420800Y-68376800D01*
X166420800Y-71272400D02*
X163931600Y-71272400D01*
X161798000Y-93980000D02*
X160020000Y-93980000D01*
X163322000Y-92456000D02*
X161798000Y-93980000D01*
X163322000Y-71882000D02*
X163322000Y-92456000D01*
X163931600Y-71272400D02*
X163322000Y-71882000D01*
X166420800Y-73812400D02*
X170662600Y-73812400D01*
X156210000Y-99060000D02*
X160020000Y-99060000D01*
X155575000Y-99695000D02*
X156210000Y-99060000D01*
X155575000Y-102235000D02*
X155575000Y-99695000D01*
X150495000Y-107315000D02*
X155575000Y-102235000D01*
X142875000Y-107315000D02*
X150495000Y-107315000D01*
X140335000Y-104775000D02*
X142875000Y-107315000D01*
X140335000Y-102870000D02*
X140335000Y-104775000D01*
X141605000Y-101600000D02*
X140335000Y-102870000D01*
X142240000Y-101600000D02*
X141605000Y-101600000D01*
X155575000Y-88265000D02*
X142240000Y-101600000D01*
X155575000Y-53340000D02*
X155575000Y-88265000D01*
X156210000Y-52705000D02*
X155575000Y-53340000D01*
X164465000Y-52705000D02*
X156210000Y-52705000D01*
X171450000Y-59690000D02*
X164465000Y-52705000D01*
X171450000Y-73025000D02*
X171450000Y-59690000D01*
X170662600Y-73812400D02*
X171450000Y-73025000D01*
X166573200Y-73660000D02*
X166420800Y-73812400D01*
X193548000Y-71882000D02*
X190246000Y-71882000D01*
X189674500Y-71310500D02*
X186753500Y-71310500D01*
X190246000Y-71882000D02*
X189674500Y-71310500D01*
X186753500Y-73850500D02*
X193516500Y-73850500D01*
X193516500Y-73850500D02*
X193548000Y-73882000D01*
X186753500Y-76390500D02*
X189547500Y-76390500D01*
X190056000Y-75882000D02*
X193548000Y-75882000D01*
X189547500Y-76390500D02*
X190056000Y-75882000D01*
X186753500Y-78930500D02*
X190055500Y-78930500D01*
X191104000Y-77882000D02*
X193548000Y-77882000D01*
X190055500Y-78930500D02*
X191104000Y-77882000D01*
X104648000Y-70612000D02*
X109093000Y-70612000D01*
X128270000Y-60960000D02*
X134620000Y-60960000D01*
X122555000Y-66675000D02*
X128270000Y-60960000D01*
X122555000Y-83185000D02*
X122555000Y-66675000D01*
X119380000Y-86360000D02*
X122555000Y-83185000D01*
X119380000Y-90170000D02*
X119380000Y-86360000D01*
X114935000Y-94615000D02*
X119380000Y-90170000D01*
X110490000Y-94615000D02*
X114935000Y-94615000D01*
X108585000Y-92710000D02*
X110490000Y-94615000D01*
X108585000Y-88900000D02*
X108585000Y-92710000D01*
X109855000Y-87630000D02*
X108585000Y-88900000D01*
X109855000Y-71374000D02*
X109855000Y-87630000D01*
X109093000Y-70612000D02*
X109855000Y-71374000D01*
X104521000Y-70675500D02*
X105092500Y-70675500D01*
X104648000Y-73152000D02*
X105537000Y-73152000D01*
X105537000Y-73152000D02*
X106045000Y-73660000D01*
X104648000Y-73152000D02*
X104902000Y-73152000D01*
X104902000Y-73152000D02*
X105410000Y-73660000D01*
X105410000Y-73660000D02*
X104648000Y-73152000D01*
X104648000Y-73152000D02*
X105410000Y-72390000D01*
X104648000Y-73152000D02*
X105918000Y-73152000D01*
X105918000Y-73152000D02*
X106045000Y-73025000D01*
X104648000Y-73152000D02*
X102997000Y-73152000D01*
X102997000Y-73152000D02*
X102870000Y-73025000D01*
X104648000Y-73152000D02*
X104013000Y-73152000D01*
X104013000Y-73152000D02*
X103505000Y-73660000D01*
X145415000Y-104775000D02*
X143510000Y-104775000D01*
X145415000Y-104775000D02*
X145415000Y-104140000D01*
X145415000Y-104140000D02*
X144780000Y-103505000D01*
X134620000Y-63500000D02*
X132715000Y-63500000D01*
X134620000Y-63500000D02*
X136525000Y-63500000D01*
X160020000Y-55880000D02*
X159004000Y-55880000D01*
X159004000Y-55880000D02*
X158496000Y-55372000D01*
X160020000Y-55880000D02*
X161036000Y-55880000D01*
X161036000Y-55880000D02*
X161290000Y-56134000D01*
X161290000Y-56134000D02*
X161290000Y-56388000D01*
X161036000Y-55880000D02*
X161290000Y-55626000D01*
X161290000Y-55626000D02*
X160274000Y-55626000D01*
X160274000Y-55626000D02*
X160528000Y-55372000D01*
X160528000Y-55372000D02*
X161544000Y-55372000D01*
X160020000Y-55880000D02*
X159258000Y-55880000D01*
X159258000Y-55880000D02*
X158750000Y-56388000D01*
X160020000Y-55880000D02*
X160020000Y-55372000D01*
X160020000Y-55372000D02*
X159512000Y-54864000D01*
X160020000Y-55880000D02*
X159766000Y-55880000D01*
X159766000Y-55880000D02*
X159004000Y-55118000D01*
X160020000Y-55880000D02*
X160020000Y-55626000D01*
X160020000Y-55626000D02*
X161290000Y-54356000D01*
X134620000Y-55880000D02*
X135890000Y-55880000D01*
X135890000Y-55880000D02*
X136398000Y-55372000D01*
X134620000Y-55880000D02*
X134620000Y-54864000D01*
X134620000Y-54864000D02*
X135128000Y-54356000D01*
X134620000Y-55880000D02*
X134620000Y-55118000D01*
X134620000Y-55118000D02*
X134112000Y-54610000D01*
X134620000Y-55880000D02*
X133350000Y-55880000D01*
X133350000Y-55880000D02*
X132842000Y-55372000D01*
X134620000Y-55880000D02*
X133096000Y-54356000D01*
X134620000Y-55880000D02*
X135890000Y-54610000D01*
X166420800Y-76352400D02*
X166420800Y-76403200D01*
X166420800Y-76403200D02*
X165608000Y-77216000D01*
X165608000Y-77216000D02*
X166420800Y-77216000D01*
X166420800Y-77216000D02*
X168656000Y-77216000D01*
X168656000Y-77216000D02*
X168656000Y-76352400D01*
X168656000Y-76352400D02*
X166420800Y-76352400D01*
X166420800Y-76352400D02*
X166420800Y-76504800D01*
X166420800Y-76504800D02*
X167132000Y-77216000D01*
X166420800Y-76352400D02*
X166420800Y-77419200D01*
X166420800Y-77419200D02*
X166116000Y-77724000D01*
X166420800Y-76352400D02*
X165252400Y-76352400D01*
X165252400Y-76352400D02*
X165100000Y-76200000D01*
X104648000Y-83312000D02*
X104648000Y-97663000D01*
X132080000Y-73660000D02*
X134620000Y-73660000D01*
X126365000Y-79375000D02*
X132080000Y-73660000D01*
X126365000Y-88265000D02*
X126365000Y-79375000D01*
X115570000Y-99060000D02*
X126365000Y-88265000D01*
X106045000Y-99060000D02*
X115570000Y-99060000D01*
X104648000Y-97663000D02*
X106045000Y-99060000D01*
X114300000Y-91440000D02*
X114300000Y-86360000D01*
X114300000Y-86360000D02*
X117348000Y-83312000D01*
X147955000Y-104775000D02*
X147955000Y-102235000D01*
X153670000Y-96520000D02*
X160020000Y-96520000D01*
X147955000Y-102235000D02*
X153670000Y-96520000D01*
D19*
G36*
X201474000Y-109526000D02*
X92150000Y-109526000D01*
X92150000Y-56134000D01*
X94369000Y-56134000D01*
X94369000Y-85090000D01*
X94455397Y-85524346D01*
X94477506Y-85557434D01*
X94701434Y-85892566D01*
X96655000Y-87846132D01*
X96655000Y-98298000D01*
X96741397Y-98732346D01*
X96960329Y-99060000D01*
X96987434Y-99100566D01*
X104353434Y-106466566D01*
X104721654Y-106712603D01*
X105156000Y-106799000D01*
X119634000Y-106799000D01*
X120068346Y-106712603D01*
X120436566Y-106466566D01*
X124033132Y-102870000D01*
X139200000Y-102870000D01*
X139200000Y-104775000D01*
X139286397Y-105209346D01*
X139532434Y-105577566D01*
X142072433Y-108117566D01*
X142440654Y-108363603D01*
X142875000Y-108450000D01*
X150495000Y-108450000D01*
X150929346Y-108363603D01*
X151297566Y-108117566D01*
X156377566Y-103037566D01*
X156579734Y-102735000D01*
X156623603Y-102669346D01*
X156710000Y-102235000D01*
X156710000Y-100195000D01*
X158424057Y-100195000D01*
X158539910Y-100375041D01*
X158752110Y-100520031D01*
X159004000Y-100571040D01*
X161036000Y-100571040D01*
X161271317Y-100526762D01*
X161487441Y-100387690D01*
X161632431Y-100175490D01*
X161683440Y-99923600D01*
X161683440Y-98196400D01*
X161639162Y-97961083D01*
X161500090Y-97744959D01*
X161287890Y-97599969D01*
X161246561Y-97591600D01*
X161264415Y-97579670D01*
X161589271Y-97093489D01*
X161703345Y-96520000D01*
X161589271Y-95946511D01*
X161264415Y-95460330D01*
X160949634Y-95250000D01*
X161151676Y-95115000D01*
X161798000Y-95115000D01*
X162232346Y-95028603D01*
X162600566Y-94782566D01*
X164124566Y-93258567D01*
X164370603Y-92890346D01*
X164420444Y-92639778D01*
X164457000Y-92456000D01*
X164457000Y-76711426D01*
X164813442Y-76711426D01*
X164816091Y-76727191D01*
X165070068Y-77254436D01*
X165506480Y-77644354D01*
X166058887Y-77837584D01*
X166293800Y-77693324D01*
X166293800Y-76479400D01*
X166547800Y-76479400D01*
X166547800Y-77693324D01*
X166782713Y-77837584D01*
X167335120Y-77644354D01*
X167771532Y-77254436D01*
X168025509Y-76727191D01*
X168028158Y-76711426D01*
X167907017Y-76479400D01*
X166547800Y-76479400D01*
X166293800Y-76479400D01*
X164934583Y-76479400D01*
X164813442Y-76711426D01*
X164457000Y-76711426D01*
X164457000Y-72407400D01*
X165289124Y-72407400D01*
X165491166Y-72542400D01*
X165176385Y-72752730D01*
X164851529Y-73238911D01*
X164737455Y-73812400D01*
X164851529Y-74385889D01*
X165176385Y-74872070D01*
X165485869Y-75078861D01*
X165070068Y-75450364D01*
X164816091Y-75977609D01*
X164813442Y-75993374D01*
X164934583Y-76225400D01*
X166293800Y-76225400D01*
X166293800Y-76205400D01*
X166547800Y-76205400D01*
X166547800Y-76225400D01*
X167907017Y-76225400D01*
X168028158Y-75993374D01*
X168025509Y-75977609D01*
X167771532Y-75450364D01*
X167355731Y-75078861D01*
X167552476Y-74947400D01*
X170662600Y-74947400D01*
X171096946Y-74861003D01*
X171465166Y-74614966D01*
X172252566Y-73827566D01*
X172364530Y-73660000D01*
X172498603Y-73459346D01*
X172585000Y-73025000D01*
X172585000Y-68770500D01*
X185070155Y-68770500D01*
X185184229Y-69343989D01*
X185509085Y-69830170D01*
X185823866Y-70040500D01*
X185509085Y-70250830D01*
X185184229Y-70737011D01*
X185070155Y-71310500D01*
X185184229Y-71883989D01*
X185509085Y-72370170D01*
X185823866Y-72580500D01*
X185509085Y-72790830D01*
X185184229Y-73277011D01*
X185070155Y-73850500D01*
X185184229Y-74423989D01*
X185509085Y-74910170D01*
X185823866Y-75120500D01*
X185509085Y-75330830D01*
X185184229Y-75817011D01*
X185070155Y-76390500D01*
X185184229Y-76963989D01*
X185509085Y-77450170D01*
X185823866Y-77660500D01*
X185509085Y-77870830D01*
X185184229Y-78357011D01*
X185070155Y-78930500D01*
X185184229Y-79503989D01*
X185509085Y-79990170D01*
X185995266Y-80315026D01*
X186568755Y-80429100D01*
X186938245Y-80429100D01*
X187511734Y-80315026D01*
X187885176Y-80065500D01*
X190055500Y-80065500D01*
X190489846Y-79979103D01*
X190858066Y-79733066D01*
X191574132Y-79017000D01*
X192908353Y-79017000D01*
X193021021Y-79092282D01*
X193522336Y-79192000D01*
X193573664Y-79192000D01*
X194074979Y-79092282D01*
X194499974Y-78808310D01*
X194783946Y-78383315D01*
X194883664Y-77882000D01*
X194783946Y-77380685D01*
X194499974Y-76955690D01*
X194389689Y-76882000D01*
X194499974Y-76808310D01*
X194783946Y-76383315D01*
X194883664Y-75882000D01*
X194783946Y-75380685D01*
X194499974Y-74955690D01*
X194389689Y-74882000D01*
X194499974Y-74808310D01*
X194783946Y-74383315D01*
X194883664Y-73882000D01*
X194783946Y-73380685D01*
X194582992Y-73079936D01*
X194674441Y-73021090D01*
X194819431Y-72808890D01*
X194870440Y-72557000D01*
X194870440Y-71207000D01*
X194826162Y-70971683D01*
X194687090Y-70755559D01*
X194474890Y-70610569D01*
X194223000Y-70559560D01*
X192873000Y-70559560D01*
X192637683Y-70603838D01*
X192421559Y-70742910D01*
X192418764Y-70747000D01*
X190716132Y-70747000D01*
X190477066Y-70507934D01*
X190203880Y-70325397D01*
X190108846Y-70261897D01*
X189674500Y-70175500D01*
X187885176Y-70175500D01*
X187683134Y-70040500D01*
X187997915Y-69830170D01*
X188322771Y-69343989D01*
X188436845Y-68770500D01*
X188322771Y-68197011D01*
X187997915Y-67710830D01*
X187983587Y-67701257D01*
X188004817Y-67697262D01*
X188220941Y-67558190D01*
X188365931Y-67345990D01*
X188416940Y-67094100D01*
X188416940Y-65366900D01*
X188372662Y-65131583D01*
X188233590Y-64915459D01*
X188021390Y-64770469D01*
X187769500Y-64719460D01*
X185737500Y-64719460D01*
X185502183Y-64763738D01*
X185286059Y-64902810D01*
X185141069Y-65115010D01*
X185090060Y-65366900D01*
X185090060Y-67094100D01*
X185134338Y-67329417D01*
X185273410Y-67545541D01*
X185485610Y-67690531D01*
X185526939Y-67698900D01*
X185509085Y-67710830D01*
X185184229Y-68197011D01*
X185070155Y-68770500D01*
X172585000Y-68770500D01*
X172585000Y-59690000D01*
X172498603Y-59255654D01*
X172252566Y-58887434D01*
X167995304Y-54630172D01*
X195452538Y-54630172D01*
X195857709Y-55610761D01*
X196607293Y-56361655D01*
X197587173Y-56768536D01*
X198648172Y-56769462D01*
X199628761Y-56364291D01*
X200379655Y-55614707D01*
X200786536Y-54634827D01*
X200787462Y-53573828D01*
X200382291Y-52593239D01*
X199632707Y-51842345D01*
X198652827Y-51435464D01*
X197591828Y-51434538D01*
X196611239Y-51839709D01*
X195860345Y-52589293D01*
X195453464Y-53569173D01*
X195452538Y-54630172D01*
X167995304Y-54630172D01*
X165267566Y-51902434D01*
X164899346Y-51656397D01*
X164465000Y-51570000D01*
X156210000Y-51570000D01*
X155775655Y-51656396D01*
X155407434Y-51902434D01*
X154772434Y-52537434D01*
X154526397Y-52905654D01*
X154440000Y-53340000D01*
X154440000Y-87794868D01*
X141769868Y-100465000D01*
X141605000Y-100465000D01*
X141170654Y-100551397D01*
X140882998Y-100743603D01*
X140802434Y-100797434D01*
X139532434Y-102067434D01*
X139286397Y-102435654D01*
X139200000Y-102870000D01*
X124033132Y-102870000D01*
X129248132Y-97655000D01*
X133488324Y-97655000D01*
X133690366Y-97790000D01*
X133375585Y-98000330D01*
X133050729Y-98486511D01*
X132936655Y-99060000D01*
X133050729Y-99633489D01*
X133375585Y-100119670D01*
X133861766Y-100444526D01*
X134435255Y-100558600D01*
X134804745Y-100558600D01*
X135378234Y-100444526D01*
X135864415Y-100119670D01*
X136189271Y-99633489D01*
X136303345Y-99060000D01*
X136189271Y-98486511D01*
X135864415Y-98000330D01*
X135549634Y-97790000D01*
X135864415Y-97579670D01*
X136189271Y-97093489D01*
X136303345Y-96520000D01*
X136189271Y-95946511D01*
X135864415Y-95460330D01*
X135549634Y-95250000D01*
X135864415Y-95039670D01*
X136189271Y-94553489D01*
X136303345Y-93980000D01*
X136189271Y-93406511D01*
X135864415Y-92920330D01*
X135549634Y-92710000D01*
X135864415Y-92499670D01*
X136189271Y-92013489D01*
X136303345Y-91440000D01*
X136189271Y-90866511D01*
X135864415Y-90380330D01*
X135549634Y-90170000D01*
X135864415Y-89959670D01*
X136189271Y-89473489D01*
X136303345Y-88900000D01*
X136189271Y-88326511D01*
X135864415Y-87840330D01*
X135549634Y-87630000D01*
X135864415Y-87419670D01*
X136189271Y-86933489D01*
X136303345Y-86360000D01*
X136189271Y-85786511D01*
X135864415Y-85300330D01*
X135549634Y-85090000D01*
X135864415Y-84879670D01*
X136189271Y-84393489D01*
X136303345Y-83820000D01*
X136189271Y-83246511D01*
X135864415Y-82760330D01*
X135549634Y-82550000D01*
X135864415Y-82339670D01*
X136189271Y-81853489D01*
X136303345Y-81280000D01*
X136189271Y-80706511D01*
X135864415Y-80220330D01*
X135549634Y-80010000D01*
X135864415Y-79799670D01*
X136189271Y-79313489D01*
X136303345Y-78740000D01*
X136189271Y-78166511D01*
X135864415Y-77680330D01*
X135549634Y-77470000D01*
X135864415Y-77259670D01*
X136189271Y-76773489D01*
X136303345Y-76200000D01*
X136189271Y-75626511D01*
X135864415Y-75140330D01*
X135549634Y-74930000D01*
X135864415Y-74719670D01*
X136189271Y-74233489D01*
X136303345Y-73660000D01*
X136189271Y-73086511D01*
X135864415Y-72600330D01*
X135549634Y-72390000D01*
X135864415Y-72179670D01*
X136189271Y-71693489D01*
X136303345Y-71120000D01*
X136189271Y-70546511D01*
X135864415Y-70060330D01*
X135549634Y-69850000D01*
X135864415Y-69639670D01*
X136189271Y-69153489D01*
X136303345Y-68580000D01*
X136189271Y-68006511D01*
X135864415Y-67520330D01*
X135549634Y-67310000D01*
X135864415Y-67099670D01*
X136189271Y-66613489D01*
X136303345Y-66040000D01*
X136189271Y-65466511D01*
X135864415Y-64980330D01*
X135554931Y-64773539D01*
X135970732Y-64402036D01*
X136224709Y-63874791D01*
X136227358Y-63859026D01*
X136106217Y-63627000D01*
X134747000Y-63627000D01*
X134747000Y-63647000D01*
X134493000Y-63647000D01*
X134493000Y-63627000D01*
X133133783Y-63627000D01*
X133012642Y-63859026D01*
X133015291Y-63874791D01*
X133269268Y-64402036D01*
X133685069Y-64773539D01*
X133375585Y-64980330D01*
X133050729Y-65466511D01*
X132936655Y-66040000D01*
X133050729Y-66613489D01*
X133375585Y-67099670D01*
X133690366Y-67310000D01*
X133375585Y-67520330D01*
X133050729Y-68006511D01*
X132936655Y-68580000D01*
X133050729Y-69153489D01*
X133375585Y-69639670D01*
X133690366Y-69850000D01*
X133375585Y-70060330D01*
X133050729Y-70546511D01*
X132936655Y-71120000D01*
X133050729Y-71693489D01*
X133375585Y-72179670D01*
X133690366Y-72390000D01*
X133488324Y-72525000D01*
X132080000Y-72525000D01*
X131645655Y-72611396D01*
X131277434Y-72857433D01*
X125562434Y-78572434D01*
X125316397Y-78940654D01*
X125230000Y-79375000D01*
X125230000Y-87794868D01*
X115099868Y-97925000D01*
X106515132Y-97925000D01*
X105783000Y-97192868D01*
X105783000Y-84800649D01*
X105899317Y-84778762D01*
X106115441Y-84639690D01*
X106260431Y-84427490D01*
X106311440Y-84175600D01*
X106311440Y-82448400D01*
X106267162Y-82213083D01*
X106128090Y-81996959D01*
X105915890Y-81851969D01*
X105874561Y-81843600D01*
X105892415Y-81831670D01*
X106217271Y-81345489D01*
X106331345Y-80772000D01*
X106217271Y-80198511D01*
X105892415Y-79712330D01*
X105577634Y-79502000D01*
X105892415Y-79291670D01*
X106217271Y-78805489D01*
X106331345Y-78232000D01*
X106217271Y-77658511D01*
X105892415Y-77172330D01*
X105577634Y-76962000D01*
X105892415Y-76751670D01*
X106217271Y-76265489D01*
X106331345Y-75692000D01*
X106217271Y-75118511D01*
X105892415Y-74632330D01*
X105582931Y-74425539D01*
X105998732Y-74054036D01*
X106252709Y-73526791D01*
X106255358Y-73511026D01*
X106134217Y-73279000D01*
X104775000Y-73279000D01*
X104775000Y-73299000D01*
X104521000Y-73299000D01*
X104521000Y-73279000D01*
X103161783Y-73279000D01*
X103040642Y-73511026D01*
X103043291Y-73526791D01*
X103297268Y-74054036D01*
X103713069Y-74425539D01*
X103403585Y-74632330D01*
X103078729Y-75118511D01*
X102964655Y-75692000D01*
X103078729Y-76265489D01*
X103403585Y-76751670D01*
X103718366Y-76962000D01*
X103403585Y-77172330D01*
X103078729Y-77658511D01*
X102964655Y-78232000D01*
X103078729Y-78805489D01*
X103403585Y-79291670D01*
X103718366Y-79502000D01*
X103403585Y-79712330D01*
X103078729Y-80198511D01*
X102964655Y-80772000D01*
X103078729Y-81345489D01*
X103403585Y-81831670D01*
X103417913Y-81841243D01*
X103396683Y-81845238D01*
X103180559Y-81984310D01*
X103035569Y-82196510D01*
X102984560Y-82448400D01*
X102984560Y-84175600D01*
X103028838Y-84410917D01*
X103167910Y-84627041D01*
X103380110Y-84772031D01*
X103513000Y-84798942D01*
X103513000Y-97663000D01*
X103599397Y-98097346D01*
X103733470Y-98298000D01*
X103845434Y-98465566D01*
X105242434Y-99862566D01*
X105610654Y-100108603D01*
X106045000Y-100195000D01*
X115570000Y-100195000D01*
X116004346Y-100108603D01*
X116372566Y-99862566D01*
X127167566Y-89067566D01*
X127413603Y-88699346D01*
X127460087Y-88465654D01*
X127500000Y-88265000D01*
X127500000Y-79845132D01*
X132550133Y-74795000D01*
X133488324Y-74795000D01*
X133690366Y-74930000D01*
X133375585Y-75140330D01*
X133050729Y-75626511D01*
X132936655Y-76200000D01*
X133050729Y-76773489D01*
X133375585Y-77259670D01*
X133690366Y-77470000D01*
X133375585Y-77680330D01*
X133050729Y-78166511D01*
X132936655Y-78740000D01*
X133050729Y-79313489D01*
X133375585Y-79799670D01*
X133690366Y-80010000D01*
X133488324Y-80145000D01*
X132588000Y-80145000D01*
X132153654Y-80231397D01*
X131865998Y-80423603D01*
X131785434Y-80477434D01*
X129753434Y-82509434D01*
X129507397Y-82877654D01*
X129421000Y-83312000D01*
X129421000Y-89953868D01*
X117639868Y-101735000D01*
X105626132Y-101735000D01*
X101211000Y-97319868D01*
X101211000Y-87122000D01*
X101124603Y-86687654D01*
X100878566Y-86319434D01*
X100449000Y-85889868D01*
X100449000Y-62700132D01*
X100974566Y-62174566D01*
X101078064Y-62019670D01*
X101220603Y-61806346D01*
X101307000Y-61372000D01*
X101307000Y-58396940D01*
X101670685Y-58639946D01*
X102172000Y-58739664D01*
X102673315Y-58639946D01*
X103037000Y-58396940D01*
X103037000Y-59722000D01*
X103123397Y-60156346D01*
X103348052Y-60492566D01*
X103369434Y-60524566D01*
X114259434Y-71414566D01*
X114627655Y-71660604D01*
X115062000Y-71747000D01*
X116216324Y-71747000D01*
X116418366Y-71882000D01*
X116103585Y-72092330D01*
X115778729Y-72578511D01*
X115664655Y-73152000D01*
X115778729Y-73725489D01*
X116103585Y-74211670D01*
X116418366Y-74422000D01*
X116103585Y-74632330D01*
X115778729Y-75118511D01*
X115664655Y-75692000D01*
X115778729Y-76265489D01*
X116103585Y-76751670D01*
X116418366Y-76962000D01*
X116103585Y-77172330D01*
X115778729Y-77658511D01*
X115664655Y-78232000D01*
X115778729Y-78805489D01*
X116103585Y-79291670D01*
X116418366Y-79502000D01*
X116103585Y-79712330D01*
X115778729Y-80198511D01*
X115664655Y-80772000D01*
X115778729Y-81345489D01*
X116103585Y-81831670D01*
X116117913Y-81841243D01*
X116096683Y-81845238D01*
X115880559Y-81984310D01*
X115735569Y-82196510D01*
X115684560Y-82448400D01*
X115684560Y-83370308D01*
X113497434Y-85557434D01*
X113251397Y-85925654D01*
X113165000Y-86360000D01*
X113165000Y-89914974D01*
X113135699Y-89885673D01*
X112902310Y-89789000D01*
X112045750Y-89789000D01*
X111887000Y-89947750D01*
X111887000Y-91313000D01*
X111907000Y-91313000D01*
X111907000Y-91567000D01*
X111887000Y-91567000D01*
X111887000Y-92932250D01*
X112045750Y-93091000D01*
X112902310Y-93091000D01*
X113135699Y-92994327D01*
X113314327Y-92815698D01*
X113331999Y-92773034D01*
X113668190Y-92997670D01*
X114300000Y-93123345D01*
X114931810Y-92997670D01*
X114978184Y-92966684D01*
X114464868Y-93480000D01*
X110960132Y-93480000D01*
X110538210Y-93058078D01*
X110617690Y-93091000D01*
X111474250Y-93091000D01*
X111633000Y-92932250D01*
X111633000Y-91567000D01*
X110267750Y-91567000D01*
X110109000Y-91725750D01*
X110109000Y-92582309D01*
X110141922Y-92661790D01*
X109720000Y-92239868D01*
X109720000Y-90297691D01*
X110109000Y-90297691D01*
X110109000Y-91154250D01*
X110267750Y-91313000D01*
X111633000Y-91313000D01*
X111633000Y-89947750D01*
X111474250Y-89789000D01*
X110617690Y-89789000D01*
X110384301Y-89885673D01*
X110205673Y-90064302D01*
X110109000Y-90297691D01*
X109720000Y-90297691D01*
X109720000Y-89370132D01*
X110657566Y-88432566D01*
X110769530Y-88265000D01*
X110903603Y-88064346D01*
X110990000Y-87630000D01*
X110990000Y-71374000D01*
X110903603Y-70939654D01*
X110657566Y-70571434D01*
X109895566Y-69809434D01*
X109622380Y-69626897D01*
X109527346Y-69563397D01*
X109093000Y-69477000D01*
X105779676Y-69477000D01*
X105406234Y-69227474D01*
X104832745Y-69113400D01*
X104463255Y-69113400D01*
X103889766Y-69227474D01*
X103403585Y-69552330D01*
X103078729Y-70038511D01*
X102964655Y-70612000D01*
X103078729Y-71185489D01*
X103403585Y-71671670D01*
X103713069Y-71878461D01*
X103297268Y-72249964D01*
X103043291Y-72777209D01*
X103040642Y-72792974D01*
X103161783Y-73025000D01*
X104521000Y-73025000D01*
X104521000Y-73005000D01*
X104775000Y-73005000D01*
X104775000Y-73025000D01*
X106134217Y-73025000D01*
X106255358Y-72792974D01*
X106252709Y-72777209D01*
X105998732Y-72249964D01*
X105582931Y-71878461D01*
X105779676Y-71747000D01*
X108622868Y-71747000D01*
X108720000Y-71844132D01*
X108720000Y-87159868D01*
X107782434Y-88097434D01*
X107536397Y-88465654D01*
X107450000Y-88900000D01*
X107450000Y-92710000D01*
X107536397Y-93144346D01*
X107711570Y-93406511D01*
X107782434Y-93512566D01*
X109687434Y-95417566D01*
X110055654Y-95663603D01*
X110490000Y-95750000D01*
X114935000Y-95750000D01*
X115369346Y-95663603D01*
X115737566Y-95417566D01*
X120182566Y-90972566D01*
X120314011Y-90775845D01*
X120428603Y-90604346D01*
X120515000Y-90170000D01*
X120515000Y-86830132D01*
X123357566Y-83987566D01*
X123469530Y-83820000D01*
X123603603Y-83619346D01*
X123690000Y-83185000D01*
X123690000Y-67145132D01*
X128740133Y-62095000D01*
X133488324Y-62095000D01*
X133685069Y-62226461D01*
X133269268Y-62597964D01*
X133015291Y-63125209D01*
X133012642Y-63140974D01*
X133133783Y-63373000D01*
X134493000Y-63373000D01*
X134493000Y-63353000D01*
X134747000Y-63353000D01*
X134747000Y-63373000D01*
X136106217Y-63373000D01*
X136227358Y-63140974D01*
X136224709Y-63125209D01*
X135970732Y-62597964D01*
X135554931Y-62226461D01*
X135864415Y-62019670D01*
X136189271Y-61533489D01*
X136303345Y-60960000D01*
X136189271Y-60386511D01*
X135864415Y-59900330D01*
X135549634Y-59690000D01*
X135864415Y-59479670D01*
X136189271Y-58993489D01*
X136303345Y-58420000D01*
X136189271Y-57846511D01*
X135864415Y-57360330D01*
X135842220Y-57345500D01*
X135995698Y-57281927D01*
X136174327Y-57103299D01*
X136271000Y-56869910D01*
X136271000Y-56165750D01*
X136112250Y-56007000D01*
X134747000Y-56007000D01*
X134747000Y-56027000D01*
X134493000Y-56027000D01*
X134493000Y-56007000D01*
X133127750Y-56007000D01*
X132969000Y-56165750D01*
X132969000Y-56869910D01*
X133065673Y-57103299D01*
X133244302Y-57281927D01*
X133251721Y-57285000D01*
X127000000Y-57285000D01*
X126565654Y-57371397D01*
X126197434Y-57617434D01*
X116545434Y-67269434D01*
X116299397Y-67637654D01*
X116213000Y-68072000D01*
X116213000Y-69477000D01*
X115532132Y-69477000D01*
X105307000Y-59251868D01*
X105307000Y-58687619D01*
X105370690Y-58714000D01*
X105886250Y-58714000D01*
X106045000Y-58555250D01*
X106045000Y-57531000D01*
X106299000Y-57531000D01*
X106299000Y-58555250D01*
X106457750Y-58714000D01*
X106973310Y-58714000D01*
X107206699Y-58617327D01*
X107385327Y-58438698D01*
X107482000Y-58205309D01*
X107482000Y-57689750D01*
X107323250Y-57531000D01*
X106299000Y-57531000D01*
X106045000Y-57531000D01*
X106025000Y-57531000D01*
X106025000Y-57277000D01*
X106045000Y-57277000D01*
X106045000Y-56252750D01*
X106299000Y-56252750D01*
X106299000Y-57277000D01*
X107323250Y-57277000D01*
X107482000Y-57118250D01*
X107482000Y-56602691D01*
X107385327Y-56369302D01*
X107206699Y-56190673D01*
X106973310Y-56094000D01*
X106457750Y-56094000D01*
X106299000Y-56252750D01*
X106045000Y-56252750D01*
X105886250Y-56094000D01*
X105370690Y-56094000D01*
X105137301Y-56190673D01*
X104965014Y-56362961D01*
X104673315Y-56168054D01*
X104172000Y-56068336D01*
X103670685Y-56168054D01*
X103307000Y-56411060D01*
X103307000Y-55436000D01*
X103220603Y-55001654D01*
X103146059Y-54890090D01*
X132969000Y-54890090D01*
X132969000Y-55594250D01*
X133127750Y-55753000D01*
X134493000Y-55753000D01*
X134493000Y-54540150D01*
X134747000Y-54540150D01*
X134747000Y-55753000D01*
X136112250Y-55753000D01*
X136271000Y-55594250D01*
X136271000Y-54890090D01*
X136174327Y-54656701D01*
X135995698Y-54478073D01*
X135762309Y-54381400D01*
X134905750Y-54381400D01*
X134747000Y-54540150D01*
X134493000Y-54540150D01*
X134334250Y-54381400D01*
X133477691Y-54381400D01*
X133244302Y-54478073D01*
X133065673Y-54656701D01*
X132969000Y-54890090D01*
X103146059Y-54890090D01*
X102974566Y-54633434D01*
X101386566Y-53045434D01*
X101177372Y-52905655D01*
X101018346Y-52799397D01*
X100584000Y-52713000D01*
X97790000Y-52713000D01*
X97355654Y-52799397D01*
X97196628Y-52905655D01*
X96987434Y-53045434D01*
X94701434Y-55331434D01*
X94455397Y-55699654D01*
X94369000Y-56134000D01*
X92150000Y-56134000D01*
X92150000Y-50494000D01*
X201474000Y-50494000D01*
X201474000Y-109526000D01*
X201474000Y-109526000D01*
G37*
X201474000Y-109526000D02*
X92150000Y-109526000D01*
X92150000Y-56134000D01*
X94369000Y-56134000D01*
X94369000Y-85090000D01*
X94455397Y-85524346D01*
X94477506Y-85557434D01*
X94701434Y-85892566D01*
X96655000Y-87846132D01*
X96655000Y-98298000D01*
X96741397Y-98732346D01*
X96960329Y-99060000D01*
X96987434Y-99100566D01*
X104353434Y-106466566D01*
X104721654Y-106712603D01*
X105156000Y-106799000D01*
X119634000Y-106799000D01*
X120068346Y-106712603D01*
X120436566Y-106466566D01*
X124033132Y-102870000D01*
X139200000Y-102870000D01*
X139200000Y-104775000D01*
X139286397Y-105209346D01*
X139532434Y-105577566D01*
X142072433Y-108117566D01*
X142440654Y-108363603D01*
X142875000Y-108450000D01*
X150495000Y-108450000D01*
X150929346Y-108363603D01*
X151297566Y-108117566D01*
X156377566Y-103037566D01*
X156579734Y-102735000D01*
X156623603Y-102669346D01*
X156710000Y-102235000D01*
X156710000Y-100195000D01*
X158424057Y-100195000D01*
X158539910Y-100375041D01*
X158752110Y-100520031D01*
X159004000Y-100571040D01*
X161036000Y-100571040D01*
X161271317Y-100526762D01*
X161487441Y-100387690D01*
X161632431Y-100175490D01*
X161683440Y-99923600D01*
X161683440Y-98196400D01*
X161639162Y-97961083D01*
X161500090Y-97744959D01*
X161287890Y-97599969D01*
X161246561Y-97591600D01*
X161264415Y-97579670D01*
X161589271Y-97093489D01*
X161703345Y-96520000D01*
X161589271Y-95946511D01*
X161264415Y-95460330D01*
X160949634Y-95250000D01*
X161151676Y-95115000D01*
X161798000Y-95115000D01*
X162232346Y-95028603D01*
X162600566Y-94782566D01*
X164124566Y-93258567D01*
X164370603Y-92890346D01*
X164420444Y-92639778D01*
X164457000Y-92456000D01*
X164457000Y-76711426D01*
X164813442Y-76711426D01*
X164816091Y-76727191D01*
X165070068Y-77254436D01*
X165506480Y-77644354D01*
X166058887Y-77837584D01*
X166293800Y-77693324D01*
X166293800Y-76479400D01*
X166547800Y-76479400D01*
X166547800Y-77693324D01*
X166782713Y-77837584D01*
X167335120Y-77644354D01*
X167771532Y-77254436D01*
X168025509Y-76727191D01*
X168028158Y-76711426D01*
X167907017Y-76479400D01*
X166547800Y-76479400D01*
X166293800Y-76479400D01*
X164934583Y-76479400D01*
X164813442Y-76711426D01*
X164457000Y-76711426D01*
X164457000Y-72407400D01*
X165289124Y-72407400D01*
X165491166Y-72542400D01*
X165176385Y-72752730D01*
X164851529Y-73238911D01*
X164737455Y-73812400D01*
X164851529Y-74385889D01*
X165176385Y-74872070D01*
X165485869Y-75078861D01*
X165070068Y-75450364D01*
X164816091Y-75977609D01*
X164813442Y-75993374D01*
X164934583Y-76225400D01*
X166293800Y-76225400D01*
X166293800Y-76205400D01*
X166547800Y-76205400D01*
X166547800Y-76225400D01*
X167907017Y-76225400D01*
X168028158Y-75993374D01*
X168025509Y-75977609D01*
X167771532Y-75450364D01*
X167355731Y-75078861D01*
X167552476Y-74947400D01*
X170662600Y-74947400D01*
X171096946Y-74861003D01*
X171465166Y-74614966D01*
X172252566Y-73827566D01*
X172364530Y-73660000D01*
X172498603Y-73459346D01*
X172585000Y-73025000D01*
X172585000Y-68770500D01*
X185070155Y-68770500D01*
X185184229Y-69343989D01*
X185509085Y-69830170D01*
X185823866Y-70040500D01*
X185509085Y-70250830D01*
X185184229Y-70737011D01*
X185070155Y-71310500D01*
X185184229Y-71883989D01*
X185509085Y-72370170D01*
X185823866Y-72580500D01*
X185509085Y-72790830D01*
X185184229Y-73277011D01*
X185070155Y-73850500D01*
X185184229Y-74423989D01*
X185509085Y-74910170D01*
X185823866Y-75120500D01*
X185509085Y-75330830D01*
X185184229Y-75817011D01*
X185070155Y-76390500D01*
X185184229Y-76963989D01*
X185509085Y-77450170D01*
X185823866Y-77660500D01*
X185509085Y-77870830D01*
X185184229Y-78357011D01*
X185070155Y-78930500D01*
X185184229Y-79503989D01*
X185509085Y-79990170D01*
X185995266Y-80315026D01*
X186568755Y-80429100D01*
X186938245Y-80429100D01*
X187511734Y-80315026D01*
X187885176Y-80065500D01*
X190055500Y-80065500D01*
X190489846Y-79979103D01*
X190858066Y-79733066D01*
X191574132Y-79017000D01*
X192908353Y-79017000D01*
X193021021Y-79092282D01*
X193522336Y-79192000D01*
X193573664Y-79192000D01*
X194074979Y-79092282D01*
X194499974Y-78808310D01*
X194783946Y-78383315D01*
X194883664Y-77882000D01*
X194783946Y-77380685D01*
X194499974Y-76955690D01*
X194389689Y-76882000D01*
X194499974Y-76808310D01*
X194783946Y-76383315D01*
X194883664Y-75882000D01*
X194783946Y-75380685D01*
X194499974Y-74955690D01*
X194389689Y-74882000D01*
X194499974Y-74808310D01*
X194783946Y-74383315D01*
X194883664Y-73882000D01*
X194783946Y-73380685D01*
X194582992Y-73079936D01*
X194674441Y-73021090D01*
X194819431Y-72808890D01*
X194870440Y-72557000D01*
X194870440Y-71207000D01*
X194826162Y-70971683D01*
X194687090Y-70755559D01*
X194474890Y-70610569D01*
X194223000Y-70559560D01*
X192873000Y-70559560D01*
X192637683Y-70603838D01*
X192421559Y-70742910D01*
X192418764Y-70747000D01*
X190716132Y-70747000D01*
X190477066Y-70507934D01*
X190203880Y-70325397D01*
X190108846Y-70261897D01*
X189674500Y-70175500D01*
X187885176Y-70175500D01*
X187683134Y-70040500D01*
X187997915Y-69830170D01*
X188322771Y-69343989D01*
X188436845Y-68770500D01*
X188322771Y-68197011D01*
X187997915Y-67710830D01*
X187983587Y-67701257D01*
X188004817Y-67697262D01*
X188220941Y-67558190D01*
X188365931Y-67345990D01*
X188416940Y-67094100D01*
X188416940Y-65366900D01*
X188372662Y-65131583D01*
X188233590Y-64915459D01*
X188021390Y-64770469D01*
X187769500Y-64719460D01*
X185737500Y-64719460D01*
X185502183Y-64763738D01*
X185286059Y-64902810D01*
X185141069Y-65115010D01*
X185090060Y-65366900D01*
X185090060Y-67094100D01*
X185134338Y-67329417D01*
X185273410Y-67545541D01*
X185485610Y-67690531D01*
X185526939Y-67698900D01*
X185509085Y-67710830D01*
X185184229Y-68197011D01*
X185070155Y-68770500D01*
X172585000Y-68770500D01*
X172585000Y-59690000D01*
X172498603Y-59255654D01*
X172252566Y-58887434D01*
X167995304Y-54630172D01*
X195452538Y-54630172D01*
X195857709Y-55610761D01*
X196607293Y-56361655D01*
X197587173Y-56768536D01*
X198648172Y-56769462D01*
X199628761Y-56364291D01*
X200379655Y-55614707D01*
X200786536Y-54634827D01*
X200787462Y-53573828D01*
X200382291Y-52593239D01*
X199632707Y-51842345D01*
X198652827Y-51435464D01*
X197591828Y-51434538D01*
X196611239Y-51839709D01*
X195860345Y-52589293D01*
X195453464Y-53569173D01*
X195452538Y-54630172D01*
X167995304Y-54630172D01*
X165267566Y-51902434D01*
X164899346Y-51656397D01*
X164465000Y-51570000D01*
X156210000Y-51570000D01*
X155775655Y-51656396D01*
X155407434Y-51902434D01*
X154772434Y-52537434D01*
X154526397Y-52905654D01*
X154440000Y-53340000D01*
X154440000Y-87794868D01*
X141769868Y-100465000D01*
X141605000Y-100465000D01*
X141170654Y-100551397D01*
X140882998Y-100743603D01*
X140802434Y-100797434D01*
X139532434Y-102067434D01*
X139286397Y-102435654D01*
X139200000Y-102870000D01*
X124033132Y-102870000D01*
X129248132Y-97655000D01*
X133488324Y-97655000D01*
X133690366Y-97790000D01*
X133375585Y-98000330D01*
X133050729Y-98486511D01*
X132936655Y-99060000D01*
X133050729Y-99633489D01*
X133375585Y-100119670D01*
X133861766Y-100444526D01*
X134435255Y-100558600D01*
X134804745Y-100558600D01*
X135378234Y-100444526D01*
X135864415Y-100119670D01*
X136189271Y-99633489D01*
X136303345Y-99060000D01*
X136189271Y-98486511D01*
X135864415Y-98000330D01*
X135549634Y-97790000D01*
X135864415Y-97579670D01*
X136189271Y-97093489D01*
X136303345Y-96520000D01*
X136189271Y-95946511D01*
X135864415Y-95460330D01*
X135549634Y-95250000D01*
X135864415Y-95039670D01*
X136189271Y-94553489D01*
X136303345Y-93980000D01*
X136189271Y-93406511D01*
X135864415Y-92920330D01*
X135549634Y-92710000D01*
X135864415Y-92499670D01*
X136189271Y-92013489D01*
X136303345Y-91440000D01*
X136189271Y-90866511D01*
X135864415Y-90380330D01*
X135549634Y-90170000D01*
X135864415Y-89959670D01*
X136189271Y-89473489D01*
X136303345Y-88900000D01*
X136189271Y-88326511D01*
X135864415Y-87840330D01*
X135549634Y-87630000D01*
X135864415Y-87419670D01*
X136189271Y-86933489D01*
X136303345Y-86360000D01*
X136189271Y-85786511D01*
X135864415Y-85300330D01*
X135549634Y-85090000D01*
X135864415Y-84879670D01*
X136189271Y-84393489D01*
X136303345Y-83820000D01*
X136189271Y-83246511D01*
X135864415Y-82760330D01*
X135549634Y-82550000D01*
X135864415Y-82339670D01*
X136189271Y-81853489D01*
X136303345Y-81280000D01*
X136189271Y-80706511D01*
X135864415Y-80220330D01*
X135549634Y-80010000D01*
X135864415Y-79799670D01*
X136189271Y-79313489D01*
X136303345Y-78740000D01*
X136189271Y-78166511D01*
X135864415Y-77680330D01*
X135549634Y-77470000D01*
X135864415Y-77259670D01*
X136189271Y-76773489D01*
X136303345Y-76200000D01*
X136189271Y-75626511D01*
X135864415Y-75140330D01*
X135549634Y-74930000D01*
X135864415Y-74719670D01*
X136189271Y-74233489D01*
X136303345Y-73660000D01*
X136189271Y-73086511D01*
X135864415Y-72600330D01*
X135549634Y-72390000D01*
X135864415Y-72179670D01*
X136189271Y-71693489D01*
X136303345Y-71120000D01*
X136189271Y-70546511D01*
X135864415Y-70060330D01*
X135549634Y-69850000D01*
X135864415Y-69639670D01*
X136189271Y-69153489D01*
X136303345Y-68580000D01*
X136189271Y-68006511D01*
X135864415Y-67520330D01*
X135549634Y-67310000D01*
X135864415Y-67099670D01*
X136189271Y-66613489D01*
X136303345Y-66040000D01*
X136189271Y-65466511D01*
X135864415Y-64980330D01*
X135554931Y-64773539D01*
X135970732Y-64402036D01*
X136224709Y-63874791D01*
X136227358Y-63859026D01*
X136106217Y-63627000D01*
X134747000Y-63627000D01*
X134747000Y-63647000D01*
X134493000Y-63647000D01*
X134493000Y-63627000D01*
X133133783Y-63627000D01*
X133012642Y-63859026D01*
X133015291Y-63874791D01*
X133269268Y-64402036D01*
X133685069Y-64773539D01*
X133375585Y-64980330D01*
X133050729Y-65466511D01*
X132936655Y-66040000D01*
X133050729Y-66613489D01*
X133375585Y-67099670D01*
X133690366Y-67310000D01*
X133375585Y-67520330D01*
X133050729Y-68006511D01*
X132936655Y-68580000D01*
X133050729Y-69153489D01*
X133375585Y-69639670D01*
X133690366Y-69850000D01*
X133375585Y-70060330D01*
X133050729Y-70546511D01*
X132936655Y-71120000D01*
X133050729Y-71693489D01*
X133375585Y-72179670D01*
X133690366Y-72390000D01*
X133488324Y-72525000D01*
X132080000Y-72525000D01*
X131645655Y-72611396D01*
X131277434Y-72857433D01*
X125562434Y-78572434D01*
X125316397Y-78940654D01*
X125230000Y-79375000D01*
X125230000Y-87794868D01*
X115099868Y-97925000D01*
X106515132Y-97925000D01*
X105783000Y-97192868D01*
X105783000Y-84800649D01*
X105899317Y-84778762D01*
X106115441Y-84639690D01*
X106260431Y-84427490D01*
X106311440Y-84175600D01*
X106311440Y-82448400D01*
X106267162Y-82213083D01*
X106128090Y-81996959D01*
X105915890Y-81851969D01*
X105874561Y-81843600D01*
X105892415Y-81831670D01*
X106217271Y-81345489D01*
X106331345Y-80772000D01*
X106217271Y-80198511D01*
X105892415Y-79712330D01*
X105577634Y-79502000D01*
X105892415Y-79291670D01*
X106217271Y-78805489D01*
X106331345Y-78232000D01*
X106217271Y-77658511D01*
X105892415Y-77172330D01*
X105577634Y-76962000D01*
X105892415Y-76751670D01*
X106217271Y-76265489D01*
X106331345Y-75692000D01*
X106217271Y-75118511D01*
X105892415Y-74632330D01*
X105582931Y-74425539D01*
X105998732Y-74054036D01*
X106252709Y-73526791D01*
X106255358Y-73511026D01*
X106134217Y-73279000D01*
X104775000Y-73279000D01*
X104775000Y-73299000D01*
X104521000Y-73299000D01*
X104521000Y-73279000D01*
X103161783Y-73279000D01*
X103040642Y-73511026D01*
X103043291Y-73526791D01*
X103297268Y-74054036D01*
X103713069Y-74425539D01*
X103403585Y-74632330D01*
X103078729Y-75118511D01*
X102964655Y-75692000D01*
X103078729Y-76265489D01*
X103403585Y-76751670D01*
X103718366Y-76962000D01*
X103403585Y-77172330D01*
X103078729Y-77658511D01*
X102964655Y-78232000D01*
X103078729Y-78805489D01*
X103403585Y-79291670D01*
X103718366Y-79502000D01*
X103403585Y-79712330D01*
X103078729Y-80198511D01*
X102964655Y-80772000D01*
X103078729Y-81345489D01*
X103403585Y-81831670D01*
X103417913Y-81841243D01*
X103396683Y-81845238D01*
X103180559Y-81984310D01*
X103035569Y-82196510D01*
X102984560Y-82448400D01*
X102984560Y-84175600D01*
X103028838Y-84410917D01*
X103167910Y-84627041D01*
X103380110Y-84772031D01*
X103513000Y-84798942D01*
X103513000Y-97663000D01*
X103599397Y-98097346D01*
X103733470Y-98298000D01*
X103845434Y-98465566D01*
X105242434Y-99862566D01*
X105610654Y-100108603D01*
X106045000Y-100195000D01*
X115570000Y-100195000D01*
X116004346Y-100108603D01*
X116372566Y-99862566D01*
X127167566Y-89067566D01*
X127413603Y-88699346D01*
X127460087Y-88465654D01*
X127500000Y-88265000D01*
X127500000Y-79845132D01*
X132550133Y-74795000D01*
X133488324Y-74795000D01*
X133690366Y-74930000D01*
X133375585Y-75140330D01*
X133050729Y-75626511D01*
X132936655Y-76200000D01*
X133050729Y-76773489D01*
X133375585Y-77259670D01*
X133690366Y-77470000D01*
X133375585Y-77680330D01*
X133050729Y-78166511D01*
X132936655Y-78740000D01*
X133050729Y-79313489D01*
X133375585Y-79799670D01*
X133690366Y-80010000D01*
X133488324Y-80145000D01*
X132588000Y-80145000D01*
X132153654Y-80231397D01*
X131865998Y-80423603D01*
X131785434Y-80477434D01*
X129753434Y-82509434D01*
X129507397Y-82877654D01*
X129421000Y-83312000D01*
X129421000Y-89953868D01*
X117639868Y-101735000D01*
X105626132Y-101735000D01*
X101211000Y-97319868D01*
X101211000Y-87122000D01*
X101124603Y-86687654D01*
X100878566Y-86319434D01*
X100449000Y-85889868D01*
X100449000Y-62700132D01*
X100974566Y-62174566D01*
X101078064Y-62019670D01*
X101220603Y-61806346D01*
X101307000Y-61372000D01*
X101307000Y-58396940D01*
X101670685Y-58639946D01*
X102172000Y-58739664D01*
X102673315Y-58639946D01*
X103037000Y-58396940D01*
X103037000Y-59722000D01*
X103123397Y-60156346D01*
X103348052Y-60492566D01*
X103369434Y-60524566D01*
X114259434Y-71414566D01*
X114627655Y-71660604D01*
X115062000Y-71747000D01*
X116216324Y-71747000D01*
X116418366Y-71882000D01*
X116103585Y-72092330D01*
X115778729Y-72578511D01*
X115664655Y-73152000D01*
X115778729Y-73725489D01*
X116103585Y-74211670D01*
X116418366Y-74422000D01*
X116103585Y-74632330D01*
X115778729Y-75118511D01*
X115664655Y-75692000D01*
X115778729Y-76265489D01*
X116103585Y-76751670D01*
X116418366Y-76962000D01*
X116103585Y-77172330D01*
X115778729Y-77658511D01*
X115664655Y-78232000D01*
X115778729Y-78805489D01*
X116103585Y-79291670D01*
X116418366Y-79502000D01*
X116103585Y-79712330D01*
X115778729Y-80198511D01*
X115664655Y-80772000D01*
X115778729Y-81345489D01*
X116103585Y-81831670D01*
X116117913Y-81841243D01*
X116096683Y-81845238D01*
X115880559Y-81984310D01*
X115735569Y-82196510D01*
X115684560Y-82448400D01*
X115684560Y-83370308D01*
X113497434Y-85557434D01*
X113251397Y-85925654D01*
X113165000Y-86360000D01*
X113165000Y-89914974D01*
X113135699Y-89885673D01*
X112902310Y-89789000D01*
X112045750Y-89789000D01*
X111887000Y-89947750D01*
X111887000Y-91313000D01*
X111907000Y-91313000D01*
X111907000Y-91567000D01*
X111887000Y-91567000D01*
X111887000Y-92932250D01*
X112045750Y-93091000D01*
X112902310Y-93091000D01*
X113135699Y-92994327D01*
X113314327Y-92815698D01*
X113331999Y-92773034D01*
X113668190Y-92997670D01*
X114300000Y-93123345D01*
X114931810Y-92997670D01*
X114978184Y-92966684D01*
X114464868Y-93480000D01*
X110960132Y-93480000D01*
X110538210Y-93058078D01*
X110617690Y-93091000D01*
X111474250Y-93091000D01*
X111633000Y-92932250D01*
X111633000Y-91567000D01*
X110267750Y-91567000D01*
X110109000Y-91725750D01*
X110109000Y-92582309D01*
X110141922Y-92661790D01*
X109720000Y-92239868D01*
X109720000Y-90297691D01*
X110109000Y-90297691D01*
X110109000Y-91154250D01*
X110267750Y-91313000D01*
X111633000Y-91313000D01*
X111633000Y-89947750D01*
X111474250Y-89789000D01*
X110617690Y-89789000D01*
X110384301Y-89885673D01*
X110205673Y-90064302D01*
X110109000Y-90297691D01*
X109720000Y-90297691D01*
X109720000Y-89370132D01*
X110657566Y-88432566D01*
X110769530Y-88265000D01*
X110903603Y-88064346D01*
X110990000Y-87630000D01*
X110990000Y-71374000D01*
X110903603Y-70939654D01*
X110657566Y-70571434D01*
X109895566Y-69809434D01*
X109622380Y-69626897D01*
X109527346Y-69563397D01*
X109093000Y-69477000D01*
X105779676Y-69477000D01*
X105406234Y-69227474D01*
X104832745Y-69113400D01*
X104463255Y-69113400D01*
X103889766Y-69227474D01*
X103403585Y-69552330D01*
X103078729Y-70038511D01*
X102964655Y-70612000D01*
X103078729Y-71185489D01*
X103403585Y-71671670D01*
X103713069Y-71878461D01*
X103297268Y-72249964D01*
X103043291Y-72777209D01*
X103040642Y-72792974D01*
X103161783Y-73025000D01*
X104521000Y-73025000D01*
X104521000Y-73005000D01*
X104775000Y-73005000D01*
X104775000Y-73025000D01*
X106134217Y-73025000D01*
X106255358Y-72792974D01*
X106252709Y-72777209D01*
X105998732Y-72249964D01*
X105582931Y-71878461D01*
X105779676Y-71747000D01*
X108622868Y-71747000D01*
X108720000Y-71844132D01*
X108720000Y-87159868D01*
X107782434Y-88097434D01*
X107536397Y-88465654D01*
X107450000Y-88900000D01*
X107450000Y-92710000D01*
X107536397Y-93144346D01*
X107711570Y-93406511D01*
X107782434Y-93512566D01*
X109687434Y-95417566D01*
X110055654Y-95663603D01*
X110490000Y-95750000D01*
X114935000Y-95750000D01*
X115369346Y-95663603D01*
X115737566Y-95417566D01*
X120182566Y-90972566D01*
X120314011Y-90775845D01*
X120428603Y-90604346D01*
X120515000Y-90170000D01*
X120515000Y-86830132D01*
X123357566Y-83987566D01*
X123469530Y-83820000D01*
X123603603Y-83619346D01*
X123690000Y-83185000D01*
X123690000Y-67145132D01*
X128740133Y-62095000D01*
X133488324Y-62095000D01*
X133685069Y-62226461D01*
X133269268Y-62597964D01*
X133015291Y-63125209D01*
X133012642Y-63140974D01*
X133133783Y-63373000D01*
X134493000Y-63373000D01*
X134493000Y-63353000D01*
X134747000Y-63353000D01*
X134747000Y-63373000D01*
X136106217Y-63373000D01*
X136227358Y-63140974D01*
X136224709Y-63125209D01*
X135970732Y-62597964D01*
X135554931Y-62226461D01*
X135864415Y-62019670D01*
X136189271Y-61533489D01*
X136303345Y-60960000D01*
X136189271Y-60386511D01*
X135864415Y-59900330D01*
X135549634Y-59690000D01*
X135864415Y-59479670D01*
X136189271Y-58993489D01*
X136303345Y-58420000D01*
X136189271Y-57846511D01*
X135864415Y-57360330D01*
X135842220Y-57345500D01*
X135995698Y-57281927D01*
X136174327Y-57103299D01*
X136271000Y-56869910D01*
X136271000Y-56165750D01*
X136112250Y-56007000D01*
X134747000Y-56007000D01*
X134747000Y-56027000D01*
X134493000Y-56027000D01*
X134493000Y-56007000D01*
X133127750Y-56007000D01*
X132969000Y-56165750D01*
X132969000Y-56869910D01*
X133065673Y-57103299D01*
X133244302Y-57281927D01*
X133251721Y-57285000D01*
X127000000Y-57285000D01*
X126565654Y-57371397D01*
X126197434Y-57617434D01*
X116545434Y-67269434D01*
X116299397Y-67637654D01*
X116213000Y-68072000D01*
X116213000Y-69477000D01*
X115532132Y-69477000D01*
X105307000Y-59251868D01*
X105307000Y-58687619D01*
X105370690Y-58714000D01*
X105886250Y-58714000D01*
X106045000Y-58555250D01*
X106045000Y-57531000D01*
X106299000Y-57531000D01*
X106299000Y-58555250D01*
X106457750Y-58714000D01*
X106973310Y-58714000D01*
X107206699Y-58617327D01*
X107385327Y-58438698D01*
X107482000Y-58205309D01*
X107482000Y-57689750D01*
X107323250Y-57531000D01*
X106299000Y-57531000D01*
X106045000Y-57531000D01*
X106025000Y-57531000D01*
X106025000Y-57277000D01*
X106045000Y-57277000D01*
X106045000Y-56252750D01*
X106299000Y-56252750D01*
X106299000Y-57277000D01*
X107323250Y-57277000D01*
X107482000Y-57118250D01*
X107482000Y-56602691D01*
X107385327Y-56369302D01*
X107206699Y-56190673D01*
X106973310Y-56094000D01*
X106457750Y-56094000D01*
X106299000Y-56252750D01*
X106045000Y-56252750D01*
X105886250Y-56094000D01*
X105370690Y-56094000D01*
X105137301Y-56190673D01*
X104965014Y-56362961D01*
X104673315Y-56168054D01*
X104172000Y-56068336D01*
X103670685Y-56168054D01*
X103307000Y-56411060D01*
X103307000Y-55436000D01*
X103220603Y-55001654D01*
X103146059Y-54890090D01*
X132969000Y-54890090D01*
X132969000Y-55594250D01*
X133127750Y-55753000D01*
X134493000Y-55753000D01*
X134493000Y-54540150D01*
X134747000Y-54540150D01*
X134747000Y-55753000D01*
X136112250Y-55753000D01*
X136271000Y-55594250D01*
X136271000Y-54890090D01*
X136174327Y-54656701D01*
X135995698Y-54478073D01*
X135762309Y-54381400D01*
X134905750Y-54381400D01*
X134747000Y-54540150D01*
X134493000Y-54540150D01*
X134334250Y-54381400D01*
X133477691Y-54381400D01*
X133244302Y-54478073D01*
X133065673Y-54656701D01*
X132969000Y-54890090D01*
X103146059Y-54890090D01*
X102974566Y-54633434D01*
X101386566Y-53045434D01*
X101177372Y-52905655D01*
X101018346Y-52799397D01*
X100584000Y-52713000D01*
X97790000Y-52713000D01*
X97355654Y-52799397D01*
X97196628Y-52905655D01*
X96987434Y-53045434D01*
X94701434Y-55331434D01*
X94455397Y-55699654D01*
X94369000Y-56134000D01*
X92150000Y-56134000D01*
X92150000Y-50494000D01*
X201474000Y-50494000D01*
X201474000Y-109526000D01*
G36*
X170315000Y-60160132D02*
X170315000Y-72554868D01*
X170192468Y-72677400D01*
X167552476Y-72677400D01*
X167350434Y-72542400D01*
X167665215Y-72332070D01*
X167990071Y-71845889D01*
X168104145Y-71272400D01*
X167990071Y-70698911D01*
X167665215Y-70212730D01*
X167650887Y-70203157D01*
X167672117Y-70199162D01*
X167888241Y-70060090D01*
X168033231Y-69847890D01*
X168084240Y-69596000D01*
X168084240Y-67868800D01*
X168039962Y-67633483D01*
X167900890Y-67417359D01*
X167688690Y-67272369D01*
X167555800Y-67245458D01*
X167555800Y-63550800D01*
X167469403Y-63116454D01*
X167223366Y-62748234D01*
X162092566Y-57617434D01*
X161724346Y-57371397D01*
X161290000Y-57285000D01*
X161151676Y-57285000D01*
X160954931Y-57153539D01*
X161370732Y-56782036D01*
X161624709Y-56254791D01*
X161627358Y-56239026D01*
X161506217Y-56007000D01*
X160147000Y-56007000D01*
X160147000Y-56027000D01*
X159893000Y-56027000D01*
X159893000Y-56007000D01*
X158533783Y-56007000D01*
X158412642Y-56239026D01*
X158415291Y-56254791D01*
X158669268Y-56782036D01*
X159085069Y-57153539D01*
X158775585Y-57360330D01*
X158450729Y-57846511D01*
X158336655Y-58420000D01*
X158450729Y-58993489D01*
X158775585Y-59479670D01*
X159090366Y-59690000D01*
X158775585Y-59900330D01*
X158450729Y-60386511D01*
X158336655Y-60960000D01*
X158450729Y-61533489D01*
X158775585Y-62019670D01*
X159090366Y-62230000D01*
X158775585Y-62440330D01*
X158450729Y-62926511D01*
X158336655Y-63500000D01*
X158450729Y-64073489D01*
X158775585Y-64559670D01*
X159090366Y-64770000D01*
X158775585Y-64980330D01*
X158450729Y-65466511D01*
X158336655Y-66040000D01*
X158450729Y-66613489D01*
X158775585Y-67099670D01*
X159090366Y-67310000D01*
X158775585Y-67520330D01*
X158450729Y-68006511D01*
X158336655Y-68580000D01*
X158450729Y-69153489D01*
X158775585Y-69639670D01*
X159090366Y-69850000D01*
X158775585Y-70060330D01*
X158450729Y-70546511D01*
X158336655Y-71120000D01*
X158450729Y-71693489D01*
X158775585Y-72179670D01*
X159090366Y-72390000D01*
X158775585Y-72600330D01*
X158450729Y-73086511D01*
X158336655Y-73660000D01*
X158450729Y-74233489D01*
X158775585Y-74719670D01*
X159090366Y-74930000D01*
X158775585Y-75140330D01*
X158450729Y-75626511D01*
X158336655Y-76200000D01*
X158450729Y-76773489D01*
X158775585Y-77259670D01*
X159090366Y-77470000D01*
X158775585Y-77680330D01*
X158450729Y-78166511D01*
X158336655Y-78740000D01*
X158450729Y-79313489D01*
X158775585Y-79799670D01*
X159090366Y-80010000D01*
X158775585Y-80220330D01*
X158450729Y-80706511D01*
X158336655Y-81280000D01*
X158450729Y-81853489D01*
X158775585Y-82339670D01*
X159090366Y-82550000D01*
X158775585Y-82760330D01*
X158450729Y-83246511D01*
X158336655Y-83820000D01*
X158450729Y-84393489D01*
X158775585Y-84879670D01*
X159090366Y-85090000D01*
X158775585Y-85300330D01*
X158450729Y-85786511D01*
X158336655Y-86360000D01*
X158450729Y-86933489D01*
X158775585Y-87419670D01*
X159090366Y-87630000D01*
X158775585Y-87840330D01*
X158450729Y-88326511D01*
X158336655Y-88900000D01*
X158450729Y-89473489D01*
X158775585Y-89959670D01*
X159090366Y-90170000D01*
X158775585Y-90380330D01*
X158450729Y-90866511D01*
X158336655Y-91440000D01*
X158450729Y-92013489D01*
X158775585Y-92499670D01*
X159090366Y-92710000D01*
X158775585Y-92920330D01*
X158450729Y-93406511D01*
X158336655Y-93980000D01*
X158450729Y-94553489D01*
X158775585Y-95039670D01*
X159090366Y-95250000D01*
X158888324Y-95385000D01*
X153670000Y-95385000D01*
X153235655Y-95471396D01*
X152867434Y-95717433D01*
X147152434Y-101432434D01*
X146906397Y-101800654D01*
X146820000Y-102235000D01*
X146820000Y-103133951D01*
X146703683Y-103155838D01*
X146487559Y-103294910D01*
X146376160Y-103457948D01*
X146279818Y-103368615D01*
X145797944Y-103169025D01*
X145542000Y-103288164D01*
X145542000Y-104648000D01*
X145562000Y-104648000D01*
X145562000Y-104902000D01*
X145542000Y-104902000D01*
X145542000Y-104922000D01*
X145288000Y-104922000D01*
X145288000Y-104902000D01*
X143927633Y-104902000D01*
X143809017Y-105157946D01*
X144077812Y-105743379D01*
X144548688Y-106180000D01*
X143345133Y-106180000D01*
X141557187Y-104392054D01*
X143809017Y-104392054D01*
X143927633Y-104648000D01*
X145288000Y-104648000D01*
X145288000Y-103288164D01*
X145032056Y-103169025D01*
X144550182Y-103368615D01*
X144077812Y-103806621D01*
X143809017Y-104392054D01*
X141557187Y-104392054D01*
X141470000Y-104304868D01*
X141470000Y-103340132D01*
X142075132Y-102735000D01*
X142240000Y-102735000D01*
X142674346Y-102648603D01*
X143042566Y-102402566D01*
X156377566Y-89067566D01*
X156579734Y-88765000D01*
X156623603Y-88699346D01*
X156710000Y-88265000D01*
X156710000Y-55520974D01*
X158412642Y-55520974D01*
X158533783Y-55753000D01*
X159893000Y-55753000D01*
X159893000Y-54539076D01*
X160147000Y-54539076D01*
X160147000Y-55753000D01*
X161506217Y-55753000D01*
X161627358Y-55520974D01*
X161624709Y-55505209D01*
X161370732Y-54977964D01*
X160934320Y-54588046D01*
X160381913Y-54394816D01*
X160147000Y-54539076D01*
X159893000Y-54539076D01*
X159658087Y-54394816D01*
X159105680Y-54588046D01*
X158669268Y-54977964D01*
X158415291Y-55505209D01*
X158412642Y-55520974D01*
X156710000Y-55520974D01*
X156710000Y-53840000D01*
X163994868Y-53840000D01*
X170315000Y-60160132D01*
X170315000Y-60160132D01*
G37*
X170315000Y-60160132D02*
X170315000Y-72554868D01*
X170192468Y-72677400D01*
X167552476Y-72677400D01*
X167350434Y-72542400D01*
X167665215Y-72332070D01*
X167990071Y-71845889D01*
X168104145Y-71272400D01*
X167990071Y-70698911D01*
X167665215Y-70212730D01*
X167650887Y-70203157D01*
X167672117Y-70199162D01*
X167888241Y-70060090D01*
X168033231Y-69847890D01*
X168084240Y-69596000D01*
X168084240Y-67868800D01*
X168039962Y-67633483D01*
X167900890Y-67417359D01*
X167688690Y-67272369D01*
X167555800Y-67245458D01*
X167555800Y-63550800D01*
X167469403Y-63116454D01*
X167223366Y-62748234D01*
X162092566Y-57617434D01*
X161724346Y-57371397D01*
X161290000Y-57285000D01*
X161151676Y-57285000D01*
X160954931Y-57153539D01*
X161370732Y-56782036D01*
X161624709Y-56254791D01*
X161627358Y-56239026D01*
X161506217Y-56007000D01*
X160147000Y-56007000D01*
X160147000Y-56027000D01*
X159893000Y-56027000D01*
X159893000Y-56007000D01*
X158533783Y-56007000D01*
X158412642Y-56239026D01*
X158415291Y-56254791D01*
X158669268Y-56782036D01*
X159085069Y-57153539D01*
X158775585Y-57360330D01*
X158450729Y-57846511D01*
X158336655Y-58420000D01*
X158450729Y-58993489D01*
X158775585Y-59479670D01*
X159090366Y-59690000D01*
X158775585Y-59900330D01*
X158450729Y-60386511D01*
X158336655Y-60960000D01*
X158450729Y-61533489D01*
X158775585Y-62019670D01*
X159090366Y-62230000D01*
X158775585Y-62440330D01*
X158450729Y-62926511D01*
X158336655Y-63500000D01*
X158450729Y-64073489D01*
X158775585Y-64559670D01*
X159090366Y-64770000D01*
X158775585Y-64980330D01*
X158450729Y-65466511D01*
X158336655Y-66040000D01*
X158450729Y-66613489D01*
X158775585Y-67099670D01*
X159090366Y-67310000D01*
X158775585Y-67520330D01*
X158450729Y-68006511D01*
X158336655Y-68580000D01*
X158450729Y-69153489D01*
X158775585Y-69639670D01*
X159090366Y-69850000D01*
X158775585Y-70060330D01*
X158450729Y-70546511D01*
X158336655Y-71120000D01*
X158450729Y-71693489D01*
X158775585Y-72179670D01*
X159090366Y-72390000D01*
X158775585Y-72600330D01*
X158450729Y-73086511D01*
X158336655Y-73660000D01*
X158450729Y-74233489D01*
X158775585Y-74719670D01*
X159090366Y-74930000D01*
X158775585Y-75140330D01*
X158450729Y-75626511D01*
X158336655Y-76200000D01*
X158450729Y-76773489D01*
X158775585Y-77259670D01*
X159090366Y-77470000D01*
X158775585Y-77680330D01*
X158450729Y-78166511D01*
X158336655Y-78740000D01*
X158450729Y-79313489D01*
X158775585Y-79799670D01*
X159090366Y-80010000D01*
X158775585Y-80220330D01*
X158450729Y-80706511D01*
X158336655Y-81280000D01*
X158450729Y-81853489D01*
X158775585Y-82339670D01*
X159090366Y-82550000D01*
X158775585Y-82760330D01*
X158450729Y-83246511D01*
X158336655Y-83820000D01*
X158450729Y-84393489D01*
X158775585Y-84879670D01*
X159090366Y-85090000D01*
X158775585Y-85300330D01*
X158450729Y-85786511D01*
X158336655Y-86360000D01*
X158450729Y-86933489D01*
X158775585Y-87419670D01*
X159090366Y-87630000D01*
X158775585Y-87840330D01*
X158450729Y-88326511D01*
X158336655Y-88900000D01*
X158450729Y-89473489D01*
X158775585Y-89959670D01*
X159090366Y-90170000D01*
X158775585Y-90380330D01*
X158450729Y-90866511D01*
X158336655Y-91440000D01*
X158450729Y-92013489D01*
X158775585Y-92499670D01*
X159090366Y-92710000D01*
X158775585Y-92920330D01*
X158450729Y-93406511D01*
X158336655Y-93980000D01*
X158450729Y-94553489D01*
X158775585Y-95039670D01*
X159090366Y-95250000D01*
X158888324Y-95385000D01*
X153670000Y-95385000D01*
X153235655Y-95471396D01*
X152867434Y-95717433D01*
X147152434Y-101432434D01*
X146906397Y-101800654D01*
X146820000Y-102235000D01*
X146820000Y-103133951D01*
X146703683Y-103155838D01*
X146487559Y-103294910D01*
X146376160Y-103457948D01*
X146279818Y-103368615D01*
X145797944Y-103169025D01*
X145542000Y-103288164D01*
X145542000Y-104648000D01*
X145562000Y-104648000D01*
X145562000Y-104902000D01*
X145542000Y-104902000D01*
X145542000Y-104922000D01*
X145288000Y-104922000D01*
X145288000Y-104902000D01*
X143927633Y-104902000D01*
X143809017Y-105157946D01*
X144077812Y-105743379D01*
X144548688Y-106180000D01*
X143345133Y-106180000D01*
X141557187Y-104392054D01*
X143809017Y-104392054D01*
X143927633Y-104648000D01*
X145288000Y-104648000D01*
X145288000Y-103288164D01*
X145032056Y-103169025D01*
X144550182Y-103368615D01*
X144077812Y-103806621D01*
X143809017Y-104392054D01*
X141557187Y-104392054D01*
X141470000Y-104304868D01*
X141470000Y-103340132D01*
X142075132Y-102735000D01*
X142240000Y-102735000D01*
X142674346Y-102648603D01*
X143042566Y-102402566D01*
X156377566Y-89067566D01*
X156579734Y-88765000D01*
X156623603Y-88699346D01*
X156710000Y-88265000D01*
X156710000Y-55520974D01*
X158412642Y-55520974D01*
X158533783Y-55753000D01*
X159893000Y-55753000D01*
X159893000Y-54539076D01*
X160147000Y-54539076D01*
X160147000Y-55753000D01*
X161506217Y-55753000D01*
X161627358Y-55520974D01*
X161624709Y-55505209D01*
X161370732Y-54977964D01*
X160934320Y-54588046D01*
X160381913Y-54394816D01*
X160147000Y-54539076D01*
X159893000Y-54539076D01*
X159658087Y-54394816D01*
X159105680Y-54588046D01*
X158669268Y-54977964D01*
X158415291Y-55505209D01*
X158412642Y-55520974D01*
X156710000Y-55520974D01*
X156710000Y-53840000D01*
X163994868Y-53840000D01*
X170315000Y-60160132D01*
M02*
