<?xml version="1.0" standalone="no"?>
 <!DOCTYPE svg PUBLIC "-//W3C//DTD SVG 1.1//EN" 
 "http://www.w3.org/Graphics/SVG/1.1/DTD/svg11.dtd"> 
<svg xmlns="http://www.w3.org/2000/svg" version="1.1" 
    width="29.7002cm" height="21.0007cm" viewBox="0 0 116930 82680 ">
<title>SVG Picture created as Telescopio-B.Cu.svg date 2018/03/02 17:51:30 </title>
  <desc>Picture generated by PCBNEW </desc>
<g style="fill:#000000; fill-opacity:1;stroke:#000000; stroke-opacity:1;
stroke-linecap:round; stroke-linejoin:round; "
 transform="translate(0 0) scale(1 1)">
</g>
<g style="fill:#000000; fill-opacity:0.0; 
stroke:#000000; stroke-width:-0.000393701; stroke-opacity:1; 
stroke-linecap:round; stroke-linejoin:round;">
</g>
<g style="fill:#000000; fill-opacity:0.0; 
stroke:#000000; stroke-width:0; stroke-opacity:1; 
stroke-linecap:round; stroke-linejoin:round;">
</g>
<g style="fill:#000000; fill-opacity:1.0; 
stroke:#000000; stroke-width:0; stroke-opacity:1; 
stroke-linecap:round; stroke-linejoin:round;">
<polyline style="fill-rule:evenodd;"
points="41600,32460
41600,33140
40800,33140
40800,32460
41600,32460
" /> 
</g>
<g style="fill:#000000; fill-opacity:1.0; 
stroke:#000000; stroke-width:680; stroke-opacity:1; 
stroke-linecap:round; stroke-linejoin:round;">
</g>
<g style="fill:#000000; fill-opacity:0.0; 
stroke:#000000; stroke-width:680; stroke-opacity:1; 
stroke-linecap:round; stroke-linejoin:round;">
<path d="M41260 31800
L41140 31800
" />
<path d="M41260 30800
L41140 30800
" />
<path d="M41260 29800
L41140 29800
" />
<path d="M41260 28800
L41140 28800
" />
<path d="M41260 27800
L41140 27800
" />
</g>
<g style="fill:#000000; fill-opacity:0.0; 
stroke:#000000; stroke-width:0; stroke-opacity:1; 
stroke-linecap:round; stroke-linejoin:round;">
</g>
<g style="fill:#000000; fill-opacity:1.0; 
stroke:#000000; stroke-width:0; stroke-opacity:1; 
stroke-linecap:round; stroke-linejoin:round;">
<polyline style="fill-rule:evenodd;"
points="65120,27400
65120,26720
65920,26720
65920,27400
65120,27400
" /> 
</g>
<g style="fill:#000000; fill-opacity:1.0; 
stroke:#000000; stroke-width:680; stroke-opacity:1; 
stroke-linecap:round; stroke-linejoin:round;">
</g>
<g style="fill:#000000; fill-opacity:0.0; 
stroke:#000000; stroke-width:680; stroke-opacity:1; 
stroke-linecap:round; stroke-linejoin:round;">
<path d="M65460 28060
L65580 28060
" />
<path d="M65460 29060
L65580 29060
" />
<path d="M65460 30060
L65580 30060
" />
</g>
<g style="fill:#000000; fill-opacity:0.0; 
stroke:#000000; stroke-width:0; stroke-opacity:1; 
stroke-linecap:round; stroke-linejoin:round;">
</g>
<g style="fill:#000000; fill-opacity:1.0; 
stroke:#000000; stroke-width:0; stroke-opacity:1; 
stroke-linecap:round; stroke-linejoin:round;">
<polyline style="fill-rule:evenodd;"
points="73125,26415
73125,25735
73925,25735
73925,26415
73125,26415
" /> 
</g>
<g style="fill:#000000; fill-opacity:1.0; 
stroke:#000000; stroke-width:680; stroke-opacity:1; 
stroke-linecap:round; stroke-linejoin:round;">
</g>
<g style="fill:#000000; fill-opacity:0.0; 
stroke:#000000; stroke-width:680; stroke-opacity:1; 
stroke-linecap:round; stroke-linejoin:round;">
<path d="M73465 27075
L73585 27075
" />
<path d="M73465 28075
L73585 28075
" />
<path d="M73465 29075
L73585 29075
" />
<path d="M73465 30075
L73585 30075
" />
<path d="M73465 31075
L73585 31075
" />
</g>
<g style="fill:#000000; fill-opacity:0.0; 
stroke:#000000; stroke-width:0; stroke-opacity:1; 
stroke-linecap:round; stroke-linejoin:round;">
</g>
<g style="fill:#000000; fill-opacity:1.0; 
stroke:#000000; stroke-width:0; stroke-opacity:1; 
stroke-linecap:round; stroke-linejoin:round;">
<polyline style="fill-rule:evenodd;"
points="46600,32460
46600,33140
45800,33140
45800,32460
46600,32460
" /> 
</g>
<g style="fill:#000000; fill-opacity:1.0; 
stroke:#000000; stroke-width:680; stroke-opacity:1; 
stroke-linecap:round; stroke-linejoin:round;">
</g>
<g style="fill:#000000; fill-opacity:0.0; 
stroke:#000000; stroke-width:680; stroke-opacity:1; 
stroke-linecap:round; stroke-linejoin:round;">
<path d="M46260 31800
L46140 31800
" />
<path d="M46260 30800
L46140 30800
" />
<path d="M46260 29800
L46140 29800
" />
<path d="M46260 28800
L46140 28800
" />
<path d="M46260 27800
L46140 27800
" />
</g>
<g style="fill:#000000; fill-opacity:0.0; 
stroke:#000000; stroke-width:0; stroke-opacity:1; 
stroke-linecap:round; stroke-linejoin:round;">
</g>
<g style="fill:#000000; fill-opacity:1.0; 
stroke:#000000; stroke-width:0; stroke-opacity:1; 
stroke-linecap:round; stroke-linejoin:round;">
<polyline style="fill-rule:evenodd;"
points="57850,40850
58650,40850
58650,41650
57850,41650
57850,40850
" /> 
</g>
<g style="fill:#000000; fill-opacity:1.0; 
stroke:#000000; stroke-width:800; stroke-opacity:1; 
stroke-linecap:round; stroke-linejoin:round;">
</g>
<g style="fill:#000000; fill-opacity:0.0; 
stroke:#000000; stroke-width:800; stroke-opacity:1; 
stroke-linecap:round; stroke-linejoin:round;">
<path d="M57250 41250
L57250 41250
" />
</g>
<g style="fill:#000000; fill-opacity:0.0; 
stroke:#000000; stroke-width:0; stroke-opacity:1; 
stroke-linecap:round; stroke-linejoin:round;">
</g>
<g style="fill:#000000; fill-opacity:1.0; 
stroke:#000000; stroke-width:0; stroke-opacity:1; 
stroke-linecap:round; stroke-linejoin:round;">
<polyline style="fill-rule:evenodd;"
points="44400,36400
43600,36400
43600,35600
44400,35600
44400,36400
" /> 
</g>
<g style="fill:#000000; fill-opacity:1.0; 
stroke:#000000; stroke-width:800; stroke-opacity:1; 
stroke-linecap:round; stroke-linejoin:round;">
</g>
<g style="fill:#000000; fill-opacity:0.0; 
stroke:#000000; stroke-width:800; stroke-opacity:1; 
stroke-linecap:round; stroke-linejoin:round;">
<path d="M45000 36000
L45000 36000
" />
</g>
<g style="fill:#000000; fill-opacity:0.0; 
stroke:#000000; stroke-width:0; stroke-opacity:1; 
stroke-linecap:round; stroke-linejoin:round;">
</g>
<g style="fill:#000000; fill-opacity:1.0; 
stroke:#000000; stroke-width:0; stroke-opacity:1; 
stroke-linecap:round; stroke-linejoin:round;">
<polyline style="fill-rule:evenodd;"
points="52600,22340
52600,21660
53400,21660
53400,22340
52600,22340
" /> 
</g>
<g style="fill:#000000; fill-opacity:1.0; 
stroke:#000000; stroke-width:680; stroke-opacity:1; 
stroke-linecap:round; stroke-linejoin:round;">
</g>
<g style="fill:#000000; fill-opacity:0.0; 
stroke:#000000; stroke-width:680; stroke-opacity:1; 
stroke-linecap:round; stroke-linejoin:round;">
<path d="M52940 23000
L53060 23000
" />
<path d="M52940 24000
L53060 24000
" />
<path d="M52940 25000
L53060 25000
" />
<path d="M52940 26000
L53060 26000
" />
<path d="M52940 27000
L53060 27000
" />
<path d="M52940 28000
L53060 28000
" />
<path d="M52940 29000
L53060 29000
" />
<path d="M52940 30000
L53060 30000
" />
<path d="M52940 31000
L53060 31000
" />
<path d="M52940 32000
L53060 32000
" />
<path d="M52940 33000
L53060 33000
" />
<path d="M52940 34000
L53060 34000
" />
<path d="M52940 35000
L53060 35000
" />
<path d="M52940 36000
L53060 36000
" />
<path d="M52940 37000
L53060 37000
" />
<path d="M52940 38000
L53060 38000
" />
<path d="M52940 39000
L53060 39000
" />
</g>
<g style="fill:#000000; fill-opacity:0.0; 
stroke:#000000; stroke-width:0; stroke-opacity:1; 
stroke-linecap:round; stroke-linejoin:round;">
</g>
<g style="fill:#000000; fill-opacity:1.0; 
stroke:#000000; stroke-width:0; stroke-opacity:1; 
stroke-linecap:round; stroke-linejoin:round;">
<polyline style="fill-rule:evenodd;"
points="63400,38660
63400,39340
62600,39340
62600,38660
63400,38660
" /> 
</g>
<g style="fill:#000000; fill-opacity:1.0; 
stroke:#000000; stroke-width:680; stroke-opacity:1; 
stroke-linecap:round; stroke-linejoin:round;">
</g>
<g style="fill:#000000; fill-opacity:0.0; 
stroke:#000000; stroke-width:680; stroke-opacity:1; 
stroke-linecap:round; stroke-linejoin:round;">
<path d="M63060 38000
L62940 38000
" />
<path d="M63060 37000
L62940 37000
" />
<path d="M63060 36000
L62940 36000
" />
<path d="M63060 35000
L62940 35000
" />
<path d="M63060 34000
L62940 34000
" />
<path d="M63060 33000
L62940 33000
" />
<path d="M63060 32000
L62940 32000
" />
<path d="M63060 31000
L62940 31000
" />
<path d="M63060 30000
L62940 30000
" />
<path d="M63060 29000
L62940 29000
" />
<path d="M63060 28000
L62940 28000
" />
<path d="M63060 27000
L62940 27000
" />
<path d="M63060 26000
L62940 26000
" />
<path d="M63060 25000
L62940 25000
" />
<path d="M63060 24000
L62940 24000
" />
<path d="M63060 23000
L62940 23000
" />
<path d="M63060 22000
L62940 22000
" />
</g>
<g style="fill:#000000; fill-opacity:0.0; 
stroke:#000000; stroke-width:0; stroke-opacity:1; 
stroke-linecap:round; stroke-linejoin:round;">
</g>
<g style="fill:#000000; fill-opacity:1.0; 
stroke:#000000; stroke-width:0; stroke-opacity:1; 
stroke-linecap:round; stroke-linejoin:round;">
<polyline style="fill-rule:evenodd;"
points="41534,22334
42065,22334
42065,22865
41534,22865
41534,22334
" /> 
</g>
<g style="fill:#000000; fill-opacity:1.0; 
stroke:#000000; stroke-width:531.496; stroke-opacity:1; 
stroke-linecap:round; stroke-linejoin:round;">
</g>
<g style="fill:#000000; fill-opacity:0.0; 
stroke:#000000; stroke-width:531.496; stroke-opacity:1; 
stroke-linecap:round; stroke-linejoin:round;">
<path d="M41012 22600
L41012 22600
" />
<path d="M40225 22600
L40225 22600
" />
<path d="M39437 22600
L39437 22600
" />
</g>
<g style="fill:#000000; fill-opacity:0.0; 
stroke:#000000; stroke-width:0; stroke-opacity:1; 
stroke-linecap:round; stroke-linejoin:round;">
</g>
<g style="fill:#000000; fill-opacity:1.0; 
stroke:#000000; stroke-width:0; stroke-opacity:1; 
stroke-linecap:round; stroke-linejoin:round;">
<polyline style="fill-rule:evenodd;"
points="75934,28565
75934,28034
76465,28034
76465,28565
75934,28565
" /> 
</g>
<g style="fill:#000000; fill-opacity:1.0; 
stroke:#000000; stroke-width:531.496; stroke-opacity:1; 
stroke-linecap:round; stroke-linejoin:round;">
</g>
<g style="fill:#000000; fill-opacity:0.0; 
stroke:#000000; stroke-width:531.496; stroke-opacity:1; 
stroke-linecap:round; stroke-linejoin:round;">
<path d="M76200 29087
L76200 29087
" />
<path d="M76200 29874
L76200 29874
" />
<path d="M76200 30662
L76200 30662
" />
</g>
<g style="fill:#000000; fill-opacity:1.0; 
stroke:#000000; stroke-width:0; stroke-opacity:1; 
stroke-linecap:round; stroke-linejoin:round;">
<circle cx="78000" cy="21300" r="800" /> 
</g>
<g style="fill:#000000; fill-opacity:1.0; 
stroke:#000000; stroke-width:39.3701; stroke-opacity:1; 
stroke-linecap:round; stroke-linejoin:round;">
</g>
<g style="fill:#000000; fill-opacity:1.0; 
stroke:#000000; stroke-width:0; stroke-opacity:1; 
stroke-linecap:round; stroke-linejoin:round;">
<circle cx="78000" cy="41900" r="800" /> 
</g>
<g style="fill:#000000; fill-opacity:1.0; 
stroke:#000000; stroke-width:39.3701; stroke-opacity:1; 
stroke-linecap:round; stroke-linejoin:round;">
</g>
<g style="fill:#000000; fill-opacity:1.0; 
stroke:#000000; stroke-width:0; stroke-opacity:1; 
stroke-linecap:round; stroke-linejoin:round;">
<circle cx="37700" cy="41900" r="800" /> 
</g>
<g style="fill:#000000; fill-opacity:1.0; 
stroke:#000000; stroke-width:39.3701; stroke-opacity:1; 
stroke-linecap:round; stroke-linejoin:round;">
</g>
<g style="fill:#000000; fill-opacity:1.0; 
stroke:#000000; stroke-width:393.701; stroke-opacity:1; 
stroke-linecap:round; stroke-linejoin:round;">
</g>
<g style="fill:#000000; fill-opacity:0.0; 
stroke:#000000; stroke-width:393.701; stroke-opacity:1; 
stroke-linecap:round; stroke-linejoin:round;">
<path d="M41012 22600
L41012 23512
" />
<path d="M45300 27800
L46200 27800
" />
<path d="M41012 23512
L45300 27800
" />
<path d="M46200 27800
L46200 26800
" />
<path d="M50000 23000
L53000 23000
" />
<path d="M46200 26800
L50000 23000
" />
<path d="M40225 22600
L40225 21825
" />
<path d="M50700 38000
L53000 38000
" />
<path d="M47100 41600
L50700 38000
" />
<path d="M41400 41600
L47100 41600
" />
<path d="M38500 38700
L41400 41600
" />
<path d="M38500 34400
L38500 38700
" />
<path d="M37600 33500
L38500 34400
" />
<path d="M37600 22100
L37600 33500
" />
<path d="M38500 21200
L37600 22100
" />
<path d="M39600 21200
L38500 21200
" />
<path d="M40225 21825
L39600 21200
" />
<path d="M39437 22600
L39437 24162
" />
<path d="M52200 32000
L53000 32000
" />
<path d="M51400 32800
L52200 32000
" />
<path d="M51400 35600
L51400 32800
" />
<path d="M46500 40500
L51400 35600
" />
<path d="M41400 40500
L46500 40500
" />
<path d="M39400 38500
L41400 40500
" />
<path d="M39400 34300
L39400 38500
" />
<path d="M39100 34000
L39400 34300
" />
<path d="M39100 24500
L39100 34000
" />
<path d="M39437 24162
L39100 24500
" />
<path d="M63000 23000
L63500 23000
" />
<path d="M65520 25020
L65520 27060
" />
<path d="M63500 23000
L65520 25020
" />
<path d="M65520 27060
L65520 26920
" />
<path d="M65520 28060
L64540 28060
" />
<path d="M63700 37000
L63000 37000
" />
<path d="M64300 36400
L63700 37000
" />
<path d="M64300 28300
L64300 36400
" />
<path d="M64540 28060
L64300 28300
" />
<path d="M65520 29060
L67190 29060
" />
<path d="M61500 39000
L63000 39000
" />
<path d="M61250 39250
L61500 39000
" />
<path d="M61250 40250
L61250 39250
" />
<path d="M59250 42250
L61250 40250
" />
<path d="M56250 42250
L59250 42250
" />
<path d="M55250 41250
L56250 42250
" />
<path d="M55250 40500
L55250 41250
" />
<path d="M55750 40000
L55250 40500
" />
<path d="M56000 40000
L55750 40000
" />
<path d="M61250 34750
L56000 40000
" />
<path d="M61250 21000
L61250 34750
" />
<path d="M61500 20750
L61250 21000
" />
<path d="M64750 20750
L61500 20750
" />
<path d="M67500 23500
L64750 20750
" />
<path d="M67500 28750
L67500 23500
" />
<path d="M67190 29060
L67500 28750
" />
<path d="M65580 29000
L65520 29060
" />
<path d="M76200 28300
L74900 28300
" />
<path d="M74675 28075
L73525 28075
" />
<path d="M74900 28300
L74675 28075
" />
<path d="M73525 29075
L76187 29075
" />
<path d="M76187 29075
L76200 29087
" />
<path d="M73525 30075
L74625 30075
" />
<path d="M74825 29874
L76200 29874
" />
<path d="M74625 30075
L74825 29874
" />
<path d="M73525 31075
L74825 31075
" />
<path d="M75237 30662
L76200 30662
" />
<path d="M74825 31075
L75237 30662
" />
<path d="M41200 27800
L42950 27800
" />
<path d="M50500 24000
L53000 24000
" />
<path d="M48250 26250
L50500 24000
" />
<path d="M48250 32750
L48250 26250
" />
<path d="M47000 34000
L48250 32750
" />
<path d="M47000 35500
L47000 34000
" />
<path d="M45250 37250
L47000 35500
" />
<path d="M43500 37250
L45250 37250
" />
<path d="M42750 36500
L43500 37250
" />
<path d="M42750 35000
L42750 36500
" />
<path d="M43250 34500
L42750 35000
" />
<path d="M43250 28100
L43250 34500
" />
<path d="M42950 27800
L43250 28100
" />
<path d="M41150 27825
L41375 27825
" />
<path d="M41200 28800
L41550 28800
" />
<path d="M41550 28800
L41750 29000
" />
<path d="M41200 28800
L41300 28800
" />
<path d="M41300 28800
L41500 29000
" />
<path d="M41500 29000
L41200 28800
" />
<path d="M41200 28800
L41500 28500
" />
<path d="M41200 28800
L41700 28800
" />
<path d="M41700 28800
L41750 28750
" />
<path d="M41200 28800
L40550 28800
" />
<path d="M40550 28800
L40500 28750
" />
<path d="M41200 28800
L40950 28800
" />
<path d="M40950 28800
L40750 29000
" />
<path d="M57250 41250
L56500 41250
" />
<path d="M57250 41250
L57250 41000
" />
<path d="M57250 41000
L57000 40750
" />
<path d="M53000 25000
L52250 25000
" />
<path d="M53000 25000
L53750 25000
" />
<path d="M63000 22000
L62600 22000
" />
<path d="M62600 22000
L62400 21800
" />
<path d="M63000 22000
L63400 22000
" />
<path d="M63400 22000
L63500 22100
" />
<path d="M63500 22100
L63500 22200
" />
<path d="M63400 22000
L63500 21900
" />
<path d="M63500 21900
L63100 21900
" />
<path d="M63100 21900
L63200 21800
" />
<path d="M63200 21800
L63600 21800
" />
<path d="M63000 22000
L62700 22000
" />
<path d="M62700 22000
L62500 22200
" />
<path d="M63000 22000
L63000 21800
" />
<path d="M63000 21800
L62800 21600
" />
<path d="M63000 22000
L62900 22000
" />
<path d="M62900 22000
L62600 21700
" />
<path d="M63000 22000
L63000 21900
" />
<path d="M63000 21900
L63500 21400
" />
<path d="M53000 22000
L53500 22000
" />
<path d="M53500 22000
L53700 21800
" />
<path d="M53000 22000
L53000 21600
" />
<path d="M53000 21600
L53200 21400
" />
<path d="M53000 22000
L53000 21700
" />
<path d="M53000 21700
L52800 21500
" />
<path d="M53000 22000
L52500 22000
" />
<path d="M52500 22000
L52300 21800
" />
<path d="M53000 22000
L52400 21400
" />
<path d="M53000 22000
L53500 21500
" />
<path d="M65520 30060
L65520 30080
" />
<path d="M65520 30080
L65200 30400
" />
<path d="M65200 30400
L65520 30400
" />
<path d="M65520 30400
L66400 30400
" />
<path d="M66400 30400
L66400 30060
" />
<path d="M66400 30060
L65520 30060
" />
<path d="M65520 30060
L65520 30120
" />
<path d="M65520 30120
L65800 30400
" />
<path d="M65520 30060
L65520 30480
" />
<path d="M65520 30480
L65400 30600
" />
<path d="M65520 30060
L65060 30060
" />
<path d="M65060 30060
L65000 30000
" />
<path d="M41200 32800
L41200 38450
" />
<path d="M52000 29000
L53000 29000
" />
<path d="M49750 31250
L52000 29000
" />
<path d="M49750 34750
L49750 31250
" />
<path d="M45500 39000
L49750 34750
" />
<path d="M41750 39000
L45500 39000
" />
<path d="M41200 38450
L41750 39000
" />
<path d="M45000 36000
L45000 34000
" />
<path d="M45000 34000
L46200 32800
" />
<path d="M58250 41250
L58250 40250
" />
<path d="M60500 38000
L63000 38000
" />
<path d="M58250 40250
L60500 38000
" />
</g>
<g style="fill:#000000; fill-opacity:1.0; 
stroke:#000000; stroke-width:100; stroke-opacity:1; 
stroke-linecap:round; stroke-linejoin:round;">
<polyline style="fill-rule:evenodd;"
points="79320,43120
36279,43120
36279,22100
37153,22100
37153,33500
37187,33671
37195,33684
37284,33815
38053,34585
38053,38700
38087,38871
38173,39000
38184,39015
41084,41915
41228,42012
41400,42046
47100,42046
47271,42012
47415,41915
48831,40500
54803,40500
54803,41250
54837,41421
54934,41565
55934,42565
56078,42662
56250,42696
59250,42696
59421,42662
59565,42565
61565,40565
61645,40446
61662,40421
61696,40250
61696,39446
62371,39446
62417,39517
62500,39574
62600,39594
63400,39594
63492,39577
63577,39522
63634,39439
63654,39340
63654,38660
63637,38567
63582,38482
63499,38425
63482,38421
63489,38417
63617,38225
63662,38000
63617,37774
63489,37582
63365,37500
63445,37446
63700,37446
63871,37412
64015,37315
64615,36715
64712,36571
64732,36472
64746,36400
64746,30201
64887,30201
64888,30207
64988,30415
65160,30568
65377,30644
65470,30587
65470,30110
65570,30110
65570,30587
65662,30644
65879,30568
66051,30415
66151,30207
66152,30201
66105,30110
65570,30110
65470,30110
64934,30110
64887,30201
64746,30201
64746,28506
65074,28506
65154,28560
65030,28642
64902,28834
64857,29060
64902,29285
65030,29477
65151,29558
64988,29704
64888,29912
64887,29918
64934,30010
65470,30010
65470,30002
65570,30002
65570,30010
66105,30010
66152,29918
66151,29912
66051,29704
65888,29558
65965,29506
67190,29506
67361,29472
67505,29375
67815,29065
67860,29000
67912,28921
67946,28750
67946,27075
72862,27075
72907,27300
73035,27492
73159,27575
73035,27657
72907,27849
72862,28075
72907,28300
73035,28492
73159,28575
73035,28657
72907,28849
72862,29075
72907,29300
73035,29492
73159,29575
73035,29657
72907,29849
72862,30075
72907,30300
73035,30492
73159,30575
73035,30657
72907,30849
72862,31075
72907,31300
73035,31492
73226,31620
73452,31665
73597,31665
73823,31620
73970,31521
74825,31521
74996,31487
75140,31390
75422,31109
75948,31109
75992,31138
76189,31177
76210,31177
76407,31138
76574,31026
76686,30859
76725,30662
76686,30464
76574,30297
76531,30268
76574,30239
76686,30072
76725,29874
76686,29677
76574,29510
76531,29481
76574,29452
76686,29284
76725,29087
76686,28890
76607,28771
76643,28748
76700,28664
76720,28565
76720,28034
76703,27941
76648,27856
76564,27799
76465,27779
75934,27779
75841,27796
75756,27851
75755,27853
75085,27853
74990,27759
74883,27687
74846,27662
74675,27628
73970,27628
73890,27575
74014,27492
74142,27300
74187,27075
74142,26849
74014,26657
74009,26654
74017,26652
74102,26597
74159,26514
74179,26415
74179,25735
74162,25642
74107,25557
74024,25500
73925,25480
73125,25480
73032,25497
72947,25552
72890,25635
72870,25735
72870,26415
72887,26507
72942,26592
73025,26649
73042,26653
73035,26657
72907,26849
72862,27075
67946,27075
67946,23500
67912,23328
67815,23184
66139,21507
76949,21507
77109,21894
77404,22189
77790,22349
78207,22350
78594,22190
78889,21895
79049,21509
79050,21092
78890,20705
78595,20410
78209,20250
77792,20249
77405,20409
77110,20704
76950,21090
76949,21507
66139,21507
65065,20434
64921,20337
64750,20303
61500,20303
61328,20337
61184,20434
60934,20684
60837,20828
60803,21000
60803,34564
55814,39553
55750,39553
55578,39587
55465,39662
55434,39684
54934,40184
54837,40328
54803,40500
48831,40500
50885,38446
52554,38446
52634,38500
52510,38582
52382,38774
52337,39000
52382,39225
52510,39417
52701,39545
52927,39590
53072,39590
53298,39545
53489,39417
53617,39225
53662,39000
53617,38774
53489,38582
53365,38500
53489,38417
53617,38225
53662,38000
53617,37774
53489,37582
53365,37500
53489,37417
53617,37225
53662,37000
53617,36774
53489,36582
53365,36500
53489,36417
53617,36225
53662,36000
53617,35774
53489,35582
53365,35500
53489,35417
53617,35225
53662,35000
53617,34774
53489,34582
53365,34500
53489,34417
53617,34225
53662,34000
53617,33774
53489,33582
53365,33500
53489,33417
53617,33225
53662,33000
53617,32774
53489,32582
53365,32500
53489,32417
53617,32225
53662,32000
53617,31774
53489,31582
53365,31500
53489,31417
53617,31225
53662,31000
53617,30774
53489,30582
53365,30500
53489,30417
53617,30225
53662,30000
53617,29774
53489,29582
53365,29500
53489,29417
53617,29225
53662,29000
53617,28774
53489,28582
53365,28500
53489,28417
53617,28225
53662,28000
53617,27774
53489,27582
53365,27500
53489,27417
53617,27225
53662,27000
53617,26774
53489,26582
53365,26500
53489,26417
53617,26225
53662,26000
53617,25774
53489,25582
53368,25501
53531,25355
53631,25147
53632,25141
53585,25050
53050,25050
53050,25057
52950,25057
52950,25050
52414,25050
52367,25141
52368,25147
52468,25355
52631,25501
52510,25582
52382,25774
52337,26000
52382,26225
52510,26417
52634,26500
52510,26582
52382,26774
52337,27000
52382,27225
52510,27417
52634,27500
52510,27582
52382,27774
52337,28000
52382,28225
52510,28417
52634,28500
52554,28553
52000,28553
51828,28587
51684,28684
49434,30934
49337,31078
49303,31250
49303,34564
45314,38553
41935,38553
41646,38264
41646,33386
41692,33377
41777,33322
41834,33239
41854,33140
41854,32460
41837,32367
41782,32282
41699,32225
41682,32221
41689,32217
41817,32025
41862,31800
41817,31574
41689,31382
41565,31300
41689,31217
41817,31025
41862,30800
41817,30574
41689,30382
41565,30300
41689,30217
41817,30025
41862,29800
41817,29574
41689,29382
41568,29301
41731,29155
41831,28947
41832,28941
41785,28850
41250,28850
41250,28857
41150,28857
41150,28850
40614,28850
40567,28941
40568,28947
40668,29155
40831,29301
40710,29382
40582,29574
40537,29800
40582,30025
40710,30217
40834,30300
40710,30382
40582,30574
40537,30800
40582,31025
40710,31217
40834,31300
40710,31382
40582,31574
40537,31800
40582,32025
40710,32217
40715,32220
40707,32222
40622,32277
40565,32360
40545,32460
40545,33140
40562,33232
40617,33317
40700,33374
40753,33385
40753,38450
40787,38621
40839,38700
40884,38765
41434,39315
41578,39412
41750,39446
45500,39446
45671,39412
45815,39315
50065,35065
50162,34921
50181,34828
50196,34750
50196,31435
52185,29446
52554,29446
52634,29500
52510,29582
52382,29774
52337,30000
52382,30225
52510,30417
52634,30500
52510,30582
52382,30774
52337,31000
52382,31225
52510,31417
52634,31500
52554,31553
52200,31553
52028,31587
51915,31662
51884,31684
51084,32484
50987,32628
50953,32800
50953,35414
46314,40053
41585,40053
39846,38314
39846,34300
39812,34128
39715,33984
39546,33814
39546,24685
39753,24478
39794,24417
39850,24333
39884,24162
39884,22990
40027,23086
40225,23125
40422,23086
40565,22990
40565,23512
40599,23683
40688,23815
40696,23828
44984,28115
45128,28212
45300,28246
45754,28246
45834,28300
45710,28382
45582,28574
45537,28800
45582,29025
45710,29217
45834,29300
45710,29382
45582,29574
45537,29800
45582,30025
45710,30217
45834,30300
45710,30382
45582,30574
45537,30800
45582,31025
45710,31217
45834,31300
45710,31382
45582,31574
45537,31800
45582,32025
45710,32217
45715,32220
45707,32222
45622,32277
45565,32360
45545,32460
45545,32822
44684,33684
44587,33828
44553,34000
44553,35399
44541,35388
44449,35350
44112,35350
44050,35412
44050,35950
44057,35950
44057,36050
44050,36050
44050,36587
44112,36650
44449,36650
44541,36611
44611,36541
44618,36524
44751,36613
45000,36662
45248,36613
45267,36601
45064,36803
43685,36803
43518,36637
43550,36650
43887,36650
43950,36587
43950,36050
43412,36050
43350,36112
43350,36449
43362,36481
43196,36314
43196,35550
43350,35550
43350,35887
43412,35950
43950,35950
43950,35412
43887,35350
43550,35350
43458,35388
43388,35458
43350,35550
43196,35550
43196,35185
43565,34815
43610,34750
43662,34671
43696,34500
43696,28100
43662,27928
43565,27784
43265,27484
43158,27412
43121,27387
42950,27353
41645,27353
41498,27254
41272,27210
41127,27210
40901,27254
40710,27382
40582,27574
40537,27800
40582,28025
40710,28217
40831,28298
40668,28444
40568,28652
40567,28658
40614,28750
41150,28750
41150,28742
41250,28742
41250,28750
41785,28750
41832,28658
41831,28652
41731,28444
41568,28298
41645,28246
42764,28246
42803,28285
42803,34314
42434,34684
42337,34828
42303,35000
42303,36500
42337,36671
42406,36774
42434,36815
43184,37565
43328,37662
43500,37696
45250,37696
45421,37662
45565,37565
47315,35815
47367,35738
47412,35671
47446,35500
47446,34185
48565,33065
48610,33000
48662,32921
48696,32750
48696,26435
50685,24446
52554,24446
52631,24498
52468,24644
52368,24852
52367,24858
52414,24950
52950,24950
52950,24942
53050,24942
53050,24950
53585,24950
53632,24858
53631,24852
53531,24644
53368,24498
53489,24417
53617,24225
53662,24000
53617,23774
53489,23582
53365,23500
53489,23417
53617,23225
53662,23000
53617,22774
53489,22582
53481,22576
53541,22551
53611,22481
53650,22389
53650,22112
53587,22050
53050,22050
53050,22057
52950,22057
52950,22050
52412,22050
52350,22112
52350,22389
52388,22481
52458,22551
52461,22553
50000,22553
49828,22587
49684,22684
45884,26484
45787,26628
45753,26800
45753,27353
45485,27353
41459,23327
41459,23105
41484,23115
41687,23115
41750,23053
41750,22650
41850,22650
41850,23053
41912,23115
42115,23115
42207,23077
42277,23007
42315,22915
42315,22712
42253,22650
41850,22650
41750,22650
41742,22650
41742,22550
41750,22550
41750,22146
41850,22146
41850,22550
42253,22550
42315,22487
42315,22284
42277,22192
42207,22122
42115,22084
41912,22084
41850,22146
41750,22146
41687,22084
41484,22084
41392,22122
41324,22190
41209,22113
41012,22074
40815,22113
40672,22209
40672,21825
40638,21654
40608,21610
52350,21610
52350,21887
52412,21950
52950,21950
52950,21472
53050,21472
53050,21950
53587,21950
53650,21887
53650,21610
53611,21518
53541,21448
53449,21410
53112,21410
53050,21472
52950,21472
52887,21410
52550,21410
52458,21448
52388,21518
52350,21610
40608,21610
40541,21509
39915,20884
39833,20828
39771,20787
39600,20753
38500,20753
38328,20787
38266,20828
38184,20884
37284,21784
37187,21928
37153,22100
36279,22100
36279,19879
79320,19879
79320,43120
" /> 
<polyline style="fill-rule:evenodd;"
points="67053,23685
67053,28564
67004,28613
65965,28613
65885,28560
66009,28477
66137,28285
66182,28060
66137,27834
66009,27642
66004,27639
66012,27637
66097,27582
66154,27499
66174,27400
66174,26720
66157,26627
66102,26542
66019,26485
65966,26474
65966,25020
65932,24848
65835,24704
63815,22684
63671,22587
63500,22553
63445,22553
63368,22501
63531,22355
63631,22147
63632,22141
63585,22050
63050,22050
63050,22057
62950,22057
62950,22050
62414,22050
62367,22141
62368,22147
62468,22355
62631,22501
62510,22582
62382,22774
62337,23000
62382,23225
62510,23417
62634,23500
62510,23582
62382,23774
62337,24000
62382,24225
62510,24417
62634,24500
62510,24582
62382,24774
62337,25000
62382,25225
62510,25417
62634,25500
62510,25582
62382,25774
62337,26000
62382,26225
62510,26417
62634,26500
62510,26582
62382,26774
62337,27000
62382,27225
62510,27417
62634,27500
62510,27582
62382,27774
62337,28000
62382,28225
62510,28417
62634,28500
62510,28582
62382,28774
62337,29000
62382,29225
62510,29417
62634,29500
62510,29582
62382,29774
62337,30000
62382,30225
62510,30417
62634,30500
62510,30582
62382,30774
62337,31000
62382,31225
62510,31417
62634,31500
62510,31582
62382,31774
62337,32000
62382,32225
62510,32417
62634,32500
62510,32582
62382,32774
62337,33000
62382,33225
62510,33417
62634,33500
62510,33582
62382,33774
62337,34000
62382,34225
62510,34417
62634,34500
62510,34582
62382,34774
62337,35000
62382,35225
62510,35417
62634,35500
62510,35582
62382,35774
62337,36000
62382,36225
62510,36417
62634,36500
62510,36582
62382,36774
62337,37000
62382,37225
62510,37417
62634,37500
62554,37553
60500,37553
60328,37587
60184,37684
57934,39934
57837,40078
57803,40250
57803,40603
57757,40612
57672,40667
57628,40731
57590,40696
57400,40617
57300,40664
57300,41200
57307,41200
57307,41300
57300,41300
57300,41307
57200,41307
57200,41300
56664,41300
56617,41400
56723,41631
56908,41803
56435,41803
55731,41099
56617,41099
56664,41200
57200,41200
57200,40664
57099,40617
56909,40696
56723,40868
56617,41099
55731,41099
55696,41064
55696,40685
55935,40446
56000,40446
56171,40412
56315,40315
61565,35065
61645,34946
61662,34921
61696,34750
61696,21858
62367,21858
62414,21950
62950,21950
62950,21472
63050,21472
63050,21950
63585,21950
63632,21858
63631,21852
63531,21644
63359,21491
63142,21415
63050,21472
62950,21472
62857,21415
62640,21491
62468,21644
62368,21852
62367,21858
61696,21858
61696,21196
64564,21196
67053,23685
" /> 
</g> 
</svg>
