M48
METRIC,TZ
T1C0.800
T2C1.016
T3C3.048
%
G90
G05
T1
X100.172Y-57.404
X102.172Y-57.404
X104.172Y-57.404
X106.172Y-57.404
X193.548Y-71.882
X193.548Y-73.882
X193.548Y-75.882
X193.548Y-77.882
T2
X104.648Y-70.612
X104.648Y-73.152
X104.648Y-75.692
X104.648Y-78.232
X104.648Y-80.772
X104.648Y-83.312
X111.76Y-91.44
X114.3Y-91.44
X117.348Y-70.612
X117.348Y-73.152
X117.348Y-75.692
X117.348Y-78.232
X117.348Y-80.772
X117.348Y-83.312
X134.62Y-55.88
X134.62Y-58.42
X134.62Y-60.96
X134.62Y-63.5
X134.62Y-66.04
X134.62Y-68.58
X134.62Y-71.12
X134.62Y-73.66
X134.62Y-76.2
X134.62Y-78.74
X134.62Y-81.28
X134.62Y-83.82
X134.62Y-86.36
X134.62Y-88.9
X134.62Y-91.44
X134.62Y-93.98
X134.62Y-96.52
X134.62Y-99.06
X145.415Y-104.775
X147.955Y-104.775
X160.02Y-55.88
X160.02Y-58.42
X160.02Y-60.96
X160.02Y-63.5
X160.02Y-66.04
X160.02Y-68.58
X160.02Y-71.12
X160.02Y-73.66
X160.02Y-76.2
X160.02Y-78.74
X160.02Y-81.28
X160.02Y-83.82
X160.02Y-86.36
X160.02Y-88.9
X160.02Y-91.44
X160.02Y-93.98
X160.02Y-96.52
X160.02Y-99.06
X166.421Y-68.732
X166.421Y-71.272
X166.421Y-73.812
X166.421Y-76.352
X186.754Y-66.23
X186.754Y-68.77
X186.754Y-71.31
X186.754Y-73.85
X186.754Y-76.391
X186.754Y-78.93
T3
X95.758Y-106.426
X198.12Y-54.102
X198.12Y-106.426
T0
M30
