G04 #@! TF.FileFunction,Legend,Top*
%FSLAX46Y46*%
G04 Gerber Fmt 4.6, Leading zero omitted, Abs format (unit mm)*
G04 Created by KiCad (PCBNEW 4.0.2+dfsg1-stable) date Fri 02 Mar 2018 05:51:11 PM -05*
%MOMM*%
G01*
G04 APERTURE LIST*
%ADD10C,0.100000*%
%ADD11C,0.150000*%
%ADD12C,0.120000*%
G04 APERTURE END LIST*
D10*
D11*
X103378000Y-82042000D02*
X103378000Y-69342000D01*
X103378000Y-69342000D02*
X105918000Y-69342000D01*
X105918000Y-69342000D02*
X105918000Y-82042000D01*
X103098000Y-84862000D02*
X103098000Y-83312000D01*
X103378000Y-82042000D02*
X105918000Y-82042000D01*
X106198000Y-83312000D02*
X106198000Y-84862000D01*
X106198000Y-84862000D02*
X103098000Y-84862000D01*
X165150800Y-70002400D02*
X165150800Y-77622400D01*
X167690800Y-70002400D02*
X167690800Y-77622400D01*
X167970800Y-67182400D02*
X167970800Y-68732400D01*
X165150800Y-77622400D02*
X167690800Y-77622400D01*
X167690800Y-70002400D02*
X165150800Y-70002400D01*
X164870800Y-68732400D02*
X164870800Y-67182400D01*
X164870800Y-67182400D02*
X167970800Y-67182400D01*
X188023500Y-67500500D02*
X188023500Y-80200500D01*
X188023500Y-80200500D02*
X185483500Y-80200500D01*
X185483500Y-80200500D02*
X185483500Y-67500500D01*
X188303500Y-64680500D02*
X188303500Y-66230500D01*
X188023500Y-67500500D02*
X185483500Y-67500500D01*
X185203500Y-66230500D02*
X185203500Y-64680500D01*
X185203500Y-64680500D02*
X188303500Y-64680500D01*
X116078000Y-82042000D02*
X116078000Y-69342000D01*
X116078000Y-69342000D02*
X118618000Y-69342000D01*
X118618000Y-69342000D02*
X118618000Y-82042000D01*
X115798000Y-84862000D02*
X115798000Y-83312000D01*
X116078000Y-82042000D02*
X118618000Y-82042000D01*
X118898000Y-83312000D02*
X118898000Y-84862000D01*
X118898000Y-84862000D02*
X115798000Y-84862000D01*
X146685000Y-106045000D02*
X144145000Y-106045000D01*
X149505000Y-106325000D02*
X147955000Y-106325000D01*
X146685000Y-106045000D02*
X146685000Y-103505000D01*
X147955000Y-103225000D02*
X149505000Y-103225000D01*
X149505000Y-103225000D02*
X149505000Y-106325000D01*
X146685000Y-103505000D02*
X144145000Y-103505000D01*
X144145000Y-103505000D02*
X144145000Y-106045000D01*
X113030000Y-90170000D02*
X115570000Y-90170000D01*
X110210000Y-89890000D02*
X111760000Y-89890000D01*
X113030000Y-90170000D02*
X113030000Y-92710000D01*
X111760000Y-92990000D02*
X110210000Y-92990000D01*
X110210000Y-92990000D02*
X110210000Y-89890000D01*
X113030000Y-92710000D02*
X115570000Y-92710000D01*
X115570000Y-92710000D02*
X115570000Y-90170000D01*
X135890000Y-57150000D02*
X135890000Y-100330000D01*
X135890000Y-100330000D02*
X133350000Y-100330000D01*
X133350000Y-100330000D02*
X133350000Y-57150000D01*
X136170000Y-54330000D02*
X136170000Y-55880000D01*
X135890000Y-57150000D02*
X133350000Y-57150000D01*
X133070000Y-55880000D02*
X133070000Y-54330000D01*
X133070000Y-54330000D02*
X136170000Y-54330000D01*
X158750000Y-97790000D02*
X158750000Y-54610000D01*
X158750000Y-54610000D02*
X161290000Y-54610000D01*
X161290000Y-54610000D02*
X161290000Y-97790000D01*
X158470000Y-100610000D02*
X158470000Y-99060000D01*
X158750000Y-97790000D02*
X161290000Y-97790000D01*
X161570000Y-99060000D02*
X161570000Y-100610000D01*
X161570000Y-100610000D02*
X158470000Y-100610000D01*
D12*
X105172000Y-56284000D02*
X99052000Y-56284000D01*
X99052000Y-56284000D02*
X99052000Y-58524000D01*
X99052000Y-58524000D02*
X105172000Y-58524000D01*
X105172000Y-58524000D02*
X105172000Y-56284000D01*
X106172000Y-56284000D02*
X107292000Y-56284000D01*
X107292000Y-56284000D02*
X107292000Y-57404000D01*
X192428000Y-72882000D02*
X192428000Y-79002000D01*
X192428000Y-79002000D02*
X194668000Y-79002000D01*
X194668000Y-79002000D02*
X194668000Y-72882000D01*
X194668000Y-72882000D02*
X192428000Y-72882000D01*
X192428000Y-71882000D02*
X192428000Y-70762000D01*
X192428000Y-70762000D02*
X193548000Y-70762000D01*
D11*
X200406000Y-54102000D02*
G75*
G03X200406000Y-54102000I-2286000J0D01*
G01*
X200406000Y-106426000D02*
G75*
G03X200406000Y-106426000I-2286000J0D01*
G01*
X98044000Y-106426000D02*
G75*
G03X98044000Y-106426000I-2286000J0D01*
G01*
X103886095Y-88816762D02*
X104028952Y-88864381D01*
X104267048Y-88864381D01*
X104362286Y-88816762D01*
X104409905Y-88769143D01*
X104457524Y-88673905D01*
X104457524Y-88578667D01*
X104409905Y-88483429D01*
X104362286Y-88435810D01*
X104267048Y-88388190D01*
X104076571Y-88340571D01*
X103981333Y-88292952D01*
X103933714Y-88245333D01*
X103886095Y-88150095D01*
X103886095Y-88054857D01*
X103933714Y-87959619D01*
X103981333Y-87912000D01*
X104076571Y-87864381D01*
X104314667Y-87864381D01*
X104457524Y-87912000D01*
X104838476Y-87959619D02*
X104886095Y-87912000D01*
X104981333Y-87864381D01*
X105219429Y-87864381D01*
X105314667Y-87912000D01*
X105362286Y-87959619D01*
X105409905Y-88054857D01*
X105409905Y-88150095D01*
X105362286Y-88292952D01*
X104790857Y-88864381D01*
X105409905Y-88864381D01*
X166087467Y-63084781D02*
X166087467Y-63799067D01*
X166039847Y-63941924D01*
X165944609Y-64037162D01*
X165801752Y-64084781D01*
X165706514Y-64084781D01*
X167087467Y-64084781D02*
X166516038Y-64084781D01*
X166801752Y-64084781D02*
X166801752Y-63084781D01*
X166706514Y-63227638D01*
X166611276Y-63322876D01*
X166516038Y-63370495D01*
X186420167Y-60582881D02*
X186420167Y-61297167D01*
X186372547Y-61440024D01*
X186277309Y-61535262D01*
X186134452Y-61582881D01*
X186039214Y-61582881D01*
X186848738Y-60678119D02*
X186896357Y-60630500D01*
X186991595Y-60582881D01*
X187229691Y-60582881D01*
X187324929Y-60630500D01*
X187372548Y-60678119D01*
X187420167Y-60773357D01*
X187420167Y-60868595D01*
X187372548Y-61011452D01*
X186801119Y-61582881D01*
X187420167Y-61582881D01*
X116586095Y-88816762D02*
X116728952Y-88864381D01*
X116967048Y-88864381D01*
X117062286Y-88816762D01*
X117109905Y-88769143D01*
X117157524Y-88673905D01*
X117157524Y-88578667D01*
X117109905Y-88483429D01*
X117062286Y-88435810D01*
X116967048Y-88388190D01*
X116776571Y-88340571D01*
X116681333Y-88292952D01*
X116633714Y-88245333D01*
X116586095Y-88150095D01*
X116586095Y-88054857D01*
X116633714Y-87959619D01*
X116681333Y-87912000D01*
X116776571Y-87864381D01*
X117014667Y-87864381D01*
X117157524Y-87912000D01*
X118109905Y-88864381D02*
X117538476Y-88864381D01*
X117824190Y-88864381D02*
X117824190Y-87864381D01*
X117728952Y-88007238D01*
X117633714Y-88102476D01*
X117538476Y-88150095D01*
X152507381Y-105584524D02*
X152507381Y-104917857D01*
X153507381Y-105584524D01*
X153507381Y-104917857D01*
X153507381Y-104013095D02*
X153507381Y-104584524D01*
X153507381Y-104298810D02*
X152507381Y-104298810D01*
X152650238Y-104394048D01*
X152745476Y-104489286D01*
X152793095Y-104584524D01*
X106112381Y-92249524D02*
X106112381Y-91582857D01*
X107112381Y-92249524D01*
X107112381Y-91582857D01*
X106207619Y-91249524D02*
X106160000Y-91201905D01*
X106112381Y-91106667D01*
X106112381Y-90868571D01*
X106160000Y-90773333D01*
X106207619Y-90725714D01*
X106302857Y-90678095D01*
X106398095Y-90678095D01*
X106540952Y-90725714D01*
X107112381Y-91297143D01*
X107112381Y-90678095D01*
X133881905Y-51232381D02*
X133881905Y-50232381D01*
X134262858Y-50232381D01*
X134358096Y-50280000D01*
X134405715Y-50327619D01*
X134453334Y-50422857D01*
X134453334Y-50565714D01*
X134405715Y-50660952D01*
X134358096Y-50708571D01*
X134262858Y-50756190D01*
X133881905Y-50756190D01*
X135310477Y-50565714D02*
X135310477Y-51232381D01*
X135072381Y-50184762D02*
X134834286Y-50899048D01*
X135453334Y-50899048D01*
X159281905Y-104612381D02*
X159281905Y-103612381D01*
X159662858Y-103612381D01*
X159758096Y-103660000D01*
X159805715Y-103707619D01*
X159853334Y-103802857D01*
X159853334Y-103945714D01*
X159805715Y-104040952D01*
X159758096Y-104088571D01*
X159662858Y-104136190D01*
X159281905Y-104136190D01*
X160758096Y-103612381D02*
X160281905Y-103612381D01*
X160234286Y-104088571D01*
X160281905Y-104040952D01*
X160377143Y-103993333D01*
X160615239Y-103993333D01*
X160710477Y-104040952D01*
X160758096Y-104088571D01*
X160805715Y-104183810D01*
X160805715Y-104421905D01*
X160758096Y-104517143D01*
X160710477Y-104564762D01*
X160615239Y-104612381D01*
X160377143Y-104612381D01*
X160281905Y-104564762D01*
X160234286Y-104517143D01*
X108744381Y-58165905D02*
X107744381Y-58165905D01*
X108220571Y-58165905D02*
X108220571Y-57594476D01*
X108744381Y-57594476D02*
X107744381Y-57594476D01*
X108744381Y-56594476D02*
X108744381Y-57165905D01*
X108744381Y-56880191D02*
X107744381Y-56880191D01*
X107887238Y-56975429D01*
X107982476Y-57070667D01*
X108030095Y-57165905D01*
X193214667Y-69214381D02*
X193214667Y-69928667D01*
X193167047Y-70071524D01*
X193071809Y-70166762D01*
X192928952Y-70214381D01*
X192833714Y-70214381D01*
X193595619Y-69214381D02*
X194214667Y-69214381D01*
X193881333Y-69595333D01*
X194024191Y-69595333D01*
X194119429Y-69642952D01*
X194167048Y-69690571D01*
X194214667Y-69785810D01*
X194214667Y-70023905D01*
X194167048Y-70119143D01*
X194119429Y-70166762D01*
X194024191Y-70214381D01*
X193738476Y-70214381D01*
X193643238Y-70166762D01*
X193595619Y-70119143D01*
X196786667Y-51506381D02*
X196453333Y-51030190D01*
X196215238Y-51506381D02*
X196215238Y-50506381D01*
X196596191Y-50506381D01*
X196691429Y-50554000D01*
X196739048Y-50601619D01*
X196786667Y-50696857D01*
X196786667Y-50839714D01*
X196739048Y-50934952D01*
X196691429Y-50982571D01*
X196596191Y-51030190D01*
X196215238Y-51030190D01*
X197215238Y-50982571D02*
X197548572Y-50982571D01*
X197691429Y-51506381D02*
X197215238Y-51506381D01*
X197215238Y-50506381D01*
X197691429Y-50506381D01*
X198453334Y-50982571D02*
X198120000Y-50982571D01*
X198120000Y-51506381D02*
X198120000Y-50506381D01*
X198596191Y-50506381D01*
X199120000Y-50506381D02*
X199120000Y-50744476D01*
X198881905Y-50649238D02*
X199120000Y-50744476D01*
X199358096Y-50649238D01*
X198977143Y-50934952D02*
X199120000Y-50744476D01*
X199262858Y-50934952D01*
X199881905Y-50506381D02*
X199881905Y-50744476D01*
X199643810Y-50649238D02*
X199881905Y-50744476D01*
X200120001Y-50649238D01*
X199739048Y-50934952D02*
X199881905Y-50744476D01*
X200024763Y-50934952D01*
X196786667Y-103830381D02*
X196453333Y-103354190D01*
X196215238Y-103830381D02*
X196215238Y-102830381D01*
X196596191Y-102830381D01*
X196691429Y-102878000D01*
X196739048Y-102925619D01*
X196786667Y-103020857D01*
X196786667Y-103163714D01*
X196739048Y-103258952D01*
X196691429Y-103306571D01*
X196596191Y-103354190D01*
X196215238Y-103354190D01*
X197215238Y-103306571D02*
X197548572Y-103306571D01*
X197691429Y-103830381D02*
X197215238Y-103830381D01*
X197215238Y-102830381D01*
X197691429Y-102830381D01*
X198453334Y-103306571D02*
X198120000Y-103306571D01*
X198120000Y-103830381D02*
X198120000Y-102830381D01*
X198596191Y-102830381D01*
X199120000Y-102830381D02*
X199120000Y-103068476D01*
X198881905Y-102973238D02*
X199120000Y-103068476D01*
X199358096Y-102973238D01*
X198977143Y-103258952D02*
X199120000Y-103068476D01*
X199262858Y-103258952D01*
X199881905Y-102830381D02*
X199881905Y-103068476D01*
X199643810Y-102973238D02*
X199881905Y-103068476D01*
X200120001Y-102973238D01*
X199739048Y-103258952D02*
X199881905Y-103068476D01*
X200024763Y-103258952D01*
X94424667Y-103830381D02*
X94091333Y-103354190D01*
X93853238Y-103830381D02*
X93853238Y-102830381D01*
X94234191Y-102830381D01*
X94329429Y-102878000D01*
X94377048Y-102925619D01*
X94424667Y-103020857D01*
X94424667Y-103163714D01*
X94377048Y-103258952D01*
X94329429Y-103306571D01*
X94234191Y-103354190D01*
X93853238Y-103354190D01*
X94853238Y-103306571D02*
X95186572Y-103306571D01*
X95329429Y-103830381D02*
X94853238Y-103830381D01*
X94853238Y-102830381D01*
X95329429Y-102830381D01*
X96091334Y-103306571D02*
X95758000Y-103306571D01*
X95758000Y-103830381D02*
X95758000Y-102830381D01*
X96234191Y-102830381D01*
X96758000Y-102830381D02*
X96758000Y-103068476D01*
X96519905Y-102973238D02*
X96758000Y-103068476D01*
X96996096Y-102973238D01*
X96615143Y-103258952D02*
X96758000Y-103068476D01*
X96900858Y-103258952D01*
X97519905Y-102830381D02*
X97519905Y-103068476D01*
X97281810Y-102973238D02*
X97519905Y-103068476D01*
X97758001Y-102973238D01*
X97377048Y-103258952D02*
X97519905Y-103068476D01*
X97662763Y-103258952D01*
M02*
