  0
SECTION
  2
HEADER
  9
$ANGBASE
  50
0.0
  9
$ANGDIR
  70
  1
  9
$MEASUREMENT
  70
0
  0
ENDSEC
  0
SECTION
  2
TABLES
  0
TABLE
  2
LTYPE
  70
1
  0
LTYPE
  2
CONTINUOUS
  70
0
  3
Solid line
  72
65
  73
0
  40
0.0
  0
ENDTAB
  0
TABLE
  2
STYLE
  70
4
  0
STYLE
  2
KICAD
  70
0
  40
0
  41
1
  42
1
  50
0
  71
0
  3
isocp.shx
  0
STYLE
  2
KICADB
  70
0
  40
0
  41
1
  42
1
  50
0
  71
0
  3
isocp.shx
  0
STYLE
  2
KICADI
  70
0
  40
0
  41
1
  42
1
  50
15
  71
0
  3
isocp.shx
  0
STYLE
  2
KICADBI
  70
0
  40
0
  41
1
  42
1
  50
15
  71
0
  3
isocp.shx
  0
ENDTAB
  0
TABLE
  2
LAYER
  70
30
  0
LAYER
  2
BLACK
  70
0
  62
7
  6
CONTINUOUS
  0
LAYER
  2
GRAY1
  70
0
  62
251
  6
CONTINUOUS
  0
LAYER
  2
GRAY2
  70
0
  62
8
  6
CONTINUOUS
  0
LAYER
  2
GRAY3
  70
0
  62
9
  6
CONTINUOUS
  0
LAYER
  2
WHITE
  70
0
  62
7
  6
CONTINUOUS
  0
LAYER
  2
LYELLOW
  70
0
  62
51
  6
CONTINUOUS
  0
LAYER
  2
BLUE1
  70
0
  62
178
  6
CONTINUOUS
  0
LAYER
  2
GREEN1
  70
0
  62
98
  6
CONTINUOUS
  0
LAYER
  2
CYAN1
  70
0
  62
138
  6
CONTINUOUS
  0
LAYER
  2
RED1
  70
0
  62
18
  6
CONTINUOUS
  0
LAYER
  2
MAGENTA1
  70
0
  62
228
  6
CONTINUOUS
  0
LAYER
  2
BROWN1
  70
0
  62
58
  6
CONTINUOUS
  0
LAYER
  2
BLUE2
  70
0
  62
5
  6
CONTINUOUS
  0
LAYER
  2
GREEN2
  70
0
  62
3
  6
CONTINUOUS
  0
LAYER
  2
CYAN2
  70
0
  62
4
  6
CONTINUOUS
  0
LAYER
  2
RED2
  70
0
  62
1
  6
CONTINUOUS
  0
LAYER
  2
MAGENTA2
  70
0
  62
6
  6
CONTINUOUS
  0
LAYER
  2
BROWN2
  70
0
  62
54
  6
CONTINUOUS
  0
LAYER
  2
BLUE3
  70
0
  62
171
  6
CONTINUOUS
  0
LAYER
  2
GREEN3
  70
0
  62
91
  6
CONTINUOUS
  0
LAYER
  2
CYAN3
  70
0
  62
131
  6
CONTINUOUS
  0
LAYER
  2
RED3
  70
0
  62
11
  6
CONTINUOUS
  0
LAYER
  2
MAGENTA3
  70
0
  62
221
  6
CONTINUOUS
  0
LAYER
  2
YELLOW3
  70
0
  62
2
  6
CONTINUOUS
  0
LAYER
  2
BLUE4
  70
0
  62
5
  6
CONTINUOUS
  0
LAYER
  2
GREEN4
  70
0
  62
3
  6
CONTINUOUS
  0
LAYER
  2
CYAN4
  70
0
  62
4
  6
CONTINUOUS
  0
LAYER
  2
RED4
  70
0
  62
1
  6
CONTINUOUS
  0
LAYER
  2
MAGENTA4
  70
0
  62
6
  6
CONTINUOUS
  0
LAYER
  2
YELLOW4
  70
0
  62
2
  6
CONTINUOUS
  0
ENDTAB
  0
ENDSEC
  0
SECTION
  2
ENTITIES
0
LINE
8
Black
10
222.256
20
-27.8661
11
222.263
21
-27.8661
0
LINE
8
Black
10
222.263
20
-27.8661
11
222.269
21
-27.8684
0
LINE
8
Black
10
222.269
20
-27.8684
11
222.276
21
-27.8695
0
LINE
8
Black
10
222.276
20
-27.8695
11
222.281
21
-27.8728
0
LINE
8
Black
10
222.281
20
-27.8728
11
222.287
21
-27.875
0
LINE
8
Black
10
222.287
20
-27.875
11
222.293
21
-27.8793
0
LINE
8
Black
10
222.293
20
-27.8793
11
222.298
21
-27.8825
0
LINE
8
Black
10
222.298
20
-27.8825
11
222.302
21
-27.8876
0
LINE
8
Black
10
222.302
20
-27.8876
11
222.307
21
-27.8918
0
LINE
8
Black
10
222.307
20
-27.8918
11
222.311
21
-27.8975
0
LINE
8
Black
10
222.311
20
-27.8975
11
222.315
21
-27.9025
0
LINE
8
Black
10
222.315
20
-27.9025
11
222.317
21
-27.9087
0
LINE
8
Black
10
222.317
20
-27.9087
11
222.32
21
-27.9143
0
LINE
8
Black
10
222.32
20
-27.9143
11
222.322
21
-27.9208
0
LINE
8
Black
10
222.322
20
-27.9208
11
222.324
21
-27.927
0
LINE
8
Black
10
222.324
20
-27.927
11
222.324
21
-27.9335
0
LINE
8
Black
10
222.324
20
-27.9335
11
222.325
21
-27.94
0
LINE
8
Black
10
222.325
20
-27.94
11
222.325
21
-147.32
0
LINE
8
Black
10
222.325
20
-147.32
11
222.324
21
-147.326
0
LINE
8
Black
10
222.324
20
-147.326
11
222.324
21
-147.333
0
LINE
8
Black
10
222.324
20
-147.333
11
222.322
21
-147.339
0
LINE
8
Black
10
222.322
20
-147.339
11
222.32
21
-147.346
0
LINE
8
Black
10
222.32
20
-147.346
11
222.317
21
-147.351
0
LINE
8
Black
10
222.317
20
-147.351
11
222.315
21
-147.357
0
LINE
8
Black
10
222.315
20
-147.357
11
222.311
21
-147.363
0
LINE
8
Black
10
222.311
20
-147.363
11
222.307
21
-147.368
0
LINE
8
Black
10
222.307
20
-147.368
11
222.302
21
-147.372
0
LINE
8
Black
10
222.302
20
-147.372
11
222.298
21
-147.377
0
LINE
8
Black
10
222.298
20
-147.377
11
222.293
21
-147.381
0
LINE
8
Black
10
222.293
20
-147.381
11
222.287
21
-147.385
0
LINE
8
Black
10
222.287
20
-147.385
11
222.281
21
-147.387
0
LINE
8
Black
10
222.281
20
-147.387
11
222.276
21
-147.39
0
LINE
8
Black
10
222.276
20
-147.39
11
222.269
21
-147.392
0
LINE
8
Black
10
222.269
20
-147.392
11
222.263
21
-147.394
0
LINE
8
Black
10
222.263
20
-147.394
11
222.256
21
-147.394
0
LINE
8
Black
10
222.256
20
-147.394
11
222.25
21
-147.395
0
LINE
8
Black
10
222.25
20
-147.395
11
20.32
21
-147.395
0
LINE
8
Black
10
20.32
20
-147.395
11
20.3135
21
-147.394
0
LINE
8
Black
10
20.3135
20
-147.394
11
20.307
21
-147.394
0
LINE
8
Black
10
20.307
20
-147.394
11
20.3008
21
-147.392
0
LINE
8
Black
10
20.3008
20
-147.392
11
20.2943
21
-147.39
0
LINE
8
Black
10
20.2943
20
-147.39
11
20.2887
21
-147.387
0
LINE
8
Black
10
20.2887
20
-147.387
11
20.2825
21
-147.385
0
LINE
8
Black
10
20.2825
20
-147.385
11
20.2775
21
-147.381
0
LINE
8
Black
10
20.2775
20
-147.381
11
20.2718
21
-147.377
0
LINE
8
Black
10
20.2718
20
-147.377
11
20.2676
21
-147.372
0
LINE
8
Black
10
20.2676
20
-147.372
11
20.2625
21
-147.368
0
LINE
8
Black
10
20.2625
20
-147.368
11
20.2593
21
-147.363
0
LINE
8
Black
10
20.2593
20
-147.363
11
20.255
21
-147.357
0
LINE
8
Black
10
20.255
20
-147.357
11
20.2528
21
-147.351
0
LINE
8
Black
10
20.2528
20
-147.351
11
20.2495
21
-147.346
0
LINE
8
Black
10
20.2495
20
-147.346
11
20.2484
21
-147.339
0
LINE
8
Black
10
20.2484
20
-147.339
11
20.2461
21
-147.333
0
LINE
8
Black
10
20.2461
20
-147.333
11
20.2461
21
-147.326
0
LINE
8
Black
10
20.2461
20
-147.326
11
20.245
21
-147.32
0
LINE
8
Black
10
20.245
20
-147.32
11
20.245
21
-27.94
0
LINE
8
Black
10
20.245
20
-27.94
11
20.2461
21
-27.9335
0
LINE
8
Black
10
20.2461
20
-27.9335
11
20.2461
21
-27.927
0
LINE
8
Black
10
20.2461
20
-27.927
11
20.2484
21
-27.9208
0
LINE
8
Black
10
20.2484
20
-27.9208
11
20.2495
21
-27.9143
0
LINE
8
Black
10
20.2495
20
-27.9143
11
20.2528
21
-27.9087
0
LINE
8
Black
10
20.2528
20
-27.9087
11
20.255
21
-27.9025
0
LINE
8
Black
10
20.255
20
-27.9025
11
20.2593
21
-27.8975
0
LINE
8
Black
10
20.2593
20
-27.8975
11
20.2625
21
-27.8918
0
LINE
8
Black
10
20.2625
20
-27.8918
11
20.2676
21
-27.8876
0
LINE
8
Black
10
20.2676
20
-27.8876
11
20.2718
21
-27.8825
0
LINE
8
Black
10
20.2718
20
-27.8825
11
20.2775
21
-27.8793
0
LINE
8
Black
10
20.2775
20
-27.8793
11
20.2825
21
-27.875
0
LINE
8
Black
10
20.2825
20
-27.875
11
20.2887
21
-27.8728
0
LINE
8
Black
10
20.2887
20
-27.8728
11
20.2943
21
-27.8695
0
LINE
8
Black
10
20.2943
20
-27.8695
11
20.3008
21
-27.8684
0
LINE
8
Black
10
20.3008
20
-27.8684
11
20.307
21
-27.8661
0
LINE
8
Black
10
20.307
20
-27.8661
11
20.3135
21
-27.8661
0
LINE
8
Black
10
20.3135
20
-27.8661
11
20.32
21
-27.865
0
LINE
8
Black
10
20.32
20
-27.865
11
222.25
21
-27.865
0
LINE
8
Black
10
222.25
20
-27.865
11
222.256
21
-27.8661
0
LINE
8
Black
10
20.395
20
-28.015
11
20.395
21
-147.245
0
LINE
8
Black
10
20.395
20
-147.245
11
222.175
21
-147.245
0
LINE
8
Black
10
222.175
20
-147.245
11
222.175
21
-28.015
0
LINE
8
Black
10
222.175
20
-28.015
11
20.395
21
-28.015
  0
ENDSEC
  0
EOF
