<?xml version="1.0" standalone="no"?>
 <!DOCTYPE svg PUBLIC "-//W3C//DTD SVG 1.1//EN" 
 "http://www.w3.org/Graphics/SVG/1.1/DTD/svg11.dtd"> 
<svg xmlns="http://www.w3.org/2000/svg" version="1.1" 
    width="29.7002cm" height="21.0007cm" viewBox="0 0 116930 82680 ">
<title>SVG Picture created as Telescopio-B.Cu.svg date 2017/07/04 13:39:04 </title>
  <desc>Picture generated by PCBNEW </desc>
<g style="fill:#000000; fill-opacity:1;stroke:#000000; stroke-opacity:1;
stroke-linecap:round; stroke-linejoin:round; "
 transform="translate(0 0) scale(1 1)">
</g>
<g style="fill:#000000; fill-opacity:0.0; 
stroke:#000000; stroke-width:-0.000393701; stroke-opacity:1; 
stroke-linecap:round; stroke-linejoin:round;">
</g>
<g style="fill:#000000; fill-opacity:0.0; 
stroke:#000000; stroke-width:669; stroke-opacity:1; 
stroke-linecap:round; stroke-linejoin:round;">
<path d="M21500 16354
L21500 15645
" />
<path d="M20500 16354
L20500 15645
" />
<path d="M22500 16354
L22500 15645
" />
</g>
<g style="fill:#000000; fill-opacity:0.0; 
stroke:#000000; stroke-width:0; stroke-opacity:1; 
stroke-linecap:round; stroke-linejoin:round;">
</g>
<g style="fill:#000000; fill-opacity:1.0; 
stroke:#000000; stroke-width:0; stroke-opacity:1; 
stroke-linecap:round; stroke-linejoin:round;">
<polyline style="fill-rule:evenodd;"
points="28244,17744
28755,17744
28755,18255
28244,18255
28244,17744
" /> 
<circle cx="28500" cy="18984.3" r="255.906" /> 
</g>
<g style="fill:#000000; fill-opacity:1.0; 
stroke:#000000; stroke-width:39.3701; stroke-opacity:1; 
stroke-linecap:round; stroke-linejoin:round;">
</g>
<g style="fill:#000000; fill-opacity:1.0; 
stroke:#000000; stroke-width:0; stroke-opacity:1; 
stroke-linecap:round; stroke-linejoin:round;">
<polyline style="fill-rule:evenodd;"
points="32244,17744
32755,17744
32755,18255
32244,18255
32244,17744
" /> 
<circle cx="32500" cy="18984.3" r="255.906" /> 
</g>
<g style="fill:#000000; fill-opacity:1.0; 
stroke:#000000; stroke-width:39.3701; stroke-opacity:1; 
stroke-linecap:round; stroke-linejoin:round;">
</g>
<g style="fill:#000000; fill-opacity:1.0; 
stroke:#000000; stroke-width:0; stroke-opacity:1; 
stroke-linecap:round; stroke-linejoin:round;">
<polyline style="fill-rule:evenodd;"
points="19244,17744
19755,17744
19755,18255
19244,18255
19244,17744
" /> 
<circle cx="19500" cy="18984.3" r="255.906" /> 
</g>
<g style="fill:#000000; fill-opacity:1.0; 
stroke:#000000; stroke-width:39.3701; stroke-opacity:1; 
stroke-linecap:round; stroke-linejoin:round;">
</g>
<g style="fill:#000000; fill-opacity:1.0; 
stroke:#000000; stroke-width:0; stroke-opacity:1; 
stroke-linecap:round; stroke-linejoin:round;">
<polyline style="fill-rule:evenodd;"
points="23244,17744
23755,17744
23755,18255
23244,18255
23244,17744
" /> 
<circle cx="23500" cy="18984.3" r="255.906" /> 
</g>
<g style="fill:#000000; fill-opacity:1.0; 
stroke:#000000; stroke-width:39.3701; stroke-opacity:1; 
stroke-linecap:round; stroke-linejoin:round;">
</g>
<g style="fill:#000000; fill-opacity:1.0; 
stroke:#000000; stroke-width:0; stroke-opacity:1; 
stroke-linecap:round; stroke-linejoin:round;">
<polyline style="fill-rule:evenodd;"
points="10752,14189
10752,12811
12130,12811
12130,14189
10752,14189
" /> 
<polyline style="fill-rule:evenodd;"
points="8390,14189
8390,12811
9768,12811
9768,14189
8390,14189
" /> 
<polyline style="fill-rule:evenodd;"
points="9571,16039
9571,14661
10949,14661
10949,16039
9571,16039
" /> 
<polyline style="fill-rule:evenodd;"
points="51100,24340
51100,23660
51900,23660
51900,24340
51100,24340
" /> 
</g>
<g style="fill:#000000; fill-opacity:1.0; 
stroke:#000000; stroke-width:680; stroke-opacity:1; 
stroke-linecap:round; stroke-linejoin:round;">
</g>
<g style="fill:#000000; fill-opacity:0.0; 
stroke:#000000; stroke-width:680; stroke-opacity:1; 
stroke-linecap:round; stroke-linejoin:round;">
<path d="M51440 25000
L51560 25000
" />
<path d="M51440 26000
L51560 26000
" />
<path d="M51440 27000
L51560 27000
" />
<path d="M51440 28000
L51560 28000
" />
<path d="M51440 29000
L51560 29000
" />
<path d="M51440 30000
L51560 30000
" />
<path d="M51440 31000
L51560 31000
" />
<path d="M51440 32000
L51560 32000
" />
<path d="M51440 33000
L51560 33000
" />
<path d="M51440 34000
L51560 34000
" />
<path d="M51440 35000
L51560 35000
" />
<path d="M51440 36000
L51560 36000
" />
<path d="M51440 37000
L51560 37000
" />
<path d="M51440 38000
L51560 38000
" />
<path d="M51440 39000
L51560 39000
" />
<path d="M51440 40000
L51560 40000
" />
<path d="M51440 41000
L51560 41000
" />
<path d="M51440 42000
L51560 42000
" />
</g>
<g style="fill:#000000; fill-opacity:0.0; 
stroke:#000000; stroke-width:0; stroke-opacity:1; 
stroke-linecap:round; stroke-linejoin:round;">
</g>
<g style="fill:#000000; fill-opacity:1.0; 
stroke:#000000; stroke-width:0; stroke-opacity:1; 
stroke-linecap:round; stroke-linejoin:round;">
<polyline style="fill-rule:evenodd;"
points="60100,24340
60100,23660
60900,23660
60900,24340
60100,24340
" /> 
</g>
<g style="fill:#000000; fill-opacity:1.0; 
stroke:#000000; stroke-width:680; stroke-opacity:1; 
stroke-linecap:round; stroke-linejoin:round;">
</g>
<g style="fill:#000000; fill-opacity:0.0; 
stroke:#000000; stroke-width:680; stroke-opacity:1; 
stroke-linecap:round; stroke-linejoin:round;">
<path d="M60440 25000
L60560 25000
" />
<path d="M60440 26000
L60560 26000
" />
<path d="M60440 27000
L60560 27000
" />
<path d="M60440 28000
L60560 28000
" />
<path d="M60440 29000
L60560 29000
" />
<path d="M60440 30000
L60560 30000
" />
<path d="M60440 31000
L60560 31000
" />
<path d="M60440 32000
L60560 32000
" />
<path d="M60440 33000
L60560 33000
" />
<path d="M60440 34000
L60560 34000
" />
<path d="M60440 35000
L60560 35000
" />
<path d="M60440 36000
L60560 36000
" />
<path d="M60440 37000
L60560 37000
" />
<path d="M60440 38000
L60560 38000
" />
<path d="M60440 39000
L60560 39000
" />
<path d="M60440 40000
L60560 40000
" />
<path d="M60440 41000
L60560 41000
" />
<path d="M60440 42000
L60560 42000
" />
</g>
<g style="fill:#000000; fill-opacity:0.0; 
stroke:#000000; stroke-width:0; stroke-opacity:1; 
stroke-linecap:round; stroke-linejoin:round;">
</g>
<g style="fill:#000000; fill-opacity:1.0; 
stroke:#000000; stroke-width:0; stroke-opacity:1; 
stroke-linecap:round; stroke-linejoin:round;">
<polyline style="fill-rule:evenodd;"
points="67350,34590
67350,33910
68150,33910
68150,34590
67350,34590
" /> 
</g>
<g style="fill:#000000; fill-opacity:1.0; 
stroke:#000000; stroke-width:680; stroke-opacity:1; 
stroke-linecap:round; stroke-linejoin:round;">
</g>
<g style="fill:#000000; fill-opacity:0.0; 
stroke:#000000; stroke-width:680; stroke-opacity:1; 
stroke-linecap:round; stroke-linejoin:round;">
<path d="M67690 35250
L67810 35250
" />
<path d="M67690 36250
L67810 36250
" />
<path d="M67690 37250
L67810 37250
" />
<path d="M67690 38250
L67810 38250
" />
<path d="M67690 39250
L67810 39250
" />
<path d="M67690 40250
L67810 40250
" />
<path d="M67690 41250
L67810 41250
" />
</g>
<g style="fill:#000000; fill-opacity:0.0; 
stroke:#000000; stroke-width:0; stroke-opacity:1; 
stroke-linecap:round; stroke-linejoin:round;">
</g>
<g style="fill:#000000; fill-opacity:1.0; 
stroke:#000000; stroke-width:0; stroke-opacity:1; 
stroke-linecap:round; stroke-linejoin:round;">
<polyline style="fill-rule:evenodd;"
points="72350,34590
72350,33910
73150,33910
73150,34590
72350,34590
" /> 
</g>
<g style="fill:#000000; fill-opacity:1.0; 
stroke:#000000; stroke-width:680; stroke-opacity:1; 
stroke-linecap:round; stroke-linejoin:round;">
</g>
<g style="fill:#000000; fill-opacity:0.0; 
stroke:#000000; stroke-width:680; stroke-opacity:1; 
stroke-linecap:round; stroke-linejoin:round;">
<path d="M72690 35250
L72810 35250
" />
<path d="M72690 36250
L72810 36250
" />
<path d="M72690 37250
L72810 37250
" />
<path d="M72690 38250
L72810 38250
" />
<path d="M72690 39250
L72810 39250
" />
<path d="M72690 40250
L72810 40250
" />
<path d="M72690 41250
L72810 41250
" />
</g>
<g style="fill:#000000; fill-opacity:0.0; 
stroke:#000000; stroke-width:0; stroke-opacity:1; 
stroke-linecap:round; stroke-linejoin:round;">
</g>
<g style="fill:#000000; fill-opacity:1.0; 
stroke:#000000; stroke-width:0; stroke-opacity:1; 
stroke-linecap:round; stroke-linejoin:round;">
<polyline style="fill-rule:evenodd;"
points="43900,38660
43900,39340
43100,39340
43100,38660
43900,38660
" /> 
</g>
<g style="fill:#000000; fill-opacity:1.0; 
stroke:#000000; stroke-width:680; stroke-opacity:1; 
stroke-linecap:round; stroke-linejoin:round;">
</g>
<g style="fill:#000000; fill-opacity:0.0; 
stroke:#000000; stroke-width:680; stroke-opacity:1; 
stroke-linecap:round; stroke-linejoin:round;">
<path d="M43560 38000
L43440 38000
" />
<path d="M43560 37000
L43440 37000
" />
<path d="M43560 36000
L43440 36000
" />
<path d="M43560 35000
L43440 35000
" />
<path d="M43560 34000
L43440 34000
" />
<path d="M43560 33000
L43440 33000
" />
<path d="M43560 32000
L43440 32000
" />
</g>
<g style="fill:#000000; fill-opacity:0.0; 
stroke:#000000; stroke-width:0; stroke-opacity:1; 
stroke-linecap:round; stroke-linejoin:round;">
</g>
<g style="fill:#000000; fill-opacity:1.0; 
stroke:#000000; stroke-width:0; stroke-opacity:1; 
stroke-linecap:round; stroke-linejoin:round;">
<polyline style="fill-rule:evenodd;"
points="38900,38660
38900,39340
38100,39340
38100,38660
38900,38660
" /> 
</g>
<g style="fill:#000000; fill-opacity:1.0; 
stroke:#000000; stroke-width:680; stroke-opacity:1; 
stroke-linecap:round; stroke-linejoin:round;">
</g>
<g style="fill:#000000; fill-opacity:0.0; 
stroke:#000000; stroke-width:680; stroke-opacity:1; 
stroke-linecap:round; stroke-linejoin:round;">
<path d="M38560 38000
L38440 38000
" />
<path d="M38560 37000
L38440 37000
" />
<path d="M38560 36000
L38440 36000
" />
<path d="M38560 35000
L38440 35000
" />
<path d="M38560 34000
L38440 34000
" />
<path d="M38560 33000
L38440 33000
" />
<path d="M38560 32000
L38440 32000
" />
</g>
<g style="fill:#000000; fill-opacity:0.0; 
stroke:#000000; stroke-width:1181; stroke-opacity:1; 
stroke-linecap:round; stroke-linejoin:round;">
<path d="M77644 37470
L76856 37470
" />
<path d="M77644 39030
L76856 39030
" />
<path d="M77644 35911
L76856 35911
" />
<path d="M77644 40589
L76856 40589
" />
<path d="M34606 35780
L35394 35780
" />
<path d="M34606 34220
L35394 34220
" />
<path d="M34606 37339
L35394 37339
" />
<path d="M34606 32661
L35394 32661
" />
</g>
<g style="fill:#000000; fill-opacity:0.0; 
stroke:#000000; stroke-width:0; stroke-opacity:1; 
stroke-linecap:round; stroke-linejoin:round;">
</g>
<g style="fill:#000000; fill-opacity:1.0; 
stroke:#000000; stroke-width:0; stroke-opacity:1; 
stroke-linecap:round; stroke-linejoin:round;">
<polyline style="fill-rule:evenodd;"
points="51840,47900
51160,47900
51160,47100
51840,47100
51840,47900
" /> 
</g>
<g style="fill:#000000; fill-opacity:1.0; 
stroke:#000000; stroke-width:680; stroke-opacity:1; 
stroke-linecap:round; stroke-linejoin:round;">
</g>
<g style="fill:#000000; fill-opacity:0.0; 
stroke:#000000; stroke-width:680; stroke-opacity:1; 
stroke-linecap:round; stroke-linejoin:round;">
<path d="M52500 47560
L52500 47440
" />
<path d="M53500 47560
L53500 47440
" />
<path d="M54500 47560
L54500 47440
" />
<path d="M55500 47560
L55500 47440
" />
<path d="M56500 47560
L56500 47440
" />
<path d="M57500 47560
L57500 47440
" />
<path d="M58500 47560
L58500 47440
" />
<path d="M59500 47560
L59500 47440
" />
<path d="M60500 47560
L60500 47440
" />
</g>
<g style="fill:#000000; fill-opacity:0.0; 
stroke:#000000; stroke-width:709; stroke-opacity:1; 
stroke-linecap:round; stroke-linejoin:round;">
<path d="M57500 52165
L57500 52834
" />
<path d="M58500 52165
L58500 52834
" />
<path d="M59500 52165
L59500 52834
" />
<path d="M60500 52165
L60500 52834
" />
</g>
<g style="fill:#000000; fill-opacity:0.0; 
stroke:#000000; stroke-width:669; stroke-opacity:1; 
stroke-linecap:round; stroke-linejoin:round;">
<path d="M30500 16354
L30500 15645
" />
<path d="M29500 16354
L29500 15645
" />
<path d="M31500 16354
L31500 15645
" />
</g>
<g style="fill:#000000; fill-opacity:0.0; 
stroke:#000000; stroke-width:0; stroke-opacity:1; 
stroke-linecap:round; stroke-linejoin:round;">
</g>
<g style="fill:#000000; fill-opacity:1.0; 
stroke:#000000; stroke-width:0; stroke-opacity:1; 
stroke-linecap:round; stroke-linejoin:round;">
<polyline style="fill-rule:evenodd;"
points="44100,24340
44100,23660
44900,23660
44900,24340
44100,24340
" /> 
</g>
<g style="fill:#000000; fill-opacity:1.0; 
stroke:#000000; stroke-width:680; stroke-opacity:1; 
stroke-linecap:round; stroke-linejoin:round;">
</g>
<g style="fill:#000000; fill-opacity:0.0; 
stroke:#000000; stroke-width:680; stroke-opacity:1; 
stroke-linecap:round; stroke-linejoin:round;">
<path d="M44440 25000
L44560 25000
" />
<path d="M44440 26000
L44560 26000
" />
<path d="M44440 27000
L44560 27000
" />
<path d="M44440 28000
L44560 28000
" />
</g>
<g style="fill:#000000; fill-opacity:1.0; 
stroke:#000000; stroke-width:0; stroke-opacity:1; 
stroke-linecap:round; stroke-linejoin:round;">
<circle cx="12000" cy="20000" r="500" /> 
</g>
<g style="fill:#000000; fill-opacity:1.0; 
stroke:#000000; stroke-width:39.3701; stroke-opacity:1; 
stroke-linecap:round; stroke-linejoin:round;">
</g>
<g style="fill:#000000; fill-opacity:1.0; 
stroke:#000000; stroke-width:0; stroke-opacity:1; 
stroke-linecap:round; stroke-linejoin:round;">
<circle cx="16000" cy="22000" r="500" /> 
</g>
<g style="fill:#000000; fill-opacity:1.0; 
stroke:#000000; stroke-width:39.3701; stroke-opacity:1; 
stroke-linecap:round; stroke-linejoin:round;">
</g>
<g style="fill:#000000; fill-opacity:1.0; 
stroke:#000000; stroke-width:1181.1; stroke-opacity:1; 
stroke-linecap:round; stroke-linejoin:round;">
</g>
<g style="fill:#000000; fill-opacity:0.0; 
stroke:#000000; stroke-width:1181.1; stroke-opacity:1; 
stroke-linecap:round; stroke-linejoin:round;">
<path d="M11441 13500
L12500 13500
" />
<path d="M12500 13500
L14000 15000
" />
<path d="M14000 18000
L12000 20000
" />
<path d="M14000 15000
L14000 18000
" />
</g>
<g style="fill:#000000; fill-opacity:0.0; 
stroke:#000000; stroke-width:787.402; stroke-opacity:1; 
stroke-linecap:round; stroke-linejoin:round;">
<path d="M12000 20000
L12500 20000
" />
<path d="M12500 20000
L13000 20500
" />
<path d="M12000 20000
L12500 20500
" />
<path d="M12500 20000
L13000 19500
" />
<path d="M12000 20000
L11500 20000
" />
<path d="M12000 20000
L12000 19500
" />
<path d="M12000 20000
L11500 19500
" />
<path d="M12000 20000
L12500 19500
" />
<path d="M12000 20000
L12000 20500
" />
<path d="M12000 20000
L11500 20500
" />
<path d="M13500 19000
L13500 14500
" />
<path d="M13500 14500
L12500 13500
" />
<path d="M12000 20000
L13500 20000
" />
<path d="M13500 20000
L13500 21000
" />
<path d="M13500 21000
L11000 21000
" />
<path d="M11000 21000
L11000 20000
" />
<path d="M11000 20000
L11000 19500
" />
<path d="M13500 19000
L13500 19500
" />
<path d="M11000 19000
L13500 19000
" />
<path d="M11000 19500
L11000 19000
" />
<path d="M11441 13500
L12000 13500
" />
<path d="M60500 24000
L60500 23500
" />
<path d="M60500 24000
L59000 24000
" />
<path d="M60500 24000
L61500 24000
" />
<path d="M32500 18984
L32984 18984
" />
<path d="M32984 18984
L33000 19000
" />
<path d="M32500 18984
L32015 18984
" />
<path d="M32015 18984
L32000 19000
" />
<path d="M28500 18984
L28500 19000
" />
<path d="M28500 19000
L29000 19000
" />
<path d="M29000 19000
L29000 19500
" />
<path d="M28500 18984
L28015 18984
" />
<path d="M28015 18984
L28000 19000
" />
<path d="M23500 18984
L23015 18984
" />
<path d="M23015 18984
L23000 19000
" />
<path d="M23500 18984
L23500 19000
" />
<path d="M23500 19000
L24000 19000
" />
<path d="M24000 19000
L24000 19500
" />
<path d="M19500 18984
L19984 18984
" />
<path d="M19984 18984
L20000 19000
" />
<path d="M19500 18984
L19500 19000
" />
<path d="M19500 19000
L19000 19000
" />
<path d="M19000 19000
L19000 19500
" />
<path d="M72750 35250
L71750 35250
" />
<path d="M71750 35250
L71500 35500
" />
<path d="M9079 13500
L9079 12921
" />
<path d="M9079 12921
L9500 12500
" />
<path d="M9079 13500
L10000 13500
" />
<path d="M9079 13500
L9079 14421
" />
<path d="M9079 14421
L9000 14500
" />
<path d="M10260 15350
L10260 14681
" />
<path d="M10260 14681
L9079 13500
" />
<path d="M10260 15350
L9150 15350
" />
<path d="M9150 15350
L9000 15500
" />
<path d="M10260 15350
L11850 15350
" />
<path d="M12000 15500
L12500 15500
" />
<path d="M11850 15350
L12000 15500
" />
<path d="M10260 15350
L10260 16260
" />
<path d="M10260 16260
L10500 16500
" />
<path d="M32500 18984
L32500 19500
" />
<path d="M32500 19500
L33000 20000
" />
<path d="M28500 19000
L29000 19500
" />
<path d="M29000 19500
L29000 19500
" />
<path d="M23500 19000
L24000 19500
" />
<path d="M24000 19500
L24000 19500
" />
<path d="M19500 19000
L19000 19500
" />
<path d="M19000 19500
L19000 19500
" />
<path d="M21500 16000
L21500 17000
" />
<path d="M21500 16000
L21500 15000
" />
<path d="M30500 16000
L30500 17000
" />
<path d="M38500 32000
L37500 32000
" />
<path d="M38500 32000
L39500 32000
" />
<path d="M38500 32000
L38500 31500
" />
<path d="M38500 38000
L39500 38000
" />
<path d="M52500 47500
L52500 46500
" />
<path d="M52500 47500
L52500 48500
" />
<path d="M72750 41250
L72750 41750
" />
<path d="M72750 41750
L73000 42000
" />
<path d="M72750 41250
L73250 41250
" />
<path d="M73250 41250
L73500 41500
" />
<path d="M72750 41250
L72250 41250
" />
<path d="M72250 41250
L72000 41500
" />
<path d="M60500 30000
L61500 30000
" />
<path d="M60500 30000
L60000 30000
" />
<path d="M51500 37000
L52500 37000
" />
<path d="M51500 37000
L50500 37000
" />
<path d="M44500 24000
L40000 24000
" />
<path d="M34000 18000
L34500 18000
" />
<path d="M40000 24000
L34000 18000
" />
<path d="M32500 18000
L34500 18000
" />
<path d="M34500 18000
L48500 18000
" />
<path d="M52500 42000
L51500 42000
" />
<path d="M53000 41500
L52500 42000
" />
<path d="M53000 41000
L53000 41500
" />
<path d="M53500 40500
L53000 41000
" />
<path d="M53500 23000
L53500 40500
" />
<path d="M48500 18000
L53500 23000
" />
<path d="M32500 18000
L32500 17000
" />
<path d="M32500 17000
L31500 16000
" />
<path d="M23500 18000
L22500 18000
" />
<path d="M35000 47500
L51500 47500
" />
<path d="M21500 34000
L35000 47500
" />
<path d="M21500 19000
L21500 34000
" />
<path d="M22500 18000
L21500 19000
" />
<path d="M23500 18000
L23500 17000
" />
<path d="M23500 17000
L22500 16000
" />
<path d="M53500 47500
L53500 44500
" />
<path d="M59000 26000
L60500 26000
" />
<path d="M55500 29500
L59000 26000
" />
<path d="M55500 42500
L55500 29500
" />
<path d="M53500 44500
L55500 42500
" />
<path d="M54500 47500
L54500 45500
" />
<path d="M59000 29000
L60500 29000
" />
<path d="M57500 30500
L59000 29000
" />
<path d="M57500 42500
L57500 30500
" />
<path d="M54500 45500
L57500 42500
" />
<path d="M57500 47500
L57500 52500
" />
<path d="M58500 47500
L58500 52500
" />
<path d="M43500 32000
L43500 31000
" />
<path d="M44500 30000
L51500 30000
" />
<path d="M43500 31000
L44500 30000
" />
<path d="M43500 33000
L45000 33000
" />
<path d="M47000 31000
L51500 31000
" />
<path d="M45000 33000
L47000 31000
" />
<path d="M51366 31000
L51500 30866
" />
<path d="M51500 30866
L51500 31000
" />
<path d="M43500 36000
L45000 36000
" />
<path d="M48500 32000
L51500 32000
" />
<path d="M47000 33500
L48500 32000
" />
<path d="M47000 34000
L47000 33500
" />
<path d="M45000 36000
L47000 34000
" />
<path d="M43500 37000
L46000 37000
" />
<path d="M49500 33000
L51500 33000
" />
<path d="M48500 34000
L49500 33000
" />
<path d="M48500 34500
L48500 34000
" />
<path d="M46000 37000
L48500 34500
" />
<path d="M43500 38000
L47500 38000
" />
<path d="M50500 34000
L51500 34000
" />
<path d="M50000 34500
L50500 34000
" />
<path d="M48000 36500
L50000 34500
" />
<path d="M48000 37500
L48000 36500
" />
<path d="M47500 38000
L48000 37500
" />
<path d="M67750 37250
L69250 37250
" />
<path d="M61000 36000
L60500 36000
" />
<path d="M65500 31500
L61000 36000
" />
<path d="M69500 31500
L65500 31500
" />
<path d="M70500 32500
L69500 31500
" />
<path d="M70500 36000
L70500 32500
" />
<path d="M69250 37250
L70500 36000
" />
<path d="M60500 37000
L62000 37000
" />
<path d="M68750 36250
L67750 36250
" />
<path d="M69000 36000
L68750 36250
" />
<path d="M69000 33500
L69000 36000
" />
<path d="M68500 33000
L69000 33500
" />
<path d="M66000 33000
L68500 33000
" />
<path d="M62000 37000
L66000 33000
" />
<path d="M60500 38000
L63000 38000
" />
<path d="M65750 35250
L67750 35250
" />
<path d="M63000 38000
L65750 35250
" />
<path d="M67750 40250
L64250 40250
" />
<path d="M64000 40000
L60500 40000
" />
<path d="M64250 40250
L64000 40000
" />
<path d="M60500 41000
L61000 41000
" />
<path d="M67000 42000
L67750 41250
" />
<path d="M62000 42000
L67000 42000
" />
<path d="M61000 41000
L62000 42000
" />
<path d="M72750 36250
L73250 36250
" />
<path d="M77250 35250
L77250 35911
" />
<path d="M77000 35000
L77250 35250
" />
<path d="M74500 35000
L77000 35000
" />
<path d="M73250 36250
L74500 35000
" />
<path d="M72750 37250
L73750 37250
" />
<path d="M74000 37000
L76780 37000
" />
<path d="M73750 37250
L74000 37000
" />
<path d="M76780 37000
L77250 37470
" />
<path d="M72750 38250
L74750 38250
" />
<path d="M75500 39000
L77220 39000
" />
<path d="M74750 38250
L75500 39000
" />
<path d="M77220 39000
L77250 39030
" />
<path d="M72750 39250
L73250 39250
" />
<path d="M74589 40589
L77250 40589
" />
<path d="M73250 39250
L74589 40589
" />
<path d="M38500 37000
L38000 37000
" />
<path d="M35661 38000
L35000 37339
" />
<path d="M36500 38000
L35661 38000
" />
<path d="M37000 37500
L36500 38000
" />
<path d="M37500 37500
L37000 37500
" />
<path d="M38000 37000
L37500 37500
" />
<path d="M38500 36000
L35220 36000
" />
<path d="M35220 36000
L35000 35780
" />
<path d="M38500 35000
L37000 35000
" />
<path d="M36220 34220
L35000 34220
" />
<path d="M37000 35000
L36220 34220
" />
<path d="M38500 34000
L38000 34000
" />
<path d="M36661 32661
L35000 32661
" />
<path d="M38000 34000
L36661 32661
" />
<path d="M59500 47500
L59500 52500
" />
<path d="M60500 47500
L60500 52500
" />
<path d="M51500 28000
L50500 28000
" />
<path d="M46866 24866
L44500 24866
" />
<path d="M48000 26000
L46866 24866
" />
<path d="M48500 26000
L48000 26000
" />
<path d="M50500 28000
L48500 26000
" />
<path d="M44500 24866
L44500 25000
" />
<path d="M51500 29000
L49000 29000
" />
<path d="M46000 26000
L44500 26000
" />
<path d="M47500 27500
L46000 26000
" />
<path d="M49000 29000
L47500 27500
" />
<path d="M51500 35000
L51000 35000
" />
<path d="M44000 28500
L44500 28000
" />
<path d="M43000 28500
L44000 28500
" />
<path d="M41500 30000
L43000 28500
" />
<path d="M41500 41500
L41500 30000
" />
<path d="M48000 41500
L41500 41500
" />
<path d="M49500 40000
L48000 41500
" />
<path d="M49500 36500
L49500 40000
" />
<path d="M51000 35000
L49500 36500
" />
</g>
<g style="fill:#000000; fill-opacity:0.0; 
stroke:#000000; stroke-width:1181.1; stroke-opacity:1; 
stroke-linecap:round; stroke-linejoin:round;">
<path d="M37500 40000
L32500 40000
" />
</g>
<g style="fill:#000000; fill-opacity:0.0; 
stroke:#000000; stroke-width:787.402; stroke-opacity:1; 
stroke-linecap:round; stroke-linejoin:round;">
<path d="M38500 39000
L37500 40000
" />
</g>
<g style="fill:#000000; fill-opacity:0.0; 
stroke:#000000; stroke-width:1181.1; stroke-opacity:1; 
stroke-linecap:round; stroke-linejoin:round;">
<path d="M26500 16500
L23500 13500
" />
<path d="M26500 34000
L26500 16500
" />
<path d="M32500 40000
L26500 34000
" />
<path d="M17000 14000
L17000 21000
" />
<path d="M17000 21000
L16000 22000
" />
<path d="M27000 13500
L23500 13500
" />
<path d="M23500 13500
L17500 13500
" />
<path d="M17500 13500
L17000 14000
" />
<path d="M72750 32500
L72750 29750
" />
<path d="M51000 13500
L27000 13500
" />
<path d="M58000 20500
L51000 13500
" />
<path d="M63500 20500
L58000 20500
" />
<path d="M72750 29750
L63500 20500
" />
</g>
<g style="fill:#000000; fill-opacity:0.0; 
stroke:#000000; stroke-width:787.402; stroke-opacity:1; 
stroke-linecap:round; stroke-linejoin:round;">
<path d="M72750 34250
L72750 32500
" />
<path d="M72750 32500
L72750 30250
" />
<path d="M72750 30250
L72500 30000
" />
<path d="M16000 22000
L15500 21500
" />
<path d="M16000 22000
L16500 22000
" />
<path d="M16000 22000
L15500 22000
" />
<path d="M16500 21000
L16500 21500
" />
<path d="M16500 21500
L16000 22000
" />
<path d="M17000 21000
L16500 21000
" />
<path d="M15000 21000
L15000 22500
" />
<path d="M16000 22000
L16000 21000
" />
<path d="M16000 21000
L15500 21000
" />
<path d="M15500 21000
L15000 21000
" />
<path d="M17000 22500
L17000 21000
" />
<path d="M15000 22500
L17000 22500
" />
<path d="M17500 13500
L19000 13500
" />
<path d="M17000 14000
L17500 13500
" />
<path d="M20500 15000
L19000 13500
" />
<path d="M19000 13500
L27000 13500
" />
<path d="M28500 18000
L28500 17000
" />
<path d="M28500 17000
L29500 16000
" />
<path d="M19500 18000
L19500 17000
" />
<path d="M19500 17000
L20500 16000
" />
<path d="M20500 16000
L20500 15000
" />
<path d="M27000 13500
L29500 16000
" />
</g>
<g style="fill:#000000; fill-opacity:1.0; 
stroke:#000000; stroke-width:100; stroke-opacity:1; 
stroke-linecap:round; stroke-linejoin:round;">
<polyline style="fill-rule:evenodd;"
points="87220,57720
8279,57720
8279,15462
9321,15462
9321,16088
9359,16180
9429,16250
9521,16289
10147,16289
10210,16226
10210,15400
10310,15400
10310,16226
10372,16289
10998,16289
11090,16250
11160,16180
11199,16088
11199,15462
11136,15400
10310,15400
10210,15400
9383,15400
9321,15462
8279,15462
8279,14413
8340,14439
8966,14439
9029,14376
9029,13550
9129,13550
9129,14376
9191,14439
9453,14439
9429,14449
9359,14519
9321,14611
9321,15237
9383,15300
10210,15300
10210,14473
10310,14473
10310,15300
11136,15300
11199,15237
11199,14611
11160,14519
11090,14449
11078,14443
12130,14443
12222,14426
12231,14420
12856,15045
12856,17954
12454,18356
11000,18356
10753,18405
10544,18544
10405,18753
10356,19000
10356,21000
10405,21246
10544,21455
10753,21594
11000,21643
13500,21643
13746,21594
13955,21455
14094,21246
14143,21000
14356,21000
14356,22500
14405,22746
14544,22955
14753,23094
15000,23143
17000,23143
17246,23094
17455,22955
17594,22746
17643,22500
17643,21520
17776,21321
17840,21000
17840,19338
19216,19338
19238,19428
19428,19495
19629,19483
19761,19428
19783,19338
19500,19054
19216,19338
17840,19338
17840,18913
18989,18913
19000,19113
19055,19245
19146,19267
19429,18984
19570,18984
19853,19267
19944,19245
20010,19055
20007,19000
20856,19000
20856,19000
20856,33999
20856,34000
20905,34246
21044,34455
34544,47955
34753,48094
35000,48143
35000,48143
51104,48143
51160,48154
51840,48154
51932,48137
52017,48082
52074,47999
52082,47961
52144,48031
52352,48131
52358,48132
52450,48085
52450,47550
52442,47550
52442,47450
52450,47450
52450,46914
52550,46914
52550,47450
52557,47450
52557,47550
52550,47550
52550,48085
52641,48132
52647,48131
52855,48031
52992,47877
53044,47955
53071,47972
53082,47989
53274,48117
53500,48162
53725,48117
53917,47989
53928,47972
53955,47955
54000,47888
54044,47955
54071,47972
54082,47989
54274,48117
54500,48162
54725,48117
54917,47989
54928,47972
54955,47955
55007,47877
55082,47989
55274,48117
55500,48162
55725,48117
55917,47989
56000,47865
56082,47989
56274,48117
56500,48162
56725,48117
56856,48030
56856,52500
56895,52697
56895,52852
56941,53084
57072,53280
57268,53411
57500,53457
57731,53411
57927,53280
58000,53171
58072,53280
58268,53411
58500,53457
58731,53411
58927,53280
59000,53171
59072,53280
59268,53411
59500,53457
59731,53411
59927,53280
60000,53171
60072,53280
60268,53411
60500,53457
60731,53411
60927,53280
61058,53084
61104,52852
61104,52697
61143,52500
61143,47500
61094,47253
60955,47044
60928,47027
60917,47010
60725,46882
60500,46837
60274,46882
60082,47010
60071,47027
60044,47044
60000,47111
59955,47044
59928,47027
59917,47010
59725,46882
59500,46837
59274,46882
59082,47010
59071,47027
59044,47044
59000,47111
58955,47044
58928,47027
58917,47010
58725,46882
58500,46837
58274,46882
58082,47010
58071,47027
58044,47044
58000,47111
57955,47044
57928,47027
57917,47010
57725,46882
57500,46837
57274,46882
57082,47010
57071,47027
57044,47044
56992,47122
56917,47010
56725,46882
56500,46837
56274,46882
56082,47010
56000,47134
55917,47010
55725,46882
55500,46837
55274,46882
55143,46969
55143,45766
57955,42955
57955,42955
58094,42746
58143,42500
58143,31000
59837,31000
59882,31225
60010,31417
60134,31500
60010,31582
59882,31774
59837,32000
59882,32225
60010,32417
60134,32500
60010,32582
59882,32774
59837,33000
59882,33225
60010,33417
60134,33500
60010,33582
59882,33774
59837,34000
59882,34225
60010,34417
60134,34500
60010,34582
59882,34774
59837,35000
59882,35225
60010,35417
60122,35492
60044,35544
60027,35571
60010,35582
59882,35774
59837,36000
59882,36225
60010,36417
60027,36428
60044,36455
60111,36500
60044,36544
60027,36571
60010,36582
59882,36774
59837,37000
59882,37225
60010,37417
60027,37428
60044,37455
60111,37500
60044,37544
60027,37571
60010,37582
59882,37774
59837,38000
59882,38225
60010,38417
60027,38428
60044,38455
60122,38507
60010,38582
59882,38774
59837,39000
59882,39225
60010,39417
60122,39492
60044,39544
60027,39571
60010,39582
59882,39774
59837,40000
59882,40225
60010,40417
60027,40428
60044,40455
60111,40500
60044,40544
60027,40571
60010,40582
59882,40774
59837,41000
59882,41225
60010,41417
60027,41428
60044,41455
60122,41507
60010,41582
59882,41774
59837,42000
59882,42225
60010,42417
60201,42545
60427,42590
60572,42590
60798,42545
60989,42417
61117,42225
61150,42060
61544,42455
61544,42455
61753,42594
62000,42643
66999,42643
67000,42643
67246,42594
67455,42455
68205,41705
68222,41678
68239,41667
68367,41475
68384,41391
72117,41391
72118,41397
72218,41605
72390,41758
72607,41834
72700,41777
72700,41300
72800,41300
72800,41777
72892,41834
73109,41758
73281,41605
73381,41397
73382,41391
73335,41300
72800,41300
72700,41300
72164,41300
72117,41391
68384,41391
68412,41250
68367,41024
68239,40832
68222,40821
68205,40794
68138,40750
68205,40705
68222,40678
68239,40667
68367,40475
68412,40250
68367,40024
68239,39832
68222,39821
68205,39794
68127,39742
68239,39667
68367,39475
68412,39250
68367,39024
68239,38832
68115,38750
68239,38667
68367,38475
68412,38250
68367,38024
68280,37893
69249,37893
69250,37893
69496,37844
69705,37705
70955,36455
71094,36246
71143,36000
71143,35999
71143,32500
71094,32253
70955,32044
70955,32044
69955,31044
69746,30905
69500,30856
69499,30856
65500,30856
65500,30856
65253,30905
65044,31044
61150,34939
61117,34774
60989,34582
60865,34500
60989,34417
61117,34225
61162,34000
61117,33774
60989,33582
60865,33500
60989,33417
61117,33225
61162,33000
61117,32774
60989,32582
60865,32500
60989,32417
61117,32225
61162,32000
61117,31774
60989,31582
60865,31500
60989,31417
61117,31225
61162,31000
61117,30774
60989,30582
60868,30501
61031,30355
61131,30147
61132,30141
61085,30050
60550,30050
60550,30057
60450,30057
60450,30050
59914,30050
59867,30141
59868,30147
59968,30355
60131,30501
60010,30582
59882,30774
59837,31000
58143,31000
58143,30766
59266,29643
59969,29643
59968,29644
59868,29852
59867,29858
59914,29950
60450,29950
60450,29942
60550,29942
60550,29950
61085,29950
61132,29858
61131,29852
61031,29644
60877,29507
60955,29455
60972,29428
60989,29417
61117,29225
61162,29000
61117,28774
60989,28582
60972,28571
60955,28544
60877,28492
60989,28417
61117,28225
61162,28000
61117,27774
60989,27582
60865,27500
60989,27417
61117,27225
61162,27000
61117,26774
60989,26582
60877,26507
60955,26455
60972,26428
60989,26417
61117,26225
61162,26000
61117,25774
60989,25582
60972,25571
60955,25544
60877,25492
60989,25417
61117,25225
61162,25000
61117,24774
60989,24582
60981,24576
61041,24551
61111,24481
61150,24389
61150,24112
61087,24050
60550,24050
60550,24057
60450,24057
60450,24050
59912,24050
59850,24112
59850,24389
59888,24481
59958,24551
60018,24576
60010,24582
59882,24774
59837,25000
59882,25225
59969,25356
59000,25356
59000,25356
58753,25405
58544,25544
58544,25544
55044,29044
54905,29253
54856,29500
54856,29500
54856,42233
53044,44044
52905,44253
52856,44500
52856,44500
52856,46969
52855,46968
52647,46868
52641,46867
52550,46914
52450,46914
52358,46867
52352,46868
52144,46968
52083,47037
52077,47007
52022,46922
51939,46865
51840,46845
51160,46845
51100,46856
35266,46856
22143,33733
22143,19338
23216,19338
23238,19428
23428,19495
23629,19483
23761,19428
23783,19338
23500,19054
23216,19338
22143,19338
22143,19266
22766,18643
23112,18643
23100,18655
23146,18701
23055,18722
22989,18913
23000,19113
23055,19245
23146,19267
23429,18984
23570,18984
23853,19267
23944,19245
24010,19055
23999,18854
23944,18722
23853,18701
23570,18984
23429,18984
23423,18978
23494,18907
23500,18913
23783,18630
23770,18578
23955,18455
24094,18246
24143,18000
24143,17000
24094,16753
23955,16544
23955,16544
23084,15674
23084,15627
23040,15403
22913,15213
22723,15087
22500,15042
22276,15087
22086,15213
21997,15346
21877,15196
21677,15086
21640,15078
21550,15125
21550,15950
21557,15950
21557,16050
21550,16050
21550,16874
21640,16921
21677,16913
21877,16803
21997,16653
22086,16786
22276,16912
22500,16957
22539,16949
22856,17266
22856,17356
22500,17356
22253,17405
22044,17544
22044,17544
21044,18544
20905,18753
20856,19000
20007,19000
19999,18854
19944,18722
19853,18701
19570,18984
19429,18984
19146,18701
19055,18722
18989,18913
17840,18913
17840,14348
17848,14340
18930,14340
19856,15266
19856,15733
19044,16544
18905,16753
18856,17000
18856,17000
18856,18000
18905,18246
19044,18455
19229,18578
19216,18630
19500,18913
19783,18630
19770,18578
19955,18455
20094,18246
20143,18000
20143,17266
20460,16949
20500,16957
20723,16912
20913,16786
21002,16653
21122,16803
21322,16913
21359,16921
21450,16874
21450,16050
21442,16050
21442,15950
21450,15950
21450,15125
21359,15078
21322,15086
21143,15184
21143,15000
21143,15000
21094,14753
21089,14746
20955,14544
20955,14544
20750,14340
23151,14340
25659,16848
25659,34000
25723,34321
25905,34594
31905,40594
32178,40776
32500,40840
37500,40840
37821,40776
38094,40594
38276,40321
38323,40087
38815,39594
38900,39594
38992,39577
39077,39522
39134,39439
39154,39340
39154,38660
39137,38567
39082,38482
38999,38425
38961,38417
39031,38355
39131,38147
39132,38141
39085,38050
38550,38050
38550,38057
38450,38057
38450,38050
38442,38050
38442,37950
38450,37950
38450,37942
38550,37942
38550,37950
39085,37950
39132,37858
39131,37852
39031,37644
38877,37507
38955,37455
38972,37428
38989,37417
39117,37225
39162,37000
39117,36774
38989,36582
38972,36571
38955,36544
38888,36500
38955,36455
38972,36428
38989,36417
39117,36225
39162,36000
39117,35774
38989,35582
38972,35571
38955,35544
38888,35500
38955,35455
38972,35428
38989,35417
39117,35225
39162,35000
39117,34774
38989,34582
38972,34571
38955,34544
38888,34500
38955,34455
38972,34428
38989,34417
39117,34225
39162,34000
39117,33774
38989,33582
38972,33571
38955,33544
38877,33492
38989,33417
39117,33225
39162,33000
39117,32774
38989,32582
38868,32501
39031,32355
39131,32147
39132,32141
39085,32050
38550,32050
38550,32057
38450,32057
38450,32050
37914,32050
37867,32141
37868,32147
37968,32355
38131,32501
38010,32582
37882,32774
37849,32939
37116,32205
36907,32066
36661,32017
36660,32017
35938,32017
35739,31884
35609,31858
37867,31858
37914,31950
38450,31950
38450,31472
38550,31472
38550,31950
39085,31950
39132,31858
39131,31852
39031,31644
38859,31491
38642,31415
38550,31472
38450,31472
38357,31415
38140,31491
37968,31644
37868,31852
37867,31858
35609,31858
35418,31820
34581,31820
34260,31884
33987,32066
33805,32339
33741,32661
33805,32982
33987,33255
34260,33437
34275,33440
34260,33443
33987,33625
33805,33898
33741,34220
33805,34541
33987,34814
34260,34996
34277,35000
34260,35003
33987,35185
33805,35458
33741,35780
33805,36101
33987,36374
34260,36556
34275,36559
34260,36562
33987,36744
33805,37017
33741,37339
33805,37660
33987,37933
34260,38115
34581,38179
34930,38179
35205,38455
35205,38455
35407,38590
35414,38594
35661,38643
35661,38643
36499,38643
36500,38643
36746,38594
36955,38455
37266,38143
37499,38143
37500,38143
37746,38094
37850,38025
37850,38050
37914,38050
37867,38141
37868,38147
37968,38355
38037,38416
38007,38422
37922,38477
37865,38560
37845,38660
37845,38744
37430,39159
32848,39159
27340,33651
27340,19338
28216,19338
28238,19428
28428,19495
28629,19483
28761,19428
28783,19338
32216,19338
32238,19428
32428,19495
32629,19483
32761,19428
32783,19338
32500,19054
32216,19338
28783,19338
28500,19054
28216,19338
27340,19338
27340,18913
27989,18913
28000,19113
28055,19245
28146,19267
28429,18984
28570,18984
28853,19267
28944,19245
29010,19055
29002,18913
31989,18913
32000,19113
32055,19245
32146,19267
32429,18984
32146,18701
32055,18722
31989,18913
29002,18913
28999,18854
28944,18722
28853,18701
28570,18984
28429,18984
28146,18701
28055,18722
27989,18913
27340,18913
27340,16500
27286,16226
27276,16178
27094,15905
25529,14340
26930,14340
28589,16000
28044,16544
27905,16753
27856,17000
27856,17000
27856,18000
27905,18246
28044,18455
28229,18578
28216,18630
28500,18913
28783,18630
28770,18578
28955,18455
29094,18246
29143,18000
29143,17266
29460,16949
29500,16957
29723,16912
29913,16786
30002,16653
30122,16803
30322,16913
30359,16921
30450,16874
30450,16050
30442,16050
30442,15950
30450,15950
30450,15125
30550,15125
30550,15950
30557,15950
30557,16050
30550,16050
30550,16874
30640,16921
30677,16913
30877,16803
30997,16653
31086,16786
31276,16912
31500,16957
31539,16949
31856,17266
31856,18000
31905,18246
32044,18455
32229,18578
32216,18630
32500,18913
32505,18907
32576,18978
32570,18984
32853,19267
32944,19245
33010,19055
32999,18854
32944,18722
32853,18701
32899,18655
32887,18643
33733,18643
39544,24455
39544,24455
39723,24574
39753,24594
40000,24643
40000,24643
43900,24643
43856,24866
43856,24904
43837,25000
43882,25225
44010,25417
44027,25428
44044,25455
44111,25500
44044,25544
44027,25571
44010,25582
43882,25774
43837,26000
43882,26225
44010,26417
44027,26428
44044,26455
44122,26507
43968,26644
43868,26852
43867,26858
43914,26950
44450,26950
44450,26942
44550,26942
44550,26950
45085,26950
45132,26858
45131,26852
45031,26644
45030,26643
45733,26643
47044,27955
47044,27955
48445,29356
44500,29356
44253,29405
44044,29544
44044,29544
43044,30544
42905,30753
42856,31000
42856,31000
42856,31904
42837,32000
42882,32225
43010,32417
43027,32428
43044,32455
43111,32500
43044,32544
43027,32571
43010,32582
42882,32774
42837,33000
42882,33225
43010,33417
43027,33428
43044,33455
43122,33507
43010,33582
42882,33774
42837,34000
42882,34225
43010,34417
43134,34500
43010,34582
42882,34774
42837,35000
42882,35225
43010,35417
43122,35492
43044,35544
43027,35571
43010,35582
42882,35774
42837,36000
42882,36225
43010,36417
43027,36428
43044,36455
43111,36500
43044,36544
43027,36571
43010,36582
42882,36774
42837,37000
42882,37225
43010,37417
43027,37428
43044,37455
43111,37500
43044,37544
43027,37571
43010,37582
42882,37774
42837,38000
42882,38225
43010,38417
43015,38420
43007,38422
42922,38477
42865,38560
42845,38660
42845,39340
42862,39432
42917,39517
43000,39574
43100,39594
43900,39594
43992,39577
44077,39522
44134,39439
44154,39340
44154,38660
44151,38643
47499,38643
47500,38643
47746,38594
47955,38455
48455,37955
48455,37955
48562,37795
48594,37746
48643,37500
48643,36766
48856,36554
48856,39733
47733,40856
42143,40856
42143,30266
43266,29143
43999,29143
44000,29143
44246,29094
44455,28955
44955,28455
44972,28428
44989,28417
45117,28225
45162,28000
45117,27774
44989,27582
44972,27571
44955,27544
44877,27492
45031,27355
45131,27147
45132,27141
45085,27050
44550,27050
44550,27057
44450,27057
44450,27050
43914,27050
43867,27141
43868,27147
43968,27355
44122,27492
44044,27544
43733,27856
43000,27856
43000,27856
42753,27905
42544,28044
42544,28044
41044,29544
40905,29753
40856,30000
40856,30000
40856,41500
40905,41746
41044,41955
41253,42094
41500,42143
47999,42143
48000,42143
48246,42094
48455,41955
49955,40455
49955,40455
50094,40246
50134,40044
50143,40000
50143,39999
50143,36766
50849,36060
50882,36225
51010,36417
51131,36498
50968,36644
50868,36852
50867,36858
50914,36950
51450,36950
51450,36942
51550,36942
51550,36950
52085,36950
52132,36858
52131,36852
52031,36644
51868,36498
51989,36417
52117,36225
52162,36000
52117,35774
51989,35582
51877,35507
51955,35455
51972,35428
51989,35417
52117,35225
52162,35000
52117,34774
51989,34582
51972,34571
51955,34544
51888,34500
51955,34455
51972,34428
51989,34417
52117,34225
52162,34000
52117,33774
51989,33582
51972,33571
51955,33544
51888,33500
51955,33455
51972,33428
51989,33417
52117,33225
52162,33000
52117,32774
51989,32582
51972,32571
51955,32544
51888,32500
51955,32455
51972,32428
51989,32417
52117,32225
52162,32000
52117,31774
51989,31582
51972,31571
51955,31544
51888,31500
51955,31455
51972,31428
51989,31417
52117,31225
52162,31000
52143,30904
52143,30866
52143,30866
52094,30619
51969,30433
51972,30428
51989,30417
52117,30225
52162,30000
52117,29774
51989,29582
51972,29571
51955,29544
51888,29500
51955,29455
51972,29428
51989,29417
52117,29225
52162,29000
52117,28774
51989,28582
51972,28571
51955,28544
51888,28500
51955,28455
51972,28428
51989,28417
52117,28225
52162,28000
52117,27774
51989,27582
51972,27571
51955,27544
51877,27492
51989,27417
52117,27225
52162,27000
52117,26774
51989,26582
51865,26500
51989,26417
52117,26225
52162,26000
52117,25774
51989,25582
51865,25500
51989,25417
52117,25225
52162,25000
52117,24774
51989,24582
51984,24579
51992,24577
52077,24522
52134,24439
52154,24340
52154,23660
52137,23567
52082,23482
51999,23425
51900,23405
51100,23405
51007,23422
50922,23477
50865,23560
50845,23660
50845,24340
50862,24432
50917,24517
51000,24574
51017,24578
51010,24582
50882,24774
50837,25000
50882,25225
51010,25417
51134,25500
51010,25582
50882,25774
50837,26000
50882,26225
51010,26417
51134,26500
51010,26582
50882,26774
50837,27000
50882,27225
50969,27356
50766,27356
48955,25544
48746,25405
48500,25356
48499,25356
48266,25356
47321,24410
47112,24271
46866,24222
46866,24222
45154,24222
45154,23660
45137,23567
45082,23482
44999,23425
44900,23405
44745,23405
44500,23356
40266,23356
35554,18643
48233,18643
52856,23266
52856,40233
52544,40544
52405,40753
52356,41000
52356,41000
52356,41233
52233,41356
52030,41356
52117,41225
52162,41000
52117,40774
51989,40582
51865,40500
51989,40417
52117,40225
52162,40000
52117,39774
51989,39582
51865,39500
51989,39417
52117,39225
52162,39000
52117,38774
51989,38582
51865,38500
51989,38417
52117,38225
52162,38000
52117,37774
51989,37582
51868,37501
52031,37355
52131,37147
52132,37141
52085,37050
51550,37050
51550,37057
51450,37057
51450,37050
50914,37050
50867,37141
50868,37147
50968,37355
51131,37501
51010,37582
50882,37774
50837,38000
50882,38225
51010,38417
51134,38500
51010,38582
50882,38774
50837,39000
50882,39225
51010,39417
51134,39500
51010,39582
50882,39774
50837,40000
50882,40225
51010,40417
51134,40500
51010,40582
50882,40774
50837,41000
50882,41225
51010,41417
51122,41492
51044,41544
51027,41571
51010,41582
50882,41774
50837,42000
50882,42225
51010,42417
51027,42428
51044,42455
51253,42594
51500,42643
52499,42643
52500,42643
52746,42594
52955,42455
53455,41955
53455,41955
53576,41774
53594,41746
53643,41500
53643,41266
53955,40955
53955,40955
54062,40795
54094,40746
54143,40500
54143,23610
59850,23610
59850,23887
59912,23950
60450,23950
60450,23472
60550,23472
60550,23950
61087,23950
61150,23887
61150,23610
61111,23518
61041,23448
60949,23410
60612,23410
60550,23472
60450,23472
60387,23410
60050,23410
59958,23448
59888,23518
59850,23610
54143,23610
54143,23000
54134,22955
54094,22753
54021,22643
53955,22544
53955,22544
48955,17544
48746,17405
48500,17356
48499,17356
34000,17356
34000,17356
33999,17356
33143,17356
33143,17000
33094,16753
32955,16544
32955,16544
32084,15674
32084,15627
32040,15403
31913,15213
31723,15087
31500,15042
31276,15087
31086,15213
30997,15346
30877,15196
30677,15086
30640,15078
30550,15125
30450,15125
30359,15078
30322,15086
30122,15196
30002,15346
29913,15213
29723,15087
29500,15042
29460,15050
28750,14340
50651,14340
57405,21094
57678,21276
58000,21340
63151,21340
71867,30056
71905,30246
71909,30252
71909,32500
71973,32821
72106,33020
72106,33854
72095,33910
72095,34590
72112,34682
72167,34767
72250,34824
72288,34832
72218,34894
72118,35102
72117,35108
72164,35200
72700,35200
72700,35192
72800,35192
72800,35200
72807,35200
72807,35300
72800,35300
72800,35307
72700,35307
72700,35300
72164,35300
72117,35391
72118,35397
72218,35605
72372,35742
72294,35794
72277,35821
72260,35832
72132,36024
72087,36250
72132,36475
72260,36667
72277,36678
72294,36705
72361,36750
72294,36794
72277,36821
72260,36832
72132,37024
72087,37250
72132,37475
72260,37667
72277,37678
72294,37705
72361,37750
72294,37794
72277,37821
72260,37832
72132,38024
72087,38250
72132,38475
72260,38667
72277,38678
72294,38705
72361,38750
72294,38794
72277,38821
72260,38832
72132,39024
72087,39250
72132,39475
72260,39667
72277,39678
72294,39705
72372,39757
72260,39832
72132,40024
72087,40250
72132,40475
72260,40667
72381,40748
72218,40894
72118,41102
72117,41108
72164,41200
72700,41200
72700,41192
72800,41192
72800,41200
73335,41200
73382,41108
73381,41102
73281,40894
73118,40748
73239,40667
73367,40475
73400,40310
74133,41044
74133,41044
74221,41102
74342,41183
74589,41232
76311,41232
76510,41365
76831,41429
77668,41429
77989,41365
78262,41183
78444,40910
78508,40589
78444,40267
78262,39994
77989,39812
77974,39809
77989,39806
78262,39624
78444,39351
78508,39030
78444,38708
78262,38435
77989,38253
77972,38250
77989,38246
78262,38064
78444,37791
78508,37470
78444,37148
78262,36875
77989,36693
77974,36690
77989,36687
78262,36505
78444,36232
78508,35911
78444,35589
78262,35316
77989,35134
77865,35109
77844,35003
77812,34955
77705,34794
77705,34794
77455,34544
77246,34405
77000,34356
76999,34356
74500,34356
74500,34356
74253,34405
74044,34544
73389,35199
73335,35199
73382,35108
73381,35102
73281,34894
73212,34833
73242,34827
73327,34772
73384,34689
73404,34590
73404,33910
73393,33850
73393,33020
73526,32821
73590,32500
73590,29750
73526,29428
73344,29155
64094,19905
63821,19723
63500,19659
58348,19659
51594,12905
51321,12723
51000,12659
17500,12659
17178,12723
16905,12905
16405,13405
16223,13678
16159,14000
16159,20388
16000,20356
15000,20356
14753,20405
14544,20544
14405,20753
14356,21000
14143,21000
14143,20000
14094,19753
14092,19750
14094,19746
14143,19500
14143,19045
14594,18594
14776,18321
14840,18000
14840,15000
14776,14678
14594,14405
13094,12905
12821,12723
12500,12659
12329,12659
12312,12633
12229,12576
12130,12556
10752,12556
10659,12573
10574,12628
10517,12711
10497,12811
10497,14189
10514,14281
10569,14366
10634,14411
10372,14411
10310,14473
10210,14473
10147,14411
9885,14411
9909,14400
9979,14330
10018,14238
10018,13612
9955,13550
9129,13550
9029,13550
9021,13550
9021,13450
9029,13450
9029,12623
9129,12623
9129,13450
9955,13450
10018,13387
10018,12761
9979,12669
9909,12599
9817,12561
9191,12561
9129,12623
9029,12623
8966,12561
8340,12561
8279,12586
8279,11279
87220,11279
87220,57720
" /> 
</g> 
</svg>
