<?xml version="1.0" standalone="no"?>
 <!DOCTYPE svg PUBLIC "-//W3C//DTD SVG 1.1//EN" 
 "http://www.w3.org/Graphics/SVG/1.1/DTD/svg11.dtd"> 
<svg xmlns="http://www.w3.org/2000/svg" version="1.1" 
    width="29.7002cm" height="21.0007cm" viewBox="0 0 116930 82680 ">
<title>SVG Picture created as Telescopio-F.SilkS.svg date 2017/07/04 13:39:04 </title>
  <desc>Picture generated by PCBNEW </desc>
<g style="fill:#000000; fill-opacity:1;stroke:#000000; stroke-opacity:1;
stroke-linecap:round; stroke-linejoin:round; "
 transform="translate(0 0) scale(1 1)">
</g>
<g style="fill:#000000; fill-opacity:0.0; 
stroke:#000000; stroke-width:-0.000393701; stroke-opacity:1; 
stroke-linecap:round; stroke-linejoin:round;">
</g>
<g style="fill:#000000; fill-opacity:0.0; 
stroke:#000000; stroke-width:78.7402; stroke-opacity:1; 
stroke-linecap:round; stroke-linejoin:round;">
<path d="M87500 11000
L87000 11000
" />
<path d="M87500 58000
L87500 11000
" />
<path d="M85000 58000
L87500 58000
" />
<path d="M8000 58000
L85000 58000
" />
<path d="M8000 54000
L8000 58000
" />
<path d="M8000 11000
L8000 54000
" />
<path d="M87000 11000
L8000 11000
" />
<path d="M50500 42500
L50500 23500
" />
<path d="M61500 42500
L50500 42500
" />
<path d="M61500 23500
L61500 42500
" />
<path d="M50500 23500
L61500 23500
" />
<path d="M73250 33750
L73250 41750
" />
<path d="M67250 33750
L73250 33750
" />
<path d="M67250 41750
L67250 33750
" />
<path d="M73250 41750
L67250 41750
" />
<path d="M44000 39500
L44000 39000
" />
<path d="M38000 39500
L44000 39500
" />
<path d="M38000 31500
L38000 39500
" />
<path d="M44000 31500
L38000 31500
" />
<path d="M44000 39500
L44000 31500
" />
</g>
<g style="fill:#000000; fill-opacity:0.0; 
stroke:#000000; stroke-width:59.0551; stroke-opacity:1; 
stroke-linecap:round; stroke-linejoin:round;">
<path d="M23600 15250
L22850 15250
" />
<path d="M21850 15250
L22150 15250
" />
<path d="M20900 15250
L20850 15250
" />
<path d="M20900 15250
L21150 15250
" />
<path d="M19400 15250
L20100 15250
" />
<path d="M19400 16700
L20050 16700
" />
<path d="M21100 16750
L20850 16750
" />
<path d="M22100 16750
L21850 16750
" />
<path d="M23600 16700
L22950 16700
" />
<path d="M20900 14800
L20900 15250
" />
<path d="M22100 14800
L22100 15250
" />
<path d="M23600 15250
L23600 16700
" />
<path d="M19400 16700
L19400 15250
" />
<path d="M23600 14800
L23600 15250
" />
<path d="M19400 15250
L19400 14800
" />
<path d="M21500 14800
L19400 14800
" />
<path d="M21500 14800
L23600 14800
" />
<path d="M29483 18521
L27516 18521
" />
<path d="M29480 18576
L27519 18576
" />
<path d="M29474 18631
L28537 18631
" />
<path d="M28462 18631
L27525 18631
" />
<path d="M29464 18687
L28692 18687
" />
<path d="M28307 18687
L27535 18687
" />
<path d="M29451 18742
L28758 18742
" />
<path d="M28241 18742
L27548 18742
" />
<path d="M29435 18797
L28800 18797
" />
<path d="M28199 18797
L27564 18797
" />
<path d="M29416 18852
L28828 18852
" />
<path d="M28171 18852
L27583 18852
" />
<path d="M29392 18907
L28846 18907
" />
<path d="M28153 18907
L27607 18907
" />
<path d="M29364 18962
L28853 18962
" />
<path d="M28146 18962
L27635 18962
" />
<path d="M29332 19017
L28852 19017
" />
<path d="M28147 19017
L27667 19017
" />
<path d="M29294 19072
L28842 19072
" />
<path d="M28157 19072
L27705 19072
" />
<path d="M29251 19127
L28824 19127
" />
<path d="M28175 19127
L27748 19127
" />
<path d="M29200 19183
L28793 19183
" />
<path d="M28206 19183
L27799 19183
" />
<path d="M29142 19238
L28747 19238
" />
<path d="M28252 19238
L27857 19238
" />
<path d="M29071 19293
L28673 19293
" />
<path d="M28326 19293
L27928 19293
" />
<path d="M28985 19348
L28014 19348
" />
<path d="M28871 19403
L28128 19403
" />
<path d="M28685 19458
L28314 19458
" />
<circle cx="28500" cy="18984.3" r="354.331" /> 
<circle cx="28500" cy="18492.1" r="999.016" /> 
<path d="M33483 18521
L31516 18521
" />
<path d="M33480 18576
L31519 18576
" />
<path d="M33474 18631
L32537 18631
" />
<path d="M32462 18631
L31525 18631
" />
<path d="M33464 18687
L32692 18687
" />
<path d="M32307 18687
L31535 18687
" />
<path d="M33451 18742
L32758 18742
" />
<path d="M32241 18742
L31548 18742
" />
<path d="M33435 18797
L32800 18797
" />
<path d="M32199 18797
L31564 18797
" />
<path d="M33416 18852
L32828 18852
" />
<path d="M32171 18852
L31583 18852
" />
<path d="M33392 18907
L32846 18907
" />
<path d="M32153 18907
L31607 18907
" />
<path d="M33364 18962
L32853 18962
" />
<path d="M32146 18962
L31635 18962
" />
<path d="M33332 19017
L32852 19017
" />
<path d="M32147 19017
L31667 19017
" />
<path d="M33294 19072
L32842 19072
" />
<path d="M32157 19072
L31705 19072
" />
<path d="M33251 19127
L32824 19127
" />
<path d="M32175 19127
L31748 19127
" />
<path d="M33200 19183
L32793 19183
" />
<path d="M32206 19183
L31799 19183
" />
<path d="M33142 19238
L32747 19238
" />
<path d="M32252 19238
L31857 19238
" />
<path d="M33071 19293
L32673 19293
" />
<path d="M32326 19293
L31928 19293
" />
<path d="M32985 19348
L32014 19348
" />
<path d="M32871 19403
L32128 19403
" />
<path d="M32685 19458
L32314 19458
" />
<circle cx="32500" cy="18984.3" r="354.331" /> 
<circle cx="32500" cy="18492.1" r="999.016" /> 
<path d="M20483 18521
L18516 18521
" />
<path d="M20480 18576
L18519 18576
" />
<path d="M20474 18631
L19537 18631
" />
<path d="M19462 18631
L18525 18631
" />
<path d="M20464 18687
L19692 18687
" />
<path d="M19307 18687
L18535 18687
" />
<path d="M20451 18742
L19758 18742
" />
<path d="M19241 18742
L18548 18742
" />
<path d="M20435 18797
L19800 18797
" />
<path d="M19199 18797
L18564 18797
" />
<path d="M20416 18852
L19828 18852
" />
<path d="M19171 18852
L18583 18852
" />
<path d="M20392 18907
L19846 18907
" />
<path d="M19153 18907
L18607 18907
" />
<path d="M20364 18962
L19853 18962
" />
<path d="M19146 18962
L18635 18962
" />
<path d="M20332 19017
L19852 19017
" />
<path d="M19147 19017
L18667 19017
" />
<path d="M20294 19072
L19842 19072
" />
<path d="M19157 19072
L18705 19072
" />
<path d="M20251 19127
L19824 19127
" />
<path d="M19175 19127
L18748 19127
" />
<path d="M20200 19183
L19793 19183
" />
<path d="M19206 19183
L18799 19183
" />
<path d="M20142 19238
L19747 19238
" />
<path d="M19252 19238
L18857 19238
" />
<path d="M20071 19293
L19673 19293
" />
<path d="M19326 19293
L18928 19293
" />
<path d="M19985 19348
L19014 19348
" />
<path d="M19871 19403
L19128 19403
" />
<path d="M19685 19458
L19314 19458
" />
<circle cx="19500" cy="18984.3" r="354.331" /> 
<circle cx="19500" cy="18492.1" r="999.016" /> 
<path d="M24483 18521
L22516 18521
" />
<path d="M24480 18576
L22519 18576
" />
<path d="M24474 18631
L23537 18631
" />
<path d="M23462 18631
L22525 18631
" />
<path d="M24464 18687
L23692 18687
" />
<path d="M23307 18687
L22535 18687
" />
<path d="M24451 18742
L23758 18742
" />
<path d="M23241 18742
L22548 18742
" />
<path d="M24435 18797
L23800 18797
" />
<path d="M23199 18797
L22564 18797
" />
<path d="M24416 18852
L23828 18852
" />
<path d="M23171 18852
L22583 18852
" />
<path d="M24392 18907
L23846 18907
" />
<path d="M23153 18907
L22607 18907
" />
<path d="M24364 18962
L23853 18962
" />
<path d="M23146 18962
L22635 18962
" />
<path d="M24332 19017
L23852 19017
" />
<path d="M23147 19017
L22667 19017
" />
<path d="M24294 19072
L23842 19072
" />
<path d="M23157 19072
L22705 19072
" />
<path d="M24251 19127
L23824 19127
" />
<path d="M23175 19127
L22748 19127
" />
<path d="M24200 19183
L23793 19183
" />
<path d="M23206 19183
L22799 19183
" />
<path d="M24142 19238
L23747 19238
" />
<path d="M23252 19238
L22857 19238
" />
<path d="M24071 19293
L23673 19293
" />
<path d="M23326 19293
L22928 19293
" />
<path d="M23985 19348
L23014 19348
" />
<path d="M23871 19403
L23128 19403
" />
<path d="M23685 19458
L23314 19458
" />
<circle cx="23500" cy="18984.3" r="354.331" /> 
<circle cx="23500" cy="18492.1" r="999.016" /> 
<path d="M7425 11728
L7425 15272
" />
<path d="M6047 11728
L6047 15272
" />
<path d="M6047 15272
L11756 15272
" />
<path d="M11756 15272
L11756 11728
" />
<path d="M11756 11728
L6047 11728
" />
<path d="M52000 24500
L52000 42500
" />
<path d="M52000 42500
L51000 42500
" />
<path d="M51000 42500
L51000 24500
" />
<path d="M52110 23389
L52110 24000
" />
<path d="M52000 24500
L51000 24500
" />
<path d="M50889 24000
L50889 23389
" />
<path d="M50889 23389
L52110 23389
" />
<path d="M61000 24500
L61000 42500
" />
<path d="M61000 42500
L60000 42500
" />
<path d="M60000 42500
L60000 24500
" />
<path d="M61110 23389
L61110 24000
" />
<path d="M61000 24500
L60000 24500
" />
<path d="M59889 24000
L59889 23389
" />
<path d="M59889 23389
L61110 23389
" />
<path d="M68250 34750
L68250 41750
" />
<path d="M68250 41750
L67250 41750
" />
<path d="M67250 41750
L67250 34750
" />
<path d="M68360 33639
L68360 34250
" />
<path d="M68250 34750
L67250 34750
" />
<path d="M67139 34250
L67139 33639
" />
<path d="M67139 33639
L68360 33639
" />
<path d="M73250 34750
L73250 41750
" />
<path d="M73250 41750
L72250 41750
" />
<path d="M72250 41750
L72250 34750
" />
<path d="M73360 33639
L73360 34250
" />
<path d="M73250 34750
L72250 34750
" />
<path d="M72139 34250
L72139 33639
" />
<path d="M72139 33639
L73360 33639
" />
<path d="M43000 38500
L43000 31500
" />
<path d="M43000 31500
L44000 31500
" />
<path d="M44000 31500
L44000 38500
" />
<path d="M42889 39610
L42889 39000
" />
<path d="M43000 38500
L44000 38500
" />
<path d="M44110 39000
L44110 39610
" />
<path d="M44110 39610
L42889 39610
" />
<path d="M38000 38500
L38000 31500
" />
<path d="M38000 31500
L39000 31500
" />
<path d="M39000 31500
L39000 38500
" />
<path d="M37889 39610
L37889 39000
" />
<path d="M38000 38500
L39000 38500
" />
<path d="M39110 39000
L39110 39610
" />
<path d="M39110 39610
L37889 39610
" />
<path d="M79258 41219
L79474 41219
" />
<path d="M79474 41219
L79474 35281
" />
<path d="M79474 35281
L79258 35281
" />
<path d="M76384 35281
L75242 35281
" />
<path d="M75242 35281
L75242 39652
" />
<path d="M78116 41219
L79258 41219
" />
<path d="M79258 41219
L79258 35281
" />
<path d="M79258 35281
L78116 35281
" />
<path d="M75242 39652
L75242 40589
" />
<path d="M75242 40589
L75242 41219
" />
<path d="M75242 41219
L76384 41219
" />
<path d="M32992 32031
L32776 32031
" />
<path d="M32776 32031
L32776 37969
" />
<path d="M32776 37969
L32992 37969
" />
<path d="M35866 37969
L37008 37969
" />
<path d="M37008 37969
L37008 33598
" />
<path d="M34134 32031
L32992 32031
" />
<path d="M32992 32031
L32992 37969
" />
<path d="M32992 37969
L34134 37969
" />
<path d="M37008 33598
L37008 32661
" />
<path d="M37008 32661
L37008 32031
" />
<path d="M37008 32031
L35866 32031
" />
<path d="M52000 47000
L61000 47000
" />
<path d="M61000 47000
L61000 48000
" />
<path d="M61000 48000
L52000 48000
" />
<path d="M50889 46889
L51500 46889
" />
<path d="M52000 47000
L52000 48000
" />
<path d="M51500 48110
L50889 48110
" />
<path d="M50889 48110
L50889 46889
" />
<path d="M61000 51500
L57000 51500
" />
<path d="M61000 53250
L61000 53750
" />
<path d="M57000 51750
L57000 51250
" />
<path d="M57000 51250
L61000 51250
" />
<path d="M61000 51250
L61000 51750
" />
<path d="M61000 53750
L57000 53750
" />
<path d="M57000 53750
L57000 53250
" />
<path d="M32600 15250
L31850 15250
" />
<path d="M30850 15250
L31150 15250
" />
<path d="M29900 15250
L29850 15250
" />
<path d="M29900 15250
L30150 15250
" />
<path d="M28400 15250
L29100 15250
" />
<path d="M28400 16700
L29050 16700
" />
<path d="M30100 16750
L29850 16750
" />
<path d="M31100 16750
L30850 16750
" />
<path d="M32600 16700
L31950 16700
" />
<path d="M29900 14800
L29900 15250
" />
<path d="M31100 14800
L31100 15250
" />
<path d="M32600 15250
L32600 16700
" />
<path d="M28400 16700
L28400 15250
" />
<path d="M32600 14800
L32600 15250
" />
<path d="M28400 15250
L28400 14800
" />
<path d="M30500 14800
L28400 14800
" />
<path d="M30500 14800
L32600 14800
" />
<path d="M43889 24000
L43889 23389
" />
<path d="M43889 23389
L45110 23389
" />
<path d="M45110 23389
L45110 24000
" />
<path d="M45000 24500
L45000 28500
" />
<path d="M45000 28500
L44000 28500
" />
<path d="M44000 28500
L44000 24500
" />
<path d="M45000 24500
L44000 24500
" />
<path d="M16500 18750
L16500 23250
" />
<path d="M16500 23250
L16250 23500
" />
<path d="M16250 23500
L11750 23500
" />
<path d="M11750 23500
L11500 23250
" />
<path d="M11500 23250
L11500 18750
" />
<path d="M11750 18500
L16250 18500
" />
<path d="M16250 18500
L16500 18750
" />
<path d="M11500 18750
L11750 18500
" />
<path d="M21209 14178
L21209 13784
L21359 13784
L21396 13803
L21415 13821
L21434 13859
L21434 13915
L21415 13953
L21396 13971
L21359 13990
L21209 13990
" />
<path d="M21584 13821
L21603 13803
L21640 13784
L21734 13784
L21771 13803
L21790 13821
L21809 13859
L21809 13896
L21790 13953
L21565 14178
L21809 14178
" />
<path d="M30136 18557
L30155 18576
L30174 18632
L30174 18670
L30155 18726
L30117 18763
L30080 18782
L30005 18801
L29949 18801
L29874 18782
L29836 18763
L29799 18726
L29780 18670
L29780 18632
L29799 18576
L29817 18557
" />
<path d="M30174 18182
L30174 18407
" />
<path d="M30174 18295
L29780 18295
L29836 18332
L29874 18370
L29892 18407
" />
<path d="M34136 18557
L34155 18576
L34174 18632
L34174 18670
L34155 18726
L34117 18763
L34080 18782
L34005 18801
L33949 18801
L33874 18782
L33836 18763
L33799 18726
L33780 18670
L33780 18632
L33799 18576
L33817 18557
" />
<path d="M33817 18407
L33799 18389
L33780 18351
L33780 18257
L33799 18220
L33817 18201
L33855 18182
L33892 18182
L33949 18201
L34174 18426
L34174 18182
" />
<path d="M21136 18557
L21155 18576
L21174 18632
L21174 18670
L21155 18726
L21117 18763
L21080 18782
L21005 18801
L20949 18801
L20874 18782
L20836 18763
L20799 18726
L20780 18670
L20780 18632
L20799 18576
L20817 18557
" />
<path d="M20780 18426
L20780 18182
L20930 18314
L20930 18257
L20949 18220
L20967 18201
L21005 18182
L21099 18182
L21136 18201
L21155 18220
L21174 18257
L21174 18370
L21155 18407
L21136 18426
" />
<path d="M25136 18557
L25155 18576
L25174 18632
L25174 18670
L25155 18726
L25117 18763
L25080 18782
L25005 18801
L24949 18801
L24874 18782
L24836 18763
L24799 18726
L24780 18670
L24780 18632
L24799 18576
L24817 18557
" />
<path d="M24911 18220
L25174 18220
" />
<path d="M24761 18314
L25042 18407
L25042 18164
" />
<path d="M13116 13978
L13135 13996
L13154 14053
L13154 14090
L13135 14146
L13097 14184
L13060 14203
L12985 14221
L12929 14221
L12854 14203
L12816 14184
L12779 14146
L12760 14090
L12760 14053
L12779 13996
L12797 13978
" />
<path d="M12760 13734
L12760 13659
L12779 13621
L12816 13584
L12891 13565
L13022 13565
L13097 13584
L13135 13621
L13154 13659
L13154 13734
L13135 13771
L13097 13809
L13022 13828
L12891 13828
L12816 13809
L12779 13771
L12760 13734
" />
<path d="M13154 13396
L12760 13396
L13154 13171
L12760 13171
" />
<path d="M13154 12778
L13154 13003
" />
<path d="M13154 12890
L12760 12890
L12816 12928
L12854 12965
L12872 13003
" />
<path d="M51209 22170
L51209 21776
L51359 21776
L51396 21795
L51415 21814
L51434 21851
L51434 21907
L51415 21945
L51396 21964
L51359 21982
L51209 21982
" />
<path d="M51771 21907
L51771 22170
" />
<path d="M51678 21757
L51584 22038
L51828 22038
" />
<path d="M60209 22170
L60209 21776
L60359 21776
L60396 21795
L60415 21814
L60434 21851
L60434 21907
L60415 21945
L60396 21964
L60359 21982
L60209 21982
" />
<path d="M60790 21776
L60603 21776
L60584 21964
L60603 21945
L60640 21926
L60734 21926
L60771 21945
L60790 21964
L60809 22001
L60809 22095
L60790 22132
L60771 22151
L60734 22170
L60640 22170
L60603 22151
L60584 22132
" />
<path d="M67459 32420
L67459 32026
L67609 32026
L67646 32045
L67665 32064
L67684 32101
L67684 32157
L67665 32195
L67646 32214
L67609 32232
L67459 32232
" />
<path d="M67815 32026
L68078 32026
L67909 32420
" />
<path d="M72459 32420
L72459 32026
L72609 32026
L72646 32045
L72665 32064
L72684 32101
L72684 32157
L72665 32195
L72646 32214
L72609 32232
L72459 32232
" />
<path d="M72909 32195
L72871 32176
L72853 32157
L72834 32120
L72834 32101
L72853 32064
L72871 32045
L72909 32026
L72984 32026
L73021 32045
L73040 32064
L73059 32101
L73059 32120
L73040 32157
L73021 32176
L72984 32195
L72909 32195
L72871 32214
L72853 32232
L72834 32270
L72834 32345
L72853 32382
L72871 32401
L72909 32420
L72984 32420
L73021 32401
L73040 32382
L73059 32345
L73059 32270
L73040 32232
L73021 32214
L72984 32195
" />
<path d="M43209 41185
L43209 40792
L43359 40792
L43396 40811
L43415 40829
L43434 40867
L43434 40923
L43415 40961
L43396 40979
L43359 40998
L43209 40998
" />
<path d="M43621 41185
L43696 41185
L43734 41167
L43753 41148
L43790 41092
L43809 41017
L43809 40867
L43790 40829
L43771 40811
L43734 40792
L43659 40792
L43621 40811
L43603 40829
L43584 40867
L43584 40961
L43603 40998
L43621 41017
L43659 41035
L43734 41035
L43771 41017
L43790 40998
L43809 40961
" />
<path d="M38021 41185
L38021 40792
L38171 40792
L38209 40811
L38228 40829
L38246 40867
L38246 40923
L38228 40961
L38209 40979
L38171 40998
L38021 40998
" />
<path d="M38621 41185
L38396 41185
" />
<path d="M38509 41185
L38509 40792
L38471 40848
L38434 40886
L38396 40904
" />
<path d="M38865 40792
L38903 40792
L38940 40811
L38959 40829
L38978 40867
L38996 40942
L38996 41035
L38978 41110
L38959 41148
L38940 41167
L38903 41185
L38865 41185
L38828 41167
L38809 41148
L38790 41110
L38771 41035
L38771 40942
L38790 40867
L38809 40829
L38828 40811
L38865 40792
" />
<path d="M80428 38728
L80034 38728
L80034 38578
L80053 38540
L80071 38521
L80109 38503
L80165 38503
L80203 38521
L80221 38540
L80240 38578
L80240 38728
" />
<path d="M80428 38128
L80428 38353
" />
<path d="M80428 38240
L80034 38240
L80090 38278
L80128 38315
L80146 38353
" />
<path d="M80071 37978
L80053 37959
L80034 37921
L80034 37828
L80053 37790
L80071 37771
L80109 37753
L80146 37753
L80203 37771
L80428 37996
L80428 37753
" />
<path d="M32178 35478
L31784 35478
L31784 35328
L31803 35290
L31821 35271
L31859 35253
L31915 35253
L31953 35271
L31971 35290
L31990 35328
L31990 35478
" />
<path d="M32178 34878
L32178 35103
" />
<path d="M32178 34990
L31784 34990
L31840 35028
L31878 35065
L31896 35103
" />
<path d="M31784 34746
L31784 34503
L31934 34634
L31934 34578
L31953 34540
L31971 34521
L32009 34503
L32103 34503
L32140 34521
L32159 34540
L32178 34578
L32178 34690
L32159 34728
L32140 34746
" />
<path d="M49670 47978
L49276 47978
L49276 47828
L49295 47790
L49314 47771
L49351 47753
L49407 47753
L49445 47771
L49464 47790
L49482 47828
L49482 47978
" />
<path d="M49276 47396
L49276 47584
L49464 47603
L49445 47584
L49426 47546
L49426 47453
L49445 47415
L49464 47396
L49501 47378
L49595 47378
L49632 47396
L49651 47415
L49670 47453
L49670 47546
L49651 47584
L49632 47603
" />
<path d="M49670 47003
L49670 47228
" />
<path d="M49670 47115
L49276 47115
L49332 47153
L49370 47190
L49389 47228
" />
<path d="M58521 50678
L58521 50284
L58671 50284
L58709 50303
L58728 50321
L58746 50359
L58746 50415
L58728 50453
L58709 50471
L58671 50490
L58521 50490
" />
<path d="M59103 50284
L58915 50284
L58896 50471
L58915 50453
L58953 50434
L59046 50434
L59084 50453
L59103 50471
L59121 50509
L59121 50603
L59103 50640
L59084 50659
L59046 50678
L58953 50678
L58915 50659
L58896 50640
" />
<path d="M59365 50284
L59403 50284
L59440 50303
L59459 50321
L59478 50359
L59496 50434
L59496 50528
L59478 50603
L59459 50640
L59440 50659
L59403 50678
L59365 50678
L59328 50659
L59309 50640
L59290 50603
L59271 50528
L59271 50434
L59290 50359
L59309 50321
L59328 50303
L59365 50284
" />
<path d="M30209 14178
L30209 13784
L30359 13784
L30396 13803
L30415 13821
L30434 13859
L30434 13915
L30415 13953
L30396 13971
L30359 13990
L30209 13990
" />
<path d="M30809 14178
L30584 14178
" />
<path d="M30696 14178
L30696 13784
L30659 13840
L30621 13878
L30584 13896
" />
<path d="M44209 22170
L44209 21776
L44359 21776
L44396 21795
L44415 21814
L44434 21851
L44434 21907
L44415 21945
L44396 21964
L44359 21982
L44209 21982
" />
<path d="M44565 21776
L44809 21776
L44678 21926
L44734 21926
L44771 21945
L44790 21964
L44809 22001
L44809 22095
L44790 22132
L44771 22151
L44734 22170
L44621 22170
L44584 22151
L44565 22132
" />
<path d="M13975 19159
L14031 19178
L14125 19178
L14162 19159
L14181 19140
L14200 19103
L14200 19065
L14181 19028
L14162 19009
L14125 18990
L14050 18971
L14012 18953
L13993 18934
L13975 18896
L13975 18859
L13993 18821
L14012 18803
L14050 18784
L14143 18784
L14200 18803
" />
<path d="M14331 18784
L14425 19178
L14500 18896
L14574 19178
L14668 18784
" />
<path d="M15024 19178
L14799 19178
" />
<path d="M14912 19178
L14912 18784
L14874 18840
L14837 18878
L14799 18896
" />
</g> 
</svg>
