M48
METRIC,TZ
T1C0.800
T2C1.001
T3C1.016
T4C1.143
T5C1.199
T6C1.801
%
G90
G05
T1
X49.53Y-45.72
X49.53Y-48.22
X59.69Y-45.72
X59.69Y-48.22
X72.39Y-45.72
X72.39Y-48.22
X82.55Y-45.72
X82.55Y-48.22
T2
X52.07Y-40.64
X54.61Y-40.64
X57.15Y-40.64
X74.93Y-40.64
X77.47Y-40.64
X80.01Y-40.64
T3
X97.79Y-81.28
X97.79Y-83.82
X97.79Y-86.36
X97.79Y-88.9
X97.79Y-91.44
X97.79Y-93.98
X97.79Y-96.52
X97.79Y-99.06
X110.49Y-81.28
X110.49Y-83.82
X110.49Y-86.36
X110.49Y-88.9
X110.49Y-91.44
X110.49Y-93.98
X110.49Y-96.52
X110.49Y-99.06
X113.03Y-60.96
X113.03Y-63.5
X113.03Y-66.04
X113.03Y-68.58
X113.03Y-71.12
X130.81Y-60.96
X130.81Y-63.5
X130.81Y-66.04
X130.81Y-68.58
X130.81Y-71.12
X130.81Y-73.66
X130.81Y-76.2
X130.81Y-78.74
X130.81Y-81.28
X130.81Y-83.82
X130.81Y-86.36
X130.81Y-88.9
X130.81Y-91.44
X130.81Y-93.98
X130.81Y-96.52
X130.81Y-99.06
X130.81Y-101.6
X130.81Y-104.14
X130.81Y-106.68
X130.81Y-120.65
X133.35Y-120.65
X135.89Y-120.65
X138.43Y-120.65
X140.97Y-120.65
X143.51Y-120.65
X146.05Y-120.65
X148.59Y-120.65
X151.13Y-120.65
X153.67Y-60.96
X153.67Y-63.5
X153.67Y-66.04
X153.67Y-68.58
X153.67Y-71.12
X153.67Y-73.66
X153.67Y-76.2
X153.67Y-78.74
X153.67Y-81.28
X153.67Y-83.82
X153.67Y-86.36
X153.67Y-88.9
X153.67Y-91.44
X153.67Y-93.98
X153.67Y-96.52
X153.67Y-99.06
X153.67Y-101.6
X153.67Y-104.14
X153.67Y-106.68
X153.67Y-120.65
X172.085Y-86.995
X172.085Y-89.535
X172.085Y-92.075
X172.085Y-94.615
X172.085Y-97.155
X172.085Y-99.695
X172.085Y-102.235
X172.085Y-104.775
X184.785Y-86.995
X184.785Y-89.535
X184.785Y-92.075
X184.785Y-94.615
X184.785Y-97.155
X184.785Y-99.695
X184.785Y-102.235
X184.785Y-104.775
T4
X30.48Y-50.8
X40.64Y-55.88
T5
X146.05Y-133.35
X148.59Y-133.35
X151.13Y-133.35
X153.67Y-133.35
T6
X88.9Y-82.959
X88.9Y-86.919
X88.9Y-90.881
X88.9Y-94.841
X196.215Y-91.214
X196.215Y-95.174
X196.215Y-99.136
X196.215Y-103.096
T2
X23.061Y-33.291G85X23.061Y-35.289
G05
X25.061Y-38.989G85X27.06Y-38.989
G05
X29.06Y-33.291G85X29.06Y-35.289
G05
T0
M30
