  0
SECTION
  2
HEADER
  9
$ANGBASE
  50
0.0
  9
$ANGDIR
  70
  1
  9
$MEASUREMENT
  70
0
  0
ENDSEC
  0
SECTION
  2
TABLES
  0
TABLE
  2
LTYPE
  70
1
  0
LTYPE
  2
CONTINUOUS
  70
0
  3
Solid line
  72
65
  73
0
  40
0.0
  0
ENDTAB
  0
TABLE
  2
STYLE
  70
4
  0
STYLE
  2
KICAD
  70
0
  40
0
  41
1
  42
1
  50
0
  71
0
  3
isocp.shx
  0
STYLE
  2
KICADB
  70
0
  40
0
  41
1
  42
1
  50
0
  71
0
  3
isocp.shx
  0
STYLE
  2
KICADI
  70
0
  40
0
  41
1
  42
1
  50
15
  71
0
  3
isocp.shx
  0
STYLE
  2
KICADBI
  70
0
  40
0
  41
1
  42
1
  50
15
  71
0
  3
isocp.shx
  0
ENDTAB
  0
TABLE
  2
LAYER
  70
30
  0
LAYER
  2
BLACK
  70
0
  62
7
  6
CONTINUOUS
  0
LAYER
  2
GRAY1
  70
0
  62
251
  6
CONTINUOUS
  0
LAYER
  2
GRAY2
  70
0
  62
8
  6
CONTINUOUS
  0
LAYER
  2
GRAY3
  70
0
  62
9
  6
CONTINUOUS
  0
LAYER
  2
WHITE
  70
0
  62
7
  6
CONTINUOUS
  0
LAYER
  2
LYELLOW
  70
0
  62
51
  6
CONTINUOUS
  0
LAYER
  2
BLUE1
  70
0
  62
178
  6
CONTINUOUS
  0
LAYER
  2
GREEN1
  70
0
  62
98
  6
CONTINUOUS
  0
LAYER
  2
CYAN1
  70
0
  62
138
  6
CONTINUOUS
  0
LAYER
  2
RED1
  70
0
  62
18
  6
CONTINUOUS
  0
LAYER
  2
MAGENTA1
  70
0
  62
228
  6
CONTINUOUS
  0
LAYER
  2
BROWN1
  70
0
  62
58
  6
CONTINUOUS
  0
LAYER
  2
BLUE2
  70
0
  62
5
  6
CONTINUOUS
  0
LAYER
  2
GREEN2
  70
0
  62
3
  6
CONTINUOUS
  0
LAYER
  2
CYAN2
  70
0
  62
4
  6
CONTINUOUS
  0
LAYER
  2
RED2
  70
0
  62
1
  6
CONTINUOUS
  0
LAYER
  2
MAGENTA2
  70
0
  62
6
  6
CONTINUOUS
  0
LAYER
  2
BROWN2
  70
0
  62
54
  6
CONTINUOUS
  0
LAYER
  2
BLUE3
  70
0
  62
171
  6
CONTINUOUS
  0
LAYER
  2
GREEN3
  70
0
  62
91
  6
CONTINUOUS
  0
LAYER
  2
CYAN3
  70
0
  62
131
  6
CONTINUOUS
  0
LAYER
  2
RED3
  70
0
  62
11
  6
CONTINUOUS
  0
LAYER
  2
MAGENTA3
  70
0
  62
221
  6
CONTINUOUS
  0
LAYER
  2
YELLOW3
  70
0
  62
2
  6
CONTINUOUS
  0
LAYER
  2
BLUE4
  70
0
  62
5
  6
CONTINUOUS
  0
LAYER
  2
GREEN4
  70
0
  62
3
  6
CONTINUOUS
  0
LAYER
  2
CYAN4
  70
0
  62
4
  6
CONTINUOUS
  0
LAYER
  2
RED4
  70
0
  62
1
  6
CONTINUOUS
  0
LAYER
  2
MAGENTA4
  70
0
  62
6
  6
CONTINUOUS
  0
LAYER
  2
YELLOW4
  70
0
  62
2
  6
CONTINUOUS
  0
ENDTAB
  0
ENDSEC
  0
SECTION
  2
ENTITIES
0
LINE
8
Black
10
154.12
20
-131.714
11
154.36
21
-131.915
0
LINE
8
Black
10
154.36
20
-131.915
11
154.516
21
-132.186
0
LINE
8
Black
10
154.516
20
-132.186
11
154.57
21
-132.494
0
LINE
8
Black
10
154.57
20
-132.494
11
154.57
21
-134.206
0
LINE
8
Black
10
154.57
20
-134.206
11
154.516
21
-134.514
0
LINE
8
Black
10
154.516
20
-134.514
11
154.36
21
-134.785
0
LINE
8
Black
10
154.36
20
-134.785
11
154.12
21
-134.986
0
LINE
8
Black
10
154.12
20
-134.986
11
153.826
21
-135.093
0
LINE
8
Black
10
153.826
20
-135.093
11
153.514
21
-135.093
0
LINE
8
Black
10
153.514
20
-135.093
11
153.22
21
-134.986
0
LINE
8
Black
10
153.22
20
-134.986
11
152.98
21
-134.785
0
LINE
8
Black
10
152.98
20
-134.785
11
152.824
21
-134.514
0
LINE
8
Black
10
152.824
20
-134.514
11
152.77
21
-134.206
0
LINE
8
Black
10
152.77
20
-134.206
11
152.77
21
-132.494
0
LINE
8
Black
10
152.77
20
-132.494
11
152.824
21
-132.186
0
LINE
8
Black
10
152.824
20
-132.186
11
152.98
21
-131.915
0
LINE
8
Black
10
152.98
20
-131.915
11
153.22
21
-131.714
0
LINE
8
Black
10
153.22
20
-131.714
11
153.514
21
-131.607
0
LINE
8
Black
10
153.514
20
-131.607
11
153.826
21
-131.607
0
LINE
8
Black
10
153.826
20
-131.607
11
154.12
21
-131.714
0
LINE
8
Black
10
151.58
20
-131.714
11
151.82
21
-131.915
0
LINE
8
Black
10
151.82
20
-131.915
11
151.976
21
-132.186
0
LINE
8
Black
10
151.976
20
-132.186
11
152.03
21
-132.494
0
LINE
8
Black
10
152.03
20
-132.494
11
152.03
21
-134.206
0
LINE
8
Black
10
152.03
20
-134.206
11
151.976
21
-134.514
0
LINE
8
Black
10
151.976
20
-134.514
11
151.82
21
-134.785
0
LINE
8
Black
10
151.82
20
-134.785
11
151.58
21
-134.986
0
LINE
8
Black
10
151.58
20
-134.986
11
151.286
21
-135.093
0
LINE
8
Black
10
151.286
20
-135.093
11
150.974
21
-135.093
0
LINE
8
Black
10
150.974
20
-135.093
11
150.68
21
-134.986
0
LINE
8
Black
10
150.68
20
-134.986
11
150.44
21
-134.785
0
LINE
8
Black
10
150.44
20
-134.785
11
150.284
21
-134.514
0
LINE
8
Black
10
150.284
20
-134.514
11
150.23
21
-134.206
0
LINE
8
Black
10
150.23
20
-134.206
11
150.23
21
-132.494
0
LINE
8
Black
10
150.23
20
-132.494
11
150.284
21
-132.186
0
LINE
8
Black
10
150.284
20
-132.186
11
150.44
21
-131.915
0
LINE
8
Black
10
150.44
20
-131.915
11
150.68
21
-131.714
0
LINE
8
Black
10
150.68
20
-131.714
11
150.974
21
-131.607
0
LINE
8
Black
10
150.974
20
-131.607
11
151.286
21
-131.607
0
LINE
8
Black
10
151.286
20
-131.607
11
151.58
21
-131.714
0
LINE
8
Black
10
149.04
20
-131.714
11
149.28
21
-131.915
0
LINE
8
Black
10
149.28
20
-131.915
11
149.436
21
-132.186
0
LINE
8
Black
10
149.436
20
-132.186
11
149.49
21
-132.494
0
LINE
8
Black
10
149.49
20
-132.494
11
149.49
21
-134.206
0
LINE
8
Black
10
149.49
20
-134.206
11
149.436
21
-134.514
0
LINE
8
Black
10
149.436
20
-134.514
11
149.28
21
-134.785
0
LINE
8
Black
10
149.28
20
-134.785
11
149.04
21
-134.986
0
LINE
8
Black
10
149.04
20
-134.986
11
148.746
21
-135.093
0
LINE
8
Black
10
148.746
20
-135.093
11
148.434
21
-135.093
0
LINE
8
Black
10
148.434
20
-135.093
11
148.14
21
-134.986
0
LINE
8
Black
10
148.14
20
-134.986
11
147.9
21
-134.785
0
LINE
8
Black
10
147.9
20
-134.785
11
147.744
21
-134.514
0
LINE
8
Black
10
147.744
20
-134.514
11
147.69
21
-134.206
0
LINE
8
Black
10
147.69
20
-134.206
11
147.69
21
-132.494
0
LINE
8
Black
10
147.69
20
-132.494
11
147.744
21
-132.186
0
LINE
8
Black
10
147.744
20
-132.186
11
147.9
21
-131.915
0
LINE
8
Black
10
147.9
20
-131.915
11
148.14
21
-131.714
0
LINE
8
Black
10
148.14
20
-131.714
11
148.434
21
-131.607
0
LINE
8
Black
10
148.434
20
-131.607
11
148.746
21
-131.607
0
LINE
8
Black
10
148.746
20
-131.607
11
149.04
21
-131.714
0
LINE
8
Black
10
146.5
20
-131.714
11
146.74
21
-131.915
0
LINE
8
Black
10
146.74
20
-131.915
11
146.896
21
-132.186
0
LINE
8
Black
10
146.896
20
-132.186
11
146.95
21
-132.494
0
LINE
8
Black
10
146.95
20
-132.494
11
146.95
21
-134.206
0
LINE
8
Black
10
146.95
20
-134.206
11
146.896
21
-134.514
0
LINE
8
Black
10
146.896
20
-134.514
11
146.74
21
-134.785
0
LINE
8
Black
10
146.74
20
-134.785
11
146.5
21
-134.986
0
LINE
8
Black
10
146.5
20
-134.986
11
146.206
21
-135.093
0
LINE
8
Black
10
146.206
20
-135.093
11
145.894
21
-135.093
0
LINE
8
Black
10
145.894
20
-135.093
11
145.6
21
-134.986
0
LINE
8
Black
10
145.6
20
-134.986
11
145.36
21
-134.785
0
LINE
8
Black
10
145.36
20
-134.785
11
145.204
21
-134.514
0
LINE
8
Black
10
145.204
20
-134.514
11
145.15
21
-134.206
0
LINE
8
Black
10
145.15
20
-134.206
11
145.15
21
-132.494
0
LINE
8
Black
10
145.15
20
-132.494
11
145.204
21
-132.186
0
LINE
8
Black
10
145.204
20
-132.186
11
145.36
21
-131.915
0
LINE
8
Black
10
145.36
20
-131.915
11
145.6
21
-131.714
0
LINE
8
Black
10
145.6
20
-131.714
11
145.894
21
-131.607
0
LINE
8
Black
10
145.894
20
-131.607
11
146.206
21
-131.607
0
LINE
8
Black
10
146.206
20
-131.607
11
146.5
21
-131.714
0
LINE
8
Black
10
131.674
20
-121.666
11
129.946
21
-121.666
0
LINE
8
Black
10
129.946
20
-121.666
11
129.946
21
-119.634
0
LINE
8
Black
10
129.946
20
-119.634
11
131.674
21
-119.634
0
LINE
8
Black
10
131.674
20
-119.634
11
131.674
21
-121.666
0
LINE
8
Black
10
143.942
20
-119.746
11
144.172
21
-119.939
0
LINE
8
Black
10
144.172
20
-119.939
11
144.322
21
-120.198
0
LINE
8
Black
10
144.322
20
-120.198
11
144.374
21
-120.494
0
LINE
8
Black
10
144.374
20
-120.494
11
144.374
21
-120.806
0
LINE
8
Black
10
144.374
20
-120.806
11
144.322
21
-121.102
0
LINE
8
Black
10
144.322
20
-121.102
11
144.172
21
-121.361
0
LINE
8
Black
10
144.172
20
-121.361
11
143.942
21
-121.554
0
LINE
8
Black
10
143.942
20
-121.554
11
143.66
21
-121.657
0
LINE
8
Black
10
143.66
20
-121.657
11
143.36
21
-121.657
0
LINE
8
Black
10
143.36
20
-121.657
11
143.078
21
-121.554
0
LINE
8
Black
10
143.078
20
-121.554
11
142.848
21
-121.361
0
LINE
8
Black
10
142.848
20
-121.361
11
142.698
21
-121.102
0
LINE
8
Black
10
142.698
20
-121.102
11
142.646
21
-120.806
0
LINE
8
Black
10
142.646
20
-120.806
11
142.646
21
-120.494
0
LINE
8
Black
10
142.646
20
-120.494
11
142.698
21
-120.198
0
LINE
8
Black
10
142.698
20
-120.198
11
142.848
21
-119.939
0
LINE
8
Black
10
142.848
20
-119.939
11
143.078
21
-119.746
0
LINE
8
Black
10
143.078
20
-119.746
11
143.36
21
-119.643
0
LINE
8
Black
10
143.36
20
-119.643
11
143.66
21
-119.643
0
LINE
8
Black
10
143.66
20
-119.643
11
143.942
21
-119.746
0
LINE
8
Black
10
146.482
20
-119.746
11
146.712
21
-119.939
0
LINE
8
Black
10
146.712
20
-119.939
11
146.862
21
-120.198
0
LINE
8
Black
10
146.862
20
-120.198
11
146.914
21
-120.494
0
LINE
8
Black
10
146.914
20
-120.494
11
146.914
21
-120.806
0
LINE
8
Black
10
146.914
20
-120.806
11
146.862
21
-121.102
0
LINE
8
Black
10
146.862
20
-121.102
11
146.712
21
-121.361
0
LINE
8
Black
10
146.712
20
-121.361
11
146.482
21
-121.554
0
LINE
8
Black
10
146.482
20
-121.554
11
146.2
21
-121.657
0
LINE
8
Black
10
146.2
20
-121.657
11
145.9
21
-121.657
0
LINE
8
Black
10
145.9
20
-121.657
11
145.618
21
-121.554
0
LINE
8
Black
10
145.618
20
-121.554
11
145.388
21
-121.361
0
LINE
8
Black
10
145.388
20
-121.361
11
145.238
21
-121.102
0
LINE
8
Black
10
145.238
20
-121.102
11
145.186
21
-120.806
0
LINE
8
Black
10
145.186
20
-120.806
11
145.186
21
-120.494
0
LINE
8
Black
10
145.186
20
-120.494
11
145.238
21
-120.198
0
LINE
8
Black
10
145.238
20
-120.198
11
145.388
21
-119.939
0
LINE
8
Black
10
145.388
20
-119.939
11
145.618
21
-119.746
0
LINE
8
Black
10
145.618
20
-119.746
11
145.9
21
-119.643
0
LINE
8
Black
10
145.9
20
-119.643
11
146.2
21
-119.643
0
LINE
8
Black
10
146.2
20
-119.643
11
146.482
21
-119.746
0
LINE
8
Black
10
149.022
20
-119.746
11
149.252
21
-119.939
0
LINE
8
Black
10
149.252
20
-119.939
11
149.402
21
-120.198
0
LINE
8
Black
10
149.402
20
-120.198
11
149.454
21
-120.494
0
LINE
8
Black
10
149.454
20
-120.494
11
149.454
21
-120.806
0
LINE
8
Black
10
149.454
20
-120.806
11
149.402
21
-121.102
0
LINE
8
Black
10
149.402
20
-121.102
11
149.252
21
-121.361
0
LINE
8
Black
10
149.252
20
-121.361
11
149.022
21
-121.554
0
LINE
8
Black
10
149.022
20
-121.554
11
148.74
21
-121.657
0
LINE
8
Black
10
148.74
20
-121.657
11
148.44
21
-121.657
0
LINE
8
Black
10
148.44
20
-121.657
11
148.158
21
-121.554
0
LINE
8
Black
10
148.158
20
-121.554
11
147.928
21
-121.361
0
LINE
8
Black
10
147.928
20
-121.361
11
147.778
21
-121.102
0
LINE
8
Black
10
147.778
20
-121.102
11
147.726
21
-120.806
0
LINE
8
Black
10
147.726
20
-120.806
11
147.726
21
-120.494
0
LINE
8
Black
10
147.726
20
-120.494
11
147.778
21
-120.198
0
LINE
8
Black
10
147.778
20
-120.198
11
147.928
21
-119.939
0
LINE
8
Black
10
147.928
20
-119.939
11
148.158
21
-119.746
0
LINE
8
Black
10
148.158
20
-119.746
11
148.44
21
-119.643
0
LINE
8
Black
10
148.44
20
-119.643
11
148.74
21
-119.643
0
LINE
8
Black
10
148.74
20
-119.643
11
149.022
21
-119.746
0
LINE
8
Black
10
151.562
20
-119.746
11
151.792
21
-119.939
0
LINE
8
Black
10
151.792
20
-119.939
11
151.942
21
-120.198
0
LINE
8
Black
10
151.942
20
-120.198
11
151.994
21
-120.494
0
LINE
8
Black
10
151.994
20
-120.494
11
151.994
21
-120.806
0
LINE
8
Black
10
151.994
20
-120.806
11
151.942
21
-121.102
0
LINE
8
Black
10
151.942
20
-121.102
11
151.792
21
-121.361
0
LINE
8
Black
10
151.792
20
-121.361
11
151.562
21
-121.554
0
LINE
8
Black
10
151.562
20
-121.554
11
151.28
21
-121.657
0
LINE
8
Black
10
151.28
20
-121.657
11
150.98
21
-121.657
0
LINE
8
Black
10
150.98
20
-121.657
11
150.698
21
-121.554
0
LINE
8
Black
10
150.698
20
-121.554
11
150.468
21
-121.361
0
LINE
8
Black
10
150.468
20
-121.361
11
150.318
21
-121.102
0
LINE
8
Black
10
150.318
20
-121.102
11
150.266
21
-120.806
0
LINE
8
Black
10
150.266
20
-120.806
11
150.266
21
-120.494
0
LINE
8
Black
10
150.266
20
-120.494
11
150.318
21
-120.198
0
LINE
8
Black
10
150.318
20
-120.198
11
150.468
21
-119.939
0
LINE
8
Black
10
150.468
20
-119.939
11
150.698
21
-119.746
0
LINE
8
Black
10
150.698
20
-119.746
11
150.98
21
-119.643
0
LINE
8
Black
10
150.98
20
-119.643
11
151.28
21
-119.643
0
LINE
8
Black
10
151.28
20
-119.643
11
151.562
21
-119.746
0
LINE
8
Black
10
154.102
20
-119.746
11
154.332
21
-119.939
0
LINE
8
Black
10
154.332
20
-119.939
11
154.482
21
-120.198
0
LINE
8
Black
10
154.482
20
-120.198
11
154.534
21
-120.494
0
LINE
8
Black
10
154.534
20
-120.494
11
154.534
21
-120.806
0
LINE
8
Black
10
154.534
20
-120.806
11
154.482
21
-121.102
0
LINE
8
Black
10
154.482
20
-121.102
11
154.332
21
-121.361
0
LINE
8
Black
10
154.332
20
-121.361
11
154.102
21
-121.554
0
LINE
8
Black
10
154.102
20
-121.554
11
153.82
21
-121.657
0
LINE
8
Black
10
153.82
20
-121.657
11
153.52
21
-121.657
0
LINE
8
Black
10
153.52
20
-121.657
11
153.238
21
-121.554
0
LINE
8
Black
10
153.238
20
-121.554
11
153.008
21
-121.361
0
LINE
8
Black
10
153.008
20
-121.361
11
152.858
21
-121.102
0
LINE
8
Black
10
152.858
20
-121.102
11
152.806
21
-120.806
0
LINE
8
Black
10
152.806
20
-120.806
11
152.806
21
-120.494
0
LINE
8
Black
10
152.806
20
-120.494
11
152.858
21
-120.198
0
LINE
8
Black
10
152.858
20
-120.198
11
153.008
21
-119.939
0
LINE
8
Black
10
153.008
20
-119.939
11
153.238
21
-119.746
0
LINE
8
Black
10
153.238
20
-119.746
11
153.52
21
-119.643
0
LINE
8
Black
10
153.52
20
-119.643
11
153.82
21
-119.643
0
LINE
8
Black
10
153.82
20
-119.643
11
154.102
21
-119.746
0
LINE
8
Black
10
133.782
20
-119.746
11
134.012
21
-119.939
0
LINE
8
Black
10
134.012
20
-119.939
11
134.162
21
-120.198
0
LINE
8
Black
10
134.162
20
-120.198
11
134.214
21
-120.494
0
LINE
8
Black
10
134.214
20
-120.494
11
134.214
21
-120.806
0
LINE
8
Black
10
134.214
20
-120.806
11
134.162
21
-121.102
0
LINE
8
Black
10
134.162
20
-121.102
11
134.012
21
-121.361
0
LINE
8
Black
10
134.012
20
-121.361
11
133.782
21
-121.554
0
LINE
8
Black
10
133.782
20
-121.554
11
133.5
21
-121.657
0
LINE
8
Black
10
133.5
20
-121.657
11
133.2
21
-121.657
0
LINE
8
Black
10
133.2
20
-121.657
11
132.918
21
-121.554
0
LINE
8
Black
10
132.918
20
-121.554
11
132.688
21
-121.361
0
LINE
8
Black
10
132.688
20
-121.361
11
132.538
21
-121.102
0
LINE
8
Black
10
132.538
20
-121.102
11
132.486
21
-120.806
0
LINE
8
Black
10
132.486
20
-120.806
11
132.486
21
-120.494
0
LINE
8
Black
10
132.486
20
-120.494
11
132.538
21
-120.198
0
LINE
8
Black
10
132.538
20
-120.198
11
132.688
21
-119.939
0
LINE
8
Black
10
132.688
20
-119.939
11
132.918
21
-119.746
0
LINE
8
Black
10
132.918
20
-119.746
11
133.2
21
-119.643
0
LINE
8
Black
10
133.2
20
-119.643
11
133.5
21
-119.643
0
LINE
8
Black
10
133.5
20
-119.643
11
133.782
21
-119.746
0
LINE
8
Black
10
136.322
20
-119.746
11
136.552
21
-119.939
0
LINE
8
Black
10
136.552
20
-119.939
11
136.702
21
-120.198
0
LINE
8
Black
10
136.702
20
-120.198
11
136.754
21
-120.494
0
LINE
8
Black
10
136.754
20
-120.494
11
136.754
21
-120.806
0
LINE
8
Black
10
136.754
20
-120.806
11
136.702
21
-121.102
0
LINE
8
Black
10
136.702
20
-121.102
11
136.552
21
-121.361
0
LINE
8
Black
10
136.552
20
-121.361
11
136.322
21
-121.554
0
LINE
8
Black
10
136.322
20
-121.554
11
136.04
21
-121.657
0
LINE
8
Black
10
136.04
20
-121.657
11
135.74
21
-121.657
0
LINE
8
Black
10
135.74
20
-121.657
11
135.458
21
-121.554
0
LINE
8
Black
10
135.458
20
-121.554
11
135.228
21
-121.361
0
LINE
8
Black
10
135.228
20
-121.361
11
135.078
21
-121.102
0
LINE
8
Black
10
135.078
20
-121.102
11
135.026
21
-120.806
0
LINE
8
Black
10
135.026
20
-120.806
11
135.026
21
-120.494
0
LINE
8
Black
10
135.026
20
-120.494
11
135.078
21
-120.198
0
LINE
8
Black
10
135.078
20
-120.198
11
135.228
21
-119.939
0
LINE
8
Black
10
135.228
20
-119.939
11
135.458
21
-119.746
0
LINE
8
Black
10
135.458
20
-119.746
11
135.74
21
-119.643
0
LINE
8
Black
10
135.74
20
-119.643
11
136.04
21
-119.643
0
LINE
8
Black
10
136.04
20
-119.643
11
136.322
21
-119.746
0
LINE
8
Black
10
138.862
20
-119.746
11
139.092
21
-119.939
0
LINE
8
Black
10
139.092
20
-119.939
11
139.242
21
-120.198
0
LINE
8
Black
10
139.242
20
-120.198
11
139.294
21
-120.494
0
LINE
8
Black
10
139.294
20
-120.494
11
139.294
21
-120.806
0
LINE
8
Black
10
139.294
20
-120.806
11
139.242
21
-121.102
0
LINE
8
Black
10
139.242
20
-121.102
11
139.092
21
-121.361
0
LINE
8
Black
10
139.092
20
-121.361
11
138.862
21
-121.554
0
LINE
8
Black
10
138.862
20
-121.554
11
138.58
21
-121.657
0
LINE
8
Black
10
138.58
20
-121.657
11
138.28
21
-121.657
0
LINE
8
Black
10
138.28
20
-121.657
11
137.998
21
-121.554
0
LINE
8
Black
10
137.998
20
-121.554
11
137.768
21
-121.361
0
LINE
8
Black
10
137.768
20
-121.361
11
137.618
21
-121.102
0
LINE
8
Black
10
137.618
20
-121.102
11
137.566
21
-120.806
0
LINE
8
Black
10
137.566
20
-120.806
11
137.566
21
-120.494
0
LINE
8
Black
10
137.566
20
-120.494
11
137.618
21
-120.198
0
LINE
8
Black
10
137.618
20
-120.198
11
137.768
21
-119.939
0
LINE
8
Black
10
137.768
20
-119.939
11
137.998
21
-119.746
0
LINE
8
Black
10
137.998
20
-119.746
11
138.28
21
-119.643
0
LINE
8
Black
10
138.28
20
-119.643
11
138.58
21
-119.643
0
LINE
8
Black
10
138.58
20
-119.643
11
138.862
21
-119.746
0
LINE
8
Black
10
141.402
20
-119.746
11
141.632
21
-119.939
0
LINE
8
Black
10
141.632
20
-119.939
11
141.782
21
-120.198
0
LINE
8
Black
10
141.782
20
-120.198
11
141.834
21
-120.494
0
LINE
8
Black
10
141.834
20
-120.494
11
141.834
21
-120.806
0
LINE
8
Black
10
141.834
20
-120.806
11
141.782
21
-121.102
0
LINE
8
Black
10
141.782
20
-121.102
11
141.632
21
-121.361
0
LINE
8
Black
10
141.632
20
-121.361
11
141.402
21
-121.554
0
LINE
8
Black
10
141.402
20
-121.554
11
141.12
21
-121.657
0
LINE
8
Black
10
141.12
20
-121.657
11
140.82
21
-121.657
0
LINE
8
Black
10
140.82
20
-121.657
11
140.538
21
-121.554
0
LINE
8
Black
10
140.538
20
-121.554
11
140.308
21
-121.361
0
LINE
8
Black
10
140.308
20
-121.361
11
140.158
21
-121.102
0
LINE
8
Black
10
140.158
20
-121.102
11
140.106
21
-120.806
0
LINE
8
Black
10
140.106
20
-120.806
11
140.106
21
-120.494
0
LINE
8
Black
10
140.106
20
-120.494
11
140.158
21
-120.198
0
LINE
8
Black
10
140.158
20
-120.198
11
140.308
21
-119.939
0
LINE
8
Black
10
140.308
20
-119.939
11
140.538
21
-119.746
0
LINE
8
Black
10
140.538
20
-119.746
11
140.82
21
-119.643
0
LINE
8
Black
10
140.82
20
-119.643
11
141.12
21
-119.643
0
LINE
8
Black
10
141.12
20
-119.643
11
141.402
21
-119.746
0
LINE
8
Black
10
154.122
20
-105.868
11
154.381
21
-106.018
0
LINE
8
Black
10
154.381
20
-106.018
11
154.574
21
-106.248
0
LINE
8
Black
10
154.574
20
-106.248
11
154.677
21
-106.53
0
LINE
8
Black
10
154.677
20
-106.53
11
154.677
21
-106.83
0
LINE
8
Black
10
154.677
20
-106.83
11
154.574
21
-107.112
0
LINE
8
Black
10
154.574
20
-107.112
11
154.381
21
-107.342
0
LINE
8
Black
10
154.381
20
-107.342
11
154.122
21
-107.492
0
LINE
8
Black
10
154.122
20
-107.492
11
153.826
21
-107.544
0
LINE
8
Black
10
153.826
20
-107.544
11
153.514
21
-107.544
0
LINE
8
Black
10
153.514
20
-107.544
11
153.218
21
-107.492
0
LINE
8
Black
10
153.218
20
-107.492
11
152.959
21
-107.342
0
LINE
8
Black
10
152.959
20
-107.342
11
152.766
21
-107.112
0
LINE
8
Black
10
152.766
20
-107.112
11
152.663
21
-106.83
0
LINE
8
Black
10
152.663
20
-106.83
11
152.663
21
-106.53
0
LINE
8
Black
10
152.663
20
-106.53
11
152.766
21
-106.248
0
LINE
8
Black
10
152.766
20
-106.248
11
152.959
21
-106.018
0
LINE
8
Black
10
152.959
20
-106.018
11
153.218
21
-105.868
0
LINE
8
Black
10
153.218
20
-105.868
11
153.514
21
-105.816
0
LINE
8
Black
10
153.514
20
-105.816
11
153.826
21
-105.816
0
LINE
8
Black
10
153.826
20
-105.816
11
154.122
21
-105.868
0
LINE
8
Black
10
131.262
20
-105.868
11
131.521
21
-106.018
0
LINE
8
Black
10
131.521
20
-106.018
11
131.714
21
-106.248
0
LINE
8
Black
10
131.714
20
-106.248
11
131.817
21
-106.53
0
LINE
8
Black
10
131.817
20
-106.53
11
131.817
21
-106.83
0
LINE
8
Black
10
131.817
20
-106.83
11
131.714
21
-107.112
0
LINE
8
Black
10
131.714
20
-107.112
11
131.521
21
-107.342
0
LINE
8
Black
10
131.521
20
-107.342
11
131.262
21
-107.492
0
LINE
8
Black
10
131.262
20
-107.492
11
130.966
21
-107.544
0
LINE
8
Black
10
130.966
20
-107.544
11
130.654
21
-107.544
0
LINE
8
Black
10
130.654
20
-107.544
11
130.358
21
-107.492
0
LINE
8
Black
10
130.358
20
-107.492
11
130.099
21
-107.342
0
LINE
8
Black
10
130.099
20
-107.342
11
129.906
21
-107.112
0
LINE
8
Black
10
129.906
20
-107.112
11
129.803
21
-106.83
0
LINE
8
Black
10
129.803
20
-106.83
11
129.803
21
-106.53
0
LINE
8
Black
10
129.803
20
-106.53
11
129.906
21
-106.248
0
LINE
8
Black
10
129.906
20
-106.248
11
130.099
21
-106.018
0
LINE
8
Black
10
130.099
20
-106.018
11
130.358
21
-105.868
0
LINE
8
Black
10
130.358
20
-105.868
11
130.654
21
-105.816
0
LINE
8
Black
10
130.654
20
-105.816
11
130.966
21
-105.816
0
LINE
8
Black
10
130.966
20
-105.816
11
131.262
21
-105.868
0
LINE
8
Black
10
185.237
20
-103.963
11
185.496
21
-104.113
0
LINE
8
Black
10
185.496
20
-104.113
11
185.689
21
-104.343
0
LINE
8
Black
10
185.689
20
-104.343
11
185.792
21
-104.625
0
LINE
8
Black
10
185.792
20
-104.625
11
185.792
21
-104.925
0
LINE
8
Black
10
185.792
20
-104.925
11
185.689
21
-105.207
0
LINE
8
Black
10
185.689
20
-105.207
11
185.496
21
-105.437
0
LINE
8
Black
10
185.496
20
-105.437
11
185.237
21
-105.587
0
LINE
8
Black
10
185.237
20
-105.587
11
184.941
21
-105.639
0
LINE
8
Black
10
184.941
20
-105.639
11
184.629
21
-105.639
0
LINE
8
Black
10
184.629
20
-105.639
11
184.333
21
-105.587
0
LINE
8
Black
10
184.333
20
-105.587
11
184.074
21
-105.437
0
LINE
8
Black
10
184.074
20
-105.437
11
183.881
21
-105.207
0
LINE
8
Black
10
183.881
20
-105.207
11
183.778
21
-104.925
0
LINE
8
Black
10
183.778
20
-104.925
11
183.778
21
-104.625
0
LINE
8
Black
10
183.778
20
-104.625
11
183.881
21
-104.343
0
LINE
8
Black
10
183.881
20
-104.343
11
184.074
21
-104.113
0
LINE
8
Black
10
184.074
20
-104.113
11
184.333
21
-103.963
0
LINE
8
Black
10
184.333
20
-103.963
11
184.629
21
-103.911
0
LINE
8
Black
10
184.629
20
-103.911
11
184.941
21
-103.911
0
LINE
8
Black
10
184.941
20
-103.911
11
185.237
21
-103.963
0
LINE
8
Black
10
172.537
20
-103.963
11
172.796
21
-104.113
0
LINE
8
Black
10
172.796
20
-104.113
11
172.989
21
-104.343
0
LINE
8
Black
10
172.989
20
-104.343
11
173.092
21
-104.625
0
LINE
8
Black
10
173.092
20
-104.625
11
173.092
21
-104.925
0
LINE
8
Black
10
173.092
20
-104.925
11
172.989
21
-105.207
0
LINE
8
Black
10
172.989
20
-105.207
11
172.796
21
-105.437
0
LINE
8
Black
10
172.796
20
-105.437
11
172.537
21
-105.587
0
LINE
8
Black
10
172.537
20
-105.587
11
172.241
21
-105.639
0
LINE
8
Black
10
172.241
20
-105.639
11
171.929
21
-105.639
0
LINE
8
Black
10
171.929
20
-105.639
11
171.633
21
-105.587
0
LINE
8
Black
10
171.633
20
-105.587
11
171.374
21
-105.437
0
LINE
8
Black
10
171.374
20
-105.437
11
171.181
21
-105.207
0
LINE
8
Black
10
171.181
20
-105.207
11
171.078
21
-104.925
0
LINE
8
Black
10
171.078
20
-104.925
11
171.078
21
-104.625
0
LINE
8
Black
10
171.078
20
-104.625
11
171.181
21
-104.343
0
LINE
8
Black
10
171.181
20
-104.343
11
171.374
21
-104.113
0
LINE
8
Black
10
171.374
20
-104.113
11
171.633
21
-103.963
0
LINE
8
Black
10
171.633
20
-103.963
11
171.929
21
-103.911
0
LINE
8
Black
10
171.929
20
-103.911
11
172.241
21
-103.911
0
LINE
8
Black
10
172.241
20
-103.911
11
172.537
21
-103.963
0
LINE
8
Black
10
154.122
20
-103.328
11
154.381
21
-103.478
0
LINE
8
Black
10
154.381
20
-103.478
11
154.574
21
-103.708
0
LINE
8
Black
10
154.574
20
-103.708
11
154.677
21
-103.99
0
LINE
8
Black
10
154.677
20
-103.99
11
154.677
21
-104.29
0
LINE
8
Black
10
154.677
20
-104.29
11
154.574
21
-104.572
0
LINE
8
Black
10
154.574
20
-104.572
11
154.381
21
-104.802
0
LINE
8
Black
10
154.381
20
-104.802
11
154.122
21
-104.952
0
LINE
8
Black
10
154.122
20
-104.952
11
153.826
21
-105.004
0
LINE
8
Black
10
153.826
20
-105.004
11
153.514
21
-105.004
0
LINE
8
Black
10
153.514
20
-105.004
11
153.218
21
-104.952
0
LINE
8
Black
10
153.218
20
-104.952
11
152.959
21
-104.802
0
LINE
8
Black
10
152.959
20
-104.802
11
152.766
21
-104.572
0
LINE
8
Black
10
152.766
20
-104.572
11
152.663
21
-104.29
0
LINE
8
Black
10
152.663
20
-104.29
11
152.663
21
-103.99
0
LINE
8
Black
10
152.663
20
-103.99
11
152.766
21
-103.708
0
LINE
8
Black
10
152.766
20
-103.708
11
152.959
21
-103.478
0
LINE
8
Black
10
152.959
20
-103.478
11
153.218
21
-103.328
0
LINE
8
Black
10
153.218
20
-103.328
11
153.514
21
-103.276
0
LINE
8
Black
10
153.514
20
-103.276
11
153.826
21
-103.276
0
LINE
8
Black
10
153.826
20
-103.276
11
154.122
21
-103.328
0
LINE
8
Black
10
131.262
20
-103.328
11
131.521
21
-103.478
0
LINE
8
Black
10
131.521
20
-103.478
11
131.714
21
-103.708
0
LINE
8
Black
10
131.714
20
-103.708
11
131.817
21
-103.99
0
LINE
8
Black
10
131.817
20
-103.99
11
131.817
21
-104.29
0
LINE
8
Black
10
131.817
20
-104.29
11
131.714
21
-104.572
0
LINE
8
Black
10
131.714
20
-104.572
11
131.521
21
-104.802
0
LINE
8
Black
10
131.521
20
-104.802
11
131.262
21
-104.952
0
LINE
8
Black
10
131.262
20
-104.952
11
130.966
21
-105.004
0
LINE
8
Black
10
130.966
20
-105.004
11
130.654
21
-105.004
0
LINE
8
Black
10
130.654
20
-105.004
11
130.358
21
-104.952
0
LINE
8
Black
10
130.358
20
-104.952
11
130.099
21
-104.802
0
LINE
8
Black
10
130.099
20
-104.802
11
129.906
21
-104.572
0
LINE
8
Black
10
129.906
20
-104.572
11
129.803
21
-104.29
0
LINE
8
Black
10
129.803
20
-104.29
11
129.803
21
-103.99
0
LINE
8
Black
10
129.803
20
-103.99
11
129.906
21
-103.708
0
LINE
8
Black
10
129.906
20
-103.708
11
130.099
21
-103.478
0
LINE
8
Black
10
130.099
20
-103.478
11
130.358
21
-103.328
0
LINE
8
Black
10
130.358
20
-103.328
11
130.654
21
-103.276
0
LINE
8
Black
10
130.654
20
-103.276
11
130.966
21
-103.276
0
LINE
8
Black
10
130.966
20
-103.276
11
131.262
21
-103.328
0
LINE
8
Black
10
197.738
20
-101.687
11
198.189
21
-101.947
0
LINE
8
Black
10
198.189
20
-101.947
11
198.524
21
-102.346
0
LINE
8
Black
10
198.524
20
-102.346
11
198.702
21
-102.836
0
LINE
8
Black
10
198.702
20
-102.836
11
198.702
21
-103.357
0
LINE
8
Black
10
198.702
20
-103.357
11
198.524
21
-103.846
0
LINE
8
Black
10
198.524
20
-103.846
11
198.189
21
-104.245
0
LINE
8
Black
10
198.189
20
-104.245
11
197.738
21
-104.505
0
LINE
8
Black
10
197.738
20
-104.505
11
197.225
21
-104.596
0
LINE
8
Black
10
197.225
20
-104.596
11
195.205
21
-104.596
0
LINE
8
Black
10
195.205
20
-104.596
11
194.692
21
-104.505
0
LINE
8
Black
10
194.692
20
-104.505
11
194.241
21
-104.245
0
LINE
8
Black
10
194.241
20
-104.245
11
193.906
21
-103.846
0
LINE
8
Black
10
193.906
20
-103.846
11
193.728
21
-103.357
0
LINE
8
Black
10
193.728
20
-103.357
11
193.728
21
-102.836
0
LINE
8
Black
10
193.728
20
-102.836
11
193.906
21
-102.346
0
LINE
8
Black
10
193.906
20
-102.346
11
194.241
21
-101.947
0
LINE
8
Black
10
194.241
20
-101.947
11
194.692
21
-101.687
0
LINE
8
Black
10
194.692
20
-101.687
11
195.205
21
-101.596
0
LINE
8
Black
10
195.205
20
-101.596
11
197.225
21
-101.596
0
LINE
8
Black
10
197.225
20
-101.596
11
197.738
21
-101.687
0
LINE
8
Black
10
185.237
20
-101.423
11
185.496
21
-101.573
0
LINE
8
Black
10
185.496
20
-101.573
11
185.689
21
-101.803
0
LINE
8
Black
10
185.689
20
-101.803
11
185.792
21
-102.085
0
LINE
8
Black
10
185.792
20
-102.085
11
185.792
21
-102.385
0
LINE
8
Black
10
185.792
20
-102.385
11
185.689
21
-102.667
0
LINE
8
Black
10
185.689
20
-102.667
11
185.496
21
-102.897
0
LINE
8
Black
10
185.496
20
-102.897
11
185.237
21
-103.047
0
LINE
8
Black
10
185.237
20
-103.047
11
184.941
21
-103.099
0
LINE
8
Black
10
184.941
20
-103.099
11
184.629
21
-103.099
0
LINE
8
Black
10
184.629
20
-103.099
11
184.333
21
-103.047
0
LINE
8
Black
10
184.333
20
-103.047
11
184.074
21
-102.897
0
LINE
8
Black
10
184.074
20
-102.897
11
183.881
21
-102.667
0
LINE
8
Black
10
183.881
20
-102.667
11
183.778
21
-102.385
0
LINE
8
Black
10
183.778
20
-102.385
11
183.778
21
-102.085
0
LINE
8
Black
10
183.778
20
-102.085
11
183.881
21
-101.803
0
LINE
8
Black
10
183.881
20
-101.803
11
184.074
21
-101.573
0
LINE
8
Black
10
184.074
20
-101.573
11
184.333
21
-101.423
0
LINE
8
Black
10
184.333
20
-101.423
11
184.629
21
-101.371
0
LINE
8
Black
10
184.629
20
-101.371
11
184.941
21
-101.371
0
LINE
8
Black
10
184.941
20
-101.371
11
185.237
21
-101.423
0
LINE
8
Black
10
172.537
20
-101.423
11
172.796
21
-101.573
0
LINE
8
Black
10
172.796
20
-101.573
11
172.989
21
-101.803
0
LINE
8
Black
10
172.989
20
-101.803
11
173.092
21
-102.085
0
LINE
8
Black
10
173.092
20
-102.085
11
173.092
21
-102.385
0
LINE
8
Black
10
173.092
20
-102.385
11
172.989
21
-102.667
0
LINE
8
Black
10
172.989
20
-102.667
11
172.796
21
-102.897
0
LINE
8
Black
10
172.796
20
-102.897
11
172.537
21
-103.047
0
LINE
8
Black
10
172.537
20
-103.047
11
172.241
21
-103.099
0
LINE
8
Black
10
172.241
20
-103.099
11
171.929
21
-103.099
0
LINE
8
Black
10
171.929
20
-103.099
11
171.633
21
-103.047
0
LINE
8
Black
10
171.633
20
-103.047
11
171.374
21
-102.897
0
LINE
8
Black
10
171.374
20
-102.897
11
171.181
21
-102.667
0
LINE
8
Black
10
171.181
20
-102.667
11
171.078
21
-102.385
0
LINE
8
Black
10
171.078
20
-102.385
11
171.078
21
-102.085
0
LINE
8
Black
10
171.078
20
-102.085
11
171.181
21
-101.803
0
LINE
8
Black
10
171.181
20
-101.803
11
171.374
21
-101.573
0
LINE
8
Black
10
171.374
20
-101.573
11
171.633
21
-101.423
0
LINE
8
Black
10
171.633
20
-101.423
11
171.929
21
-101.371
0
LINE
8
Black
10
171.929
20
-101.371
11
172.241
21
-101.371
0
LINE
8
Black
10
172.241
20
-101.371
11
172.537
21
-101.423
0
LINE
8
Black
10
154.122
20
-100.788
11
154.381
21
-100.938
0
LINE
8
Black
10
154.381
20
-100.938
11
154.574
21
-101.168
0
LINE
8
Black
10
154.574
20
-101.168
11
154.677
21
-101.45
0
LINE
8
Black
10
154.677
20
-101.45
11
154.677
21
-101.75
0
LINE
8
Black
10
154.677
20
-101.75
11
154.574
21
-102.032
0
LINE
8
Black
10
154.574
20
-102.032
11
154.381
21
-102.262
0
LINE
8
Black
10
154.381
20
-102.262
11
154.122
21
-102.412
0
LINE
8
Black
10
154.122
20
-102.412
11
153.826
21
-102.464
0
LINE
8
Black
10
153.826
20
-102.464
11
153.514
21
-102.464
0
LINE
8
Black
10
153.514
20
-102.464
11
153.218
21
-102.412
0
LINE
8
Black
10
153.218
20
-102.412
11
152.959
21
-102.262
0
LINE
8
Black
10
152.959
20
-102.262
11
152.766
21
-102.032
0
LINE
8
Black
10
152.766
20
-102.032
11
152.663
21
-101.75
0
LINE
8
Black
10
152.663
20
-101.75
11
152.663
21
-101.45
0
LINE
8
Black
10
152.663
20
-101.45
11
152.766
21
-101.168
0
LINE
8
Black
10
152.766
20
-101.168
11
152.959
21
-100.938
0
LINE
8
Black
10
152.959
20
-100.938
11
153.218
21
-100.788
0
LINE
8
Black
10
153.218
20
-100.788
11
153.514
21
-100.736
0
LINE
8
Black
10
153.514
20
-100.736
11
153.826
21
-100.736
0
LINE
8
Black
10
153.826
20
-100.736
11
154.122
21
-100.788
0
LINE
8
Black
10
131.262
20
-100.788
11
131.521
21
-100.938
0
LINE
8
Black
10
131.521
20
-100.938
11
131.714
21
-101.168
0
LINE
8
Black
10
131.714
20
-101.168
11
131.817
21
-101.45
0
LINE
8
Black
10
131.817
20
-101.45
11
131.817
21
-101.75
0
LINE
8
Black
10
131.817
20
-101.75
11
131.714
21
-102.032
0
LINE
8
Black
10
131.714
20
-102.032
11
131.521
21
-102.262
0
LINE
8
Black
10
131.521
20
-102.262
11
131.262
21
-102.412
0
LINE
8
Black
10
131.262
20
-102.412
11
130.966
21
-102.464
0
LINE
8
Black
10
130.966
20
-102.464
11
130.654
21
-102.464
0
LINE
8
Black
10
130.654
20
-102.464
11
130.358
21
-102.412
0
LINE
8
Black
10
130.358
20
-102.412
11
130.099
21
-102.262
0
LINE
8
Black
10
130.099
20
-102.262
11
129.906
21
-102.032
0
LINE
8
Black
10
129.906
20
-102.032
11
129.803
21
-101.75
0
LINE
8
Black
10
129.803
20
-101.75
11
129.803
21
-101.45
0
LINE
8
Black
10
129.803
20
-101.45
11
129.906
21
-101.168
0
LINE
8
Black
10
129.906
20
-101.168
11
130.099
21
-100.938
0
LINE
8
Black
10
130.099
20
-100.938
11
130.358
21
-100.788
0
LINE
8
Black
10
130.358
20
-100.788
11
130.654
21
-100.736
0
LINE
8
Black
10
130.654
20
-100.736
11
130.966
21
-100.736
0
LINE
8
Black
10
130.966
20
-100.736
11
131.262
21
-100.788
0
LINE
8
Black
10
197.738
20
-97.7268
11
198.189
21
-97.9872
0
LINE
8
Black
10
198.189
20
-97.9872
11
198.524
21
-98.3863
0
LINE
8
Black
10
198.524
20
-98.3863
11
198.702
21
-98.8757
0
LINE
8
Black
10
198.702
20
-98.8757
11
198.702
21
-99.3966
0
LINE
8
Black
10
198.702
20
-99.3966
11
198.524
21
-99.8861
0
LINE
8
Black
10
198.524
20
-99.8861
11
198.189
21
-100.285
0
LINE
8
Black
10
198.189
20
-100.285
11
197.738
21
-100.546
0
LINE
8
Black
10
197.738
20
-100.546
11
197.225
21
-100.636
0
LINE
8
Black
10
197.225
20
-100.636
11
195.205
21
-100.636
0
LINE
8
Black
10
195.205
20
-100.636
11
194.692
21
-100.546
0
LINE
8
Black
10
194.692
20
-100.546
11
194.241
21
-100.285
0
LINE
8
Black
10
194.241
20
-100.285
11
193.906
21
-99.8861
0
LINE
8
Black
10
193.906
20
-99.8861
11
193.728
21
-99.3966
0
LINE
8
Black
10
193.728
20
-99.3966
11
193.728
21
-98.8757
0
LINE
8
Black
10
193.728
20
-98.8757
11
193.906
21
-98.3863
0
LINE
8
Black
10
193.906
20
-98.3863
11
194.241
21
-97.9872
0
LINE
8
Black
10
194.241
20
-97.9872
11
194.692
21
-97.7268
0
LINE
8
Black
10
194.692
20
-97.7268
11
195.205
21
-97.6363
0
LINE
8
Black
10
195.205
20
-97.6363
11
197.225
21
-97.6363
0
LINE
8
Black
10
197.225
20
-97.6363
11
197.738
21
-97.7268
0
LINE
8
Black
10
172.537
20
-98.8835
11
172.796
21
-99.0334
0
LINE
8
Black
10
172.796
20
-99.0334
11
172.989
21
-99.2632
0
LINE
8
Black
10
172.989
20
-99.2632
11
173.092
21
-99.545
0
LINE
8
Black
10
173.092
20
-99.545
11
173.092
21
-99.845
0
LINE
8
Black
10
173.092
20
-99.845
11
172.989
21
-100.127
0
LINE
8
Black
10
172.989
20
-100.127
11
172.796
21
-100.357
0
LINE
8
Black
10
172.796
20
-100.357
11
172.537
21
-100.507
0
LINE
8
Black
10
172.537
20
-100.507
11
172.241
21
-100.559
0
LINE
8
Black
10
172.241
20
-100.559
11
171.929
21
-100.559
0
LINE
8
Black
10
171.929
20
-100.559
11
171.633
21
-100.507
0
LINE
8
Black
10
171.633
20
-100.507
11
171.374
21
-100.357
0
LINE
8
Black
10
171.374
20
-100.357
11
171.181
21
-100.127
0
LINE
8
Black
10
171.181
20
-100.127
11
171.078
21
-99.845
0
LINE
8
Black
10
171.078
20
-99.845
11
171.078
21
-99.545
0
LINE
8
Black
10
171.078
20
-99.545
11
171.181
21
-99.2632
0
LINE
8
Black
10
171.181
20
-99.2632
11
171.374
21
-99.0334
0
LINE
8
Black
10
171.374
20
-99.0334
11
171.633
21
-98.8835
0
LINE
8
Black
10
171.633
20
-98.8835
11
171.929
21
-98.8314
0
LINE
8
Black
10
171.929
20
-98.8314
11
172.241
21
-98.8314
0
LINE
8
Black
10
172.241
20
-98.8314
11
172.537
21
-98.8835
0
LINE
8
Black
10
185.237
20
-98.8835
11
185.496
21
-99.0334
0
LINE
8
Black
10
185.496
20
-99.0334
11
185.689
21
-99.2632
0
LINE
8
Black
10
185.689
20
-99.2632
11
185.792
21
-99.545
0
LINE
8
Black
10
185.792
20
-99.545
11
185.792
21
-99.845
0
LINE
8
Black
10
185.792
20
-99.845
11
185.689
21
-100.127
0
LINE
8
Black
10
185.689
20
-100.127
11
185.496
21
-100.357
0
LINE
8
Black
10
185.496
20
-100.357
11
185.237
21
-100.507
0
LINE
8
Black
10
185.237
20
-100.507
11
184.941
21
-100.559
0
LINE
8
Black
10
184.941
20
-100.559
11
184.629
21
-100.559
0
LINE
8
Black
10
184.629
20
-100.559
11
184.333
21
-100.507
0
LINE
8
Black
10
184.333
20
-100.507
11
184.074
21
-100.357
0
LINE
8
Black
10
184.074
20
-100.357
11
183.881
21
-100.127
0
LINE
8
Black
10
183.881
20
-100.127
11
183.778
21
-99.845
0
LINE
8
Black
10
183.778
20
-99.845
11
183.778
21
-99.545
0
LINE
8
Black
10
183.778
20
-99.545
11
183.881
21
-99.2632
0
LINE
8
Black
10
183.881
20
-99.2632
11
184.074
21
-99.0334
0
LINE
8
Black
10
184.074
20
-99.0334
11
184.333
21
-98.8835
0
LINE
8
Black
10
184.333
20
-98.8835
11
184.629
21
-98.8314
0
LINE
8
Black
10
184.629
20
-98.8314
11
184.941
21
-98.8314
0
LINE
8
Black
10
184.941
20
-98.8314
11
185.237
21
-98.8835
0
LINE
8
Black
10
154.122
20
-98.2485
11
154.381
21
-98.3984
0
LINE
8
Black
10
154.381
20
-98.3984
11
154.574
21
-98.6282
0
LINE
8
Black
10
154.574
20
-98.6282
11
154.677
21
-98.91
0
LINE
8
Black
10
154.677
20
-98.91
11
154.677
21
-99.21
0
LINE
8
Black
10
154.677
20
-99.21
11
154.574
21
-99.4918
0
LINE
8
Black
10
154.574
20
-99.4918
11
154.381
21
-99.7216
0
LINE
8
Black
10
154.381
20
-99.7216
11
154.122
21
-99.8715
0
LINE
8
Black
10
154.122
20
-99.8715
11
153.826
21
-99.9236
0
LINE
8
Black
10
153.826
20
-99.9236
11
153.514
21
-99.9236
0
LINE
8
Black
10
153.514
20
-99.9236
11
153.218
21
-99.8715
0
LINE
8
Black
10
153.218
20
-99.8715
11
152.959
21
-99.7216
0
LINE
8
Black
10
152.959
20
-99.7216
11
152.766
21
-99.4918
0
LINE
8
Black
10
152.766
20
-99.4918
11
152.663
21
-99.21
0
LINE
8
Black
10
152.663
20
-99.21
11
152.663
21
-98.91
0
LINE
8
Black
10
152.663
20
-98.91
11
152.766
21
-98.6282
0
LINE
8
Black
10
152.766
20
-98.6282
11
152.959
21
-98.3984
0
LINE
8
Black
10
152.959
20
-98.3984
11
153.218
21
-98.2485
0
LINE
8
Black
10
153.218
20
-98.2485
11
153.514
21
-98.1964
0
LINE
8
Black
10
153.514
20
-98.1964
11
153.826
21
-98.1964
0
LINE
8
Black
10
153.826
20
-98.1964
11
154.122
21
-98.2485
0
LINE
8
Black
10
131.262
20
-98.2485
11
131.521
21
-98.3984
0
LINE
8
Black
10
131.521
20
-98.3984
11
131.714
21
-98.6282
0
LINE
8
Black
10
131.714
20
-98.6282
11
131.817
21
-98.91
0
LINE
8
Black
10
131.817
20
-98.91
11
131.817
21
-99.21
0
LINE
8
Black
10
131.817
20
-99.21
11
131.714
21
-99.4918
0
LINE
8
Black
10
131.714
20
-99.4918
11
131.521
21
-99.7216
0
LINE
8
Black
10
131.521
20
-99.7216
11
131.262
21
-99.8715
0
LINE
8
Black
10
131.262
20
-99.8715
11
130.966
21
-99.9236
0
LINE
8
Black
10
130.966
20
-99.9236
11
130.654
21
-99.9236
0
LINE
8
Black
10
130.654
20
-99.9236
11
130.358
21
-99.8715
0
LINE
8
Black
10
130.358
20
-99.8715
11
130.099
21
-99.7216
0
LINE
8
Black
10
130.099
20
-99.7216
11
129.906
21
-99.4918
0
LINE
8
Black
10
129.906
20
-99.4918
11
129.803
21
-99.21
0
LINE
8
Black
10
129.803
20
-99.21
11
129.803
21
-98.91
0
LINE
8
Black
10
129.803
20
-98.91
11
129.906
21
-98.6282
0
LINE
8
Black
10
129.906
20
-98.6282
11
130.099
21
-98.3984
0
LINE
8
Black
10
130.099
20
-98.3984
11
130.358
21
-98.2485
0
LINE
8
Black
10
130.358
20
-98.2485
11
130.654
21
-98.1964
0
LINE
8
Black
10
130.654
20
-98.1964
11
130.966
21
-98.1964
0
LINE
8
Black
10
130.966
20
-98.1964
11
131.262
21
-98.2485
0
LINE
8
Black
10
98.806
20
-99.9236
11
96.774
21
-99.9236
0
LINE
8
Black
10
96.774
20
-99.9236
11
96.774
21
-98.1964
0
LINE
8
Black
10
96.774
20
-98.1964
11
98.806
21
-98.1964
0
LINE
8
Black
10
98.806
20
-98.1964
11
98.806
21
-99.9236
0
LINE
8
Black
10
111.506
20
-99.9236
11
109.474
21
-99.9236
0
LINE
8
Black
10
109.474
20
-99.9236
11
109.474
21
-98.1964
0
LINE
8
Black
10
109.474
20
-98.1964
11
111.506
21
-98.1964
0
LINE
8
Black
10
111.506
20
-98.1964
11
111.506
21
-99.9236
0
LINE
8
Black
10
172.537
20
-96.3435
11
172.796
21
-96.4934
0
LINE
8
Black
10
172.796
20
-96.4934
11
172.989
21
-96.7232
0
LINE
8
Black
10
172.989
20
-96.7232
11
173.092
21
-97.005
0
LINE
8
Black
10
173.092
20
-97.005
11
173.092
21
-97.305
0
LINE
8
Black
10
173.092
20
-97.305
11
172.989
21
-97.5868
0
LINE
8
Black
10
172.989
20
-97.5868
11
172.796
21
-97.8166
0
LINE
8
Black
10
172.796
20
-97.8166
11
172.537
21
-97.9665
0
LINE
8
Black
10
172.537
20
-97.9665
11
172.241
21
-98.0186
0
LINE
8
Black
10
172.241
20
-98.0186
11
171.929
21
-98.0186
0
LINE
8
Black
10
171.929
20
-98.0186
11
171.633
21
-97.9665
0
LINE
8
Black
10
171.633
20
-97.9665
11
171.374
21
-97.8166
0
LINE
8
Black
10
171.374
20
-97.8166
11
171.181
21
-97.5868
0
LINE
8
Black
10
171.181
20
-97.5868
11
171.078
21
-97.305
0
LINE
8
Black
10
171.078
20
-97.305
11
171.078
21
-97.005
0
LINE
8
Black
10
171.078
20
-97.005
11
171.181
21
-96.7232
0
LINE
8
Black
10
171.181
20
-96.7232
11
171.374
21
-96.4934
0
LINE
8
Black
10
171.374
20
-96.4934
11
171.633
21
-96.3435
0
LINE
8
Black
10
171.633
20
-96.3435
11
171.929
21
-96.2914
0
LINE
8
Black
10
171.929
20
-96.2914
11
172.241
21
-96.2914
0
LINE
8
Black
10
172.241
20
-96.2914
11
172.537
21
-96.3435
0
LINE
8
Black
10
185.237
20
-96.3435
11
185.496
21
-96.4934
0
LINE
8
Black
10
185.496
20
-96.4934
11
185.689
21
-96.7232
0
LINE
8
Black
10
185.689
20
-96.7232
11
185.792
21
-97.005
0
LINE
8
Black
10
185.792
20
-97.005
11
185.792
21
-97.305
0
LINE
8
Black
10
185.792
20
-97.305
11
185.689
21
-97.5868
0
LINE
8
Black
10
185.689
20
-97.5868
11
185.496
21
-97.8166
0
LINE
8
Black
10
185.496
20
-97.8166
11
185.237
21
-97.9665
0
LINE
8
Black
10
185.237
20
-97.9665
11
184.941
21
-98.0186
0
LINE
8
Black
10
184.941
20
-98.0186
11
184.629
21
-98.0186
0
LINE
8
Black
10
184.629
20
-98.0186
11
184.333
21
-97.9665
0
LINE
8
Black
10
184.333
20
-97.9665
11
184.074
21
-97.8166
0
LINE
8
Black
10
184.074
20
-97.8166
11
183.881
21
-97.5868
0
LINE
8
Black
10
183.881
20
-97.5868
11
183.778
21
-97.305
0
LINE
8
Black
10
183.778
20
-97.305
11
183.778
21
-97.005
0
LINE
8
Black
10
183.778
20
-97.005
11
183.881
21
-96.7232
0
LINE
8
Black
10
183.881
20
-96.7232
11
184.074
21
-96.4934
0
LINE
8
Black
10
184.074
20
-96.4934
11
184.333
21
-96.3435
0
LINE
8
Black
10
184.333
20
-96.3435
11
184.629
21
-96.2914
0
LINE
8
Black
10
184.629
20
-96.2914
11
184.941
21
-96.2914
0
LINE
8
Black
10
184.941
20
-96.2914
11
185.237
21
-96.3435
0
LINE
8
Black
10
154.122
20
-95.7085
11
154.381
21
-95.8584
0
LINE
8
Black
10
154.381
20
-95.8584
11
154.574
21
-96.0882
0
LINE
8
Black
10
154.574
20
-96.0882
11
154.677
21
-96.37
0
LINE
8
Black
10
154.677
20
-96.37
11
154.677
21
-96.67
0
LINE
8
Black
10
154.677
20
-96.67
11
154.574
21
-96.9518
0
LINE
8
Black
10
154.574
20
-96.9518
11
154.381
21
-97.1816
0
LINE
8
Black
10
154.381
20
-97.1816
11
154.122
21
-97.3315
0
LINE
8
Black
10
154.122
20
-97.3315
11
153.826
21
-97.3836
0
LINE
8
Black
10
153.826
20
-97.3836
11
153.514
21
-97.3836
0
LINE
8
Black
10
153.514
20
-97.3836
11
153.218
21
-97.3315
0
LINE
8
Black
10
153.218
20
-97.3315
11
152.959
21
-97.1816
0
LINE
8
Black
10
152.959
20
-97.1816
11
152.766
21
-96.9518
0
LINE
8
Black
10
152.766
20
-96.9518
11
152.663
21
-96.67
0
LINE
8
Black
10
152.663
20
-96.67
11
152.663
21
-96.37
0
LINE
8
Black
10
152.663
20
-96.37
11
152.766
21
-96.0882
0
LINE
8
Black
10
152.766
20
-96.0882
11
152.959
21
-95.8584
0
LINE
8
Black
10
152.959
20
-95.8584
11
153.218
21
-95.7085
0
LINE
8
Black
10
153.218
20
-95.7085
11
153.514
21
-95.6564
0
LINE
8
Black
10
153.514
20
-95.6564
11
153.826
21
-95.6564
0
LINE
8
Black
10
153.826
20
-95.6564
11
154.122
21
-95.7085
0
LINE
8
Black
10
131.262
20
-95.7085
11
131.521
21
-95.8584
0
LINE
8
Black
10
131.521
20
-95.8584
11
131.714
21
-96.0882
0
LINE
8
Black
10
131.714
20
-96.0882
11
131.817
21
-96.37
0
LINE
8
Black
10
131.817
20
-96.37
11
131.817
21
-96.67
0
LINE
8
Black
10
131.817
20
-96.67
11
131.714
21
-96.9518
0
LINE
8
Black
10
131.714
20
-96.9518
11
131.521
21
-97.1816
0
LINE
8
Black
10
131.521
20
-97.1816
11
131.262
21
-97.3315
0
LINE
8
Black
10
131.262
20
-97.3315
11
130.966
21
-97.3836
0
LINE
8
Black
10
130.966
20
-97.3836
11
130.654
21
-97.3836
0
LINE
8
Black
10
130.654
20
-97.3836
11
130.358
21
-97.3315
0
LINE
8
Black
10
130.358
20
-97.3315
11
130.099
21
-97.1816
0
LINE
8
Black
10
130.099
20
-97.1816
11
129.906
21
-96.9518
0
LINE
8
Black
10
129.906
20
-96.9518
11
129.803
21
-96.67
0
LINE
8
Black
10
129.803
20
-96.67
11
129.803
21
-96.37
0
LINE
8
Black
10
129.803
20
-96.37
11
129.906
21
-96.0882
0
LINE
8
Black
10
129.906
20
-96.0882
11
130.099
21
-95.8584
0
LINE
8
Black
10
130.099
20
-95.8584
11
130.358
21
-95.7085
0
LINE
8
Black
10
130.358
20
-95.7085
11
130.654
21
-95.6564
0
LINE
8
Black
10
130.654
20
-95.6564
11
130.966
21
-95.6564
0
LINE
8
Black
10
130.966
20
-95.6564
11
131.262
21
-95.7085
0
LINE
8
Black
10
98.2416
20
-95.7085
11
98.5014
21
-95.8584
0
LINE
8
Black
10
98.5014
20
-95.8584
11
98.6942
21
-96.0882
0
LINE
8
Black
10
98.6942
20
-96.0882
11
98.7968
21
-96.37
0
LINE
8
Black
10
98.7968
20
-96.37
11
98.7968
21
-96.67
0
LINE
8
Black
10
98.7968
20
-96.67
11
98.6942
21
-96.9518
0
LINE
8
Black
10
98.6942
20
-96.9518
11
98.5014
21
-97.1816
0
LINE
8
Black
10
98.5014
20
-97.1816
11
98.2416
21
-97.3315
0
LINE
8
Black
10
98.2416
20
-97.3315
11
97.9463
21
-97.3836
0
LINE
8
Black
10
97.9463
20
-97.3836
11
97.6337
21
-97.3836
0
LINE
8
Black
10
97.6337
20
-97.3836
11
97.3383
21
-97.3315
0
LINE
8
Black
10
97.3383
20
-97.3315
11
97.0786
21
-97.1816
0
LINE
8
Black
10
97.0786
20
-97.1816
11
96.8858
21
-96.9518
0
LINE
8
Black
10
96.8858
20
-96.9518
11
96.7832
21
-96.67
0
LINE
8
Black
10
96.7832
20
-96.67
11
96.7832
21
-96.37
0
LINE
8
Black
10
96.7832
20
-96.37
11
96.8858
21
-96.0882
0
LINE
8
Black
10
96.8858
20
-96.0882
11
97.0786
21
-95.8584
0
LINE
8
Black
10
97.0786
20
-95.8584
11
97.3383
21
-95.7085
0
LINE
8
Black
10
97.3383
20
-95.7085
11
97.6337
21
-95.6564
0
LINE
8
Black
10
97.6337
20
-95.6564
11
97.9463
21
-95.6564
0
LINE
8
Black
10
97.9463
20
-95.6564
11
98.2416
21
-95.7085
0
LINE
8
Black
10
110.942
20
-95.7085
11
111.201
21
-95.8584
0
LINE
8
Black
10
111.201
20
-95.8584
11
111.394
21
-96.0882
0
LINE
8
Black
10
111.394
20
-96.0882
11
111.497
21
-96.37
0
LINE
8
Black
10
111.497
20
-96.37
11
111.497
21
-96.67
0
LINE
8
Black
10
111.497
20
-96.67
11
111.394
21
-96.9518
0
LINE
8
Black
10
111.394
20
-96.9518
11
111.201
21
-97.1816
0
LINE
8
Black
10
111.201
20
-97.1816
11
110.942
21
-97.3315
0
LINE
8
Black
10
110.942
20
-97.3315
11
110.646
21
-97.3836
0
LINE
8
Black
10
110.646
20
-97.3836
11
110.334
21
-97.3836
0
LINE
8
Black
10
110.334
20
-97.3836
11
110.038
21
-97.3315
0
LINE
8
Black
10
110.038
20
-97.3315
11
109.779
21
-97.1816
0
LINE
8
Black
10
109.779
20
-97.1816
11
109.586
21
-96.9518
0
LINE
8
Black
10
109.586
20
-96.9518
11
109.483
21
-96.67
0
LINE
8
Black
10
109.483
20
-96.67
11
109.483
21
-96.37
0
LINE
8
Black
10
109.483
20
-96.37
11
109.586
21
-96.0882
0
LINE
8
Black
10
109.586
20
-96.0882
11
109.779
21
-95.8584
0
LINE
8
Black
10
109.779
20
-95.8584
11
110.038
21
-95.7085
0
LINE
8
Black
10
110.038
20
-95.7085
11
110.334
21
-95.6564
0
LINE
8
Black
10
110.334
20
-95.6564
11
110.646
21
-95.6564
0
LINE
8
Black
10
110.646
20
-95.6564
11
110.942
21
-95.7085
0
LINE
8
Black
10
197.738
20
-93.7644
11
198.189
21
-94.0248
0
LINE
8
Black
10
198.189
20
-94.0248
11
198.524
21
-94.4239
0
LINE
8
Black
10
198.524
20
-94.4239
11
198.702
21
-94.9133
0
LINE
8
Black
10
198.702
20
-94.9133
11
198.702
21
-95.4342
0
LINE
8
Black
10
198.702
20
-95.4342
11
198.524
21
-95.9237
0
LINE
8
Black
10
198.524
20
-95.9237
11
198.189
21
-96.3228
0
LINE
8
Black
10
198.189
20
-96.3228
11
197.738
21
-96.5832
0
LINE
8
Black
10
197.738
20
-96.5832
11
197.225
21
-96.6737
0
LINE
8
Black
10
197.225
20
-96.6737
11
195.205
21
-96.6737
0
LINE
8
Black
10
195.205
20
-96.6737
11
194.692
21
-96.5832
0
LINE
8
Black
10
194.692
20
-96.5832
11
194.241
21
-96.3228
0
LINE
8
Black
10
194.241
20
-96.3228
11
193.906
21
-95.9237
0
LINE
8
Black
10
193.906
20
-95.9237
11
193.728
21
-95.4342
0
LINE
8
Black
10
193.728
20
-95.4342
11
193.728
21
-94.9133
0
LINE
8
Black
10
193.728
20
-94.9133
11
193.906
21
-94.4239
0
LINE
8
Black
10
193.906
20
-94.4239
11
194.241
21
-94.0248
0
LINE
8
Black
10
194.241
20
-94.0248
11
194.692
21
-93.7644
0
LINE
8
Black
10
194.692
20
-93.7644
11
195.205
21
-93.6739
0
LINE
8
Black
10
195.205
20
-93.6739
11
197.225
21
-93.6739
0
LINE
8
Black
10
197.225
20
-93.6739
11
197.738
21
-93.7644
0
LINE
8
Black
10
90.4233
20
-93.4316
11
90.8744
21
-93.6921
0
LINE
8
Black
10
90.8744
20
-93.6921
11
91.2092
21
-94.0911
0
LINE
8
Black
10
91.2092
20
-94.0911
11
91.3874
21
-94.5806
0
LINE
8
Black
10
91.3874
20
-94.5806
11
91.3874
21
-95.1015
0
LINE
8
Black
10
91.3874
20
-95.1015
11
91.2092
21
-95.591
0
LINE
8
Black
10
91.2092
20
-95.591
11
90.8744
21
-95.99
0
LINE
8
Black
10
90.8744
20
-95.99
11
90.4233
21
-96.2505
0
LINE
8
Black
10
90.4233
20
-96.2505
11
89.9103
21
-96.3409
0
LINE
8
Black
10
89.9103
20
-96.3409
11
87.8897
21
-96.3409
0
LINE
8
Black
10
87.8897
20
-96.3409
11
87.3767
21
-96.2505
0
LINE
8
Black
10
87.3767
20
-96.2505
11
86.9256
21
-95.99
0
LINE
8
Black
10
86.9256
20
-95.99
11
86.5908
21
-95.591
0
LINE
8
Black
10
86.5908
20
-95.591
11
86.4126
21
-95.1015
0
LINE
8
Black
10
86.4126
20
-95.1015
11
86.4126
21
-94.5806
0
LINE
8
Black
10
86.4126
20
-94.5806
11
86.5908
21
-94.0911
0
LINE
8
Black
10
86.5908
20
-94.0911
11
86.9256
21
-93.6921
0
LINE
8
Black
10
86.9256
20
-93.6921
11
87.3767
21
-93.4316
0
LINE
8
Black
10
87.3767
20
-93.4316
11
87.8897
21
-93.3412
0
LINE
8
Black
10
87.8897
20
-93.3412
11
89.9103
21
-93.3412
0
LINE
8
Black
10
89.9103
20
-93.3412
11
90.4233
21
-93.4316
0
LINE
8
Black
10
172.537
20
-93.8035
11
172.796
21
-93.9534
0
LINE
8
Black
10
172.796
20
-93.9534
11
172.989
21
-94.1832
0
LINE
8
Black
10
172.989
20
-94.1832
11
173.092
21
-94.465
0
LINE
8
Black
10
173.092
20
-94.465
11
173.092
21
-94.765
0
LINE
8
Black
10
173.092
20
-94.765
11
172.989
21
-95.0468
0
LINE
8
Black
10
172.989
20
-95.0468
11
172.796
21
-95.2766
0
LINE
8
Black
10
172.796
20
-95.2766
11
172.537
21
-95.4265
0
LINE
8
Black
10
172.537
20
-95.4265
11
172.241
21
-95.4786
0
LINE
8
Black
10
172.241
20
-95.4786
11
171.929
21
-95.4786
0
LINE
8
Black
10
171.929
20
-95.4786
11
171.633
21
-95.4265
0
LINE
8
Black
10
171.633
20
-95.4265
11
171.374
21
-95.2766
0
LINE
8
Black
10
171.374
20
-95.2766
11
171.181
21
-95.0468
0
LINE
8
Black
10
171.181
20
-95.0468
11
171.078
21
-94.765
0
LINE
8
Black
10
171.078
20
-94.765
11
171.078
21
-94.465
0
LINE
8
Black
10
171.078
20
-94.465
11
171.181
21
-94.1832
0
LINE
8
Black
10
171.181
20
-94.1832
11
171.374
21
-93.9534
0
LINE
8
Black
10
171.374
20
-93.9534
11
171.633
21
-93.8035
0
LINE
8
Black
10
171.633
20
-93.8035
11
171.929
21
-93.7514
0
LINE
8
Black
10
171.929
20
-93.7514
11
172.241
21
-93.7514
0
LINE
8
Black
10
172.241
20
-93.7514
11
172.537
21
-93.8035
0
LINE
8
Black
10
185.237
20
-93.8035
11
185.496
21
-93.9534
0
LINE
8
Black
10
185.496
20
-93.9534
11
185.689
21
-94.1832
0
LINE
8
Black
10
185.689
20
-94.1832
11
185.792
21
-94.465
0
LINE
8
Black
10
185.792
20
-94.465
11
185.792
21
-94.765
0
LINE
8
Black
10
185.792
20
-94.765
11
185.689
21
-95.0468
0
LINE
8
Black
10
185.689
20
-95.0468
11
185.496
21
-95.2766
0
LINE
8
Black
10
185.496
20
-95.2766
11
185.237
21
-95.4265
0
LINE
8
Black
10
185.237
20
-95.4265
11
184.941
21
-95.4786
0
LINE
8
Black
10
184.941
20
-95.4786
11
184.629
21
-95.4786
0
LINE
8
Black
10
184.629
20
-95.4786
11
184.333
21
-95.4265
0
LINE
8
Black
10
184.333
20
-95.4265
11
184.074
21
-95.2766
0
LINE
8
Black
10
184.074
20
-95.2766
11
183.881
21
-95.0468
0
LINE
8
Black
10
183.881
20
-95.0468
11
183.778
21
-94.765
0
LINE
8
Black
10
183.778
20
-94.765
11
183.778
21
-94.465
0
LINE
8
Black
10
183.778
20
-94.465
11
183.881
21
-94.1832
0
LINE
8
Black
10
183.881
20
-94.1832
11
184.074
21
-93.9534
0
LINE
8
Black
10
184.074
20
-93.9534
11
184.333
21
-93.8035
0
LINE
8
Black
10
184.333
20
-93.8035
11
184.629
21
-93.7514
0
LINE
8
Black
10
184.629
20
-93.7514
11
184.941
21
-93.7514
0
LINE
8
Black
10
184.941
20
-93.7514
11
185.237
21
-93.8035
0
LINE
8
Black
10
110.942
20
-93.1685
11
111.201
21
-93.3184
0
LINE
8
Black
10
111.201
20
-93.3184
11
111.394
21
-93.5482
0
LINE
8
Black
10
111.394
20
-93.5482
11
111.497
21
-93.83
0
LINE
8
Black
10
111.497
20
-93.83
11
111.497
21
-94.13
0
LINE
8
Black
10
111.497
20
-94.13
11
111.394
21
-94.4118
0
LINE
8
Black
10
111.394
20
-94.4118
11
111.201
21
-94.6416
0
LINE
8
Black
10
111.201
20
-94.6416
11
110.942
21
-94.7915
0
LINE
8
Black
10
110.942
20
-94.7915
11
110.646
21
-94.8436
0
LINE
8
Black
10
110.646
20
-94.8436
11
110.334
21
-94.8436
0
LINE
8
Black
10
110.334
20
-94.8436
11
110.038
21
-94.7915
0
LINE
8
Black
10
110.038
20
-94.7915
11
109.779
21
-94.6416
0
LINE
8
Black
10
109.779
20
-94.6416
11
109.586
21
-94.4118
0
LINE
8
Black
10
109.586
20
-94.4118
11
109.483
21
-94.13
0
LINE
8
Black
10
109.483
20
-94.13
11
109.483
21
-93.83
0
LINE
8
Black
10
109.483
20
-93.83
11
109.586
21
-93.5482
0
LINE
8
Black
10
109.586
20
-93.5482
11
109.779
21
-93.3184
0
LINE
8
Black
10
109.779
20
-93.3184
11
110.038
21
-93.1685
0
LINE
8
Black
10
110.038
20
-93.1685
11
110.334
21
-93.1164
0
LINE
8
Black
10
110.334
20
-93.1164
11
110.646
21
-93.1164
0
LINE
8
Black
10
110.646
20
-93.1164
11
110.942
21
-93.1685
0
LINE
8
Black
10
98.2416
20
-93.1685
11
98.5014
21
-93.3184
0
LINE
8
Black
10
98.5014
20
-93.3184
11
98.6942
21
-93.5482
0
LINE
8
Black
10
98.6942
20
-93.5482
11
98.7968
21
-93.83
0
LINE
8
Black
10
98.7968
20
-93.83
11
98.7968
21
-94.13
0
LINE
8
Black
10
98.7968
20
-94.13
11
98.6942
21
-94.4118
0
LINE
8
Black
10
98.6942
20
-94.4118
11
98.5014
21
-94.6416
0
LINE
8
Black
10
98.5014
20
-94.6416
11
98.2416
21
-94.7915
0
LINE
8
Black
10
98.2416
20
-94.7915
11
97.9463
21
-94.8436
0
LINE
8
Black
10
97.9463
20
-94.8436
11
97.6337
21
-94.8436
0
LINE
8
Black
10
97.6337
20
-94.8436
11
97.3383
21
-94.7915
0
LINE
8
Black
10
97.3383
20
-94.7915
11
97.0786
21
-94.6416
0
LINE
8
Black
10
97.0786
20
-94.6416
11
96.8858
21
-94.4118
0
LINE
8
Black
10
96.8858
20
-94.4118
11
96.7832
21
-94.13
0
LINE
8
Black
10
96.7832
20
-94.13
11
96.7832
21
-93.83
0
LINE
8
Black
10
96.7832
20
-93.83
11
96.8858
21
-93.5482
0
LINE
8
Black
10
96.8858
20
-93.5482
11
97.0786
21
-93.3184
0
LINE
8
Black
10
97.0786
20
-93.3184
11
97.3383
21
-93.1685
0
LINE
8
Black
10
97.3383
20
-93.1685
11
97.6337
21
-93.1164
0
LINE
8
Black
10
97.6337
20
-93.1164
11
97.9463
21
-93.1164
0
LINE
8
Black
10
97.9463
20
-93.1164
11
98.2416
21
-93.1685
0
LINE
8
Black
10
131.262
20
-93.1685
11
131.521
21
-93.3184
0
LINE
8
Black
10
131.521
20
-93.3184
11
131.714
21
-93.5482
0
LINE
8
Black
10
131.714
20
-93.5482
11
131.817
21
-93.83
0
LINE
8
Black
10
131.817
20
-93.83
11
131.817
21
-94.13
0
LINE
8
Black
10
131.817
20
-94.13
11
131.714
21
-94.4118
0
LINE
8
Black
10
131.714
20
-94.4118
11
131.521
21
-94.6416
0
LINE
8
Black
10
131.521
20
-94.6416
11
131.262
21
-94.7915
0
LINE
8
Black
10
131.262
20
-94.7915
11
130.966
21
-94.8436
0
LINE
8
Black
10
130.966
20
-94.8436
11
130.654
21
-94.8436
0
LINE
8
Black
10
130.654
20
-94.8436
11
130.358
21
-94.7915
0
LINE
8
Black
10
130.358
20
-94.7915
11
130.099
21
-94.6416
0
LINE
8
Black
10
130.099
20
-94.6416
11
129.906
21
-94.4118
0
LINE
8
Black
10
129.906
20
-94.4118
11
129.803
21
-94.13
0
LINE
8
Black
10
129.803
20
-94.13
11
129.803
21
-93.83
0
LINE
8
Black
10
129.803
20
-93.83
11
129.906
21
-93.5482
0
LINE
8
Black
10
129.906
20
-93.5482
11
130.099
21
-93.3184
0
LINE
8
Black
10
130.099
20
-93.3184
11
130.358
21
-93.1685
0
LINE
8
Black
10
130.358
20
-93.1685
11
130.654
21
-93.1164
0
LINE
8
Black
10
130.654
20
-93.1164
11
130.966
21
-93.1164
0
LINE
8
Black
10
130.966
20
-93.1164
11
131.262
21
-93.1685
0
LINE
8
Black
10
154.122
20
-93.1685
11
154.381
21
-93.3184
0
LINE
8
Black
10
154.381
20
-93.3184
11
154.574
21
-93.5482
0
LINE
8
Black
10
154.574
20
-93.5482
11
154.677
21
-93.83
0
LINE
8
Black
10
154.677
20
-93.83
11
154.677
21
-94.13
0
LINE
8
Black
10
154.677
20
-94.13
11
154.574
21
-94.4118
0
LINE
8
Black
10
154.574
20
-94.4118
11
154.381
21
-94.6416
0
LINE
8
Black
10
154.381
20
-94.6416
11
154.122
21
-94.7915
0
LINE
8
Black
10
154.122
20
-94.7915
11
153.826
21
-94.8436
0
LINE
8
Black
10
153.826
20
-94.8436
11
153.514
21
-94.8436
0
LINE
8
Black
10
153.514
20
-94.8436
11
153.218
21
-94.7915
0
LINE
8
Black
10
153.218
20
-94.7915
11
152.959
21
-94.6416
0
LINE
8
Black
10
152.959
20
-94.6416
11
152.766
21
-94.4118
0
LINE
8
Black
10
152.766
20
-94.4118
11
152.663
21
-94.13
0
LINE
8
Black
10
152.663
20
-94.13
11
152.663
21
-93.83
0
LINE
8
Black
10
152.663
20
-93.83
11
152.766
21
-93.5482
0
LINE
8
Black
10
152.766
20
-93.5482
11
152.959
21
-93.3184
0
LINE
8
Black
10
152.959
20
-93.3184
11
153.218
21
-93.1685
0
LINE
8
Black
10
153.218
20
-93.1685
11
153.514
21
-93.1164
0
LINE
8
Black
10
153.514
20
-93.1164
11
153.826
21
-93.1164
0
LINE
8
Black
10
153.826
20
-93.1164
11
154.122
21
-93.1685
0
LINE
8
Black
10
185.237
20
-91.2635
11
185.496
21
-91.4134
0
LINE
8
Black
10
185.496
20
-91.4134
11
185.689
21
-91.6432
0
LINE
8
Black
10
185.689
20
-91.6432
11
185.792
21
-91.925
0
LINE
8
Black
10
185.792
20
-91.925
11
185.792
21
-92.225
0
LINE
8
Black
10
185.792
20
-92.225
11
185.689
21
-92.5068
0
LINE
8
Black
10
185.689
20
-92.5068
11
185.496
21
-92.7366
0
LINE
8
Black
10
185.496
20
-92.7366
11
185.237
21
-92.8865
0
LINE
8
Black
10
185.237
20
-92.8865
11
184.941
21
-92.9386
0
LINE
8
Black
10
184.941
20
-92.9386
11
184.629
21
-92.9386
0
LINE
8
Black
10
184.629
20
-92.9386
11
184.333
21
-92.8865
0
LINE
8
Black
10
184.333
20
-92.8865
11
184.074
21
-92.7366
0
LINE
8
Black
10
184.074
20
-92.7366
11
183.881
21
-92.5068
0
LINE
8
Black
10
183.881
20
-92.5068
11
183.778
21
-92.225
0
LINE
8
Black
10
183.778
20
-92.225
11
183.778
21
-91.925
0
LINE
8
Black
10
183.778
20
-91.925
11
183.881
21
-91.6432
0
LINE
8
Black
10
183.881
20
-91.6432
11
184.074
21
-91.4134
0
LINE
8
Black
10
184.074
20
-91.4134
11
184.333
21
-91.2635
0
LINE
8
Black
10
184.333
20
-91.2635
11
184.629
21
-91.2114
0
LINE
8
Black
10
184.629
20
-91.2114
11
184.941
21
-91.2114
0
LINE
8
Black
10
184.941
20
-91.2114
11
185.237
21
-91.2635
0
LINE
8
Black
10
172.537
20
-91.2635
11
172.796
21
-91.4134
0
LINE
8
Black
10
172.796
20
-91.4134
11
172.989
21
-91.6432
0
LINE
8
Black
10
172.989
20
-91.6432
11
173.092
21
-91.925
0
LINE
8
Black
10
173.092
20
-91.925
11
173.092
21
-92.225
0
LINE
8
Black
10
173.092
20
-92.225
11
172.989
21
-92.5068
0
LINE
8
Black
10
172.989
20
-92.5068
11
172.796
21
-92.7366
0
LINE
8
Black
10
172.796
20
-92.7366
11
172.537
21
-92.8865
0
LINE
8
Black
10
172.537
20
-92.8865
11
172.241
21
-92.9386
0
LINE
8
Black
10
172.241
20
-92.9386
11
171.929
21
-92.9386
0
LINE
8
Black
10
171.929
20
-92.9386
11
171.633
21
-92.8865
0
LINE
8
Black
10
171.633
20
-92.8865
11
171.374
21
-92.7366
0
LINE
8
Black
10
171.374
20
-92.7366
11
171.181
21
-92.5068
0
LINE
8
Black
10
171.181
20
-92.5068
11
171.078
21
-92.225
0
LINE
8
Black
10
171.078
20
-92.225
11
171.078
21
-91.925
0
LINE
8
Black
10
171.078
20
-91.925
11
171.181
21
-91.6432
0
LINE
8
Black
10
171.181
20
-91.6432
11
171.374
21
-91.4134
0
LINE
8
Black
10
171.374
20
-91.4134
11
171.633
21
-91.2635
0
LINE
8
Black
10
171.633
20
-91.2635
11
171.929
21
-91.2114
0
LINE
8
Black
10
171.929
20
-91.2114
11
172.241
21
-91.2114
0
LINE
8
Black
10
172.241
20
-91.2114
11
172.537
21
-91.2635
0
LINE
8
Black
10
197.738
20
-89.8045
11
198.189
21
-90.065
0
LINE
8
Black
10
198.189
20
-90.065
11
198.524
21
-90.464
0
LINE
8
Black
10
198.524
20
-90.464
11
198.702
21
-90.9535
0
LINE
8
Black
10
198.702
20
-90.9535
11
198.702
21
-91.4744
0
LINE
8
Black
10
198.702
20
-91.4744
11
198.524
21
-91.9639
0
LINE
8
Black
10
198.524
20
-91.9639
11
198.189
21
-92.3629
0
LINE
8
Black
10
198.189
20
-92.3629
11
197.738
21
-92.6234
0
LINE
8
Black
10
197.738
20
-92.6234
11
197.225
21
-92.7138
0
LINE
8
Black
10
197.225
20
-92.7138
11
195.205
21
-92.7138
0
LINE
8
Black
10
195.205
20
-92.7138
11
194.692
21
-92.6234
0
LINE
8
Black
10
194.692
20
-92.6234
11
194.241
21
-92.3629
0
LINE
8
Black
10
194.241
20
-92.3629
11
193.906
21
-91.9639
0
LINE
8
Black
10
193.906
20
-91.9639
11
193.728
21
-91.4744
0
LINE
8
Black
10
193.728
20
-91.4744
11
193.728
21
-90.9535
0
LINE
8
Black
10
193.728
20
-90.9535
11
193.906
21
-90.464
0
LINE
8
Black
10
193.906
20
-90.464
11
194.241
21
-90.065
0
LINE
8
Black
10
194.241
20
-90.065
11
194.692
21
-89.8045
0
LINE
8
Black
10
194.692
20
-89.8045
11
195.205
21
-89.7141
0
LINE
8
Black
10
195.205
20
-89.7141
11
197.225
21
-89.7141
0
LINE
8
Black
10
197.225
20
-89.7141
11
197.738
21
-89.8045
0
LINE
8
Black
10
90.4233
20
-89.4718
11
90.8744
21
-89.7322
0
LINE
8
Black
10
90.8744
20
-89.7322
11
91.2092
21
-90.1313
0
LINE
8
Black
10
91.2092
20
-90.1313
11
91.3874
21
-90.6208
0
LINE
8
Black
10
91.3874
20
-90.6208
11
91.3874
21
-91.1416
0
LINE
8
Black
10
91.3874
20
-91.1416
11
91.2092
21
-91.6311
0
LINE
8
Black
10
91.2092
20
-91.6311
11
90.8744
21
-92.0302
0
LINE
8
Black
10
90.8744
20
-92.0302
11
90.4233
21
-92.2906
0
LINE
8
Black
10
90.4233
20
-92.2906
11
89.9103
21
-92.3811
0
LINE
8
Black
10
89.9103
20
-92.3811
11
87.8897
21
-92.3811
0
LINE
8
Black
10
87.8897
20
-92.3811
11
87.3767
21
-92.2906
0
LINE
8
Black
10
87.3767
20
-92.2906
11
86.9256
21
-92.0302
0
LINE
8
Black
10
86.9256
20
-92.0302
11
86.5908
21
-91.6311
0
LINE
8
Black
10
86.5908
20
-91.6311
11
86.4126
21
-91.1416
0
LINE
8
Black
10
86.4126
20
-91.1416
11
86.4126
21
-90.6208
0
LINE
8
Black
10
86.4126
20
-90.6208
11
86.5908
21
-90.1313
0
LINE
8
Black
10
86.5908
20
-90.1313
11
86.9256
21
-89.7322
0
LINE
8
Black
10
86.9256
20
-89.7322
11
87.3767
21
-89.4718
0
LINE
8
Black
10
87.3767
20
-89.4718
11
87.8897
21
-89.3813
0
LINE
8
Black
10
87.8897
20
-89.3813
11
89.9103
21
-89.3813
0
LINE
8
Black
10
89.9103
20
-89.3813
11
90.4233
21
-89.4718
0
LINE
8
Black
10
154.122
20
-90.6285
11
154.381
21
-90.7784
0
LINE
8
Black
10
154.381
20
-90.7784
11
154.574
21
-91.0082
0
LINE
8
Black
10
154.574
20
-91.0082
11
154.677
21
-91.29
0
LINE
8
Black
10
154.677
20
-91.29
11
154.677
21
-91.59
0
LINE
8
Black
10
154.677
20
-91.59
11
154.574
21
-91.8718
0
LINE
8
Black
10
154.574
20
-91.8718
11
154.381
21
-92.1016
0
LINE
8
Black
10
154.381
20
-92.1016
11
154.122
21
-92.2515
0
LINE
8
Black
10
154.122
20
-92.2515
11
153.826
21
-92.3036
0
LINE
8
Black
10
153.826
20
-92.3036
11
153.514
21
-92.3036
0
LINE
8
Black
10
153.514
20
-92.3036
11
153.218
21
-92.2515
0
LINE
8
Black
10
153.218
20
-92.2515
11
152.959
21
-92.1016
0
LINE
8
Black
10
152.959
20
-92.1016
11
152.766
21
-91.8718
0
LINE
8
Black
10
152.766
20
-91.8718
11
152.663
21
-91.59
0
LINE
8
Black
10
152.663
20
-91.59
11
152.663
21
-91.29
0
LINE
8
Black
10
152.663
20
-91.29
11
152.766
21
-91.0082
0
LINE
8
Black
10
152.766
20
-91.0082
11
152.959
21
-90.7784
0
LINE
8
Black
10
152.959
20
-90.7784
11
153.218
21
-90.6285
0
LINE
8
Black
10
153.218
20
-90.6285
11
153.514
21
-90.5764
0
LINE
8
Black
10
153.514
20
-90.5764
11
153.826
21
-90.5764
0
LINE
8
Black
10
153.826
20
-90.5764
11
154.122
21
-90.6285
0
LINE
8
Black
10
110.942
20
-90.6285
11
111.201
21
-90.7784
0
LINE
8
Black
10
111.201
20
-90.7784
11
111.394
21
-91.0082
0
LINE
8
Black
10
111.394
20
-91.0082
11
111.497
21
-91.29
0
LINE
8
Black
10
111.497
20
-91.29
11
111.497
21
-91.59
0
LINE
8
Black
10
111.497
20
-91.59
11
111.394
21
-91.8718
0
LINE
8
Black
10
111.394
20
-91.8718
11
111.201
21
-92.1016
0
LINE
8
Black
10
111.201
20
-92.1016
11
110.942
21
-92.2515
0
LINE
8
Black
10
110.942
20
-92.2515
11
110.646
21
-92.3036
0
LINE
8
Black
10
110.646
20
-92.3036
11
110.334
21
-92.3036
0
LINE
8
Black
10
110.334
20
-92.3036
11
110.038
21
-92.2515
0
LINE
8
Black
10
110.038
20
-92.2515
11
109.779
21
-92.1016
0
LINE
8
Black
10
109.779
20
-92.1016
11
109.586
21
-91.8718
0
LINE
8
Black
10
109.586
20
-91.8718
11
109.483
21
-91.59
0
LINE
8
Black
10
109.483
20
-91.59
11
109.483
21
-91.29
0
LINE
8
Black
10
109.483
20
-91.29
11
109.586
21
-91.0082
0
LINE
8
Black
10
109.586
20
-91.0082
11
109.779
21
-90.7784
0
LINE
8
Black
10
109.779
20
-90.7784
11
110.038
21
-90.6285
0
LINE
8
Black
10
110.038
20
-90.6285
11
110.334
21
-90.5764
0
LINE
8
Black
10
110.334
20
-90.5764
11
110.646
21
-90.5764
0
LINE
8
Black
10
110.646
20
-90.5764
11
110.942
21
-90.6285
0
LINE
8
Black
10
98.2416
20
-90.6285
11
98.5014
21
-90.7784
0
LINE
8
Black
10
98.5014
20
-90.7784
11
98.6942
21
-91.0082
0
LINE
8
Black
10
98.6942
20
-91.0082
11
98.7968
21
-91.29
0
LINE
8
Black
10
98.7968
20
-91.29
11
98.7968
21
-91.59
0
LINE
8
Black
10
98.7968
20
-91.59
11
98.6942
21
-91.8718
0
LINE
8
Black
10
98.6942
20
-91.8718
11
98.5014
21
-92.1016
0
LINE
8
Black
10
98.5014
20
-92.1016
11
98.2416
21
-92.2515
0
LINE
8
Black
10
98.2416
20
-92.2515
11
97.9463
21
-92.3036
0
LINE
8
Black
10
97.9463
20
-92.3036
11
97.6337
21
-92.3036
0
LINE
8
Black
10
97.6337
20
-92.3036
11
97.3383
21
-92.2515
0
LINE
8
Black
10
97.3383
20
-92.2515
11
97.0786
21
-92.1016
0
LINE
8
Black
10
97.0786
20
-92.1016
11
96.8858
21
-91.8718
0
LINE
8
Black
10
96.8858
20
-91.8718
11
96.7832
21
-91.59
0
LINE
8
Black
10
96.7832
20
-91.59
11
96.7832
21
-91.29
0
LINE
8
Black
10
96.7832
20
-91.29
11
96.8858
21
-91.0082
0
LINE
8
Black
10
96.8858
20
-91.0082
11
97.0786
21
-90.7784
0
LINE
8
Black
10
97.0786
20
-90.7784
11
97.3383
21
-90.6285
0
LINE
8
Black
10
97.3383
20
-90.6285
11
97.6337
21
-90.5764
0
LINE
8
Black
10
97.6337
20
-90.5764
11
97.9463
21
-90.5764
0
LINE
8
Black
10
97.9463
20
-90.5764
11
98.2416
21
-90.6285
0
LINE
8
Black
10
131.262
20
-90.6285
11
131.521
21
-90.7784
0
LINE
8
Black
10
131.521
20
-90.7784
11
131.714
21
-91.0082
0
LINE
8
Black
10
131.714
20
-91.0082
11
131.817
21
-91.29
0
LINE
8
Black
10
131.817
20
-91.29
11
131.817
21
-91.59
0
LINE
8
Black
10
131.817
20
-91.59
11
131.714
21
-91.8718
0
LINE
8
Black
10
131.714
20
-91.8718
11
131.521
21
-92.1016
0
LINE
8
Black
10
131.521
20
-92.1016
11
131.262
21
-92.2515
0
LINE
8
Black
10
131.262
20
-92.2515
11
130.966
21
-92.3036
0
LINE
8
Black
10
130.966
20
-92.3036
11
130.654
21
-92.3036
0
LINE
8
Black
10
130.654
20
-92.3036
11
130.358
21
-92.2515
0
LINE
8
Black
10
130.358
20
-92.2515
11
130.099
21
-92.1016
0
LINE
8
Black
10
130.099
20
-92.1016
11
129.906
21
-91.8718
0
LINE
8
Black
10
129.906
20
-91.8718
11
129.803
21
-91.59
0
LINE
8
Black
10
129.803
20
-91.59
11
129.803
21
-91.29
0
LINE
8
Black
10
129.803
20
-91.29
11
129.906
21
-91.0082
0
LINE
8
Black
10
129.906
20
-91.0082
11
130.099
21
-90.7784
0
LINE
8
Black
10
130.099
20
-90.7784
11
130.358
21
-90.6285
0
LINE
8
Black
10
130.358
20
-90.6285
11
130.654
21
-90.5764
0
LINE
8
Black
10
130.654
20
-90.5764
11
130.966
21
-90.5764
0
LINE
8
Black
10
130.966
20
-90.5764
11
131.262
21
-90.6285
0
LINE
8
Black
10
185.237
20
-88.7235
11
185.496
21
-88.8734
0
LINE
8
Black
10
185.496
20
-88.8734
11
185.689
21
-89.1032
0
LINE
8
Black
10
185.689
20
-89.1032
11
185.792
21
-89.385
0
LINE
8
Black
10
185.792
20
-89.385
11
185.792
21
-89.685
0
LINE
8
Black
10
185.792
20
-89.685
11
185.689
21
-89.9668
0
LINE
8
Black
10
185.689
20
-89.9668
11
185.496
21
-90.1966
0
LINE
8
Black
10
185.496
20
-90.1966
11
185.237
21
-90.3465
0
LINE
8
Black
10
185.237
20
-90.3465
11
184.941
21
-90.3986
0
LINE
8
Black
10
184.941
20
-90.3986
11
184.629
21
-90.3986
0
LINE
8
Black
10
184.629
20
-90.3986
11
184.333
21
-90.3465
0
LINE
8
Black
10
184.333
20
-90.3465
11
184.074
21
-90.1966
0
LINE
8
Black
10
184.074
20
-90.1966
11
183.881
21
-89.9668
0
LINE
8
Black
10
183.881
20
-89.9668
11
183.778
21
-89.685
0
LINE
8
Black
10
183.778
20
-89.685
11
183.778
21
-89.385
0
LINE
8
Black
10
183.778
20
-89.385
11
183.881
21
-89.1032
0
LINE
8
Black
10
183.881
20
-89.1032
11
184.074
21
-88.8734
0
LINE
8
Black
10
184.074
20
-88.8734
11
184.333
21
-88.7235
0
LINE
8
Black
10
184.333
20
-88.7235
11
184.629
21
-88.6714
0
LINE
8
Black
10
184.629
20
-88.6714
11
184.941
21
-88.6714
0
LINE
8
Black
10
184.941
20
-88.6714
11
185.237
21
-88.7235
0
LINE
8
Black
10
172.537
20
-88.7235
11
172.796
21
-88.8734
0
LINE
8
Black
10
172.796
20
-88.8734
11
172.989
21
-89.1032
0
LINE
8
Black
10
172.989
20
-89.1032
11
173.092
21
-89.385
0
LINE
8
Black
10
173.092
20
-89.385
11
173.092
21
-89.685
0
LINE
8
Black
10
173.092
20
-89.685
11
172.989
21
-89.9668
0
LINE
8
Black
10
172.989
20
-89.9668
11
172.796
21
-90.1966
0
LINE
8
Black
10
172.796
20
-90.1966
11
172.537
21
-90.3465
0
LINE
8
Black
10
172.537
20
-90.3465
11
172.241
21
-90.3986
0
LINE
8
Black
10
172.241
20
-90.3986
11
171.929
21
-90.3986
0
LINE
8
Black
10
171.929
20
-90.3986
11
171.633
21
-90.3465
0
LINE
8
Black
10
171.633
20
-90.3465
11
171.374
21
-90.1966
0
LINE
8
Black
10
171.374
20
-90.1966
11
171.181
21
-89.9668
0
LINE
8
Black
10
171.181
20
-89.9668
11
171.078
21
-89.685
0
LINE
8
Black
10
171.078
20
-89.685
11
171.078
21
-89.385
0
LINE
8
Black
10
171.078
20
-89.385
11
171.181
21
-89.1032
0
LINE
8
Black
10
171.181
20
-89.1032
11
171.374
21
-88.8734
0
LINE
8
Black
10
171.374
20
-88.8734
11
171.633
21
-88.7235
0
LINE
8
Black
10
171.633
20
-88.7235
11
171.929
21
-88.6714
0
LINE
8
Black
10
171.929
20
-88.6714
11
172.241
21
-88.6714
0
LINE
8
Black
10
172.241
20
-88.6714
11
172.537
21
-88.7235
0
LINE
8
Black
10
98.2416
20
-88.0885
11
98.5014
21
-88.2384
0
LINE
8
Black
10
98.5014
20
-88.2384
11
98.6942
21
-88.4682
0
LINE
8
Black
10
98.6942
20
-88.4682
11
98.7968
21
-88.75
0
LINE
8
Black
10
98.7968
20
-88.75
11
98.7968
21
-89.05
0
LINE
8
Black
10
98.7968
20
-89.05
11
98.6942
21
-89.3318
0
LINE
8
Black
10
98.6942
20
-89.3318
11
98.5014
21
-89.5616
0
LINE
8
Black
10
98.5014
20
-89.5616
11
98.2416
21
-89.7115
0
LINE
8
Black
10
98.2416
20
-89.7115
11
97.9463
21
-89.7636
0
LINE
8
Black
10
97.9463
20
-89.7636
11
97.6337
21
-89.7636
0
LINE
8
Black
10
97.6337
20
-89.7636
11
97.3383
21
-89.7115
0
LINE
8
Black
10
97.3383
20
-89.7115
11
97.0786
21
-89.5616
0
LINE
8
Black
10
97.0786
20
-89.5616
11
96.8858
21
-89.3318
0
LINE
8
Black
10
96.8858
20
-89.3318
11
96.7832
21
-89.05
0
LINE
8
Black
10
96.7832
20
-89.05
11
96.7832
21
-88.75
0
LINE
8
Black
10
96.7832
20
-88.75
11
96.8858
21
-88.4682
0
LINE
8
Black
10
96.8858
20
-88.4682
11
97.0786
21
-88.2384
0
LINE
8
Black
10
97.0786
20
-88.2384
11
97.3383
21
-88.0885
0
LINE
8
Black
10
97.3383
20
-88.0885
11
97.6337
21
-88.0364
0
LINE
8
Black
10
97.6337
20
-88.0364
11
97.9463
21
-88.0364
0
LINE
8
Black
10
97.9463
20
-88.0364
11
98.2416
21
-88.0885
0
LINE
8
Black
10
110.942
20
-88.0885
11
111.201
21
-88.2384
0
LINE
8
Black
10
111.201
20
-88.2384
11
111.394
21
-88.4682
0
LINE
8
Black
10
111.394
20
-88.4682
11
111.497
21
-88.75
0
LINE
8
Black
10
111.497
20
-88.75
11
111.497
21
-89.05
0
LINE
8
Black
10
111.497
20
-89.05
11
111.394
21
-89.3318
0
LINE
8
Black
10
111.394
20
-89.3318
11
111.201
21
-89.5616
0
LINE
8
Black
10
111.201
20
-89.5616
11
110.942
21
-89.7115
0
LINE
8
Black
10
110.942
20
-89.7115
11
110.646
21
-89.7636
0
LINE
8
Black
10
110.646
20
-89.7636
11
110.334
21
-89.7636
0
LINE
8
Black
10
110.334
20
-89.7636
11
110.038
21
-89.7115
0
LINE
8
Black
10
110.038
20
-89.7115
11
109.779
21
-89.5616
0
LINE
8
Black
10
109.779
20
-89.5616
11
109.586
21
-89.3318
0
LINE
8
Black
10
109.586
20
-89.3318
11
109.483
21
-89.05
0
LINE
8
Black
10
109.483
20
-89.05
11
109.483
21
-88.75
0
LINE
8
Black
10
109.483
20
-88.75
11
109.586
21
-88.4682
0
LINE
8
Black
10
109.586
20
-88.4682
11
109.779
21
-88.2384
0
LINE
8
Black
10
109.779
20
-88.2384
11
110.038
21
-88.0885
0
LINE
8
Black
10
110.038
20
-88.0885
11
110.334
21
-88.0364
0
LINE
8
Black
10
110.334
20
-88.0364
11
110.646
21
-88.0364
0
LINE
8
Black
10
110.646
20
-88.0364
11
110.942
21
-88.0885
0
LINE
8
Black
10
154.122
20
-88.0885
11
154.381
21
-88.2384
0
LINE
8
Black
10
154.381
20
-88.2384
11
154.574
21
-88.4682
0
LINE
8
Black
10
154.574
20
-88.4682
11
154.677
21
-88.75
0
LINE
8
Black
10
154.677
20
-88.75
11
154.677
21
-89.05
0
LINE
8
Black
10
154.677
20
-89.05
11
154.574
21
-89.3318
0
LINE
8
Black
10
154.574
20
-89.3318
11
154.381
21
-89.5616
0
LINE
8
Black
10
154.381
20
-89.5616
11
154.122
21
-89.7115
0
LINE
8
Black
10
154.122
20
-89.7115
11
153.826
21
-89.7636
0
LINE
8
Black
10
153.826
20
-89.7636
11
153.514
21
-89.7636
0
LINE
8
Black
10
153.514
20
-89.7636
11
153.218
21
-89.7115
0
LINE
8
Black
10
153.218
20
-89.7115
11
152.959
21
-89.5616
0
LINE
8
Black
10
152.959
20
-89.5616
11
152.766
21
-89.3318
0
LINE
8
Black
10
152.766
20
-89.3318
11
152.663
21
-89.05
0
LINE
8
Black
10
152.663
20
-89.05
11
152.663
21
-88.75
0
LINE
8
Black
10
152.663
20
-88.75
11
152.766
21
-88.4682
0
LINE
8
Black
10
152.766
20
-88.4682
11
152.959
21
-88.2384
0
LINE
8
Black
10
152.959
20
-88.2384
11
153.218
21
-88.0885
0
LINE
8
Black
10
153.218
20
-88.0885
11
153.514
21
-88.0364
0
LINE
8
Black
10
153.514
20
-88.0364
11
153.826
21
-88.0364
0
LINE
8
Black
10
153.826
20
-88.0364
11
154.122
21
-88.0885
0
LINE
8
Black
10
131.262
20
-88.0885
11
131.521
21
-88.2384
0
LINE
8
Black
10
131.521
20
-88.2384
11
131.714
21
-88.4682
0
LINE
8
Black
10
131.714
20
-88.4682
11
131.817
21
-88.75
0
LINE
8
Black
10
131.817
20
-88.75
11
131.817
21
-89.05
0
LINE
8
Black
10
131.817
20
-89.05
11
131.714
21
-89.3318
0
LINE
8
Black
10
131.714
20
-89.3318
11
131.521
21
-89.5616
0
LINE
8
Black
10
131.521
20
-89.5616
11
131.262
21
-89.7115
0
LINE
8
Black
10
131.262
20
-89.7115
11
130.966
21
-89.7636
0
LINE
8
Black
10
130.966
20
-89.7636
11
130.654
21
-89.7636
0
LINE
8
Black
10
130.654
20
-89.7636
11
130.358
21
-89.7115
0
LINE
8
Black
10
130.358
20
-89.7115
11
130.099
21
-89.5616
0
LINE
8
Black
10
130.099
20
-89.5616
11
129.906
21
-89.3318
0
LINE
8
Black
10
129.906
20
-89.3318
11
129.803
21
-89.05
0
LINE
8
Black
10
129.803
20
-89.05
11
129.803
21
-88.75
0
LINE
8
Black
10
129.803
20
-88.75
11
129.906
21
-88.4682
0
LINE
8
Black
10
129.906
20
-88.4682
11
130.099
21
-88.2384
0
LINE
8
Black
10
130.099
20
-88.2384
11
130.358
21
-88.0885
0
LINE
8
Black
10
130.358
20
-88.0885
11
130.654
21
-88.0364
0
LINE
8
Black
10
130.654
20
-88.0364
11
130.966
21
-88.0364
0
LINE
8
Black
10
130.966
20
-88.0364
11
131.262
21
-88.0885
0
LINE
8
Black
10
90.4233
20
-85.5094
11
90.8744
21
-85.7698
0
LINE
8
Black
10
90.8744
20
-85.7698
11
91.2092
21
-86.1689
0
LINE
8
Black
10
91.2092
20
-86.1689
11
91.3874
21
-86.6583
0
LINE
8
Black
10
91.3874
20
-86.6583
11
91.3874
21
-87.1792
0
LINE
8
Black
10
91.3874
20
-87.1792
11
91.2092
21
-87.6687
0
LINE
8
Black
10
91.2092
20
-87.6687
11
90.8744
21
-88.0678
0
LINE
8
Black
10
90.8744
20
-88.0678
11
90.4233
21
-88.3282
0
LINE
8
Black
10
90.4233
20
-88.3282
11
89.9103
21
-88.4187
0
LINE
8
Black
10
89.9103
20
-88.4187
11
87.8897
21
-88.4187
0
LINE
8
Black
10
87.8897
20
-88.4187
11
87.3767
21
-88.3282
0
LINE
8
Black
10
87.3767
20
-88.3282
11
86.9256
21
-88.0678
0
LINE
8
Black
10
86.9256
20
-88.0678
11
86.5908
21
-87.6687
0
LINE
8
Black
10
86.5908
20
-87.6687
11
86.4126
21
-87.1792
0
LINE
8
Black
10
86.4126
20
-87.1792
11
86.4126
21
-86.6583
0
LINE
8
Black
10
86.4126
20
-86.6583
11
86.5908
21
-86.1689
0
LINE
8
Black
10
86.5908
20
-86.1689
11
86.9256
21
-85.7698
0
LINE
8
Black
10
86.9256
20
-85.7698
11
87.3767
21
-85.5094
0
LINE
8
Black
10
87.3767
20
-85.5094
11
87.8897
21
-85.4189
0
LINE
8
Black
10
87.8897
20
-85.4189
11
89.9103
21
-85.4189
0
LINE
8
Black
10
89.9103
20
-85.4189
11
90.4233
21
-85.5094
0
LINE
8
Black
10
173.101
20
-87.8586
11
171.069
21
-87.8586
0
LINE
8
Black
10
171.069
20
-87.8586
11
171.069
21
-86.1314
0
LINE
8
Black
10
171.069
20
-86.1314
11
173.101
21
-86.1314
0
LINE
8
Black
10
173.101
20
-86.1314
11
173.101
21
-87.8586
0
LINE
8
Black
10
185.801
20
-87.8586
11
183.769
21
-87.8586
0
LINE
8
Black
10
183.769
20
-87.8586
11
183.769
21
-86.1314
0
LINE
8
Black
10
183.769
20
-86.1314
11
185.801
21
-86.1314
0
LINE
8
Black
10
185.801
20
-86.1314
11
185.801
21
-87.8586
0
LINE
8
Black
10
131.262
20
-85.5485
11
131.521
21
-85.6984
0
LINE
8
Black
10
131.521
20
-85.6984
11
131.714
21
-85.9282
0
LINE
8
Black
10
131.714
20
-85.9282
11
131.817
21
-86.21
0
LINE
8
Black
10
131.817
20
-86.21
11
131.817
21
-86.51
0
LINE
8
Black
10
131.817
20
-86.51
11
131.714
21
-86.7918
0
LINE
8
Black
10
131.714
20
-86.7918
11
131.521
21
-87.0216
0
LINE
8
Black
10
131.521
20
-87.0216
11
131.262
21
-87.1715
0
LINE
8
Black
10
131.262
20
-87.1715
11
130.966
21
-87.2236
0
LINE
8
Black
10
130.966
20
-87.2236
11
130.654
21
-87.2236
0
LINE
8
Black
10
130.654
20
-87.2236
11
130.358
21
-87.1715
0
LINE
8
Black
10
130.358
20
-87.1715
11
130.099
21
-87.0216
0
LINE
8
Black
10
130.099
20
-87.0216
11
129.906
21
-86.7918
0
LINE
8
Black
10
129.906
20
-86.7918
11
129.803
21
-86.51
0
LINE
8
Black
10
129.803
20
-86.51
11
129.803
21
-86.21
0
LINE
8
Black
10
129.803
20
-86.21
11
129.906
21
-85.9282
0
LINE
8
Black
10
129.906
20
-85.9282
11
130.099
21
-85.6984
0
LINE
8
Black
10
130.099
20
-85.6984
11
130.358
21
-85.5485
0
LINE
8
Black
10
130.358
20
-85.5485
11
130.654
21
-85.4964
0
LINE
8
Black
10
130.654
20
-85.4964
11
130.966
21
-85.4964
0
LINE
8
Black
10
130.966
20
-85.4964
11
131.262
21
-85.5485
0
LINE
8
Black
10
154.122
20
-85.5485
11
154.381
21
-85.6984
0
LINE
8
Black
10
154.381
20
-85.6984
11
154.574
21
-85.9282
0
LINE
8
Black
10
154.574
20
-85.9282
11
154.677
21
-86.21
0
LINE
8
Black
10
154.677
20
-86.21
11
154.677
21
-86.51
0
LINE
8
Black
10
154.677
20
-86.51
11
154.574
21
-86.7918
0
LINE
8
Black
10
154.574
20
-86.7918
11
154.381
21
-87.0216
0
LINE
8
Black
10
154.381
20
-87.0216
11
154.122
21
-87.1715
0
LINE
8
Black
10
154.122
20
-87.1715
11
153.826
21
-87.2236
0
LINE
8
Black
10
153.826
20
-87.2236
11
153.514
21
-87.2236
0
LINE
8
Black
10
153.514
20
-87.2236
11
153.218
21
-87.1715
0
LINE
8
Black
10
153.218
20
-87.1715
11
152.959
21
-87.0216
0
LINE
8
Black
10
152.959
20
-87.0216
11
152.766
21
-86.7918
0
LINE
8
Black
10
152.766
20
-86.7918
11
152.663
21
-86.51
0
LINE
8
Black
10
152.663
20
-86.51
11
152.663
21
-86.21
0
LINE
8
Black
10
152.663
20
-86.21
11
152.766
21
-85.9282
0
LINE
8
Black
10
152.766
20
-85.9282
11
152.959
21
-85.6984
0
LINE
8
Black
10
152.959
20
-85.6984
11
153.218
21
-85.5485
0
LINE
8
Black
10
153.218
20
-85.5485
11
153.514
21
-85.4964
0
LINE
8
Black
10
153.514
20
-85.4964
11
153.826
21
-85.4964
0
LINE
8
Black
10
153.826
20
-85.4964
11
154.122
21
-85.5485
0
LINE
8
Black
10
98.2416
20
-85.5485
11
98.5014
21
-85.6984
0
LINE
8
Black
10
98.5014
20
-85.6984
11
98.6942
21
-85.9282
0
LINE
8
Black
10
98.6942
20
-85.9282
11
98.7968
21
-86.21
0
LINE
8
Black
10
98.7968
20
-86.21
11
98.7968
21
-86.51
0
LINE
8
Black
10
98.7968
20
-86.51
11
98.6942
21
-86.7918
0
LINE
8
Black
10
98.6942
20
-86.7918
11
98.5014
21
-87.0216
0
LINE
8
Black
10
98.5014
20
-87.0216
11
98.2416
21
-87.1715
0
LINE
8
Black
10
98.2416
20
-87.1715
11
97.9463
21
-87.2236
0
LINE
8
Black
10
97.9463
20
-87.2236
11
97.6337
21
-87.2236
0
LINE
8
Black
10
97.6337
20
-87.2236
11
97.3383
21
-87.1715
0
LINE
8
Black
10
97.3383
20
-87.1715
11
97.0786
21
-87.0216
0
LINE
8
Black
10
97.0786
20
-87.0216
11
96.8858
21
-86.7918
0
LINE
8
Black
10
96.8858
20
-86.7918
11
96.7832
21
-86.51
0
LINE
8
Black
10
96.7832
20
-86.51
11
96.7832
21
-86.21
0
LINE
8
Black
10
96.7832
20
-86.21
11
96.8858
21
-85.9282
0
LINE
8
Black
10
96.8858
20
-85.9282
11
97.0786
21
-85.6984
0
LINE
8
Black
10
97.0786
20
-85.6984
11
97.3383
21
-85.5485
0
LINE
8
Black
10
97.3383
20
-85.5485
11
97.6337
21
-85.4964
0
LINE
8
Black
10
97.6337
20
-85.4964
11
97.9463
21
-85.4964
0
LINE
8
Black
10
97.9463
20
-85.4964
11
98.2416
21
-85.5485
0
LINE
8
Black
10
110.942
20
-85.5485
11
111.201
21
-85.6984
0
LINE
8
Black
10
111.201
20
-85.6984
11
111.394
21
-85.9282
0
LINE
8
Black
10
111.394
20
-85.9282
11
111.497
21
-86.21
0
LINE
8
Black
10
111.497
20
-86.21
11
111.497
21
-86.51
0
LINE
8
Black
10
111.497
20
-86.51
11
111.394
21
-86.7918
0
LINE
8
Black
10
111.394
20
-86.7918
11
111.201
21
-87.0216
0
LINE
8
Black
10
111.201
20
-87.0216
11
110.942
21
-87.1715
0
LINE
8
Black
10
110.942
20
-87.1715
11
110.646
21
-87.2236
0
LINE
8
Black
10
110.646
20
-87.2236
11
110.334
21
-87.2236
0
LINE
8
Black
10
110.334
20
-87.2236
11
110.038
21
-87.1715
0
LINE
8
Black
10
110.038
20
-87.1715
11
109.779
21
-87.0216
0
LINE
8
Black
10
109.779
20
-87.0216
11
109.586
21
-86.7918
0
LINE
8
Black
10
109.586
20
-86.7918
11
109.483
21
-86.51
0
LINE
8
Black
10
109.483
20
-86.51
11
109.483
21
-86.21
0
LINE
8
Black
10
109.483
20
-86.21
11
109.586
21
-85.9282
0
LINE
8
Black
10
109.586
20
-85.9282
11
109.779
21
-85.6984
0
LINE
8
Black
10
109.779
20
-85.6984
11
110.038
21
-85.5485
0
LINE
8
Black
10
110.038
20
-85.5485
11
110.334
21
-85.4964
0
LINE
8
Black
10
110.334
20
-85.4964
11
110.646
21
-85.4964
0
LINE
8
Black
10
110.646
20
-85.4964
11
110.942
21
-85.5485
0
LINE
8
Black
10
98.2416
20
-83.0085
11
98.5014
21
-83.1584
0
LINE
8
Black
10
98.5014
20
-83.1584
11
98.6942
21
-83.3882
0
LINE
8
Black
10
98.6942
20
-83.3882
11
98.7968
21
-83.67
0
LINE
8
Black
10
98.7968
20
-83.67
11
98.7968
21
-83.97
0
LINE
8
Black
10
98.7968
20
-83.97
11
98.6942
21
-84.2518
0
LINE
8
Black
10
98.6942
20
-84.2518
11
98.5014
21
-84.4816
0
LINE
8
Black
10
98.5014
20
-84.4816
11
98.2416
21
-84.6315
0
LINE
8
Black
10
98.2416
20
-84.6315
11
97.9463
21
-84.6836
0
LINE
8
Black
10
97.9463
20
-84.6836
11
97.6337
21
-84.6836
0
LINE
8
Black
10
97.6337
20
-84.6836
11
97.3383
21
-84.6315
0
LINE
8
Black
10
97.3383
20
-84.6315
11
97.0786
21
-84.4816
0
LINE
8
Black
10
97.0786
20
-84.4816
11
96.8858
21
-84.2518
0
LINE
8
Black
10
96.8858
20
-84.2518
11
96.7832
21
-83.97
0
LINE
8
Black
10
96.7832
20
-83.97
11
96.7832
21
-83.67
0
LINE
8
Black
10
96.7832
20
-83.67
11
96.8858
21
-83.3882
0
LINE
8
Black
10
96.8858
20
-83.3882
11
97.0786
21
-83.1584
0
LINE
8
Black
10
97.0786
20
-83.1584
11
97.3383
21
-83.0085
0
LINE
8
Black
10
97.3383
20
-83.0085
11
97.6337
21
-82.9564
0
LINE
8
Black
10
97.6337
20
-82.9564
11
97.9463
21
-82.9564
0
LINE
8
Black
10
97.9463
20
-82.9564
11
98.2416
21
-83.0085
0
LINE
8
Black
10
110.942
20
-83.0085
11
111.201
21
-83.1584
0
LINE
8
Black
10
111.201
20
-83.1584
11
111.394
21
-83.3882
0
LINE
8
Black
10
111.394
20
-83.3882
11
111.497
21
-83.67
0
LINE
8
Black
10
111.497
20
-83.67
11
111.497
21
-83.97
0
LINE
8
Black
10
111.497
20
-83.97
11
111.394
21
-84.2518
0
LINE
8
Black
10
111.394
20
-84.2518
11
111.201
21
-84.4816
0
LINE
8
Black
10
111.201
20
-84.4816
11
110.942
21
-84.6315
0
LINE
8
Black
10
110.942
20
-84.6315
11
110.646
21
-84.6836
0
LINE
8
Black
10
110.646
20
-84.6836
11
110.334
21
-84.6836
0
LINE
8
Black
10
110.334
20
-84.6836
11
110.038
21
-84.6315
0
LINE
8
Black
10
110.038
20
-84.6315
11
109.779
21
-84.4816
0
LINE
8
Black
10
109.779
20
-84.4816
11
109.586
21
-84.2518
0
LINE
8
Black
10
109.586
20
-84.2518
11
109.483
21
-83.97
0
LINE
8
Black
10
109.483
20
-83.97
11
109.483
21
-83.67
0
LINE
8
Black
10
109.483
20
-83.67
11
109.586
21
-83.3882
0
LINE
8
Black
10
109.586
20
-83.3882
11
109.779
21
-83.1584
0
LINE
8
Black
10
109.779
20
-83.1584
11
110.038
21
-83.0085
0
LINE
8
Black
10
110.038
20
-83.0085
11
110.334
21
-82.9564
0
LINE
8
Black
10
110.334
20
-82.9564
11
110.646
21
-82.9564
0
LINE
8
Black
10
110.646
20
-82.9564
11
110.942
21
-83.0085
0
LINE
8
Black
10
154.122
20
-83.0085
11
154.381
21
-83.1584
0
LINE
8
Black
10
154.381
20
-83.1584
11
154.574
21
-83.3882
0
LINE
8
Black
10
154.574
20
-83.3882
11
154.677
21
-83.67
0
LINE
8
Black
10
154.677
20
-83.67
11
154.677
21
-83.97
0
LINE
8
Black
10
154.677
20
-83.97
11
154.574
21
-84.2518
0
LINE
8
Black
10
154.574
20
-84.2518
11
154.381
21
-84.4816
0
LINE
8
Black
10
154.381
20
-84.4816
11
154.122
21
-84.6315
0
LINE
8
Black
10
154.122
20
-84.6315
11
153.826
21
-84.6836
0
LINE
8
Black
10
153.826
20
-84.6836
11
153.514
21
-84.6836
0
LINE
8
Black
10
153.514
20
-84.6836
11
153.218
21
-84.6315
0
LINE
8
Black
10
153.218
20
-84.6315
11
152.959
21
-84.4816
0
LINE
8
Black
10
152.959
20
-84.4816
11
152.766
21
-84.2518
0
LINE
8
Black
10
152.766
20
-84.2518
11
152.663
21
-83.97
0
LINE
8
Black
10
152.663
20
-83.97
11
152.663
21
-83.67
0
LINE
8
Black
10
152.663
20
-83.67
11
152.766
21
-83.3882
0
LINE
8
Black
10
152.766
20
-83.3882
11
152.959
21
-83.1584
0
LINE
8
Black
10
152.959
20
-83.1584
11
153.218
21
-83.0085
0
LINE
8
Black
10
153.218
20
-83.0085
11
153.514
21
-82.9564
0
LINE
8
Black
10
153.514
20
-82.9564
11
153.826
21
-82.9564
0
LINE
8
Black
10
153.826
20
-82.9564
11
154.122
21
-83.0085
0
LINE
8
Black
10
131.262
20
-83.0085
11
131.521
21
-83.1584
0
LINE
8
Black
10
131.521
20
-83.1584
11
131.714
21
-83.3882
0
LINE
8
Black
10
131.714
20
-83.3882
11
131.817
21
-83.67
0
LINE
8
Black
10
131.817
20
-83.67
11
131.817
21
-83.97
0
LINE
8
Black
10
131.817
20
-83.97
11
131.714
21
-84.2518
0
LINE
8
Black
10
131.714
20
-84.2518
11
131.521
21
-84.4816
0
LINE
8
Black
10
131.521
20
-84.4816
11
131.262
21
-84.6315
0
LINE
8
Black
10
131.262
20
-84.6315
11
130.966
21
-84.6836
0
LINE
8
Black
10
130.966
20
-84.6836
11
130.654
21
-84.6836
0
LINE
8
Black
10
130.654
20
-84.6836
11
130.358
21
-84.6315
0
LINE
8
Black
10
130.358
20
-84.6315
11
130.099
21
-84.4816
0
LINE
8
Black
10
130.099
20
-84.4816
11
129.906
21
-84.2518
0
LINE
8
Black
10
129.906
20
-84.2518
11
129.803
21
-83.97
0
LINE
8
Black
10
129.803
20
-83.97
11
129.803
21
-83.67
0
LINE
8
Black
10
129.803
20
-83.67
11
129.906
21
-83.3882
0
LINE
8
Black
10
129.906
20
-83.3882
11
130.099
21
-83.1584
0
LINE
8
Black
10
130.099
20
-83.1584
11
130.358
21
-83.0085
0
LINE
8
Black
10
130.358
20
-83.0085
11
130.654
21
-82.9564
0
LINE
8
Black
10
130.654
20
-82.9564
11
130.966
21
-82.9564
0
LINE
8
Black
10
130.966
20
-82.9564
11
131.262
21
-83.0085
0
LINE
8
Black
10
90.4233
20
-81.5495
11
90.8744
21
-81.81
0
LINE
8
Black
10
90.8744
20
-81.81
11
91.2092
21
-82.209
0
LINE
8
Black
10
91.2092
20
-82.209
11
91.3874
21
-82.6985
0
LINE
8
Black
10
91.3874
20
-82.6985
11
91.3874
21
-83.2194
0
LINE
8
Black
10
91.3874
20
-83.2194
11
91.2092
21
-83.7089
0
LINE
8
Black
10
91.2092
20
-83.7089
11
90.8744
21
-84.1079
0
LINE
8
Black
10
90.8744
20
-84.1079
11
90.4233
21
-84.3684
0
LINE
8
Black
10
90.4233
20
-84.3684
11
89.9103
21
-84.4588
0
LINE
8
Black
10
89.9103
20
-84.4588
11
87.8897
21
-84.4588
0
LINE
8
Black
10
87.8897
20
-84.4588
11
87.3767
21
-84.3684
0
LINE
8
Black
10
87.3767
20
-84.3684
11
86.9256
21
-84.1079
0
LINE
8
Black
10
86.9256
20
-84.1079
11
86.5908
21
-83.7089
0
LINE
8
Black
10
86.5908
20
-83.7089
11
86.4126
21
-83.2194
0
LINE
8
Black
10
86.4126
20
-83.2194
11
86.4126
21
-82.6985
0
LINE
8
Black
10
86.4126
20
-82.6985
11
86.5908
21
-82.209
0
LINE
8
Black
10
86.5908
20
-82.209
11
86.9256
21
-81.81
0
LINE
8
Black
10
86.9256
20
-81.81
11
87.3767
21
-81.5495
0
LINE
8
Black
10
87.3767
20
-81.5495
11
87.8897
21
-81.4591
0
LINE
8
Black
10
87.8897
20
-81.4591
11
89.9103
21
-81.4591
0
LINE
8
Black
10
89.9103
20
-81.4591
11
90.4233
21
-81.5495
0
LINE
8
Black
10
154.122
20
-80.4685
11
154.381
21
-80.6184
0
LINE
8
Black
10
154.381
20
-80.6184
11
154.574
21
-80.8482
0
LINE
8
Black
10
154.574
20
-80.8482
11
154.677
21
-81.13
0
LINE
8
Black
10
154.677
20
-81.13
11
154.677
21
-81.43
0
LINE
8
Black
10
154.677
20
-81.43
11
154.574
21
-81.7118
0
LINE
8
Black
10
154.574
20
-81.7118
11
154.381
21
-81.9416
0
LINE
8
Black
10
154.381
20
-81.9416
11
154.122
21
-82.0915
0
LINE
8
Black
10
154.122
20
-82.0915
11
153.826
21
-82.1436
0
LINE
8
Black
10
153.826
20
-82.1436
11
153.514
21
-82.1436
0
LINE
8
Black
10
153.514
20
-82.1436
11
153.218
21
-82.0915
0
LINE
8
Black
10
153.218
20
-82.0915
11
152.959
21
-81.9416
0
LINE
8
Black
10
152.959
20
-81.9416
11
152.766
21
-81.7118
0
LINE
8
Black
10
152.766
20
-81.7118
11
152.663
21
-81.43
0
LINE
8
Black
10
152.663
20
-81.43
11
152.663
21
-81.13
0
LINE
8
Black
10
152.663
20
-81.13
11
152.766
21
-80.8482
0
LINE
8
Black
10
152.766
20
-80.8482
11
152.959
21
-80.6184
0
LINE
8
Black
10
152.959
20
-80.6184
11
153.218
21
-80.4685
0
LINE
8
Black
10
153.218
20
-80.4685
11
153.514
21
-80.4164
0
LINE
8
Black
10
153.514
20
-80.4164
11
153.826
21
-80.4164
0
LINE
8
Black
10
153.826
20
-80.4164
11
154.122
21
-80.4685
0
LINE
8
Black
10
131.262
20
-80.4685
11
131.521
21
-80.6184
0
LINE
8
Black
10
131.521
20
-80.6184
11
131.714
21
-80.8482
0
LINE
8
Black
10
131.714
20
-80.8482
11
131.817
21
-81.13
0
LINE
8
Black
10
131.817
20
-81.13
11
131.817
21
-81.43
0
LINE
8
Black
10
131.817
20
-81.43
11
131.714
21
-81.7118
0
LINE
8
Black
10
131.714
20
-81.7118
11
131.521
21
-81.9416
0
LINE
8
Black
10
131.521
20
-81.9416
11
131.262
21
-82.0915
0
LINE
8
Black
10
131.262
20
-82.0915
11
130.966
21
-82.1436
0
LINE
8
Black
10
130.966
20
-82.1436
11
130.654
21
-82.1436
0
LINE
8
Black
10
130.654
20
-82.1436
11
130.358
21
-82.0915
0
LINE
8
Black
10
130.358
20
-82.0915
11
130.099
21
-81.9416
0
LINE
8
Black
10
130.099
20
-81.9416
11
129.906
21
-81.7118
0
LINE
8
Black
10
129.906
20
-81.7118
11
129.803
21
-81.43
0
LINE
8
Black
10
129.803
20
-81.43
11
129.803
21
-81.13
0
LINE
8
Black
10
129.803
20
-81.13
11
129.906
21
-80.8482
0
LINE
8
Black
10
129.906
20
-80.8482
11
130.099
21
-80.6184
0
LINE
8
Black
10
130.099
20
-80.6184
11
130.358
21
-80.4685
0
LINE
8
Black
10
130.358
20
-80.4685
11
130.654
21
-80.4164
0
LINE
8
Black
10
130.654
20
-80.4164
11
130.966
21
-80.4164
0
LINE
8
Black
10
130.966
20
-80.4164
11
131.262
21
-80.4685
0
LINE
8
Black
10
110.942
20
-80.4685
11
111.201
21
-80.6184
0
LINE
8
Black
10
111.201
20
-80.6184
11
111.394
21
-80.8482
0
LINE
8
Black
10
111.394
20
-80.8482
11
111.497
21
-81.13
0
LINE
8
Black
10
111.497
20
-81.13
11
111.497
21
-81.43
0
LINE
8
Black
10
111.497
20
-81.43
11
111.394
21
-81.7118
0
LINE
8
Black
10
111.394
20
-81.7118
11
111.201
21
-81.9416
0
LINE
8
Black
10
111.201
20
-81.9416
11
110.942
21
-82.0915
0
LINE
8
Black
10
110.942
20
-82.0915
11
110.646
21
-82.1436
0
LINE
8
Black
10
110.646
20
-82.1436
11
110.334
21
-82.1436
0
LINE
8
Black
10
110.334
20
-82.1436
11
110.038
21
-82.0915
0
LINE
8
Black
10
110.038
20
-82.0915
11
109.779
21
-81.9416
0
LINE
8
Black
10
109.779
20
-81.9416
11
109.586
21
-81.7118
0
LINE
8
Black
10
109.586
20
-81.7118
11
109.483
21
-81.43
0
LINE
8
Black
10
109.483
20
-81.43
11
109.483
21
-81.13
0
LINE
8
Black
10
109.483
20
-81.13
11
109.586
21
-80.8482
0
LINE
8
Black
10
109.586
20
-80.8482
11
109.779
21
-80.6184
0
LINE
8
Black
10
109.779
20
-80.6184
11
110.038
21
-80.4685
0
LINE
8
Black
10
110.038
20
-80.4685
11
110.334
21
-80.4164
0
LINE
8
Black
10
110.334
20
-80.4164
11
110.646
21
-80.4164
0
LINE
8
Black
10
110.646
20
-80.4164
11
110.942
21
-80.4685
0
LINE
8
Black
10
98.2416
20
-80.4685
11
98.5014
21
-80.6184
0
LINE
8
Black
10
98.5014
20
-80.6184
11
98.6942
21
-80.8482
0
LINE
8
Black
10
98.6942
20
-80.8482
11
98.7968
21
-81.13
0
LINE
8
Black
10
98.7968
20
-81.13
11
98.7968
21
-81.43
0
LINE
8
Black
10
98.7968
20
-81.43
11
98.6942
21
-81.7118
0
LINE
8
Black
10
98.6942
20
-81.7118
11
98.5014
21
-81.9416
0
LINE
8
Black
10
98.5014
20
-81.9416
11
98.2416
21
-82.0915
0
LINE
8
Black
10
98.2416
20
-82.0915
11
97.9463
21
-82.1436
0
LINE
8
Black
10
97.9463
20
-82.1436
11
97.6337
21
-82.1436
0
LINE
8
Black
10
97.6337
20
-82.1436
11
97.3383
21
-82.0915
0
LINE
8
Black
10
97.3383
20
-82.0915
11
97.0786
21
-81.9416
0
LINE
8
Black
10
97.0786
20
-81.9416
11
96.8858
21
-81.7118
0
LINE
8
Black
10
96.8858
20
-81.7118
11
96.7832
21
-81.43
0
LINE
8
Black
10
96.7832
20
-81.43
11
96.7832
21
-81.13
0
LINE
8
Black
10
96.7832
20
-81.13
11
96.8858
21
-80.8482
0
LINE
8
Black
10
96.8858
20
-80.8482
11
97.0786
21
-80.6184
0
LINE
8
Black
10
97.0786
20
-80.6184
11
97.3383
21
-80.4685
0
LINE
8
Black
10
97.3383
20
-80.4685
11
97.6337
21
-80.4164
0
LINE
8
Black
10
97.6337
20
-80.4164
11
97.9463
21
-80.4164
0
LINE
8
Black
10
97.9463
20
-80.4164
11
98.2416
21
-80.4685
0
LINE
8
Black
10
154.122
20
-77.9285
11
154.381
21
-78.0784
0
LINE
8
Black
10
154.381
20
-78.0784
11
154.574
21
-78.3082
0
LINE
8
Black
10
154.574
20
-78.3082
11
154.677
21
-78.59
0
LINE
8
Black
10
154.677
20
-78.59
11
154.677
21
-78.89
0
LINE
8
Black
10
154.677
20
-78.89
11
154.574
21
-79.1718
0
LINE
8
Black
10
154.574
20
-79.1718
11
154.381
21
-79.4016
0
LINE
8
Black
10
154.381
20
-79.4016
11
154.122
21
-79.5515
0
LINE
8
Black
10
154.122
20
-79.5515
11
153.826
21
-79.6036
0
LINE
8
Black
10
153.826
20
-79.6036
11
153.514
21
-79.6036
0
LINE
8
Black
10
153.514
20
-79.6036
11
153.218
21
-79.5515
0
LINE
8
Black
10
153.218
20
-79.5515
11
152.959
21
-79.4016
0
LINE
8
Black
10
152.959
20
-79.4016
11
152.766
21
-79.1718
0
LINE
8
Black
10
152.766
20
-79.1718
11
152.663
21
-78.89
0
LINE
8
Black
10
152.663
20
-78.89
11
152.663
21
-78.59
0
LINE
8
Black
10
152.663
20
-78.59
11
152.766
21
-78.3082
0
LINE
8
Black
10
152.766
20
-78.3082
11
152.959
21
-78.0784
0
LINE
8
Black
10
152.959
20
-78.0784
11
153.218
21
-77.9285
0
LINE
8
Black
10
153.218
20
-77.9285
11
153.514
21
-77.8764
0
LINE
8
Black
10
153.514
20
-77.8764
11
153.826
21
-77.8764
0
LINE
8
Black
10
153.826
20
-77.8764
11
154.122
21
-77.9285
0
LINE
8
Black
10
131.262
20
-77.9285
11
131.521
21
-78.0784
0
LINE
8
Black
10
131.521
20
-78.0784
11
131.714
21
-78.3082
0
LINE
8
Black
10
131.714
20
-78.3082
11
131.817
21
-78.59
0
LINE
8
Black
10
131.817
20
-78.59
11
131.817
21
-78.89
0
LINE
8
Black
10
131.817
20
-78.89
11
131.714
21
-79.1718
0
LINE
8
Black
10
131.714
20
-79.1718
11
131.521
21
-79.4016
0
LINE
8
Black
10
131.521
20
-79.4016
11
131.262
21
-79.5515
0
LINE
8
Black
10
131.262
20
-79.5515
11
130.966
21
-79.6036
0
LINE
8
Black
10
130.966
20
-79.6036
11
130.654
21
-79.6036
0
LINE
8
Black
10
130.654
20
-79.6036
11
130.358
21
-79.5515
0
LINE
8
Black
10
130.358
20
-79.5515
11
130.099
21
-79.4016
0
LINE
8
Black
10
130.099
20
-79.4016
11
129.906
21
-79.1718
0
LINE
8
Black
10
129.906
20
-79.1718
11
129.803
21
-78.89
0
LINE
8
Black
10
129.803
20
-78.89
11
129.803
21
-78.59
0
LINE
8
Black
10
129.803
20
-78.59
11
129.906
21
-78.3082
0
LINE
8
Black
10
129.906
20
-78.3082
11
130.099
21
-78.0784
0
LINE
8
Black
10
130.099
20
-78.0784
11
130.358
21
-77.9285
0
LINE
8
Black
10
130.358
20
-77.9285
11
130.654
21
-77.8764
0
LINE
8
Black
10
130.654
20
-77.8764
11
130.966
21
-77.8764
0
LINE
8
Black
10
130.966
20
-77.8764
11
131.262
21
-77.9285
0
LINE
8
Black
10
154.122
20
-75.3885
11
154.381
21
-75.5384
0
LINE
8
Black
10
154.381
20
-75.5384
11
154.574
21
-75.7682
0
LINE
8
Black
10
154.574
20
-75.7682
11
154.677
21
-76.05
0
LINE
8
Black
10
154.677
20
-76.05
11
154.677
21
-76.35
0
LINE
8
Black
10
154.677
20
-76.35
11
154.574
21
-76.6318
0
LINE
8
Black
10
154.574
20
-76.6318
11
154.381
21
-76.8616
0
LINE
8
Black
10
154.381
20
-76.8616
11
154.122
21
-77.0115
0
LINE
8
Black
10
154.122
20
-77.0115
11
153.826
21
-77.0636
0
LINE
8
Black
10
153.826
20
-77.0636
11
153.514
21
-77.0636
0
LINE
8
Black
10
153.514
20
-77.0636
11
153.218
21
-77.0115
0
LINE
8
Black
10
153.218
20
-77.0115
11
152.959
21
-76.8616
0
LINE
8
Black
10
152.959
20
-76.8616
11
152.766
21
-76.6318
0
LINE
8
Black
10
152.766
20
-76.6318
11
152.663
21
-76.35
0
LINE
8
Black
10
152.663
20
-76.35
11
152.663
21
-76.05
0
LINE
8
Black
10
152.663
20
-76.05
11
152.766
21
-75.7682
0
LINE
8
Black
10
152.766
20
-75.7682
11
152.959
21
-75.5384
0
LINE
8
Black
10
152.959
20
-75.5384
11
153.218
21
-75.3885
0
LINE
8
Black
10
153.218
20
-75.3885
11
153.514
21
-75.3364
0
LINE
8
Black
10
153.514
20
-75.3364
11
153.826
21
-75.3364
0
LINE
8
Black
10
153.826
20
-75.3364
11
154.122
21
-75.3885
0
LINE
8
Black
10
131.262
20
-75.3885
11
131.521
21
-75.5384
0
LINE
8
Black
10
131.521
20
-75.5384
11
131.714
21
-75.7682
0
LINE
8
Black
10
131.714
20
-75.7682
11
131.817
21
-76.05
0
LINE
8
Black
10
131.817
20
-76.05
11
131.817
21
-76.35
0
LINE
8
Black
10
131.817
20
-76.35
11
131.714
21
-76.6318
0
LINE
8
Black
10
131.714
20
-76.6318
11
131.521
21
-76.8616
0
LINE
8
Black
10
131.521
20
-76.8616
11
131.262
21
-77.0115
0
LINE
8
Black
10
131.262
20
-77.0115
11
130.966
21
-77.0636
0
LINE
8
Black
10
130.966
20
-77.0636
11
130.654
21
-77.0636
0
LINE
8
Black
10
130.654
20
-77.0636
11
130.358
21
-77.0115
0
LINE
8
Black
10
130.358
20
-77.0115
11
130.099
21
-76.8616
0
LINE
8
Black
10
130.099
20
-76.8616
11
129.906
21
-76.6318
0
LINE
8
Black
10
129.906
20
-76.6318
11
129.803
21
-76.35
0
LINE
8
Black
10
129.803
20
-76.35
11
129.803
21
-76.05
0
LINE
8
Black
10
129.803
20
-76.05
11
129.906
21
-75.7682
0
LINE
8
Black
10
129.906
20
-75.7682
11
130.099
21
-75.5384
0
LINE
8
Black
10
130.099
20
-75.5384
11
130.358
21
-75.3885
0
LINE
8
Black
10
130.358
20
-75.3885
11
130.654
21
-75.3364
0
LINE
8
Black
10
130.654
20
-75.3364
11
130.966
21
-75.3364
0
LINE
8
Black
10
130.966
20
-75.3364
11
131.262
21
-75.3885
0
LINE
8
Black
10
154.122
20
-72.8485
11
154.381
21
-72.9984
0
LINE
8
Black
10
154.381
20
-72.9984
11
154.574
21
-73.2282
0
LINE
8
Black
10
154.574
20
-73.2282
11
154.677
21
-73.51
0
LINE
8
Black
10
154.677
20
-73.51
11
154.677
21
-73.81
0
LINE
8
Black
10
154.677
20
-73.81
11
154.574
21
-74.0918
0
LINE
8
Black
10
154.574
20
-74.0918
11
154.381
21
-74.3216
0
LINE
8
Black
10
154.381
20
-74.3216
11
154.122
21
-74.4715
0
LINE
8
Black
10
154.122
20
-74.4715
11
153.826
21
-74.5236
0
LINE
8
Black
10
153.826
20
-74.5236
11
153.514
21
-74.5236
0
LINE
8
Black
10
153.514
20
-74.5236
11
153.218
21
-74.4715
0
LINE
8
Black
10
153.218
20
-74.4715
11
152.959
21
-74.3216
0
LINE
8
Black
10
152.959
20
-74.3216
11
152.766
21
-74.0918
0
LINE
8
Black
10
152.766
20
-74.0918
11
152.663
21
-73.81
0
LINE
8
Black
10
152.663
20
-73.81
11
152.663
21
-73.51
0
LINE
8
Black
10
152.663
20
-73.51
11
152.766
21
-73.2282
0
LINE
8
Black
10
152.766
20
-73.2282
11
152.959
21
-72.9984
0
LINE
8
Black
10
152.959
20
-72.9984
11
153.218
21
-72.8485
0
LINE
8
Black
10
153.218
20
-72.8485
11
153.514
21
-72.7964
0
LINE
8
Black
10
153.514
20
-72.7964
11
153.826
21
-72.7964
0
LINE
8
Black
10
153.826
20
-72.7964
11
154.122
21
-72.8485
0
LINE
8
Black
10
131.262
20
-72.8485
11
131.521
21
-72.9984
0
LINE
8
Black
10
131.521
20
-72.9984
11
131.714
21
-73.2282
0
LINE
8
Black
10
131.714
20
-73.2282
11
131.817
21
-73.51
0
LINE
8
Black
10
131.817
20
-73.51
11
131.817
21
-73.81
0
LINE
8
Black
10
131.817
20
-73.81
11
131.714
21
-74.0918
0
LINE
8
Black
10
131.714
20
-74.0918
11
131.521
21
-74.3216
0
LINE
8
Black
10
131.521
20
-74.3216
11
131.262
21
-74.4715
0
LINE
8
Black
10
131.262
20
-74.4715
11
130.966
21
-74.5236
0
LINE
8
Black
10
130.966
20
-74.5236
11
130.654
21
-74.5236
0
LINE
8
Black
10
130.654
20
-74.5236
11
130.358
21
-74.4715
0
LINE
8
Black
10
130.358
20
-74.4715
11
130.099
21
-74.3216
0
LINE
8
Black
10
130.099
20
-74.3216
11
129.906
21
-74.0918
0
LINE
8
Black
10
129.906
20
-74.0918
11
129.803
21
-73.81
0
LINE
8
Black
10
129.803
20
-73.81
11
129.803
21
-73.51
0
LINE
8
Black
10
129.803
20
-73.51
11
129.906
21
-73.2282
0
LINE
8
Black
10
129.906
20
-73.2282
11
130.099
21
-72.9984
0
LINE
8
Black
10
130.099
20
-72.9984
11
130.358
21
-72.8485
0
LINE
8
Black
10
130.358
20
-72.8485
11
130.654
21
-72.7964
0
LINE
8
Black
10
130.654
20
-72.7964
11
130.966
21
-72.7964
0
LINE
8
Black
10
130.966
20
-72.7964
11
131.262
21
-72.8485
0
LINE
8
Black
10
113.482
20
-70.3085
11
113.741
21
-70.4584
0
LINE
8
Black
10
113.741
20
-70.4584
11
113.934
21
-70.6882
0
LINE
8
Black
10
113.934
20
-70.6882
11
114.037
21
-70.97
0
LINE
8
Black
10
114.037
20
-70.97
11
114.037
21
-71.27
0
LINE
8
Black
10
114.037
20
-71.27
11
113.934
21
-71.5518
0
LINE
8
Black
10
113.934
20
-71.5518
11
113.741
21
-71.7816
0
LINE
8
Black
10
113.741
20
-71.7816
11
113.482
21
-71.9315
0
LINE
8
Black
10
113.482
20
-71.9315
11
113.186
21
-71.9836
0
LINE
8
Black
10
113.186
20
-71.9836
11
112.874
21
-71.9836
0
LINE
8
Black
10
112.874
20
-71.9836
11
112.578
21
-71.9315
0
LINE
8
Black
10
112.578
20
-71.9315
11
112.319
21
-71.7816
0
LINE
8
Black
10
112.319
20
-71.7816
11
112.126
21
-71.5518
0
LINE
8
Black
10
112.126
20
-71.5518
11
112.023
21
-71.27
0
LINE
8
Black
10
112.023
20
-71.27
11
112.023
21
-70.97
0
LINE
8
Black
10
112.023
20
-70.97
11
112.126
21
-70.6882
0
LINE
8
Black
10
112.126
20
-70.6882
11
112.319
21
-70.4584
0
LINE
8
Black
10
112.319
20
-70.4584
11
112.578
21
-70.3085
0
LINE
8
Black
10
112.578
20
-70.3085
11
112.874
21
-70.2564
0
LINE
8
Black
10
112.874
20
-70.2564
11
113.186
21
-70.2564
0
LINE
8
Black
10
113.186
20
-70.2564
11
113.482
21
-70.3085
0
LINE
8
Black
10
154.122
20
-70.3085
11
154.381
21
-70.4584
0
LINE
8
Black
10
154.381
20
-70.4584
11
154.574
21
-70.6882
0
LINE
8
Black
10
154.574
20
-70.6882
11
154.677
21
-70.97
0
LINE
8
Black
10
154.677
20
-70.97
11
154.677
21
-71.27
0
LINE
8
Black
10
154.677
20
-71.27
11
154.574
21
-71.5518
0
LINE
8
Black
10
154.574
20
-71.5518
11
154.381
21
-71.7816
0
LINE
8
Black
10
154.381
20
-71.7816
11
154.122
21
-71.9315
0
LINE
8
Black
10
154.122
20
-71.9315
11
153.826
21
-71.9836
0
LINE
8
Black
10
153.826
20
-71.9836
11
153.514
21
-71.9836
0
LINE
8
Black
10
153.514
20
-71.9836
11
153.218
21
-71.9315
0
LINE
8
Black
10
153.218
20
-71.9315
11
152.959
21
-71.7816
0
LINE
8
Black
10
152.959
20
-71.7816
11
152.766
21
-71.5518
0
LINE
8
Black
10
152.766
20
-71.5518
11
152.663
21
-71.27
0
LINE
8
Black
10
152.663
20
-71.27
11
152.663
21
-70.97
0
LINE
8
Black
10
152.663
20
-70.97
11
152.766
21
-70.6882
0
LINE
8
Black
10
152.766
20
-70.6882
11
152.959
21
-70.4584
0
LINE
8
Black
10
152.959
20
-70.4584
11
153.218
21
-70.3085
0
LINE
8
Black
10
153.218
20
-70.3085
11
153.514
21
-70.2564
0
LINE
8
Black
10
153.514
20
-70.2564
11
153.826
21
-70.2564
0
LINE
8
Black
10
153.826
20
-70.2564
11
154.122
21
-70.3085
0
LINE
8
Black
10
131.262
20
-70.3085
11
131.521
21
-70.4584
0
LINE
8
Black
10
131.521
20
-70.4584
11
131.714
21
-70.6882
0
LINE
8
Black
10
131.714
20
-70.6882
11
131.817
21
-70.97
0
LINE
8
Black
10
131.817
20
-70.97
11
131.817
21
-71.27
0
LINE
8
Black
10
131.817
20
-71.27
11
131.714
21
-71.5518
0
LINE
8
Black
10
131.714
20
-71.5518
11
131.521
21
-71.7816
0
LINE
8
Black
10
131.521
20
-71.7816
11
131.262
21
-71.9315
0
LINE
8
Black
10
131.262
20
-71.9315
11
130.966
21
-71.9836
0
LINE
8
Black
10
130.966
20
-71.9836
11
130.654
21
-71.9836
0
LINE
8
Black
10
130.654
20
-71.9836
11
130.358
21
-71.9315
0
LINE
8
Black
10
130.358
20
-71.9315
11
130.099
21
-71.7816
0
LINE
8
Black
10
130.099
20
-71.7816
11
129.906
21
-71.5518
0
LINE
8
Black
10
129.906
20
-71.5518
11
129.803
21
-71.27
0
LINE
8
Black
10
129.803
20
-71.27
11
129.803
21
-70.97
0
LINE
8
Black
10
129.803
20
-70.97
11
129.906
21
-70.6882
0
LINE
8
Black
10
129.906
20
-70.6882
11
130.099
21
-70.4584
0
LINE
8
Black
10
130.099
20
-70.4584
11
130.358
21
-70.3085
0
LINE
8
Black
10
130.358
20
-70.3085
11
130.654
21
-70.2564
0
LINE
8
Black
10
130.654
20
-70.2564
11
130.966
21
-70.2564
0
LINE
8
Black
10
130.966
20
-70.2564
11
131.262
21
-70.3085
0
LINE
8
Black
10
154.122
20
-67.7685
11
154.381
21
-67.9184
0
LINE
8
Black
10
154.381
20
-67.9184
11
154.574
21
-68.1482
0
LINE
8
Black
10
154.574
20
-68.1482
11
154.677
21
-68.43
0
LINE
8
Black
10
154.677
20
-68.43
11
154.677
21
-68.73
0
LINE
8
Black
10
154.677
20
-68.73
11
154.574
21
-69.0118
0
LINE
8
Black
10
154.574
20
-69.0118
11
154.381
21
-69.2416
0
LINE
8
Black
10
154.381
20
-69.2416
11
154.122
21
-69.3915
0
LINE
8
Black
10
154.122
20
-69.3915
11
153.826
21
-69.4436
0
LINE
8
Black
10
153.826
20
-69.4436
11
153.514
21
-69.4436
0
LINE
8
Black
10
153.514
20
-69.4436
11
153.218
21
-69.3915
0
LINE
8
Black
10
153.218
20
-69.3915
11
152.959
21
-69.2416
0
LINE
8
Black
10
152.959
20
-69.2416
11
152.766
21
-69.0118
0
LINE
8
Black
10
152.766
20
-69.0118
11
152.663
21
-68.73
0
LINE
8
Black
10
152.663
20
-68.73
11
152.663
21
-68.43
0
LINE
8
Black
10
152.663
20
-68.43
11
152.766
21
-68.1482
0
LINE
8
Black
10
152.766
20
-68.1482
11
152.959
21
-67.9184
0
LINE
8
Black
10
152.959
20
-67.9184
11
153.218
21
-67.7685
0
LINE
8
Black
10
153.218
20
-67.7685
11
153.514
21
-67.7164
0
LINE
8
Black
10
153.514
20
-67.7164
11
153.826
21
-67.7164
0
LINE
8
Black
10
153.826
20
-67.7164
11
154.122
21
-67.7685
0
LINE
8
Black
10
113.482
20
-67.7685
11
113.741
21
-67.9184
0
LINE
8
Black
10
113.741
20
-67.9184
11
113.934
21
-68.1482
0
LINE
8
Black
10
113.934
20
-68.1482
11
114.037
21
-68.43
0
LINE
8
Black
10
114.037
20
-68.43
11
114.037
21
-68.73
0
LINE
8
Black
10
114.037
20
-68.73
11
113.934
21
-69.0118
0
LINE
8
Black
10
113.934
20
-69.0118
11
113.741
21
-69.2416
0
LINE
8
Black
10
113.741
20
-69.2416
11
113.482
21
-69.3915
0
LINE
8
Black
10
113.482
20
-69.3915
11
113.186
21
-69.4436
0
LINE
8
Black
10
113.186
20
-69.4436
11
112.874
21
-69.4436
0
LINE
8
Black
10
112.874
20
-69.4436
11
112.578
21
-69.3915
0
LINE
8
Black
10
112.578
20
-69.3915
11
112.319
21
-69.2416
0
LINE
8
Black
10
112.319
20
-69.2416
11
112.126
21
-69.0118
0
LINE
8
Black
10
112.126
20
-69.0118
11
112.023
21
-68.73
0
LINE
8
Black
10
112.023
20
-68.73
11
112.023
21
-68.43
0
LINE
8
Black
10
112.023
20
-68.43
11
112.126
21
-68.1482
0
LINE
8
Black
10
112.126
20
-68.1482
11
112.319
21
-67.9184
0
LINE
8
Black
10
112.319
20
-67.9184
11
112.578
21
-67.7685
0
LINE
8
Black
10
112.578
20
-67.7685
11
112.874
21
-67.7164
0
LINE
8
Black
10
112.874
20
-67.7164
11
113.186
21
-67.7164
0
LINE
8
Black
10
113.186
20
-67.7164
11
113.482
21
-67.7685
0
LINE
8
Black
10
131.262
20
-67.7685
11
131.521
21
-67.9184
0
LINE
8
Black
10
131.521
20
-67.9184
11
131.714
21
-68.1482
0
LINE
8
Black
10
131.714
20
-68.1482
11
131.817
21
-68.43
0
LINE
8
Black
10
131.817
20
-68.43
11
131.817
21
-68.73
0
LINE
8
Black
10
131.817
20
-68.73
11
131.714
21
-69.0118
0
LINE
8
Black
10
131.714
20
-69.0118
11
131.521
21
-69.2416
0
LINE
8
Black
10
131.521
20
-69.2416
11
131.262
21
-69.3915
0
LINE
8
Black
10
131.262
20
-69.3915
11
130.966
21
-69.4436
0
LINE
8
Black
10
130.966
20
-69.4436
11
130.654
21
-69.4436
0
LINE
8
Black
10
130.654
20
-69.4436
11
130.358
21
-69.3915
0
LINE
8
Black
10
130.358
20
-69.3915
11
130.099
21
-69.2416
0
LINE
8
Black
10
130.099
20
-69.2416
11
129.906
21
-69.0118
0
LINE
8
Black
10
129.906
20
-69.0118
11
129.803
21
-68.73
0
LINE
8
Black
10
129.803
20
-68.73
11
129.803
21
-68.43
0
LINE
8
Black
10
129.803
20
-68.43
11
129.906
21
-68.1482
0
LINE
8
Black
10
129.906
20
-68.1482
11
130.099
21
-67.9184
0
LINE
8
Black
10
130.099
20
-67.9184
11
130.358
21
-67.7685
0
LINE
8
Black
10
130.358
20
-67.7685
11
130.654
21
-67.7164
0
LINE
8
Black
10
130.654
20
-67.7164
11
130.966
21
-67.7164
0
LINE
8
Black
10
130.966
20
-67.7164
11
131.262
21
-67.7685
0
LINE
8
Black
10
131.262
20
-65.2285
11
131.521
21
-65.3784
0
LINE
8
Black
10
131.521
20
-65.3784
11
131.714
21
-65.6082
0
LINE
8
Black
10
131.714
20
-65.6082
11
131.817
21
-65.89
0
LINE
8
Black
10
131.817
20
-65.89
11
131.817
21
-66.19
0
LINE
8
Black
10
131.817
20
-66.19
11
131.714
21
-66.4718
0
LINE
8
Black
10
131.714
20
-66.4718
11
131.521
21
-66.7016
0
LINE
8
Black
10
131.521
20
-66.7016
11
131.262
21
-66.8515
0
LINE
8
Black
10
131.262
20
-66.8515
11
130.966
21
-66.9036
0
LINE
8
Black
10
130.966
20
-66.9036
11
130.654
21
-66.9036
0
LINE
8
Black
10
130.654
20
-66.9036
11
130.358
21
-66.8515
0
LINE
8
Black
10
130.358
20
-66.8515
11
130.099
21
-66.7016
0
LINE
8
Black
10
130.099
20
-66.7016
11
129.906
21
-66.4718
0
LINE
8
Black
10
129.906
20
-66.4718
11
129.803
21
-66.19
0
LINE
8
Black
10
129.803
20
-66.19
11
129.803
21
-65.89
0
LINE
8
Black
10
129.803
20
-65.89
11
129.906
21
-65.6082
0
LINE
8
Black
10
129.906
20
-65.6082
11
130.099
21
-65.3784
0
LINE
8
Black
10
130.099
20
-65.3784
11
130.358
21
-65.2285
0
LINE
8
Black
10
130.358
20
-65.2285
11
130.654
21
-65.1764
0
LINE
8
Black
10
130.654
20
-65.1764
11
130.966
21
-65.1764
0
LINE
8
Black
10
130.966
20
-65.1764
11
131.262
21
-65.2285
0
LINE
8
Black
10
113.482
20
-65.2285
11
113.741
21
-65.3784
0
LINE
8
Black
10
113.741
20
-65.3784
11
113.934
21
-65.6082
0
LINE
8
Black
10
113.934
20
-65.6082
11
114.037
21
-65.89
0
LINE
8
Black
10
114.037
20
-65.89
11
114.037
21
-66.19
0
LINE
8
Black
10
114.037
20
-66.19
11
113.934
21
-66.4718
0
LINE
8
Black
10
113.934
20
-66.4718
11
113.741
21
-66.7016
0
LINE
8
Black
10
113.741
20
-66.7016
11
113.482
21
-66.8515
0
LINE
8
Black
10
113.482
20
-66.8515
11
113.186
21
-66.9036
0
LINE
8
Black
10
113.186
20
-66.9036
11
112.874
21
-66.9036
0
LINE
8
Black
10
112.874
20
-66.9036
11
112.578
21
-66.8515
0
LINE
8
Black
10
112.578
20
-66.8515
11
112.319
21
-66.7016
0
LINE
8
Black
10
112.319
20
-66.7016
11
112.126
21
-66.4718
0
LINE
8
Black
10
112.126
20
-66.4718
11
112.023
21
-66.19
0
LINE
8
Black
10
112.023
20
-66.19
11
112.023
21
-65.89
0
LINE
8
Black
10
112.023
20
-65.89
11
112.126
21
-65.6082
0
LINE
8
Black
10
112.126
20
-65.6082
11
112.319
21
-65.3784
0
LINE
8
Black
10
112.319
20
-65.3784
11
112.578
21
-65.2285
0
LINE
8
Black
10
112.578
20
-65.2285
11
112.874
21
-65.1764
0
LINE
8
Black
10
112.874
20
-65.1764
11
113.186
21
-65.1764
0
LINE
8
Black
10
113.186
20
-65.1764
11
113.482
21
-65.2285
0
LINE
8
Black
10
154.122
20
-65.2285
11
154.381
21
-65.3784
0
LINE
8
Black
10
154.381
20
-65.3784
11
154.574
21
-65.6082
0
LINE
8
Black
10
154.574
20
-65.6082
11
154.677
21
-65.89
0
LINE
8
Black
10
154.677
20
-65.89
11
154.677
21
-66.19
0
LINE
8
Black
10
154.677
20
-66.19
11
154.574
21
-66.4718
0
LINE
8
Black
10
154.574
20
-66.4718
11
154.381
21
-66.7016
0
LINE
8
Black
10
154.381
20
-66.7016
11
154.122
21
-66.8515
0
LINE
8
Black
10
154.122
20
-66.8515
11
153.826
21
-66.9036
0
LINE
8
Black
10
153.826
20
-66.9036
11
153.514
21
-66.9036
0
LINE
8
Black
10
153.514
20
-66.9036
11
153.218
21
-66.8515
0
LINE
8
Black
10
153.218
20
-66.8515
11
152.959
21
-66.7016
0
LINE
8
Black
10
152.959
20
-66.7016
11
152.766
21
-66.4718
0
LINE
8
Black
10
152.766
20
-66.4718
11
152.663
21
-66.19
0
LINE
8
Black
10
152.663
20
-66.19
11
152.663
21
-65.89
0
LINE
8
Black
10
152.663
20
-65.89
11
152.766
21
-65.6082
0
LINE
8
Black
10
152.766
20
-65.6082
11
152.959
21
-65.3784
0
LINE
8
Black
10
152.959
20
-65.3784
11
153.218
21
-65.2285
0
LINE
8
Black
10
153.218
20
-65.2285
11
153.514
21
-65.1764
0
LINE
8
Black
10
153.514
20
-65.1764
11
153.826
21
-65.1764
0
LINE
8
Black
10
153.826
20
-65.1764
11
154.122
21
-65.2285
0
LINE
8
Black
10
131.262
20
-62.6885
11
131.521
21
-62.8384
0
LINE
8
Black
10
131.521
20
-62.8384
11
131.714
21
-63.0682
0
LINE
8
Black
10
131.714
20
-63.0682
11
131.817
21
-63.35
0
LINE
8
Black
10
131.817
20
-63.35
11
131.817
21
-63.65
0
LINE
8
Black
10
131.817
20
-63.65
11
131.714
21
-63.9318
0
LINE
8
Black
10
131.714
20
-63.9318
11
131.521
21
-64.1616
0
LINE
8
Black
10
131.521
20
-64.1616
11
131.262
21
-64.3115
0
LINE
8
Black
10
131.262
20
-64.3115
11
130.966
21
-64.3636
0
LINE
8
Black
10
130.966
20
-64.3636
11
130.654
21
-64.3636
0
LINE
8
Black
10
130.654
20
-64.3636
11
130.358
21
-64.3115
0
LINE
8
Black
10
130.358
20
-64.3115
11
130.099
21
-64.1616
0
LINE
8
Black
10
130.099
20
-64.1616
11
129.906
21
-63.9318
0
LINE
8
Black
10
129.906
20
-63.9318
11
129.803
21
-63.65
0
LINE
8
Black
10
129.803
20
-63.65
11
129.803
21
-63.35
0
LINE
8
Black
10
129.803
20
-63.35
11
129.906
21
-63.0682
0
LINE
8
Black
10
129.906
20
-63.0682
11
130.099
21
-62.8384
0
LINE
8
Black
10
130.099
20
-62.8384
11
130.358
21
-62.6885
0
LINE
8
Black
10
130.358
20
-62.6885
11
130.654
21
-62.6364
0
LINE
8
Black
10
130.654
20
-62.6364
11
130.966
21
-62.6364
0
LINE
8
Black
10
130.966
20
-62.6364
11
131.262
21
-62.6885
0
LINE
8
Black
10
113.482
20
-62.6885
11
113.741
21
-62.8384
0
LINE
8
Black
10
113.741
20
-62.8384
11
113.934
21
-63.0682
0
LINE
8
Black
10
113.934
20
-63.0682
11
114.037
21
-63.35
0
LINE
8
Black
10
114.037
20
-63.35
11
114.037
21
-63.65
0
LINE
8
Black
10
114.037
20
-63.65
11
113.934
21
-63.9318
0
LINE
8
Black
10
113.934
20
-63.9318
11
113.741
21
-64.1616
0
LINE
8
Black
10
113.741
20
-64.1616
11
113.482
21
-64.3115
0
LINE
8
Black
10
113.482
20
-64.3115
11
113.186
21
-64.3636
0
LINE
8
Black
10
113.186
20
-64.3636
11
112.874
21
-64.3636
0
LINE
8
Black
10
112.874
20
-64.3636
11
112.578
21
-64.3115
0
LINE
8
Black
10
112.578
20
-64.3115
11
112.319
21
-64.1616
0
LINE
8
Black
10
112.319
20
-64.1616
11
112.126
21
-63.9318
0
LINE
8
Black
10
112.126
20
-63.9318
11
112.023
21
-63.65
0
LINE
8
Black
10
112.023
20
-63.65
11
112.023
21
-63.35
0
LINE
8
Black
10
112.023
20
-63.35
11
112.126
21
-63.0682
0
LINE
8
Black
10
112.126
20
-63.0682
11
112.319
21
-62.8384
0
LINE
8
Black
10
112.319
20
-62.8384
11
112.578
21
-62.6885
0
LINE
8
Black
10
112.578
20
-62.6885
11
112.874
21
-62.6364
0
LINE
8
Black
10
112.874
20
-62.6364
11
113.186
21
-62.6364
0
LINE
8
Black
10
113.186
20
-62.6364
11
113.482
21
-62.6885
0
LINE
8
Black
10
154.122
20
-62.6885
11
154.381
21
-62.8384
0
LINE
8
Black
10
154.381
20
-62.8384
11
154.574
21
-63.0682
0
LINE
8
Black
10
154.574
20
-63.0682
11
154.677
21
-63.35
0
LINE
8
Black
10
154.677
20
-63.35
11
154.677
21
-63.65
0
LINE
8
Black
10
154.677
20
-63.65
11
154.574
21
-63.9318
0
LINE
8
Black
10
154.574
20
-63.9318
11
154.381
21
-64.1616
0
LINE
8
Black
10
154.381
20
-64.1616
11
154.122
21
-64.3115
0
LINE
8
Black
10
154.122
20
-64.3115
11
153.826
21
-64.3636
0
LINE
8
Black
10
153.826
20
-64.3636
11
153.514
21
-64.3636
0
LINE
8
Black
10
153.514
20
-64.3636
11
153.218
21
-64.3115
0
LINE
8
Black
10
153.218
20
-64.3115
11
152.959
21
-64.1616
0
LINE
8
Black
10
152.959
20
-64.1616
11
152.766
21
-63.9318
0
LINE
8
Black
10
152.766
20
-63.9318
11
152.663
21
-63.65
0
LINE
8
Black
10
152.663
20
-63.65
11
152.663
21
-63.35
0
LINE
8
Black
10
152.663
20
-63.35
11
152.766
21
-63.0682
0
LINE
8
Black
10
152.766
20
-63.0682
11
152.959
21
-62.8384
0
LINE
8
Black
10
152.959
20
-62.8384
11
153.218
21
-62.6885
0
LINE
8
Black
10
153.218
20
-62.6885
11
153.514
21
-62.6364
0
LINE
8
Black
10
153.514
20
-62.6364
11
153.826
21
-62.6364
0
LINE
8
Black
10
153.826
20
-62.6364
11
154.122
21
-62.6885
0
LINE
8
Black
10
154.686
20
-61.8236
11
152.654
21
-61.8236
0
LINE
8
Black
10
152.654
20
-61.8236
11
152.654
21
-60.0964
0
LINE
8
Black
10
152.654
20
-60.0964
11
154.686
21
-60.0964
0
LINE
8
Black
10
154.686
20
-60.0964
11
154.686
21
-61.8236
0
LINE
8
Black
10
131.826
20
-61.8236
11
129.794
21
-61.8236
0
LINE
8
Black
10
129.794
20
-61.8236
11
129.794
21
-60.0964
0
LINE
8
Black
10
129.794
20
-60.0964
11
131.826
21
-60.0964
0
LINE
8
Black
10
131.826
20
-60.0964
11
131.826
21
-61.8236
0
LINE
8
Black
10
114.046
20
-61.8236
11
112.014
21
-61.8236
0
LINE
8
Black
10
112.014
20
-61.8236
11
112.014
21
-60.0964
0
LINE
8
Black
10
112.014
20
-60.0964
11
114.046
21
-60.0964
0
LINE
8
Black
10
114.046
20
-60.0964
11
114.046
21
-61.8236
0
LINE
8
Black
10
41.076
20
-54.682
11
41.4595
21
-54.9034
0
LINE
8
Black
10
41.4595
20
-54.9034
11
41.7441
21
-55.2426
0
LINE
8
Black
10
41.7441
20
-55.2426
11
41.8955
21
-55.6586
0
LINE
8
Black
10
41.8955
20
-55.6586
11
41.8955
21
-56.1014
0
LINE
8
Black
10
41.8955
20
-56.1014
11
41.7441
21
-56.5174
0
LINE
8
Black
10
41.7441
20
-56.5174
11
41.4595
21
-56.8566
0
LINE
8
Black
10
41.4595
20
-56.8566
11
41.076
21
-57.078
0
LINE
8
Black
10
41.076
20
-57.078
11
40.64
21
-57.1549
0
LINE
8
Black
10
40.64
20
-57.1549
11
40.204
21
-57.078
0
LINE
8
Black
10
40.204
20
-57.078
11
39.8205
21
-56.8566
0
LINE
8
Black
10
39.8205
20
-56.8566
11
39.5359
21
-56.5174
0
LINE
8
Black
10
39.5359
20
-56.5174
11
39.3845
21
-56.1014
0
LINE
8
Black
10
39.3845
20
-56.1014
11
39.3845
21
-55.6586
0
LINE
8
Black
10
39.3845
20
-55.6586
11
39.5359
21
-55.2426
0
LINE
8
Black
10
39.5359
20
-55.2426
11
39.8205
21
-54.9034
0
LINE
8
Black
10
39.8205
20
-54.9034
11
40.204
21
-54.682
0
LINE
8
Black
10
40.204
20
-54.682
11
40.64
21
-54.6051
0
LINE
8
Black
10
40.64
20
-54.6051
11
41.076
21
-54.682
0
LINE
8
Black
10
30.916
20
-49.602
11
31.2995
21
-49.8234
0
LINE
8
Black
10
31.2995
20
-49.8234
11
31.5841
21
-50.1626
0
LINE
8
Black
10
31.5841
20
-50.1626
11
31.7355
21
-50.5786
0
LINE
8
Black
10
31.7355
20
-50.5786
11
31.7355
21
-51.0214
0
LINE
8
Black
10
31.7355
20
-51.0214
11
31.5841
21
-51.4374
0
LINE
8
Black
10
31.5841
20
-51.4374
11
31.2995
21
-51.7766
0
LINE
8
Black
10
31.2995
20
-51.7766
11
30.916
21
-51.998
0
LINE
8
Black
10
30.916
20
-51.998
11
30.48
21
-52.0749
0
LINE
8
Black
10
30.48
20
-52.0749
11
30.044
21
-51.998
0
LINE
8
Black
10
30.044
20
-51.998
11
29.6605
21
-51.7766
0
LINE
8
Black
10
29.6605
20
-51.7766
11
29.3759
21
-51.4374
0
LINE
8
Black
10
29.3759
20
-51.4374
11
29.2245
21
-51.0214
0
LINE
8
Black
10
29.2245
20
-51.0214
11
29.2245
21
-50.5786
0
LINE
8
Black
10
29.2245
20
-50.5786
11
29.3759
21
-50.1626
0
LINE
8
Black
10
29.3759
20
-50.1626
11
29.6605
21
-49.8234
0
LINE
8
Black
10
29.6605
20
-49.8234
11
30.044
21
-49.602
0
LINE
8
Black
10
30.044
20
-49.602
11
30.48
21
-49.5251
0
LINE
8
Black
10
30.48
20
-49.5251
11
30.916
21
-49.602
0
LINE
8
Black
10
59.9132
20
-47.6069
11
60.1094
21
-47.7202
0
LINE
8
Black
10
60.1094
20
-47.7202
11
60.2551
21
-47.8938
0
LINE
8
Black
10
60.2551
20
-47.8938
11
60.3326
21
-48.1067
0
LINE
8
Black
10
60.3326
20
-48.1067
11
60.3326
21
-48.3333
0
LINE
8
Black
10
60.3326
20
-48.3333
11
60.2551
21
-48.5462
0
LINE
8
Black
10
60.2551
20
-48.5462
11
60.1094
21
-48.7198
0
LINE
8
Black
10
60.1094
20
-48.7198
11
59.9132
21
-48.8331
0
LINE
8
Black
10
59.9132
20
-48.8331
11
59.69
21
-48.8725
0
LINE
8
Black
10
59.69
20
-48.8725
11
59.4668
21
-48.8331
0
LINE
8
Black
10
59.4668
20
-48.8331
11
59.2706
21
-48.7198
0
LINE
8
Black
10
59.2706
20
-48.7198
11
59.1249
21
-48.5462
0
LINE
8
Black
10
59.1249
20
-48.5462
11
59.0474
21
-48.3333
0
LINE
8
Black
10
59.0474
20
-48.3333
11
59.0474
21
-48.1067
0
LINE
8
Black
10
59.0474
20
-48.1067
11
59.1249
21
-47.8938
0
LINE
8
Black
10
59.1249
20
-47.8938
11
59.2706
21
-47.7202
0
LINE
8
Black
10
59.2706
20
-47.7202
11
59.4668
21
-47.6069
0
LINE
8
Black
10
59.4668
20
-47.6069
11
59.69
21
-47.5675
0
LINE
8
Black
10
59.69
20
-47.5675
11
59.9132
21
-47.6069
0
LINE
8
Black
10
49.7532
20
-47.6069
11
49.9494
21
-47.7202
0
LINE
8
Black
10
49.9494
20
-47.7202
11
50.0951
21
-47.8938
0
LINE
8
Black
10
50.0951
20
-47.8938
11
50.1726
21
-48.1067
0
LINE
8
Black
10
50.1726
20
-48.1067
11
50.1726
21
-48.3333
0
LINE
8
Black
10
50.1726
20
-48.3333
11
50.0951
21
-48.5462
0
LINE
8
Black
10
50.0951
20
-48.5462
11
49.9494
21
-48.7198
0
LINE
8
Black
10
49.9494
20
-48.7198
11
49.7532
21
-48.8331
0
LINE
8
Black
10
49.7532
20
-48.8331
11
49.53
21
-48.8725
0
LINE
8
Black
10
49.53
20
-48.8725
11
49.3068
21
-48.8331
0
LINE
8
Black
10
49.3068
20
-48.8331
11
49.1106
21
-48.7198
0
LINE
8
Black
10
49.1106
20
-48.7198
11
48.9649
21
-48.5462
0
LINE
8
Black
10
48.9649
20
-48.5462
11
48.8874
21
-48.3333
0
LINE
8
Black
10
48.8874
20
-48.3333
11
48.8874
21
-48.1067
0
LINE
8
Black
10
48.8874
20
-48.1067
11
48.9649
21
-47.8938
0
LINE
8
Black
10
48.9649
20
-47.8938
11
49.1106
21
-47.7202
0
LINE
8
Black
10
49.1106
20
-47.7202
11
49.3068
21
-47.6069
0
LINE
8
Black
10
49.3068
20
-47.6069
11
49.53
21
-47.5675
0
LINE
8
Black
10
49.53
20
-47.5675
11
49.7532
21
-47.6069
0
LINE
8
Black
10
82.7732
20
-47.6069
11
82.9694
21
-47.7202
0
LINE
8
Black
10
82.9694
20
-47.7202
11
83.1151
21
-47.8938
0
LINE
8
Black
10
83.1151
20
-47.8938
11
83.1926
21
-48.1067
0
LINE
8
Black
10
83.1926
20
-48.1067
11
83.1926
21
-48.3333
0
LINE
8
Black
10
83.1926
20
-48.3333
11
83.1151
21
-48.5462
0
LINE
8
Black
10
83.1151
20
-48.5462
11
82.9694
21
-48.7198
0
LINE
8
Black
10
82.9694
20
-48.7198
11
82.7732
21
-48.8331
0
LINE
8
Black
10
82.7732
20
-48.8331
11
82.55
21
-48.8725
0
LINE
8
Black
10
82.55
20
-48.8725
11
82.3268
21
-48.8331
0
LINE
8
Black
10
82.3268
20
-48.8331
11
82.1306
21
-48.7198
0
LINE
8
Black
10
82.1306
20
-48.7198
11
81.9849
21
-48.5462
0
LINE
8
Black
10
81.9849
20
-48.5462
11
81.9074
21
-48.3333
0
LINE
8
Black
10
81.9074
20
-48.3333
11
81.9074
21
-48.1067
0
LINE
8
Black
10
81.9074
20
-48.1067
11
81.9849
21
-47.8938
0
LINE
8
Black
10
81.9849
20
-47.8938
11
82.1306
21
-47.7202
0
LINE
8
Black
10
82.1306
20
-47.7202
11
82.3268
21
-47.6069
0
LINE
8
Black
10
82.3268
20
-47.6069
11
82.55
21
-47.5675
0
LINE
8
Black
10
82.55
20
-47.5675
11
82.7732
21
-47.6069
0
LINE
8
Black
10
72.6132
20
-47.6069
11
72.8094
21
-47.7202
0
LINE
8
Black
10
72.8094
20
-47.7202
11
72.9551
21
-47.8938
0
LINE
8
Black
10
72.9551
20
-47.8938
11
73.0326
21
-48.1067
0
LINE
8
Black
10
73.0326
20
-48.1067
11
73.0326
21
-48.3333
0
LINE
8
Black
10
73.0326
20
-48.3333
11
72.9551
21
-48.5462
0
LINE
8
Black
10
72.9551
20
-48.5462
11
72.8094
21
-48.7198
0
LINE
8
Black
10
72.8094
20
-48.7198
11
72.6132
21
-48.8331
0
LINE
8
Black
10
72.6132
20
-48.8331
11
72.39
21
-48.8725
0
LINE
8
Black
10
72.39
20
-48.8725
11
72.1668
21
-48.8331
0
LINE
8
Black
10
72.1668
20
-48.8331
11
71.9706
21
-48.7198
0
LINE
8
Black
10
71.9706
20
-48.7198
11
71.8249
21
-48.5462
0
LINE
8
Black
10
71.8249
20
-48.5462
11
71.7474
21
-48.3333
0
LINE
8
Black
10
71.7474
20
-48.3333
11
71.7474
21
-48.1067
0
LINE
8
Black
10
71.7474
20
-48.1067
11
71.8249
21
-47.8938
0
LINE
8
Black
10
71.8249
20
-47.8938
11
71.9706
21
-47.7202
0
LINE
8
Black
10
71.9706
20
-47.7202
11
72.1668
21
-47.6069
0
LINE
8
Black
10
72.1668
20
-47.6069
11
72.39
21
-47.5675
0
LINE
8
Black
10
72.39
20
-47.5675
11
72.6132
21
-47.6069
0
LINE
8
Black
10
60.34
20
-46.37
11
59.04
21
-46.37
0
LINE
8
Black
10
59.04
20
-46.37
11
59.04
21
-45.07
0
LINE
8
Black
10
59.04
20
-45.07
11
60.34
21
-45.07
0
LINE
8
Black
10
60.34
20
-45.07
11
60.34
21
-46.37
0
LINE
8
Black
10
50.18
20
-46.37
11
48.88
21
-46.37
0
LINE
8
Black
10
48.88
20
-46.37
11
48.88
21
-45.07
0
LINE
8
Black
10
48.88
20
-45.07
11
50.18
21
-45.07
0
LINE
8
Black
10
50.18
20
-45.07
11
50.18
21
-46.37
0
LINE
8
Black
10
73.04
20
-46.37
11
71.74
21
-46.37
0
LINE
8
Black
10
71.74
20
-46.37
11
71.74
21
-45.07
0
LINE
8
Black
10
71.74
20
-45.07
11
73.04
21
-45.07
0
LINE
8
Black
10
73.04
20
-45.07
11
73.04
21
-46.37
0
LINE
8
Black
10
83.2
20
-46.37
11
81.9
21
-46.37
0
LINE
8
Black
10
81.9
20
-46.37
11
81.9
21
-45.07
0
LINE
8
Black
10
81.9
20
-45.07
11
83.2
21
-45.07
0
LINE
8
Black
10
83.2
20
-45.07
11
83.2
21
-46.37
0
LINE
8
Black
10
75.3548
20
-38.9971
11
75.5809
21
-39.1868
0
LINE
8
Black
10
75.5809
20
-39.1868
11
75.7284
21
-39.4423
0
LINE
8
Black
10
75.7284
20
-39.4423
11
75.7796
21
-39.7329
0
LINE
8
Black
10
75.7796
20
-39.7329
11
75.7796
21
-41.5471
0
LINE
8
Black
10
75.7796
20
-41.5471
11
75.7284
21
-41.8377
0
LINE
8
Black
10
75.7284
20
-41.8377
11
75.5809
21
-42.0932
0
LINE
8
Black
10
75.5809
20
-42.0932
11
75.3548
21
-42.2829
0
LINE
8
Black
10
75.3548
20
-42.2829
11
75.0775
21
-42.3838
0
LINE
8
Black
10
75.0775
20
-42.3838
11
74.7825
21
-42.3838
0
LINE
8
Black
10
74.7825
20
-42.3838
11
74.5052
21
-42.2829
0
LINE
8
Black
10
74.5052
20
-42.2829
11
74.2791
21
-42.0932
0
LINE
8
Black
10
74.2791
20
-42.0932
11
74.1316
21
-41.8377
0
LINE
8
Black
10
74.1316
20
-41.8377
11
74.0804
21
-41.5471
0
LINE
8
Black
10
74.0804
20
-41.5471
11
74.0804
21
-39.7329
0
LINE
8
Black
10
74.0804
20
-39.7329
11
74.1316
21
-39.4423
0
LINE
8
Black
10
74.1316
20
-39.4423
11
74.2791
21
-39.1868
0
LINE
8
Black
10
74.2791
20
-39.1868
11
74.5052
21
-38.9971
0
LINE
8
Black
10
74.5052
20
-38.9971
11
74.7825
21
-38.8962
0
LINE
8
Black
10
74.7825
20
-38.8962
11
75.0775
21
-38.8962
0
LINE
8
Black
10
75.0775
20
-38.8962
11
75.3548
21
-38.9971
0
LINE
8
Black
10
55.0348
20
-38.9971
11
55.2609
21
-39.1868
0
LINE
8
Black
10
55.2609
20
-39.1868
11
55.4084
21
-39.4423
0
LINE
8
Black
10
55.4084
20
-39.4423
11
55.4596
21
-39.7329
0
LINE
8
Black
10
55.4596
20
-39.7329
11
55.4596
21
-41.5471
0
LINE
8
Black
10
55.4596
20
-41.5471
11
55.4084
21
-41.8377
0
LINE
8
Black
10
55.4084
20
-41.8377
11
55.2609
21
-42.0932
0
LINE
8
Black
10
55.2609
20
-42.0932
11
55.0348
21
-42.2829
0
LINE
8
Black
10
55.0348
20
-42.2829
11
54.7575
21
-42.3838
0
LINE
8
Black
10
54.7575
20
-42.3838
11
54.4625
21
-42.3838
0
LINE
8
Black
10
54.4625
20
-42.3838
11
54.1852
21
-42.2829
0
LINE
8
Black
10
54.1852
20
-42.2829
11
53.9591
21
-42.0932
0
LINE
8
Black
10
53.9591
20
-42.0932
11
53.8116
21
-41.8377
0
LINE
8
Black
10
53.8116
20
-41.8377
11
53.7604
21
-41.5471
0
LINE
8
Black
10
53.7604
20
-41.5471
11
53.7604
21
-39.7329
0
LINE
8
Black
10
53.7604
20
-39.7329
11
53.8116
21
-39.4423
0
LINE
8
Black
10
53.8116
20
-39.4423
11
53.9591
21
-39.1868
0
LINE
8
Black
10
53.9591
20
-39.1868
11
54.1852
21
-38.9971
0
LINE
8
Black
10
54.1852
20
-38.9971
11
54.4625
21
-38.8962
0
LINE
8
Black
10
54.4625
20
-38.8962
11
54.7575
21
-38.8962
0
LINE
8
Black
10
54.7575
20
-38.8962
11
55.0348
21
-38.9971
0
LINE
8
Black
10
52.4948
20
-38.9971
11
52.7209
21
-39.1868
0
LINE
8
Black
10
52.7209
20
-39.1868
11
52.8684
21
-39.4423
0
LINE
8
Black
10
52.8684
20
-39.4423
11
52.9196
21
-39.7329
0
LINE
8
Black
10
52.9196
20
-39.7329
11
52.9196
21
-41.5471
0
LINE
8
Black
10
52.9196
20
-41.5471
11
52.8684
21
-41.8377
0
LINE
8
Black
10
52.8684
20
-41.8377
11
52.7209
21
-42.0932
0
LINE
8
Black
10
52.7209
20
-42.0932
11
52.4948
21
-42.2829
0
LINE
8
Black
10
52.4948
20
-42.2829
11
52.2175
21
-42.3838
0
LINE
8
Black
10
52.2175
20
-42.3838
11
51.9225
21
-42.3838
0
LINE
8
Black
10
51.9225
20
-42.3838
11
51.6452
21
-42.2829
0
LINE
8
Black
10
51.6452
20
-42.2829
11
51.4191
21
-42.0932
0
LINE
8
Black
10
51.4191
20
-42.0932
11
51.2716
21
-41.8377
0
LINE
8
Black
10
51.2716
20
-41.8377
11
51.2204
21
-41.5471
0
LINE
8
Black
10
51.2204
20
-41.5471
11
51.2204
21
-39.7329
0
LINE
8
Black
10
51.2204
20
-39.7329
11
51.2716
21
-39.4423
0
LINE
8
Black
10
51.2716
20
-39.4423
11
51.4191
21
-39.1868
0
LINE
8
Black
10
51.4191
20
-39.1868
11
51.6452
21
-38.9971
0
LINE
8
Black
10
51.6452
20
-38.9971
11
51.9225
21
-38.8962
0
LINE
8
Black
10
51.9225
20
-38.8962
11
52.2175
21
-38.8962
0
LINE
8
Black
10
52.2175
20
-38.8962
11
52.4948
21
-38.9971
0
LINE
8
Black
10
57.5748
20
-38.9971
11
57.8009
21
-39.1868
0
LINE
8
Black
10
57.8009
20
-39.1868
11
57.9484
21
-39.4423
0
LINE
8
Black
10
57.9484
20
-39.4423
11
57.9996
21
-39.7329
0
LINE
8
Black
10
57.9996
20
-39.7329
11
57.9996
21
-41.5471
0
LINE
8
Black
10
57.9996
20
-41.5471
11
57.9484
21
-41.8377
0
LINE
8
Black
10
57.9484
20
-41.8377
11
57.8009
21
-42.0932
0
LINE
8
Black
10
57.8009
20
-42.0932
11
57.5748
21
-42.2829
0
LINE
8
Black
10
57.5748
20
-42.2829
11
57.2975
21
-42.3838
0
LINE
8
Black
10
57.2975
20
-42.3838
11
57.0025
21
-42.3838
0
LINE
8
Black
10
57.0025
20
-42.3838
11
56.7252
21
-42.2829
0
LINE
8
Black
10
56.7252
20
-42.2829
11
56.4991
21
-42.0932
0
LINE
8
Black
10
56.4991
20
-42.0932
11
56.3516
21
-41.8377
0
LINE
8
Black
10
56.3516
20
-41.8377
11
56.3004
21
-41.5471
0
LINE
8
Black
10
56.3004
20
-41.5471
11
56.3004
21
-39.7329
0
LINE
8
Black
10
56.3004
20
-39.7329
11
56.3516
21
-39.4423
0
LINE
8
Black
10
56.3516
20
-39.4423
11
56.4991
21
-39.1868
0
LINE
8
Black
10
56.4991
20
-39.1868
11
56.7252
21
-38.9971
0
LINE
8
Black
10
56.7252
20
-38.9971
11
57.0025
21
-38.8962
0
LINE
8
Black
10
57.0025
20
-38.8962
11
57.2975
21
-38.8962
0
LINE
8
Black
10
57.2975
20
-38.8962
11
57.5748
21
-38.9971
0
LINE
8
Black
10
80.4348
20
-38.9971
11
80.6609
21
-39.1868
0
LINE
8
Black
10
80.6609
20
-39.1868
11
80.8084
21
-39.4423
0
LINE
8
Black
10
80.8084
20
-39.4423
11
80.8596
21
-39.7329
0
LINE
8
Black
10
80.8596
20
-39.7329
11
80.8596
21
-41.5471
0
LINE
8
Black
10
80.8596
20
-41.5471
11
80.8084
21
-41.8377
0
LINE
8
Black
10
80.8084
20
-41.8377
11
80.6609
21
-42.0932
0
LINE
8
Black
10
80.6609
20
-42.0932
11
80.4348
21
-42.2829
0
LINE
8
Black
10
80.4348
20
-42.2829
11
80.1575
21
-42.3838
0
LINE
8
Black
10
80.1575
20
-42.3838
11
79.8625
21
-42.3838
0
LINE
8
Black
10
79.8625
20
-42.3838
11
79.5852
21
-42.2829
0
LINE
8
Black
10
79.5852
20
-42.2829
11
79.3591
21
-42.0932
0
LINE
8
Black
10
79.3591
20
-42.0932
11
79.2116
21
-41.8377
0
LINE
8
Black
10
79.2116
20
-41.8377
11
79.1604
21
-41.5471
0
LINE
8
Black
10
79.1604
20
-41.5471
11
79.1604
21
-39.7329
0
LINE
8
Black
10
79.1604
20
-39.7329
11
79.2116
21
-39.4423
0
LINE
8
Black
10
79.2116
20
-39.4423
11
79.3591
21
-39.1868
0
LINE
8
Black
10
79.3591
20
-39.1868
11
79.5852
21
-38.9971
0
LINE
8
Black
10
79.5852
20
-38.9971
11
79.8625
21
-38.8962
0
LINE
8
Black
10
79.8625
20
-38.8962
11
80.1575
21
-38.8962
0
LINE
8
Black
10
80.1575
20
-38.8962
11
80.4348
21
-38.9971
0
LINE
8
Black
10
77.8948
20
-38.9971
11
78.1209
21
-39.1868
0
LINE
8
Black
10
78.1209
20
-39.1868
11
78.2684
21
-39.4423
0
LINE
8
Black
10
78.2684
20
-39.4423
11
78.3196
21
-39.7329
0
LINE
8
Black
10
78.3196
20
-39.7329
11
78.3196
21
-41.5471
0
LINE
8
Black
10
78.3196
20
-41.5471
11
78.2684
21
-41.8377
0
LINE
8
Black
10
78.2684
20
-41.8377
11
78.1209
21
-42.0932
0
LINE
8
Black
10
78.1209
20
-42.0932
11
77.8948
21
-42.2829
0
LINE
8
Black
10
77.8948
20
-42.2829
11
77.6175
21
-42.3838
0
LINE
8
Black
10
77.6175
20
-42.3838
11
77.3225
21
-42.3838
0
LINE
8
Black
10
77.3225
20
-42.3838
11
77.0452
21
-42.2829
0
LINE
8
Black
10
77.0452
20
-42.2829
11
76.8191
21
-42.0932
0
LINE
8
Black
10
76.8191
20
-42.0932
11
76.6716
21
-41.8377
0
LINE
8
Black
10
76.6716
20
-41.8377
11
76.6204
21
-41.5471
0
LINE
8
Black
10
76.6204
20
-41.5471
11
76.6204
21
-39.7329
0
LINE
8
Black
10
76.6204
20
-39.7329
11
76.6716
21
-39.4423
0
LINE
8
Black
10
76.6716
20
-39.4423
11
76.8191
21
-39.1868
0
LINE
8
Black
10
76.8191
20
-39.1868
11
77.0452
21
-38.9971
0
LINE
8
Black
10
77.0452
20
-38.9971
11
77.3225
21
-38.8962
0
LINE
8
Black
10
77.3225
20
-38.8962
11
77.6175
21
-38.8962
0
LINE
8
Black
10
77.6175
20
-38.8962
11
77.8948
21
-38.9971
0
LINE
8
Black
10
27.8105
20
-40.7391
11
24.3103
21
-40.7391
0
LINE
8
Black
10
24.3103
20
-40.7391
11
24.3103
21
-37.2389
0
LINE
8
Black
10
24.3103
20
-37.2389
11
27.8105
21
-37.2389
0
LINE
8
Black
10
27.8105
20
-37.2389
11
27.8105
21
-40.7391
0
LINE
8
Black
10
30.8102
20
-36.0401
11
27.3101
21
-36.0401
0
LINE
8
Black
10
27.3101
20
-36.0401
11
27.3101
21
-32.5399
0
LINE
8
Black
10
27.3101
20
-32.5399
11
30.8102
21
-32.5399
0
LINE
8
Black
10
30.8102
20
-32.5399
11
30.8102
21
-36.0401
0
LINE
8
Black
10
24.8107
20
-36.0401
11
21.3106
21
-36.0401
0
LINE
8
Black
10
21.3106
20
-36.0401
11
21.3106
21
-32.5399
0
LINE
8
Black
10
21.3106
20
-32.5399
11
24.8107
21
-32.5399
0
LINE
8
Black
10
24.8107
20
-32.5399
11
24.8107
21
-36.0401
  0
ENDSEC
  0
EOF
