G04 #@! TF.FileFunction,Copper,L2,Bot,Signal*
%FSLAX46Y46*%
G04 Gerber Fmt 4.6, Leading zero omitted, Abs format (unit mm)*
G04 Created by KiCad (PCBNEW 4.0.2+dfsg1-stable) date mar 04 jul 2017 13:38:56 COT*
%MOMM*%
G01*
G04 APERTURE LIST*
%ADD10C,0.100000*%
%ADD11O,1.699260X3.500120*%
%ADD12R,1.300000X1.300000*%
%ADD13C,1.300000*%
%ADD14R,3.500120X3.500120*%
%ADD15R,2.032000X1.727200*%
%ADD16O,2.032000X1.727200*%
%ADD17O,5.001260X2.999740*%
%ADD18R,1.727200X2.032000*%
%ADD19O,1.727200X2.032000*%
%ADD20O,1.800860X3.500120*%
%ADD21C,2.540000*%
%ADD22C,3.000000*%
%ADD23C,2.000000*%
%ADD24C,0.254000*%
G04 APERTURE END LIST*
D10*
D11*
X54610000Y-40640000D03*
X52070000Y-40640000D03*
X57150000Y-40640000D03*
D12*
X72390000Y-45720000D03*
D13*
X72390000Y-48220000D03*
D12*
X82550000Y-45720000D03*
D13*
X82550000Y-48220000D03*
D12*
X49530000Y-45720000D03*
D13*
X49530000Y-48220000D03*
D12*
X59690000Y-45720000D03*
D13*
X59690000Y-48220000D03*
D14*
X29060140Y-34290000D03*
X23060660Y-34290000D03*
X26060400Y-38989000D03*
D15*
X130810000Y-60960000D03*
D16*
X130810000Y-63500000D03*
X130810000Y-66040000D03*
X130810000Y-68580000D03*
X130810000Y-71120000D03*
X130810000Y-73660000D03*
X130810000Y-76200000D03*
X130810000Y-78740000D03*
X130810000Y-81280000D03*
X130810000Y-83820000D03*
X130810000Y-86360000D03*
X130810000Y-88900000D03*
X130810000Y-91440000D03*
X130810000Y-93980000D03*
X130810000Y-96520000D03*
X130810000Y-99060000D03*
X130810000Y-101600000D03*
X130810000Y-104140000D03*
X130810000Y-106680000D03*
D15*
X153670000Y-60960000D03*
D16*
X153670000Y-63500000D03*
X153670000Y-66040000D03*
X153670000Y-68580000D03*
X153670000Y-71120000D03*
X153670000Y-73660000D03*
X153670000Y-76200000D03*
X153670000Y-78740000D03*
X153670000Y-81280000D03*
X153670000Y-83820000D03*
X153670000Y-86360000D03*
X153670000Y-88900000D03*
X153670000Y-91440000D03*
X153670000Y-93980000D03*
X153670000Y-96520000D03*
X153670000Y-99060000D03*
X153670000Y-101600000D03*
X153670000Y-104140000D03*
X153670000Y-106680000D03*
D15*
X172085000Y-86995000D03*
D16*
X172085000Y-89535000D03*
X172085000Y-92075000D03*
X172085000Y-94615000D03*
X172085000Y-97155000D03*
X172085000Y-99695000D03*
X172085000Y-102235000D03*
X172085000Y-104775000D03*
D15*
X184785000Y-86995000D03*
D16*
X184785000Y-89535000D03*
X184785000Y-92075000D03*
X184785000Y-94615000D03*
X184785000Y-97155000D03*
X184785000Y-99695000D03*
X184785000Y-102235000D03*
X184785000Y-104775000D03*
D15*
X110490000Y-99060000D03*
D16*
X110490000Y-96520000D03*
X110490000Y-93980000D03*
X110490000Y-91440000D03*
X110490000Y-88900000D03*
X110490000Y-86360000D03*
X110490000Y-83820000D03*
X110490000Y-81280000D03*
D15*
X97790000Y-99060000D03*
D16*
X97790000Y-96520000D03*
X97790000Y-93980000D03*
X97790000Y-91440000D03*
X97790000Y-88900000D03*
X97790000Y-86360000D03*
X97790000Y-83820000D03*
X97790000Y-81280000D03*
D17*
X196215000Y-95173800D03*
X196215000Y-99136200D03*
X196215000Y-91213940D03*
X196215000Y-103096060D03*
X88900000Y-90881200D03*
X88900000Y-86918800D03*
X88900000Y-94841060D03*
X88900000Y-82958940D03*
D18*
X130810000Y-120650000D03*
D19*
X133350000Y-120650000D03*
X135890000Y-120650000D03*
X138430000Y-120650000D03*
X140970000Y-120650000D03*
X143510000Y-120650000D03*
X146050000Y-120650000D03*
X148590000Y-120650000D03*
X151130000Y-120650000D03*
X153670000Y-120650000D03*
D20*
X146050000Y-133350000D03*
X148590000Y-133350000D03*
X151130000Y-133350000D03*
X153670000Y-133350000D03*
D11*
X77470000Y-40640000D03*
X74930000Y-40640000D03*
X80010000Y-40640000D03*
D15*
X113030000Y-60960000D03*
D16*
X113030000Y-63500000D03*
X113030000Y-66040000D03*
X113030000Y-68580000D03*
X113030000Y-71120000D03*
D21*
X30480000Y-50800000D03*
X40640000Y-55880000D03*
D22*
X29060140Y-34290000D02*
X31750000Y-34290000D01*
X31750000Y-34290000D02*
X35560000Y-38100000D01*
X35560000Y-45720000D02*
X30480000Y-50800000D01*
X35560000Y-38100000D02*
X35560000Y-45720000D01*
D23*
X30480000Y-50800000D02*
X31750000Y-50800000D01*
X31750000Y-50800000D02*
X33020000Y-52070000D01*
X30480000Y-50800000D02*
X31750000Y-52070000D01*
X31750000Y-50800000D02*
X33020000Y-49530000D01*
X30480000Y-50800000D02*
X29210000Y-50800000D01*
X30480000Y-50800000D02*
X30480000Y-49530000D01*
X30480000Y-50800000D02*
X29210000Y-49530000D01*
X30480000Y-50800000D02*
X31750000Y-49530000D01*
X30480000Y-50800000D02*
X30480000Y-52070000D01*
X30480000Y-50800000D02*
X29210000Y-52070000D01*
X34290000Y-48260000D02*
X34290000Y-36830000D01*
X34290000Y-36830000D02*
X31750000Y-34290000D01*
X30480000Y-50800000D02*
X34290000Y-50800000D01*
X34290000Y-50800000D02*
X34290000Y-53340000D01*
X34290000Y-53340000D02*
X27940000Y-53340000D01*
X27940000Y-53340000D02*
X27940000Y-50800000D01*
X27940000Y-50800000D02*
X27940000Y-49530000D01*
X34290000Y-48260000D02*
X34290000Y-49530000D01*
X27940000Y-48260000D02*
X34290000Y-48260000D01*
X27940000Y-49530000D02*
X27940000Y-48260000D01*
X29060140Y-34290000D02*
X30480000Y-34290000D01*
X153670000Y-60960000D02*
X153670000Y-59690000D01*
X153670000Y-60960000D02*
X149860000Y-60960000D01*
X153670000Y-60960000D02*
X156210000Y-60960000D01*
X82550000Y-48220000D02*
X83780000Y-48220000D01*
X83780000Y-48220000D02*
X83820000Y-48260000D01*
X82550000Y-48220000D02*
X81320000Y-48220000D01*
X81320000Y-48220000D02*
X81280000Y-48260000D01*
X72390000Y-48220000D02*
X72390000Y-48260000D01*
X72390000Y-48260000D02*
X73660000Y-48260000D01*
X73660000Y-48260000D02*
X73660000Y-49530000D01*
X72390000Y-48220000D02*
X71160000Y-48220000D01*
X71160000Y-48220000D02*
X71120000Y-48260000D01*
X59690000Y-48220000D02*
X58460000Y-48220000D01*
X58460000Y-48220000D02*
X58420000Y-48260000D01*
X59690000Y-48220000D02*
X59690000Y-48260000D01*
X59690000Y-48260000D02*
X60960000Y-48260000D01*
X60960000Y-48260000D02*
X60960000Y-49530000D01*
X49530000Y-48220000D02*
X50760000Y-48220000D01*
X50760000Y-48220000D02*
X50800000Y-48260000D01*
X49530000Y-48220000D02*
X49530000Y-48260000D01*
X49530000Y-48260000D02*
X48260000Y-48260000D01*
X48260000Y-48260000D02*
X48260000Y-49530000D01*
X184785000Y-89535000D02*
X182245000Y-89535000D01*
X182245000Y-89535000D02*
X181610000Y-90170000D01*
X23060660Y-34290000D02*
X23060660Y-32819340D01*
X23060660Y-32819340D02*
X24130000Y-31750000D01*
X23060660Y-34290000D02*
X25400000Y-34290000D01*
X23060660Y-34290000D02*
X23060660Y-36629340D01*
X23060660Y-36629340D02*
X22860000Y-36830000D01*
X26060400Y-38989000D02*
X26060400Y-37289740D01*
X26060400Y-37289740D02*
X23060660Y-34290000D01*
X26060400Y-38989000D02*
X23241000Y-38989000D01*
X23241000Y-38989000D02*
X22860000Y-39370000D01*
X26060400Y-38989000D02*
X30099000Y-38989000D01*
X30480000Y-39370000D02*
X31750000Y-39370000D01*
X30099000Y-38989000D02*
X30480000Y-39370000D01*
X26060400Y-38989000D02*
X26060400Y-41300400D01*
X26060400Y-41300400D02*
X26670000Y-41910000D01*
X82550000Y-48220000D02*
X82550000Y-49530000D01*
X82550000Y-49530000D02*
X83820000Y-50800000D01*
X72390000Y-48260000D02*
X73660000Y-49530000D01*
X73660000Y-49530000D02*
X73660000Y-49530000D01*
X59690000Y-48260000D02*
X60960000Y-49530000D01*
X60960000Y-49530000D02*
X60960000Y-49530000D01*
X49530000Y-48260000D02*
X48260000Y-49530000D01*
X48260000Y-49530000D02*
X48260000Y-49530000D01*
X54610000Y-40640000D02*
X54610000Y-43180000D01*
X54610000Y-40640000D02*
X54610000Y-38100000D01*
X77470000Y-40640000D02*
X77470000Y-43180000D01*
X97790000Y-81280000D02*
X95250000Y-81280000D01*
X97790000Y-81280000D02*
X100330000Y-81280000D01*
X97790000Y-81280000D02*
X97790000Y-80010000D01*
X97790000Y-96520000D02*
X100330000Y-96520000D01*
X133350000Y-120650000D02*
X133350000Y-118110000D01*
X133350000Y-120650000D02*
X133350000Y-123190000D01*
X184785000Y-104775000D02*
X184785000Y-106045000D01*
X184785000Y-106045000D02*
X185420000Y-106680000D01*
X184785000Y-104775000D02*
X186055000Y-104775000D01*
X186055000Y-104775000D02*
X186690000Y-105410000D01*
X184785000Y-104775000D02*
X183515000Y-104775000D01*
X183515000Y-104775000D02*
X182880000Y-105410000D01*
X153670000Y-76200000D02*
X156210000Y-76200000D01*
X153670000Y-76200000D02*
X152400000Y-76200000D01*
X130810000Y-93980000D02*
X133350000Y-93980000D01*
X130810000Y-93980000D02*
X128270000Y-93980000D01*
X113030000Y-60960000D02*
X101600000Y-60960000D01*
X86360000Y-45720000D02*
X87630000Y-45720000D01*
X101600000Y-60960000D02*
X86360000Y-45720000D01*
X82550000Y-45720000D02*
X87630000Y-45720000D01*
X87630000Y-45720000D02*
X123190000Y-45720000D01*
X133350000Y-106680000D02*
X130810000Y-106680000D01*
X134620000Y-105410000D02*
X133350000Y-106680000D01*
X134620000Y-104140000D02*
X134620000Y-105410000D01*
X135890000Y-102870000D02*
X134620000Y-104140000D01*
X135890000Y-58420000D02*
X135890000Y-102870000D01*
X123190000Y-45720000D02*
X135890000Y-58420000D01*
X82550000Y-45720000D02*
X82550000Y-43180000D01*
X82550000Y-43180000D02*
X80010000Y-40640000D01*
X59690000Y-45720000D02*
X57150000Y-45720000D01*
X88900000Y-120650000D02*
X130810000Y-120650000D01*
X54610000Y-86360000D02*
X88900000Y-120650000D01*
X54610000Y-48260000D02*
X54610000Y-86360000D01*
X57150000Y-45720000D02*
X54610000Y-48260000D01*
X59690000Y-45720000D02*
X59690000Y-43180000D01*
X59690000Y-43180000D02*
X57150000Y-40640000D01*
X135890000Y-120650000D02*
X135890000Y-113030000D01*
X149860000Y-66040000D02*
X153670000Y-66040000D01*
X140970000Y-74930000D02*
X149860000Y-66040000D01*
X140970000Y-107950000D02*
X140970000Y-74930000D01*
X135890000Y-113030000D02*
X140970000Y-107950000D01*
X138430000Y-120650000D02*
X138430000Y-115570000D01*
X149860000Y-73660000D02*
X153670000Y-73660000D01*
X146050000Y-77470000D02*
X149860000Y-73660000D01*
X146050000Y-107950000D02*
X146050000Y-77470000D01*
X138430000Y-115570000D02*
X146050000Y-107950000D01*
X146050000Y-120650000D02*
X146050000Y-133350000D01*
X148590000Y-120650000D02*
X148590000Y-133350000D01*
X110490000Y-81280000D02*
X110490000Y-78740000D01*
X113030000Y-76200000D02*
X130810000Y-76200000D01*
X110490000Y-78740000D02*
X113030000Y-76200000D01*
X110490000Y-83820000D02*
X114300000Y-83820000D01*
X119380000Y-78740000D02*
X130810000Y-78740000D01*
X114300000Y-83820000D02*
X119380000Y-78740000D01*
X130470002Y-78740000D02*
X130810000Y-78400002D01*
X130810000Y-78400002D02*
X130810000Y-78740000D01*
X110490000Y-91440000D02*
X114300000Y-91440000D01*
X123190000Y-81280000D02*
X130810000Y-81280000D01*
X119380000Y-85090000D02*
X123190000Y-81280000D01*
X119380000Y-86360000D02*
X119380000Y-85090000D01*
X114300000Y-91440000D02*
X119380000Y-86360000D01*
X110490000Y-93980000D02*
X116840000Y-93980000D01*
X125730000Y-83820000D02*
X130810000Y-83820000D01*
X123190000Y-86360000D02*
X125730000Y-83820000D01*
X123190000Y-87630000D02*
X123190000Y-86360000D01*
X116840000Y-93980000D02*
X123190000Y-87630000D01*
X110490000Y-96520000D02*
X120650000Y-96520000D01*
X128270000Y-86360000D02*
X130810000Y-86360000D01*
X127000000Y-87630000D02*
X128270000Y-86360000D01*
X121920000Y-92710000D02*
X127000000Y-87630000D01*
X121920000Y-95250000D02*
X121920000Y-92710000D01*
X120650000Y-96520000D02*
X121920000Y-95250000D01*
X172085000Y-94615000D02*
X175895000Y-94615000D01*
X154940000Y-91440000D02*
X153670000Y-91440000D01*
X166370000Y-80010000D02*
X154940000Y-91440000D01*
X176530000Y-80010000D02*
X166370000Y-80010000D01*
X179070000Y-82550000D02*
X176530000Y-80010000D01*
X179070000Y-91440000D02*
X179070000Y-82550000D01*
X175895000Y-94615000D02*
X179070000Y-91440000D01*
X153670000Y-93980000D02*
X157480000Y-93980000D01*
X174625000Y-92075000D02*
X172085000Y-92075000D01*
X175260000Y-91440000D02*
X174625000Y-92075000D01*
X175260000Y-85090000D02*
X175260000Y-91440000D01*
X173990000Y-83820000D02*
X175260000Y-85090000D01*
X167640000Y-83820000D02*
X173990000Y-83820000D01*
X157480000Y-93980000D02*
X167640000Y-83820000D01*
X153670000Y-96520000D02*
X160020000Y-96520000D01*
X167005000Y-89535000D02*
X172085000Y-89535000D01*
X160020000Y-96520000D02*
X167005000Y-89535000D01*
X172085000Y-102235000D02*
X163195000Y-102235000D01*
X162560000Y-101600000D02*
X153670000Y-101600000D01*
X163195000Y-102235000D02*
X162560000Y-101600000D01*
X153670000Y-104140000D02*
X154940000Y-104140000D01*
X170180000Y-106680000D02*
X172085000Y-104775000D01*
X157480000Y-106680000D02*
X170180000Y-106680000D01*
X154940000Y-104140000D02*
X157480000Y-106680000D01*
X184785000Y-92075000D02*
X186055000Y-92075000D01*
X196215000Y-89535000D02*
X196215000Y-91213940D01*
X195580000Y-88900000D02*
X196215000Y-89535000D01*
X189230000Y-88900000D02*
X195580000Y-88900000D01*
X186055000Y-92075000D02*
X189230000Y-88900000D01*
X184785000Y-94615000D02*
X187325000Y-94615000D01*
X187960000Y-93980000D02*
X195021200Y-93980000D01*
X187325000Y-94615000D02*
X187960000Y-93980000D01*
X195021200Y-93980000D02*
X196215000Y-95173800D01*
X184785000Y-97155000D02*
X189865000Y-97155000D01*
X191770000Y-99060000D02*
X196138800Y-99060000D01*
X189865000Y-97155000D02*
X191770000Y-99060000D01*
X196138800Y-99060000D02*
X196215000Y-99136200D01*
X184785000Y-99695000D02*
X186055000Y-99695000D01*
X189456060Y-103096060D02*
X196215000Y-103096060D01*
X186055000Y-99695000D02*
X189456060Y-103096060D01*
X97790000Y-93980000D02*
X96520000Y-93980000D01*
X90578940Y-96520000D02*
X88900000Y-94841060D01*
X92710000Y-96520000D02*
X90578940Y-96520000D01*
X93980000Y-95250000D02*
X92710000Y-96520000D01*
X95250000Y-95250000D02*
X93980000Y-95250000D01*
X96520000Y-93980000D02*
X95250000Y-95250000D01*
X97790000Y-91440000D02*
X89458800Y-91440000D01*
X89458800Y-91440000D02*
X88900000Y-90881200D01*
X97790000Y-88900000D02*
X93980000Y-88900000D01*
X91998800Y-86918800D02*
X88900000Y-86918800D01*
X93980000Y-88900000D02*
X91998800Y-86918800D01*
X97790000Y-86360000D02*
X96520000Y-86360000D01*
X93118940Y-82958940D02*
X88900000Y-82958940D01*
X96520000Y-86360000D02*
X93118940Y-82958940D01*
X151130000Y-120650000D02*
X151130000Y-133350000D01*
X153670000Y-120650000D02*
X153670000Y-133350000D01*
X130810000Y-71120000D02*
X128270000Y-71120000D01*
X119040002Y-63160002D02*
X113030000Y-63160002D01*
X121920000Y-66040000D02*
X119040002Y-63160002D01*
X123190000Y-66040000D02*
X121920000Y-66040000D01*
X128270000Y-71120000D02*
X123190000Y-66040000D01*
X113030000Y-63160002D02*
X113030000Y-63500000D01*
X130810000Y-73660000D02*
X124460000Y-73660000D01*
X116840000Y-66040000D02*
X113030000Y-66040000D01*
X120650000Y-69850000D02*
X116840000Y-66040000D01*
X124460000Y-73660000D02*
X120650000Y-69850000D01*
X130810000Y-88900000D02*
X129540000Y-88900000D01*
X111760000Y-72390000D02*
X113030000Y-71120000D01*
X109220000Y-72390000D02*
X111760000Y-72390000D01*
X105410000Y-76200000D02*
X109220000Y-72390000D01*
X105410000Y-105410000D02*
X105410000Y-76200000D01*
X121920000Y-105410000D02*
X105410000Y-105410000D01*
X125730000Y-101600000D02*
X121920000Y-105410000D01*
X125730000Y-92710000D02*
X125730000Y-101600000D01*
X129540000Y-88900000D02*
X125730000Y-92710000D01*
D22*
X95250000Y-101600000D02*
X82550000Y-101600000D01*
D23*
X97790000Y-99060000D02*
X95250000Y-101600000D01*
D22*
X67310000Y-41910000D02*
X59690000Y-34290000D01*
X67310000Y-86360000D02*
X67310000Y-41910000D01*
X82550000Y-101600000D02*
X67310000Y-86360000D01*
X43180000Y-35560000D02*
X43180000Y-53340000D01*
X43180000Y-53340000D02*
X40640000Y-55880000D01*
X68580000Y-34290000D02*
X59690000Y-34290000D01*
X59690000Y-34290000D02*
X44450000Y-34290000D01*
X44450000Y-34290000D02*
X43180000Y-35560000D01*
X184785000Y-82550000D02*
X184785000Y-75565000D01*
X129540000Y-34290000D02*
X68580000Y-34290000D01*
X147320000Y-52070000D02*
X129540000Y-34290000D01*
X161290000Y-52070000D02*
X147320000Y-52070000D01*
X184785000Y-75565000D02*
X161290000Y-52070000D01*
D23*
X184785000Y-86995000D02*
X184785000Y-82550000D01*
X184785000Y-82550000D02*
X184785000Y-76835000D01*
X184785000Y-76835000D02*
X184150000Y-76200000D01*
X40640000Y-55880000D02*
X39370000Y-54610000D01*
X40640000Y-55880000D02*
X41910000Y-55880000D01*
X40640000Y-55880000D02*
X39370000Y-55880000D01*
X41910000Y-53340000D02*
X41910000Y-54610000D01*
X41910000Y-54610000D02*
X40640000Y-55880000D01*
X43180000Y-53340000D02*
X41910000Y-53340000D01*
X38100000Y-53340000D02*
X38100000Y-57150000D01*
X40640000Y-55880000D02*
X40640000Y-53340000D01*
X40640000Y-53340000D02*
X39370000Y-53340000D01*
X39370000Y-53340000D02*
X38100000Y-53340000D01*
X43180000Y-57150000D02*
X43180000Y-53340000D01*
X38100000Y-57150000D02*
X43180000Y-57150000D01*
X44450000Y-34290000D02*
X48260000Y-34290000D01*
X43180000Y-35560000D02*
X44450000Y-34290000D01*
X52070000Y-38100000D02*
X48260000Y-34290000D01*
X48260000Y-34290000D02*
X68580000Y-34290000D01*
X72390000Y-45720000D02*
X72390000Y-43180000D01*
X72390000Y-43180000D02*
X74930000Y-40640000D01*
X49530000Y-45720000D02*
X49530000Y-43180000D01*
X49530000Y-43180000D02*
X52070000Y-40640000D01*
X52070000Y-40640000D02*
X52070000Y-38100000D01*
X68580000Y-34290000D02*
X74930000Y-40640000D01*
D24*
G36*
X221540000Y-146610000D02*
X21030000Y-146610000D01*
X21030000Y-39274750D01*
X23675340Y-39274750D01*
X23675340Y-40865370D01*
X23772013Y-41098759D01*
X23950642Y-41277387D01*
X24184031Y-41374060D01*
X25774650Y-41374060D01*
X25933400Y-41215310D01*
X25933400Y-39116000D01*
X26187400Y-39116000D01*
X26187400Y-41215310D01*
X26346150Y-41374060D01*
X27936769Y-41374060D01*
X28170158Y-41277387D01*
X28348787Y-41098759D01*
X28445460Y-40865370D01*
X28445460Y-39274750D01*
X28286710Y-39116000D01*
X26187400Y-39116000D01*
X25933400Y-39116000D01*
X23834090Y-39116000D01*
X23675340Y-39274750D01*
X21030000Y-39274750D01*
X21030000Y-36611151D01*
X21184291Y-36675060D01*
X22774910Y-36675060D01*
X22933660Y-36516310D01*
X22933660Y-34417000D01*
X23187660Y-34417000D01*
X23187660Y-36516310D01*
X23346410Y-36675060D01*
X24012332Y-36675060D01*
X23950642Y-36700613D01*
X23772013Y-36879241D01*
X23675340Y-37112630D01*
X23675340Y-38703250D01*
X23834090Y-38862000D01*
X25933400Y-38862000D01*
X25933400Y-36762690D01*
X26187400Y-36762690D01*
X26187400Y-38862000D01*
X28286710Y-38862000D01*
X28445460Y-38703250D01*
X28445460Y-37112630D01*
X28348787Y-36879241D01*
X28170158Y-36700613D01*
X28138500Y-36687500D01*
X30810200Y-36687500D01*
X31045517Y-36643222D01*
X31068857Y-36628203D01*
X32655000Y-38214346D01*
X32655000Y-45605654D01*
X31635654Y-46625000D01*
X27940000Y-46625000D01*
X27314313Y-46749457D01*
X26783880Y-47103880D01*
X26429457Y-47634313D01*
X26305000Y-48260000D01*
X26305000Y-53340000D01*
X26429457Y-53965687D01*
X26783880Y-54496120D01*
X27314313Y-54850543D01*
X27940000Y-54975000D01*
X34290000Y-54975000D01*
X34915687Y-54850543D01*
X35446120Y-54496120D01*
X35800543Y-53965687D01*
X35925000Y-53340000D01*
X36465000Y-53340000D01*
X36465000Y-57150000D01*
X36589457Y-57775687D01*
X36943880Y-58306120D01*
X37474313Y-58660543D01*
X38100000Y-58785000D01*
X43180000Y-58785000D01*
X43805687Y-58660543D01*
X44336120Y-58306120D01*
X44690543Y-57775687D01*
X44815000Y-57150000D01*
X44815000Y-54662108D01*
X45152483Y-54157030D01*
X45315000Y-53340000D01*
X45315000Y-49119016D01*
X48810590Y-49119016D01*
X48866271Y-49349611D01*
X49349078Y-49517622D01*
X49859428Y-49488083D01*
X50193729Y-49349611D01*
X50249410Y-49119016D01*
X49530000Y-48399605D01*
X48810590Y-49119016D01*
X45315000Y-49119016D01*
X45315000Y-48039078D01*
X48232378Y-48039078D01*
X48261917Y-48549428D01*
X48400389Y-48883729D01*
X48630984Y-48939410D01*
X49350395Y-48220000D01*
X49709605Y-48220000D01*
X50429016Y-48939410D01*
X50659611Y-48883729D01*
X50827622Y-48400922D01*
X50819466Y-48260000D01*
X52974999Y-48260000D01*
X52975000Y-48260005D01*
X52975000Y-86359995D01*
X52974999Y-86360000D01*
X53099457Y-86985688D01*
X53453880Y-87516120D01*
X87743880Y-121806120D01*
X88274312Y-122160543D01*
X88900000Y-122285001D01*
X88900005Y-122285000D01*
X129805959Y-122285000D01*
X129946400Y-122313440D01*
X131673600Y-122313440D01*
X131908917Y-122269162D01*
X132125041Y-122130090D01*
X132270031Y-121917890D01*
X132289232Y-121823073D01*
X132447964Y-122000732D01*
X132975209Y-122254709D01*
X132990974Y-122257358D01*
X133223000Y-122136217D01*
X133223000Y-120777000D01*
X133203000Y-120777000D01*
X133203000Y-120523000D01*
X133223000Y-120523000D01*
X133223000Y-119163783D01*
X133477000Y-119163783D01*
X133477000Y-120523000D01*
X133497000Y-120523000D01*
X133497000Y-120777000D01*
X133477000Y-120777000D01*
X133477000Y-122136217D01*
X133709026Y-122257358D01*
X133724791Y-122254709D01*
X134252036Y-122000732D01*
X134602111Y-121608914D01*
X134733880Y-121806120D01*
X134801541Y-121851330D01*
X134830330Y-121894415D01*
X135316511Y-122219271D01*
X135890000Y-122333345D01*
X136463489Y-122219271D01*
X136949670Y-121894415D01*
X136978459Y-121851330D01*
X137046120Y-121806120D01*
X137160000Y-121635686D01*
X137273880Y-121806120D01*
X137341541Y-121851330D01*
X137370330Y-121894415D01*
X137856511Y-122219271D01*
X138430000Y-122333345D01*
X139003489Y-122219271D01*
X139489670Y-121894415D01*
X139518459Y-121851330D01*
X139586120Y-121806120D01*
X139718726Y-121607660D01*
X139910330Y-121894415D01*
X140396511Y-122219271D01*
X140970000Y-122333345D01*
X141543489Y-122219271D01*
X142029670Y-121894415D01*
X142240000Y-121579634D01*
X142450330Y-121894415D01*
X142936511Y-122219271D01*
X143510000Y-122333345D01*
X144083489Y-122219271D01*
X144415000Y-121997762D01*
X144415000Y-133350000D01*
X144514570Y-133850572D01*
X144514570Y-134246356D01*
X144631448Y-134833940D01*
X144964287Y-135332069D01*
X145462416Y-135664908D01*
X146050000Y-135781786D01*
X146637584Y-135664908D01*
X147135713Y-135332069D01*
X147320000Y-135056264D01*
X147504287Y-135332069D01*
X148002416Y-135664908D01*
X148590000Y-135781786D01*
X149177584Y-135664908D01*
X149675713Y-135332069D01*
X149860000Y-135056264D01*
X150044287Y-135332069D01*
X150542416Y-135664908D01*
X151130000Y-135781786D01*
X151717584Y-135664908D01*
X152215713Y-135332069D01*
X152400000Y-135056264D01*
X152584287Y-135332069D01*
X153082416Y-135664908D01*
X153670000Y-135781786D01*
X154257584Y-135664908D01*
X154755713Y-135332069D01*
X155088552Y-134833940D01*
X155205430Y-134246356D01*
X155205430Y-133850572D01*
X155305000Y-133350000D01*
X155305000Y-120650000D01*
X155180543Y-120024313D01*
X154826120Y-119493880D01*
X154758459Y-119448670D01*
X154729670Y-119405585D01*
X154243489Y-119080729D01*
X153670000Y-118966655D01*
X153096511Y-119080729D01*
X152610330Y-119405585D01*
X152581541Y-119448670D01*
X152513880Y-119493880D01*
X152400000Y-119664314D01*
X152286120Y-119493880D01*
X152218459Y-119448670D01*
X152189670Y-119405585D01*
X151703489Y-119080729D01*
X151130000Y-118966655D01*
X150556511Y-119080729D01*
X150070330Y-119405585D01*
X150041541Y-119448670D01*
X149973880Y-119493880D01*
X149860000Y-119664314D01*
X149746120Y-119493880D01*
X149678459Y-119448670D01*
X149649670Y-119405585D01*
X149163489Y-119080729D01*
X148590000Y-118966655D01*
X148016511Y-119080729D01*
X147530330Y-119405585D01*
X147501541Y-119448670D01*
X147433880Y-119493880D01*
X147320000Y-119664314D01*
X147206120Y-119493880D01*
X147138459Y-119448670D01*
X147109670Y-119405585D01*
X146623489Y-119080729D01*
X146050000Y-118966655D01*
X145476511Y-119080729D01*
X144990330Y-119405585D01*
X144961541Y-119448670D01*
X144893880Y-119493880D01*
X144761274Y-119692340D01*
X144569670Y-119405585D01*
X144083489Y-119080729D01*
X143510000Y-118966655D01*
X142936511Y-119080729D01*
X142450330Y-119405585D01*
X142240000Y-119720366D01*
X142029670Y-119405585D01*
X141543489Y-119080729D01*
X140970000Y-118966655D01*
X140396511Y-119080729D01*
X140065000Y-119302238D01*
X140065000Y-116247240D01*
X147206117Y-109106122D01*
X147206120Y-109106120D01*
X147560543Y-108575687D01*
X147685000Y-107950000D01*
X147685000Y-78740000D01*
X151986655Y-78740000D01*
X152100729Y-79313489D01*
X152425585Y-79799670D01*
X152740366Y-80010000D01*
X152425585Y-80220330D01*
X152100729Y-80706511D01*
X151986655Y-81280000D01*
X152100729Y-81853489D01*
X152425585Y-82339670D01*
X152740366Y-82550000D01*
X152425585Y-82760330D01*
X152100729Y-83246511D01*
X151986655Y-83820000D01*
X152100729Y-84393489D01*
X152425585Y-84879670D01*
X152740366Y-85090000D01*
X152425585Y-85300330D01*
X152100729Y-85786511D01*
X151986655Y-86360000D01*
X152100729Y-86933489D01*
X152425585Y-87419670D01*
X152740366Y-87630000D01*
X152425585Y-87840330D01*
X152100729Y-88326511D01*
X151986655Y-88900000D01*
X152100729Y-89473489D01*
X152425585Y-89959670D01*
X152712340Y-90151274D01*
X152513880Y-90283880D01*
X152468670Y-90351541D01*
X152425585Y-90380330D01*
X152100729Y-90866511D01*
X151986655Y-91440000D01*
X152100729Y-92013489D01*
X152425585Y-92499670D01*
X152468670Y-92528459D01*
X152513880Y-92596120D01*
X152684314Y-92710000D01*
X152513880Y-92823880D01*
X152468670Y-92891541D01*
X152425585Y-92920330D01*
X152100729Y-93406511D01*
X151986655Y-93980000D01*
X152100729Y-94553489D01*
X152425585Y-95039670D01*
X152468670Y-95068459D01*
X152513880Y-95136120D01*
X152684314Y-95250000D01*
X152513880Y-95363880D01*
X152468670Y-95431541D01*
X152425585Y-95460330D01*
X152100729Y-95946511D01*
X151986655Y-96520000D01*
X152100729Y-97093489D01*
X152425585Y-97579670D01*
X152468670Y-97608459D01*
X152513880Y-97676120D01*
X152712340Y-97808726D01*
X152425585Y-98000330D01*
X152100729Y-98486511D01*
X151986655Y-99060000D01*
X152100729Y-99633489D01*
X152425585Y-100119670D01*
X152712340Y-100311274D01*
X152513880Y-100443880D01*
X152468670Y-100511541D01*
X152425585Y-100540330D01*
X152100729Y-101026511D01*
X151986655Y-101600000D01*
X152100729Y-102173489D01*
X152425585Y-102659670D01*
X152468670Y-102688459D01*
X152513880Y-102756120D01*
X152684314Y-102870000D01*
X152513880Y-102983880D01*
X152468670Y-103051541D01*
X152425585Y-103080330D01*
X152100729Y-103566511D01*
X151986655Y-104140000D01*
X152100729Y-104713489D01*
X152425585Y-105199670D01*
X152468670Y-105228459D01*
X152513880Y-105296120D01*
X152712340Y-105428726D01*
X152425585Y-105620330D01*
X152100729Y-106106511D01*
X151986655Y-106680000D01*
X152100729Y-107253489D01*
X152425585Y-107739670D01*
X152911766Y-108064526D01*
X153485255Y-108178600D01*
X153854745Y-108178600D01*
X154428234Y-108064526D01*
X154914415Y-107739670D01*
X155239271Y-107253489D01*
X155322555Y-106834794D01*
X156323878Y-107836117D01*
X156323880Y-107836120D01*
X156854313Y-108190543D01*
X157480000Y-108315000D01*
X170179995Y-108315000D01*
X170180000Y-108315001D01*
X170805688Y-108190543D01*
X171336120Y-107836120D01*
X173241120Y-105931119D01*
X173286329Y-105863459D01*
X173329415Y-105834670D01*
X173654271Y-105348489D01*
X173696930Y-105134026D01*
X183177642Y-105134026D01*
X183180291Y-105149791D01*
X183434268Y-105677036D01*
X183870680Y-106066954D01*
X184423087Y-106260184D01*
X184658000Y-106115924D01*
X184658000Y-104902000D01*
X184912000Y-104902000D01*
X184912000Y-106115924D01*
X185146913Y-106260184D01*
X185699320Y-106066954D01*
X186135732Y-105677036D01*
X186389709Y-105149791D01*
X186392358Y-105134026D01*
X186271217Y-104902000D01*
X184912000Y-104902000D01*
X184658000Y-104902000D01*
X183298783Y-104902000D01*
X183177642Y-105134026D01*
X173696930Y-105134026D01*
X173768345Y-104775000D01*
X173654271Y-104201511D01*
X173329415Y-103715330D01*
X173286330Y-103686541D01*
X173241120Y-103618880D01*
X173070686Y-103505000D01*
X173241120Y-103391120D01*
X173286330Y-103323459D01*
X173329415Y-103294670D01*
X173654271Y-102808489D01*
X173768345Y-102235000D01*
X173654271Y-101661511D01*
X173329415Y-101175330D01*
X173286330Y-101146541D01*
X173241120Y-101078880D01*
X173042660Y-100946274D01*
X173329415Y-100754670D01*
X173654271Y-100268489D01*
X173768345Y-99695000D01*
X173654271Y-99121511D01*
X173329415Y-98635330D01*
X173014634Y-98425000D01*
X173329415Y-98214670D01*
X173654271Y-97728489D01*
X173768345Y-97155000D01*
X173654271Y-96581511D01*
X173432762Y-96250000D01*
X175894995Y-96250000D01*
X175895000Y-96250001D01*
X176520688Y-96125543D01*
X177051120Y-95771120D01*
X180226120Y-92596120D01*
X180580543Y-92065688D01*
X180705001Y-91440000D01*
X180705000Y-91439995D01*
X180705000Y-82550000D01*
X180580543Y-81924313D01*
X180226120Y-81393880D01*
X180226117Y-81393878D01*
X177686120Y-78853880D01*
X177155688Y-78499457D01*
X176530000Y-78374999D01*
X176529995Y-78375000D01*
X166370005Y-78375000D01*
X166370000Y-78374999D01*
X165744312Y-78499457D01*
X165213880Y-78853880D01*
X155322554Y-88745206D01*
X155239271Y-88326511D01*
X154914415Y-87840330D01*
X154599634Y-87630000D01*
X154914415Y-87419670D01*
X155239271Y-86933489D01*
X155353345Y-86360000D01*
X155239271Y-85786511D01*
X154914415Y-85300330D01*
X154599634Y-85090000D01*
X154914415Y-84879670D01*
X155239271Y-84393489D01*
X155353345Y-83820000D01*
X155239271Y-83246511D01*
X154914415Y-82760330D01*
X154599634Y-82550000D01*
X154914415Y-82339670D01*
X155239271Y-81853489D01*
X155353345Y-81280000D01*
X155239271Y-80706511D01*
X154914415Y-80220330D01*
X154599634Y-80010000D01*
X154914415Y-79799670D01*
X155239271Y-79313489D01*
X155353345Y-78740000D01*
X155239271Y-78166511D01*
X154914415Y-77680330D01*
X154604931Y-77473539D01*
X155020732Y-77102036D01*
X155274709Y-76574791D01*
X155277358Y-76559026D01*
X155156217Y-76327000D01*
X153797000Y-76327000D01*
X153797000Y-76347000D01*
X153543000Y-76347000D01*
X153543000Y-76327000D01*
X152183783Y-76327000D01*
X152062642Y-76559026D01*
X152065291Y-76574791D01*
X152319268Y-77102036D01*
X152735069Y-77473539D01*
X152425585Y-77680330D01*
X152100729Y-78166511D01*
X151986655Y-78740000D01*
X147685000Y-78740000D01*
X147685000Y-78147240D01*
X150537239Y-75295000D01*
X152322585Y-75295000D01*
X152319268Y-75297964D01*
X152065291Y-75825209D01*
X152062642Y-75840974D01*
X152183783Y-76073000D01*
X153543000Y-76073000D01*
X153543000Y-76053000D01*
X153797000Y-76053000D01*
X153797000Y-76073000D01*
X155156217Y-76073000D01*
X155277358Y-75840974D01*
X155274709Y-75825209D01*
X155020732Y-75297964D01*
X154628914Y-74947889D01*
X154826120Y-74816120D01*
X154871330Y-74748459D01*
X154914415Y-74719670D01*
X155239271Y-74233489D01*
X155353345Y-73660000D01*
X155239271Y-73086511D01*
X154914415Y-72600330D01*
X154871330Y-72571541D01*
X154826120Y-72503880D01*
X154627660Y-72371274D01*
X154914415Y-72179670D01*
X155239271Y-71693489D01*
X155353345Y-71120000D01*
X155239271Y-70546511D01*
X154914415Y-70060330D01*
X154599634Y-69850000D01*
X154914415Y-69639670D01*
X155239271Y-69153489D01*
X155353345Y-68580000D01*
X155239271Y-68006511D01*
X154914415Y-67520330D01*
X154627660Y-67328726D01*
X154826120Y-67196120D01*
X154871330Y-67128459D01*
X154914415Y-67099670D01*
X155239271Y-66613489D01*
X155353345Y-66040000D01*
X155239271Y-65466511D01*
X154914415Y-64980330D01*
X154871330Y-64951541D01*
X154826120Y-64883880D01*
X154627660Y-64751274D01*
X154914415Y-64559670D01*
X155239271Y-64073489D01*
X155353345Y-63500000D01*
X155239271Y-62926511D01*
X154914415Y-62440330D01*
X154892220Y-62425500D01*
X155045698Y-62361927D01*
X155224327Y-62183299D01*
X155321000Y-61949910D01*
X155321000Y-61245750D01*
X155162250Y-61087000D01*
X153797000Y-61087000D01*
X153797000Y-61107000D01*
X153543000Y-61107000D01*
X153543000Y-61087000D01*
X152177750Y-61087000D01*
X152019000Y-61245750D01*
X152019000Y-61949910D01*
X152115673Y-62183299D01*
X152294302Y-62361927D01*
X152447780Y-62425500D01*
X152425585Y-62440330D01*
X152100729Y-62926511D01*
X151986655Y-63500000D01*
X152100729Y-64073489D01*
X152322238Y-64405000D01*
X149860005Y-64405000D01*
X149860000Y-64404999D01*
X149234313Y-64529457D01*
X148703880Y-64883880D01*
X148703878Y-64883883D01*
X139813880Y-73773880D01*
X139459457Y-74304312D01*
X139334999Y-74930000D01*
X139335000Y-74930005D01*
X139335000Y-107272760D01*
X134733880Y-111873880D01*
X134379457Y-112404312D01*
X134254999Y-113030000D01*
X134255000Y-113030005D01*
X134255000Y-119302585D01*
X134252036Y-119299268D01*
X133724791Y-119045291D01*
X133709026Y-119042642D01*
X133477000Y-119163783D01*
X133223000Y-119163783D01*
X132990974Y-119042642D01*
X132975209Y-119045291D01*
X132447964Y-119299268D01*
X132291093Y-119474845D01*
X132276762Y-119398683D01*
X132137690Y-119182559D01*
X131925490Y-119037569D01*
X131673600Y-118986560D01*
X129946400Y-118986560D01*
X129795255Y-119015000D01*
X89577240Y-119015000D01*
X56245000Y-85682760D01*
X56245000Y-49119016D01*
X58970590Y-49119016D01*
X59026271Y-49349611D01*
X59509078Y-49517622D01*
X60019428Y-49488083D01*
X60353729Y-49349611D01*
X60409410Y-49119016D01*
X59690000Y-48399605D01*
X58970590Y-49119016D01*
X56245000Y-49119016D01*
X56245000Y-48937240D01*
X57827239Y-47355000D01*
X58705652Y-47355000D01*
X58675522Y-47385130D01*
X58790982Y-47500590D01*
X58560389Y-47556271D01*
X58392378Y-48039078D01*
X58421917Y-48549428D01*
X58560389Y-48883729D01*
X58790984Y-48939410D01*
X59510395Y-48220000D01*
X59869605Y-48220000D01*
X60589016Y-48939410D01*
X60819611Y-48883729D01*
X60987622Y-48400922D01*
X60958083Y-47890572D01*
X60819611Y-47556271D01*
X60589016Y-47500590D01*
X59869605Y-48220000D01*
X59510395Y-48220000D01*
X59496252Y-48205858D01*
X59675858Y-48026252D01*
X59690000Y-48040395D01*
X60409410Y-47320984D01*
X60377585Y-47189184D01*
X60846120Y-46876120D01*
X61200543Y-46345687D01*
X61325000Y-45720000D01*
X61325000Y-43180000D01*
X61200543Y-42554313D01*
X60846120Y-42023880D01*
X60846117Y-42023878D01*
X58634630Y-39812390D01*
X58634630Y-39692844D01*
X58521619Y-39124701D01*
X58199792Y-38643052D01*
X57718143Y-38321225D01*
X57150000Y-38208214D01*
X56581857Y-38321225D01*
X56100208Y-38643052D01*
X55874484Y-38980873D01*
X55569989Y-38599976D01*
X55060810Y-38319351D01*
X54966832Y-38298460D01*
X54737000Y-38419786D01*
X54737000Y-40513000D01*
X54757000Y-40513000D01*
X54757000Y-40767000D01*
X54737000Y-40767000D01*
X54737000Y-42860214D01*
X54966832Y-42981540D01*
X55060810Y-42960649D01*
X55569989Y-42680024D01*
X55874484Y-42299127D01*
X56100208Y-42636948D01*
X56581857Y-42958775D01*
X57150000Y-43071786D01*
X57249712Y-43051952D01*
X58055000Y-43857239D01*
X58055000Y-44085000D01*
X57150000Y-44085000D01*
X56524313Y-44209457D01*
X55993880Y-44563880D01*
X55993878Y-44563883D01*
X53453880Y-47103880D01*
X53099457Y-47634312D01*
X52974999Y-48260000D01*
X50819466Y-48260000D01*
X50798083Y-47890572D01*
X50659611Y-47556271D01*
X50429016Y-47500590D01*
X49709605Y-48220000D01*
X49350395Y-48220000D01*
X48630984Y-47500590D01*
X48400389Y-47556271D01*
X48232378Y-48039078D01*
X45315000Y-48039078D01*
X45315000Y-36444346D01*
X45334346Y-36425000D01*
X48082760Y-36425000D01*
X50435000Y-38777239D01*
X50435000Y-39962761D01*
X48373880Y-42023880D01*
X48019457Y-42554312D01*
X47894999Y-43180000D01*
X47895000Y-43180005D01*
X47895000Y-45720000D01*
X48019457Y-46345687D01*
X48373880Y-46876120D01*
X48842415Y-47189184D01*
X48810590Y-47320984D01*
X49530000Y-48040395D01*
X50249410Y-47320984D01*
X50217585Y-47189184D01*
X50686120Y-46876120D01*
X51040543Y-46345687D01*
X51165000Y-45720000D01*
X51165000Y-43857240D01*
X51970288Y-43051952D01*
X52070000Y-43071786D01*
X52638143Y-42958775D01*
X53119792Y-42636948D01*
X53345516Y-42299127D01*
X53650011Y-42680024D01*
X54159190Y-42960649D01*
X54253168Y-42981540D01*
X54483000Y-42860214D01*
X54483000Y-40767000D01*
X54463000Y-40767000D01*
X54463000Y-40513000D01*
X54483000Y-40513000D01*
X54483000Y-38419786D01*
X54253168Y-38298460D01*
X54159190Y-38319351D01*
X53705000Y-38569670D01*
X53705000Y-38100005D01*
X53705001Y-38100000D01*
X53580543Y-37474313D01*
X53568098Y-37455687D01*
X53226120Y-36943880D01*
X53226117Y-36943878D01*
X52707239Y-36425000D01*
X58805654Y-36425000D01*
X65175000Y-42794346D01*
X65175000Y-86360000D01*
X65337517Y-87177029D01*
X65800327Y-87869673D01*
X81040327Y-103109673D01*
X81732971Y-103572483D01*
X82550000Y-103735000D01*
X95250000Y-103735000D01*
X96067029Y-103572483D01*
X96759673Y-103109673D01*
X97222483Y-102417029D01*
X97340991Y-101821249D01*
X98591199Y-100571040D01*
X98806000Y-100571040D01*
X99041317Y-100526762D01*
X99257441Y-100387690D01*
X99402431Y-100175490D01*
X99453440Y-99923600D01*
X99453440Y-98196400D01*
X99409162Y-97961083D01*
X99270090Y-97744959D01*
X99057890Y-97599969D01*
X98963073Y-97580768D01*
X99140732Y-97422036D01*
X99394709Y-96894791D01*
X99397358Y-96879026D01*
X99276217Y-96647000D01*
X97917000Y-96647000D01*
X97917000Y-96667000D01*
X97663000Y-96667000D01*
X97663000Y-96647000D01*
X97643000Y-96647000D01*
X97643000Y-96393000D01*
X97663000Y-96393000D01*
X97663000Y-96373000D01*
X97917000Y-96373000D01*
X97917000Y-96393000D01*
X99276217Y-96393000D01*
X99397358Y-96160974D01*
X99394709Y-96145209D01*
X99140732Y-95617964D01*
X98748914Y-95267889D01*
X98946120Y-95136120D01*
X98991330Y-95068459D01*
X99034415Y-95039670D01*
X99359271Y-94553489D01*
X99473345Y-93980000D01*
X99359271Y-93406511D01*
X99034415Y-92920330D01*
X98991330Y-92891541D01*
X98946120Y-92823880D01*
X98775686Y-92710000D01*
X98946120Y-92596120D01*
X98991330Y-92528459D01*
X99034415Y-92499670D01*
X99359271Y-92013489D01*
X99473345Y-91440000D01*
X99359271Y-90866511D01*
X99034415Y-90380330D01*
X98991330Y-90351541D01*
X98946120Y-90283880D01*
X98775686Y-90170000D01*
X98946120Y-90056120D01*
X98991330Y-89988459D01*
X99034415Y-89959670D01*
X99359271Y-89473489D01*
X99473345Y-88900000D01*
X99359271Y-88326511D01*
X99034415Y-87840330D01*
X98991330Y-87811541D01*
X98946120Y-87743880D01*
X98775686Y-87630000D01*
X98946120Y-87516120D01*
X98991330Y-87448459D01*
X99034415Y-87419670D01*
X99359271Y-86933489D01*
X99473345Y-86360000D01*
X99359271Y-85786511D01*
X99034415Y-85300330D01*
X98991330Y-85271541D01*
X98946120Y-85203880D01*
X98747660Y-85071274D01*
X99034415Y-84879670D01*
X99359271Y-84393489D01*
X99473345Y-83820000D01*
X99359271Y-83246511D01*
X99034415Y-82760330D01*
X98724931Y-82553539D01*
X99140732Y-82182036D01*
X99394709Y-81654791D01*
X99397358Y-81639026D01*
X99276217Y-81407000D01*
X97917000Y-81407000D01*
X97917000Y-81427000D01*
X97663000Y-81427000D01*
X97663000Y-81407000D01*
X96303783Y-81407000D01*
X96182642Y-81639026D01*
X96185291Y-81654791D01*
X96439268Y-82182036D01*
X96855069Y-82553539D01*
X96545585Y-82760330D01*
X96220729Y-83246511D01*
X96137445Y-83665206D01*
X94275060Y-81802820D01*
X93744628Y-81448397D01*
X93118940Y-81323939D01*
X93118935Y-81323940D01*
X91284069Y-81323940D01*
X90779170Y-80986577D01*
X90449361Y-80920974D01*
X96182642Y-80920974D01*
X96303783Y-81153000D01*
X97663000Y-81153000D01*
X97663000Y-79939076D01*
X97917000Y-79939076D01*
X97917000Y-81153000D01*
X99276217Y-81153000D01*
X99397358Y-80920974D01*
X99394709Y-80905209D01*
X99140732Y-80377964D01*
X98704320Y-79988046D01*
X98151913Y-79794816D01*
X97917000Y-79939076D01*
X97663000Y-79939076D01*
X97428087Y-79794816D01*
X96875680Y-79988046D01*
X96439268Y-80377964D01*
X96185291Y-80905209D01*
X96182642Y-80920974D01*
X90449361Y-80920974D01*
X89962191Y-80824070D01*
X87837809Y-80824070D01*
X87020830Y-80986577D01*
X86328228Y-81449359D01*
X85865446Y-82141961D01*
X85702939Y-82958940D01*
X85865446Y-83775919D01*
X86328228Y-84468521D01*
X87020830Y-84931303D01*
X87058872Y-84938870D01*
X87020830Y-84946437D01*
X86328228Y-85409219D01*
X85865446Y-86101821D01*
X85702939Y-86918800D01*
X85865446Y-87735779D01*
X86328228Y-88428381D01*
X87020830Y-88891163D01*
X87065257Y-88900000D01*
X87020830Y-88908837D01*
X86328228Y-89371619D01*
X85865446Y-90064221D01*
X85702939Y-90881200D01*
X85865446Y-91698179D01*
X86328228Y-92390781D01*
X87020830Y-92853563D01*
X87058872Y-92861130D01*
X87020830Y-92868697D01*
X86328228Y-93331479D01*
X85865446Y-94024081D01*
X85702939Y-94841060D01*
X85865446Y-95658039D01*
X86328228Y-96350641D01*
X87020830Y-96813423D01*
X87837809Y-96975930D01*
X88722631Y-96975930D01*
X89422818Y-97676117D01*
X89422820Y-97676120D01*
X89935379Y-98018600D01*
X89953253Y-98030543D01*
X90578940Y-98155001D01*
X90578945Y-98155000D01*
X92709995Y-98155000D01*
X92710000Y-98155001D01*
X93335688Y-98030543D01*
X93866120Y-97676120D01*
X94657239Y-96885000D01*
X95249995Y-96885000D01*
X95250000Y-96885001D01*
X95875688Y-96760543D01*
X96139000Y-96584604D01*
X96139000Y-96647002D01*
X96303782Y-96647002D01*
X96182642Y-96879026D01*
X96185291Y-96894791D01*
X96439268Y-97422036D01*
X96614845Y-97578907D01*
X96538683Y-97593238D01*
X96322559Y-97732310D01*
X96177569Y-97944510D01*
X96126560Y-98196400D01*
X96126560Y-98411201D01*
X95072760Y-99465000D01*
X83434346Y-99465000D01*
X69445000Y-85475654D01*
X69445000Y-49119016D01*
X71670590Y-49119016D01*
X71726271Y-49349611D01*
X72209078Y-49517622D01*
X72719428Y-49488083D01*
X73053729Y-49349611D01*
X73109410Y-49119016D01*
X81830590Y-49119016D01*
X81886271Y-49349611D01*
X82369078Y-49517622D01*
X82879428Y-49488083D01*
X83213729Y-49349611D01*
X83269410Y-49119016D01*
X82550000Y-48399605D01*
X81830590Y-49119016D01*
X73109410Y-49119016D01*
X72390000Y-48399605D01*
X71670590Y-49119016D01*
X69445000Y-49119016D01*
X69445000Y-48039078D01*
X71092378Y-48039078D01*
X71121917Y-48549428D01*
X71260389Y-48883729D01*
X71490984Y-48939410D01*
X72210395Y-48220000D01*
X72569605Y-48220000D01*
X73289016Y-48939410D01*
X73519611Y-48883729D01*
X73687622Y-48400922D01*
X73666679Y-48039078D01*
X81252378Y-48039078D01*
X81281917Y-48549428D01*
X81420389Y-48883729D01*
X81650984Y-48939410D01*
X82370395Y-48220000D01*
X81650984Y-47500590D01*
X81420389Y-47556271D01*
X81252378Y-48039078D01*
X73666679Y-48039078D01*
X73658083Y-47890572D01*
X73519611Y-47556271D01*
X73289016Y-47500590D01*
X72569605Y-48220000D01*
X72210395Y-48220000D01*
X71490984Y-47500590D01*
X71260389Y-47556271D01*
X71092378Y-48039078D01*
X69445000Y-48039078D01*
X69445000Y-41910000D01*
X69306818Y-41215310D01*
X69282483Y-41092970D01*
X68819673Y-40400327D01*
X64844346Y-36425000D01*
X68402760Y-36425000D01*
X72617760Y-40640000D01*
X71233880Y-42023880D01*
X70879457Y-42554312D01*
X70754999Y-43180000D01*
X70755000Y-43180005D01*
X70755000Y-45720000D01*
X70879457Y-46345687D01*
X71233880Y-46876120D01*
X71702415Y-47189184D01*
X71670590Y-47320984D01*
X72390000Y-48040395D01*
X73109410Y-47320984D01*
X73077585Y-47189184D01*
X73546120Y-46876120D01*
X73900543Y-46345687D01*
X74025000Y-45720000D01*
X74025000Y-43857240D01*
X74830288Y-43051952D01*
X74930000Y-43071786D01*
X75498143Y-42958775D01*
X75979792Y-42636948D01*
X76205516Y-42299127D01*
X76510011Y-42680024D01*
X77019190Y-42960649D01*
X77113168Y-42981540D01*
X77343000Y-42860214D01*
X77343000Y-40767000D01*
X77323000Y-40767000D01*
X77323000Y-40513000D01*
X77343000Y-40513000D01*
X77343000Y-38419786D01*
X77597000Y-38419786D01*
X77597000Y-40513000D01*
X77617000Y-40513000D01*
X77617000Y-40767000D01*
X77597000Y-40767000D01*
X77597000Y-42860214D01*
X77826832Y-42981540D01*
X77920810Y-42960649D01*
X78429989Y-42680024D01*
X78734484Y-42299127D01*
X78960208Y-42636948D01*
X79441857Y-42958775D01*
X80010000Y-43071786D01*
X80109712Y-43051952D01*
X80915000Y-43857239D01*
X80915000Y-45720000D01*
X81039457Y-46345687D01*
X81393880Y-46876120D01*
X81862415Y-47189184D01*
X81830590Y-47320984D01*
X82550000Y-48040395D01*
X82564142Y-48026252D01*
X82743748Y-48205858D01*
X82729605Y-48220000D01*
X83449016Y-48939410D01*
X83679611Y-48883729D01*
X83847622Y-48400922D01*
X83818083Y-47890572D01*
X83679611Y-47556271D01*
X83449018Y-47500590D01*
X83564478Y-47385130D01*
X83534348Y-47355000D01*
X85682760Y-47355000D01*
X100443878Y-62116117D01*
X100443880Y-62116120D01*
X100898716Y-62420031D01*
X100974313Y-62470543D01*
X101600000Y-62595001D01*
X101600005Y-62595000D01*
X111507386Y-62595000D01*
X111395000Y-63160002D01*
X111395000Y-63256953D01*
X111346655Y-63500000D01*
X111460729Y-64073489D01*
X111785585Y-64559670D01*
X111828670Y-64588459D01*
X111873880Y-64656120D01*
X112044314Y-64770000D01*
X111873880Y-64883880D01*
X111828670Y-64951541D01*
X111785585Y-64980330D01*
X111460729Y-65466511D01*
X111346655Y-66040000D01*
X111460729Y-66613489D01*
X111785585Y-67099670D01*
X111828670Y-67128459D01*
X111873880Y-67196120D01*
X112071086Y-67327889D01*
X111679268Y-67677964D01*
X111425291Y-68205209D01*
X111422642Y-68220974D01*
X111543783Y-68453000D01*
X112903000Y-68453000D01*
X112903000Y-68433000D01*
X113157000Y-68433000D01*
X113157000Y-68453000D01*
X114516217Y-68453000D01*
X114637358Y-68220974D01*
X114634709Y-68205209D01*
X114380732Y-67677964D01*
X114377415Y-67675000D01*
X116162760Y-67675000D01*
X119493878Y-71006117D01*
X119493880Y-71006120D01*
X123052761Y-74565000D01*
X113030000Y-74565000D01*
X112404313Y-74689457D01*
X111873880Y-75043880D01*
X111873878Y-75043883D01*
X109333880Y-77583880D01*
X108979457Y-78114312D01*
X108854999Y-78740000D01*
X108855000Y-78740005D01*
X108855000Y-81036953D01*
X108806655Y-81280000D01*
X108920729Y-81853489D01*
X109245585Y-82339670D01*
X109288670Y-82368459D01*
X109333880Y-82436120D01*
X109504314Y-82550000D01*
X109333880Y-82663880D01*
X109288670Y-82731541D01*
X109245585Y-82760330D01*
X108920729Y-83246511D01*
X108806655Y-83820000D01*
X108920729Y-84393489D01*
X109245585Y-84879670D01*
X109288670Y-84908459D01*
X109333880Y-84976120D01*
X109532340Y-85108726D01*
X109245585Y-85300330D01*
X108920729Y-85786511D01*
X108806655Y-86360000D01*
X108920729Y-86933489D01*
X109245585Y-87419670D01*
X109560366Y-87630000D01*
X109245585Y-87840330D01*
X108920729Y-88326511D01*
X108806655Y-88900000D01*
X108920729Y-89473489D01*
X109245585Y-89959670D01*
X109532340Y-90151274D01*
X109333880Y-90283880D01*
X109288670Y-90351541D01*
X109245585Y-90380330D01*
X108920729Y-90866511D01*
X108806655Y-91440000D01*
X108920729Y-92013489D01*
X109245585Y-92499670D01*
X109288670Y-92528459D01*
X109333880Y-92596120D01*
X109504314Y-92710000D01*
X109333880Y-92823880D01*
X109288670Y-92891541D01*
X109245585Y-92920330D01*
X108920729Y-93406511D01*
X108806655Y-93980000D01*
X108920729Y-94553489D01*
X109245585Y-95039670D01*
X109288670Y-95068459D01*
X109333880Y-95136120D01*
X109504314Y-95250000D01*
X109333880Y-95363880D01*
X109288670Y-95431541D01*
X109245585Y-95460330D01*
X108920729Y-95946511D01*
X108806655Y-96520000D01*
X108920729Y-97093489D01*
X109245585Y-97579670D01*
X109259913Y-97589243D01*
X109238683Y-97593238D01*
X109022559Y-97732310D01*
X108877569Y-97944510D01*
X108826560Y-98196400D01*
X108826560Y-99923600D01*
X108870838Y-100158917D01*
X109009910Y-100375041D01*
X109222110Y-100520031D01*
X109474000Y-100571040D01*
X111506000Y-100571040D01*
X111741317Y-100526762D01*
X111957441Y-100387690D01*
X112102431Y-100175490D01*
X112153440Y-99923600D01*
X112153440Y-98196400D01*
X112145650Y-98155000D01*
X120649995Y-98155000D01*
X120650000Y-98155001D01*
X121275688Y-98030543D01*
X121806120Y-97676120D01*
X123076117Y-96406122D01*
X123076120Y-96406120D01*
X123347797Y-95999526D01*
X123430543Y-95875688D01*
X123555000Y-95250000D01*
X123555000Y-93387240D01*
X124095000Y-92847240D01*
X124095000Y-100922761D01*
X121242760Y-103775000D01*
X107045000Y-103775000D01*
X107045000Y-76877240D01*
X109897239Y-74025000D01*
X111759995Y-74025000D01*
X111760000Y-74025001D01*
X112385688Y-73900543D01*
X112916120Y-73546120D01*
X114186119Y-72276120D01*
X114231328Y-72208460D01*
X114274415Y-72179670D01*
X114599271Y-71693489D01*
X114713345Y-71120000D01*
X114599271Y-70546511D01*
X114274415Y-70060330D01*
X114231327Y-70031540D01*
X114186119Y-69963881D01*
X113988913Y-69832112D01*
X114380732Y-69482036D01*
X114634709Y-68954791D01*
X114637358Y-68939026D01*
X114516217Y-68707000D01*
X113157000Y-68707000D01*
X113157000Y-68727000D01*
X112903000Y-68727000D01*
X112903000Y-68707000D01*
X111543783Y-68707000D01*
X111422642Y-68939026D01*
X111425291Y-68954791D01*
X111679268Y-69482036D01*
X112071087Y-69832111D01*
X111873880Y-69963881D01*
X111082760Y-70755000D01*
X109220005Y-70755000D01*
X109220000Y-70754999D01*
X108594313Y-70879457D01*
X108063880Y-71233880D01*
X108063878Y-71233883D01*
X104253880Y-75043880D01*
X103899457Y-75574312D01*
X103774999Y-76200000D01*
X103775000Y-76200005D01*
X103775000Y-105410000D01*
X103899457Y-106035687D01*
X104253880Y-106566120D01*
X104784313Y-106920543D01*
X105410000Y-107045000D01*
X121919995Y-107045000D01*
X121920000Y-107045001D01*
X122545688Y-106920543D01*
X123076120Y-106566120D01*
X126886117Y-102756122D01*
X126886120Y-102756120D01*
X127240543Y-102225687D01*
X127342348Y-101713881D01*
X127365001Y-101600000D01*
X127365000Y-101599995D01*
X127365000Y-93387240D01*
X129157445Y-91594794D01*
X129240729Y-92013489D01*
X129565585Y-92499670D01*
X129875069Y-92706461D01*
X129459268Y-93077964D01*
X129205291Y-93605209D01*
X129202642Y-93620974D01*
X129323783Y-93853000D01*
X130683000Y-93853000D01*
X130683000Y-93833000D01*
X130937000Y-93833000D01*
X130937000Y-93853000D01*
X132296217Y-93853000D01*
X132417358Y-93620974D01*
X132414709Y-93605209D01*
X132160732Y-93077964D01*
X131744931Y-92706461D01*
X132054415Y-92499670D01*
X132379271Y-92013489D01*
X132493345Y-91440000D01*
X132379271Y-90866511D01*
X132054415Y-90380330D01*
X131767660Y-90188726D01*
X131966120Y-90056120D01*
X132011330Y-89988459D01*
X132054415Y-89959670D01*
X132379271Y-89473489D01*
X132493345Y-88900000D01*
X132379271Y-88326511D01*
X132054415Y-87840330D01*
X132011330Y-87811541D01*
X131966120Y-87743880D01*
X131795686Y-87630000D01*
X131966120Y-87516120D01*
X132011330Y-87448459D01*
X132054415Y-87419670D01*
X132379271Y-86933489D01*
X132493345Y-86360000D01*
X132379271Y-85786511D01*
X132054415Y-85300330D01*
X132011330Y-85271541D01*
X131966120Y-85203880D01*
X131795686Y-85090000D01*
X131966120Y-84976120D01*
X132011330Y-84908459D01*
X132054415Y-84879670D01*
X132379271Y-84393489D01*
X132493345Y-83820000D01*
X132379271Y-83246511D01*
X132054415Y-82760330D01*
X132011330Y-82731541D01*
X131966120Y-82663880D01*
X131795686Y-82550000D01*
X131966120Y-82436120D01*
X132011330Y-82368459D01*
X132054415Y-82339670D01*
X132379271Y-81853489D01*
X132493345Y-81280000D01*
X132379271Y-80706511D01*
X132054415Y-80220330D01*
X132011330Y-80191541D01*
X131966120Y-80123880D01*
X131795686Y-80010000D01*
X131966120Y-79896120D01*
X132011330Y-79828459D01*
X132054415Y-79799670D01*
X132379271Y-79313489D01*
X132493345Y-78740000D01*
X132445000Y-78496953D01*
X132445000Y-78400007D01*
X132445001Y-78400002D01*
X132320543Y-77774314D01*
X132003617Y-77300001D01*
X132011330Y-77288459D01*
X132054415Y-77259670D01*
X132379271Y-76773489D01*
X132493345Y-76200000D01*
X132379271Y-75626511D01*
X132054415Y-75140330D01*
X132011330Y-75111541D01*
X131966120Y-75043880D01*
X131795686Y-74930000D01*
X131966120Y-74816120D01*
X132011330Y-74748459D01*
X132054415Y-74719670D01*
X132379271Y-74233489D01*
X132493345Y-73660000D01*
X132379271Y-73086511D01*
X132054415Y-72600330D01*
X132011330Y-72571541D01*
X131966120Y-72503880D01*
X131795686Y-72390000D01*
X131966120Y-72276120D01*
X132011330Y-72208459D01*
X132054415Y-72179670D01*
X132379271Y-71693489D01*
X132493345Y-71120000D01*
X132379271Y-70546511D01*
X132054415Y-70060330D01*
X132011330Y-70031541D01*
X131966120Y-69963880D01*
X131767660Y-69831274D01*
X132054415Y-69639670D01*
X132379271Y-69153489D01*
X132493345Y-68580000D01*
X132379271Y-68006511D01*
X132054415Y-67520330D01*
X131739634Y-67310000D01*
X132054415Y-67099670D01*
X132379271Y-66613489D01*
X132493345Y-66040000D01*
X132379271Y-65466511D01*
X132054415Y-64980330D01*
X131739634Y-64770000D01*
X132054415Y-64559670D01*
X132379271Y-64073489D01*
X132493345Y-63500000D01*
X132379271Y-62926511D01*
X132054415Y-62440330D01*
X132040087Y-62430757D01*
X132061317Y-62426762D01*
X132277441Y-62287690D01*
X132422431Y-62075490D01*
X132473440Y-61823600D01*
X132473440Y-60096400D01*
X132429162Y-59861083D01*
X132290090Y-59644959D01*
X132077890Y-59499969D01*
X131826000Y-59448960D01*
X129794000Y-59448960D01*
X129558683Y-59493238D01*
X129342559Y-59632310D01*
X129197569Y-59844510D01*
X129146560Y-60096400D01*
X129146560Y-61823600D01*
X129190838Y-62058917D01*
X129329910Y-62275041D01*
X129542110Y-62420031D01*
X129583439Y-62428400D01*
X129565585Y-62440330D01*
X129240729Y-62926511D01*
X129126655Y-63500000D01*
X129240729Y-64073489D01*
X129565585Y-64559670D01*
X129880366Y-64770000D01*
X129565585Y-64980330D01*
X129240729Y-65466511D01*
X129126655Y-66040000D01*
X129240729Y-66613489D01*
X129565585Y-67099670D01*
X129880366Y-67310000D01*
X129565585Y-67520330D01*
X129240729Y-68006511D01*
X129126655Y-68580000D01*
X129240729Y-69153489D01*
X129462238Y-69485000D01*
X128947240Y-69485000D01*
X124346120Y-64883880D01*
X123815688Y-64529457D01*
X123190000Y-64404999D01*
X123189995Y-64405000D01*
X122597239Y-64405000D01*
X120196122Y-62003882D01*
X119665690Y-61649459D01*
X119040002Y-61525001D01*
X119039997Y-61525002D01*
X114693440Y-61525002D01*
X114693440Y-60096400D01*
X114649162Y-59861083D01*
X114510090Y-59644959D01*
X114297890Y-59499969D01*
X114046000Y-59448960D01*
X113653188Y-59448960D01*
X113030000Y-59325000D01*
X102277239Y-59325000D01*
X90307240Y-47355000D01*
X122512760Y-47355000D01*
X134255000Y-59097239D01*
X134255000Y-102192761D01*
X133463880Y-102983880D01*
X133109457Y-103514312D01*
X132984999Y-104140000D01*
X132985000Y-104140005D01*
X132985000Y-104732761D01*
X132672760Y-105045000D01*
X132157762Y-105045000D01*
X132379271Y-104713489D01*
X132493345Y-104140000D01*
X132379271Y-103566511D01*
X132054415Y-103080330D01*
X131739634Y-102870000D01*
X132054415Y-102659670D01*
X132379271Y-102173489D01*
X132493345Y-101600000D01*
X132379271Y-101026511D01*
X132054415Y-100540330D01*
X131739634Y-100330000D01*
X132054415Y-100119670D01*
X132379271Y-99633489D01*
X132493345Y-99060000D01*
X132379271Y-98486511D01*
X132054415Y-98000330D01*
X131739634Y-97790000D01*
X132054415Y-97579670D01*
X132379271Y-97093489D01*
X132493345Y-96520000D01*
X132379271Y-95946511D01*
X132054415Y-95460330D01*
X131744931Y-95253539D01*
X132160732Y-94882036D01*
X132414709Y-94354791D01*
X132417358Y-94339026D01*
X132296217Y-94107000D01*
X130937000Y-94107000D01*
X130937000Y-94127000D01*
X130683000Y-94127000D01*
X130683000Y-94107000D01*
X129323783Y-94107000D01*
X129202642Y-94339026D01*
X129205291Y-94354791D01*
X129459268Y-94882036D01*
X129875069Y-95253539D01*
X129565585Y-95460330D01*
X129240729Y-95946511D01*
X129126655Y-96520000D01*
X129240729Y-97093489D01*
X129565585Y-97579670D01*
X129880366Y-97790000D01*
X129565585Y-98000330D01*
X129240729Y-98486511D01*
X129126655Y-99060000D01*
X129240729Y-99633489D01*
X129565585Y-100119670D01*
X129880366Y-100330000D01*
X129565585Y-100540330D01*
X129240729Y-101026511D01*
X129126655Y-101600000D01*
X129240729Y-102173489D01*
X129565585Y-102659670D01*
X129880366Y-102870000D01*
X129565585Y-103080330D01*
X129240729Y-103566511D01*
X129126655Y-104140000D01*
X129240729Y-104713489D01*
X129565585Y-105199670D01*
X129852340Y-105391274D01*
X129653880Y-105523880D01*
X129608670Y-105591541D01*
X129565585Y-105620330D01*
X129240729Y-106106511D01*
X129126655Y-106680000D01*
X129240729Y-107253489D01*
X129565585Y-107739670D01*
X129608670Y-107768459D01*
X129653880Y-107836120D01*
X130184313Y-108190543D01*
X130810000Y-108315000D01*
X133349995Y-108315000D01*
X133350000Y-108315001D01*
X133975688Y-108190543D01*
X134506120Y-107836120D01*
X135776117Y-106566122D01*
X135776120Y-106566120D01*
X136083220Y-106106511D01*
X136130543Y-106035688D01*
X136255000Y-105410000D01*
X136255000Y-104817240D01*
X137046117Y-104026122D01*
X137046120Y-104026120D01*
X137317797Y-103619526D01*
X137400543Y-103495688D01*
X137525000Y-102870000D01*
X137525000Y-59970090D01*
X152019000Y-59970090D01*
X152019000Y-60674250D01*
X152177750Y-60833000D01*
X153543000Y-60833000D01*
X153543000Y-59620150D01*
X153797000Y-59620150D01*
X153797000Y-60833000D01*
X155162250Y-60833000D01*
X155321000Y-60674250D01*
X155321000Y-59970090D01*
X155224327Y-59736701D01*
X155045698Y-59558073D01*
X154812309Y-59461400D01*
X153955750Y-59461400D01*
X153797000Y-59620150D01*
X153543000Y-59620150D01*
X153384250Y-59461400D01*
X152527691Y-59461400D01*
X152294302Y-59558073D01*
X152115673Y-59736701D01*
X152019000Y-59970090D01*
X137525000Y-59970090D01*
X137525000Y-58420000D01*
X137502348Y-58306120D01*
X137400543Y-57794312D01*
X137213913Y-57515001D01*
X137046120Y-57263880D01*
X137046117Y-57263878D01*
X124346120Y-44563880D01*
X123815688Y-44209457D01*
X123190000Y-44084999D01*
X123189995Y-44085000D01*
X86360005Y-44085000D01*
X86360000Y-44084999D01*
X86359995Y-44085000D01*
X84185000Y-44085000D01*
X84185000Y-43180000D01*
X84060543Y-42554313D01*
X83706120Y-42023880D01*
X83706117Y-42023878D01*
X81494630Y-39812390D01*
X81494630Y-39692844D01*
X81381619Y-39124701D01*
X81059792Y-38643052D01*
X80578143Y-38321225D01*
X80010000Y-38208214D01*
X79441857Y-38321225D01*
X78960208Y-38643052D01*
X78734484Y-38980873D01*
X78429989Y-38599976D01*
X77920810Y-38319351D01*
X77826832Y-38298460D01*
X77597000Y-38419786D01*
X77343000Y-38419786D01*
X77113168Y-38298460D01*
X77019190Y-38319351D01*
X76510011Y-38599976D01*
X76205516Y-38980873D01*
X75979792Y-38643052D01*
X75498143Y-38321225D01*
X74930000Y-38208214D01*
X74830288Y-38228048D01*
X73027240Y-36425000D01*
X128655654Y-36425000D01*
X145810327Y-53579673D01*
X146502971Y-54042483D01*
X147320000Y-54205000D01*
X160405654Y-54205000D01*
X182543391Y-76342737D01*
X182639457Y-76825688D01*
X182650000Y-76841467D01*
X182650000Y-82550000D01*
X182812517Y-83367029D01*
X183150000Y-83872108D01*
X183150000Y-85990959D01*
X183121560Y-86131400D01*
X183121560Y-87858600D01*
X183165838Y-88093917D01*
X183304910Y-88310041D01*
X183517110Y-88455031D01*
X183611927Y-88474232D01*
X183434268Y-88632964D01*
X183180291Y-89160209D01*
X183177642Y-89175974D01*
X183298783Y-89408000D01*
X184658000Y-89408000D01*
X184658000Y-89388000D01*
X184912000Y-89388000D01*
X184912000Y-89408000D01*
X184932000Y-89408000D01*
X184932000Y-89662000D01*
X184912000Y-89662000D01*
X184912000Y-89682000D01*
X184658000Y-89682000D01*
X184658000Y-89662000D01*
X183298783Y-89662000D01*
X183177642Y-89894026D01*
X183180291Y-89909791D01*
X183434268Y-90437036D01*
X183826086Y-90787111D01*
X183628880Y-90918880D01*
X183583670Y-90986541D01*
X183540585Y-91015330D01*
X183215729Y-91501511D01*
X183101655Y-92075000D01*
X183215729Y-92648489D01*
X183540585Y-93134670D01*
X183583670Y-93163459D01*
X183628880Y-93231120D01*
X183799314Y-93345000D01*
X183628880Y-93458880D01*
X183583670Y-93526541D01*
X183540585Y-93555330D01*
X183215729Y-94041511D01*
X183101655Y-94615000D01*
X183215729Y-95188489D01*
X183540585Y-95674670D01*
X183583670Y-95703459D01*
X183628880Y-95771120D01*
X183799314Y-95885000D01*
X183628880Y-95998880D01*
X183583670Y-96066541D01*
X183540585Y-96095330D01*
X183215729Y-96581511D01*
X183101655Y-97155000D01*
X183215729Y-97728489D01*
X183540585Y-98214670D01*
X183583670Y-98243459D01*
X183628880Y-98311120D01*
X183799314Y-98425000D01*
X183628880Y-98538880D01*
X183583670Y-98606541D01*
X183540585Y-98635330D01*
X183215729Y-99121511D01*
X183101655Y-99695000D01*
X183215729Y-100268489D01*
X183540585Y-100754670D01*
X183583670Y-100783459D01*
X183628880Y-100851120D01*
X183827340Y-100983726D01*
X183540585Y-101175330D01*
X183215729Y-101661511D01*
X183101655Y-102235000D01*
X183215729Y-102808489D01*
X183540585Y-103294670D01*
X183850069Y-103501461D01*
X183434268Y-103872964D01*
X183180291Y-104400209D01*
X183177642Y-104415974D01*
X183298783Y-104648000D01*
X184658000Y-104648000D01*
X184658000Y-104628000D01*
X184912000Y-104628000D01*
X184912000Y-104648000D01*
X186271217Y-104648000D01*
X186392358Y-104415974D01*
X186389709Y-104400209D01*
X186135732Y-103872964D01*
X185719931Y-103501461D01*
X186029415Y-103294670D01*
X186354271Y-102808489D01*
X186437555Y-102389794D01*
X188299938Y-104252177D01*
X188299940Y-104252180D01*
X188521482Y-104400209D01*
X188830372Y-104606603D01*
X189456060Y-104731060D01*
X193830931Y-104731060D01*
X194335830Y-105068423D01*
X195152809Y-105230930D01*
X197277191Y-105230930D01*
X198094170Y-105068423D01*
X198786772Y-104605641D01*
X199249554Y-103913039D01*
X199412061Y-103096060D01*
X199249554Y-102279081D01*
X198786772Y-101586479D01*
X198094170Y-101123697D01*
X198056128Y-101116130D01*
X198094170Y-101108563D01*
X198786772Y-100645781D01*
X199249554Y-99953179D01*
X199412061Y-99136200D01*
X199249554Y-98319221D01*
X198786772Y-97626619D01*
X198094170Y-97163837D01*
X198049743Y-97155000D01*
X198094170Y-97146163D01*
X198786772Y-96683381D01*
X199249554Y-95990779D01*
X199412061Y-95173800D01*
X199249554Y-94356821D01*
X198786772Y-93664219D01*
X198094170Y-93201437D01*
X198056128Y-93193870D01*
X198094170Y-93186303D01*
X198786772Y-92723521D01*
X199249554Y-92030919D01*
X199412061Y-91213940D01*
X199249554Y-90396961D01*
X198786772Y-89704359D01*
X198094170Y-89241577D01*
X197779172Y-89178920D01*
X197725543Y-88909313D01*
X197643228Y-88786120D01*
X197371120Y-88378880D01*
X197371117Y-88378878D01*
X196736120Y-87743880D01*
X196205688Y-87389457D01*
X195580000Y-87264999D01*
X195579995Y-87265000D01*
X189230005Y-87265000D01*
X189230000Y-87264999D01*
X188604312Y-87389457D01*
X188073880Y-87743880D01*
X186409762Y-89407998D01*
X186271218Y-89407998D01*
X186392358Y-89175974D01*
X186389709Y-89160209D01*
X186135732Y-88632964D01*
X185960155Y-88476093D01*
X186036317Y-88461762D01*
X186252441Y-88322690D01*
X186397431Y-88110490D01*
X186448440Y-87858600D01*
X186448440Y-86131400D01*
X186420000Y-85980255D01*
X186420000Y-83872108D01*
X186757483Y-83367029D01*
X186920000Y-82550000D01*
X186920000Y-75565000D01*
X186757483Y-74747971D01*
X186294673Y-74055327D01*
X162799673Y-50560327D01*
X162107029Y-50097517D01*
X161290000Y-49935000D01*
X148204346Y-49935000D01*
X131049673Y-32780327D01*
X130357029Y-32317517D01*
X129540000Y-32155000D01*
X44450000Y-32155000D01*
X43632970Y-32317517D01*
X42940327Y-32780327D01*
X41670327Y-34050327D01*
X41207517Y-34742971D01*
X41045000Y-35560000D01*
X41045000Y-51785560D01*
X40640000Y-51705000D01*
X38100000Y-51705000D01*
X37474313Y-51829457D01*
X36943880Y-52183880D01*
X36589457Y-52714313D01*
X36465000Y-53340000D01*
X35925000Y-53340000D01*
X35925000Y-50800000D01*
X35800543Y-50174313D01*
X35794320Y-50165000D01*
X35800543Y-50155687D01*
X35925000Y-49530000D01*
X35925000Y-48374346D01*
X37069673Y-47229673D01*
X37532483Y-46537029D01*
X37695000Y-45720000D01*
X37695000Y-38100000D01*
X37532483Y-37282971D01*
X37069673Y-36590327D01*
X33259673Y-32780327D01*
X32567029Y-32317517D01*
X31750000Y-32155000D01*
X31317082Y-32155000D01*
X31274290Y-32088499D01*
X31062090Y-31943509D01*
X30810200Y-31892500D01*
X27310080Y-31892500D01*
X27074763Y-31936778D01*
X26858639Y-32075850D01*
X26713649Y-32288050D01*
X26662640Y-32539940D01*
X26662640Y-36040060D01*
X26706918Y-36275377D01*
X26845990Y-36491501D01*
X27010550Y-36603940D01*
X26346150Y-36603940D01*
X26187400Y-36762690D01*
X25933400Y-36762690D01*
X25774650Y-36603940D01*
X25108728Y-36603940D01*
X25170418Y-36578387D01*
X25349047Y-36399759D01*
X25445720Y-36166370D01*
X25445720Y-34575750D01*
X25286970Y-34417000D01*
X23187660Y-34417000D01*
X22933660Y-34417000D01*
X22913660Y-34417000D01*
X22913660Y-34163000D01*
X22933660Y-34163000D01*
X22933660Y-32063690D01*
X23187660Y-32063690D01*
X23187660Y-34163000D01*
X25286970Y-34163000D01*
X25445720Y-34004250D01*
X25445720Y-32413630D01*
X25349047Y-32180241D01*
X25170418Y-32001613D01*
X24937029Y-31904940D01*
X23346410Y-31904940D01*
X23187660Y-32063690D01*
X22933660Y-32063690D01*
X22774910Y-31904940D01*
X21184291Y-31904940D01*
X21030000Y-31968849D01*
X21030000Y-28650000D01*
X221540000Y-28650000D01*
X221540000Y-146610000D01*
X221540000Y-146610000D01*
G37*
X221540000Y-146610000D02*
X21030000Y-146610000D01*
X21030000Y-39274750D01*
X23675340Y-39274750D01*
X23675340Y-40865370D01*
X23772013Y-41098759D01*
X23950642Y-41277387D01*
X24184031Y-41374060D01*
X25774650Y-41374060D01*
X25933400Y-41215310D01*
X25933400Y-39116000D01*
X26187400Y-39116000D01*
X26187400Y-41215310D01*
X26346150Y-41374060D01*
X27936769Y-41374060D01*
X28170158Y-41277387D01*
X28348787Y-41098759D01*
X28445460Y-40865370D01*
X28445460Y-39274750D01*
X28286710Y-39116000D01*
X26187400Y-39116000D01*
X25933400Y-39116000D01*
X23834090Y-39116000D01*
X23675340Y-39274750D01*
X21030000Y-39274750D01*
X21030000Y-36611151D01*
X21184291Y-36675060D01*
X22774910Y-36675060D01*
X22933660Y-36516310D01*
X22933660Y-34417000D01*
X23187660Y-34417000D01*
X23187660Y-36516310D01*
X23346410Y-36675060D01*
X24012332Y-36675060D01*
X23950642Y-36700613D01*
X23772013Y-36879241D01*
X23675340Y-37112630D01*
X23675340Y-38703250D01*
X23834090Y-38862000D01*
X25933400Y-38862000D01*
X25933400Y-36762690D01*
X26187400Y-36762690D01*
X26187400Y-38862000D01*
X28286710Y-38862000D01*
X28445460Y-38703250D01*
X28445460Y-37112630D01*
X28348787Y-36879241D01*
X28170158Y-36700613D01*
X28138500Y-36687500D01*
X30810200Y-36687500D01*
X31045517Y-36643222D01*
X31068857Y-36628203D01*
X32655000Y-38214346D01*
X32655000Y-45605654D01*
X31635654Y-46625000D01*
X27940000Y-46625000D01*
X27314313Y-46749457D01*
X26783880Y-47103880D01*
X26429457Y-47634313D01*
X26305000Y-48260000D01*
X26305000Y-53340000D01*
X26429457Y-53965687D01*
X26783880Y-54496120D01*
X27314313Y-54850543D01*
X27940000Y-54975000D01*
X34290000Y-54975000D01*
X34915687Y-54850543D01*
X35446120Y-54496120D01*
X35800543Y-53965687D01*
X35925000Y-53340000D01*
X36465000Y-53340000D01*
X36465000Y-57150000D01*
X36589457Y-57775687D01*
X36943880Y-58306120D01*
X37474313Y-58660543D01*
X38100000Y-58785000D01*
X43180000Y-58785000D01*
X43805687Y-58660543D01*
X44336120Y-58306120D01*
X44690543Y-57775687D01*
X44815000Y-57150000D01*
X44815000Y-54662108D01*
X45152483Y-54157030D01*
X45315000Y-53340000D01*
X45315000Y-49119016D01*
X48810590Y-49119016D01*
X48866271Y-49349611D01*
X49349078Y-49517622D01*
X49859428Y-49488083D01*
X50193729Y-49349611D01*
X50249410Y-49119016D01*
X49530000Y-48399605D01*
X48810590Y-49119016D01*
X45315000Y-49119016D01*
X45315000Y-48039078D01*
X48232378Y-48039078D01*
X48261917Y-48549428D01*
X48400389Y-48883729D01*
X48630984Y-48939410D01*
X49350395Y-48220000D01*
X49709605Y-48220000D01*
X50429016Y-48939410D01*
X50659611Y-48883729D01*
X50827622Y-48400922D01*
X50819466Y-48260000D01*
X52974999Y-48260000D01*
X52975000Y-48260005D01*
X52975000Y-86359995D01*
X52974999Y-86360000D01*
X53099457Y-86985688D01*
X53453880Y-87516120D01*
X87743880Y-121806120D01*
X88274312Y-122160543D01*
X88900000Y-122285001D01*
X88900005Y-122285000D01*
X129805959Y-122285000D01*
X129946400Y-122313440D01*
X131673600Y-122313440D01*
X131908917Y-122269162D01*
X132125041Y-122130090D01*
X132270031Y-121917890D01*
X132289232Y-121823073D01*
X132447964Y-122000732D01*
X132975209Y-122254709D01*
X132990974Y-122257358D01*
X133223000Y-122136217D01*
X133223000Y-120777000D01*
X133203000Y-120777000D01*
X133203000Y-120523000D01*
X133223000Y-120523000D01*
X133223000Y-119163783D01*
X133477000Y-119163783D01*
X133477000Y-120523000D01*
X133497000Y-120523000D01*
X133497000Y-120777000D01*
X133477000Y-120777000D01*
X133477000Y-122136217D01*
X133709026Y-122257358D01*
X133724791Y-122254709D01*
X134252036Y-122000732D01*
X134602111Y-121608914D01*
X134733880Y-121806120D01*
X134801541Y-121851330D01*
X134830330Y-121894415D01*
X135316511Y-122219271D01*
X135890000Y-122333345D01*
X136463489Y-122219271D01*
X136949670Y-121894415D01*
X136978459Y-121851330D01*
X137046120Y-121806120D01*
X137160000Y-121635686D01*
X137273880Y-121806120D01*
X137341541Y-121851330D01*
X137370330Y-121894415D01*
X137856511Y-122219271D01*
X138430000Y-122333345D01*
X139003489Y-122219271D01*
X139489670Y-121894415D01*
X139518459Y-121851330D01*
X139586120Y-121806120D01*
X139718726Y-121607660D01*
X139910330Y-121894415D01*
X140396511Y-122219271D01*
X140970000Y-122333345D01*
X141543489Y-122219271D01*
X142029670Y-121894415D01*
X142240000Y-121579634D01*
X142450330Y-121894415D01*
X142936511Y-122219271D01*
X143510000Y-122333345D01*
X144083489Y-122219271D01*
X144415000Y-121997762D01*
X144415000Y-133350000D01*
X144514570Y-133850572D01*
X144514570Y-134246356D01*
X144631448Y-134833940D01*
X144964287Y-135332069D01*
X145462416Y-135664908D01*
X146050000Y-135781786D01*
X146637584Y-135664908D01*
X147135713Y-135332069D01*
X147320000Y-135056264D01*
X147504287Y-135332069D01*
X148002416Y-135664908D01*
X148590000Y-135781786D01*
X149177584Y-135664908D01*
X149675713Y-135332069D01*
X149860000Y-135056264D01*
X150044287Y-135332069D01*
X150542416Y-135664908D01*
X151130000Y-135781786D01*
X151717584Y-135664908D01*
X152215713Y-135332069D01*
X152400000Y-135056264D01*
X152584287Y-135332069D01*
X153082416Y-135664908D01*
X153670000Y-135781786D01*
X154257584Y-135664908D01*
X154755713Y-135332069D01*
X155088552Y-134833940D01*
X155205430Y-134246356D01*
X155205430Y-133850572D01*
X155305000Y-133350000D01*
X155305000Y-120650000D01*
X155180543Y-120024313D01*
X154826120Y-119493880D01*
X154758459Y-119448670D01*
X154729670Y-119405585D01*
X154243489Y-119080729D01*
X153670000Y-118966655D01*
X153096511Y-119080729D01*
X152610330Y-119405585D01*
X152581541Y-119448670D01*
X152513880Y-119493880D01*
X152400000Y-119664314D01*
X152286120Y-119493880D01*
X152218459Y-119448670D01*
X152189670Y-119405585D01*
X151703489Y-119080729D01*
X151130000Y-118966655D01*
X150556511Y-119080729D01*
X150070330Y-119405585D01*
X150041541Y-119448670D01*
X149973880Y-119493880D01*
X149860000Y-119664314D01*
X149746120Y-119493880D01*
X149678459Y-119448670D01*
X149649670Y-119405585D01*
X149163489Y-119080729D01*
X148590000Y-118966655D01*
X148016511Y-119080729D01*
X147530330Y-119405585D01*
X147501541Y-119448670D01*
X147433880Y-119493880D01*
X147320000Y-119664314D01*
X147206120Y-119493880D01*
X147138459Y-119448670D01*
X147109670Y-119405585D01*
X146623489Y-119080729D01*
X146050000Y-118966655D01*
X145476511Y-119080729D01*
X144990330Y-119405585D01*
X144961541Y-119448670D01*
X144893880Y-119493880D01*
X144761274Y-119692340D01*
X144569670Y-119405585D01*
X144083489Y-119080729D01*
X143510000Y-118966655D01*
X142936511Y-119080729D01*
X142450330Y-119405585D01*
X142240000Y-119720366D01*
X142029670Y-119405585D01*
X141543489Y-119080729D01*
X140970000Y-118966655D01*
X140396511Y-119080729D01*
X140065000Y-119302238D01*
X140065000Y-116247240D01*
X147206117Y-109106122D01*
X147206120Y-109106120D01*
X147560543Y-108575687D01*
X147685000Y-107950000D01*
X147685000Y-78740000D01*
X151986655Y-78740000D01*
X152100729Y-79313489D01*
X152425585Y-79799670D01*
X152740366Y-80010000D01*
X152425585Y-80220330D01*
X152100729Y-80706511D01*
X151986655Y-81280000D01*
X152100729Y-81853489D01*
X152425585Y-82339670D01*
X152740366Y-82550000D01*
X152425585Y-82760330D01*
X152100729Y-83246511D01*
X151986655Y-83820000D01*
X152100729Y-84393489D01*
X152425585Y-84879670D01*
X152740366Y-85090000D01*
X152425585Y-85300330D01*
X152100729Y-85786511D01*
X151986655Y-86360000D01*
X152100729Y-86933489D01*
X152425585Y-87419670D01*
X152740366Y-87630000D01*
X152425585Y-87840330D01*
X152100729Y-88326511D01*
X151986655Y-88900000D01*
X152100729Y-89473489D01*
X152425585Y-89959670D01*
X152712340Y-90151274D01*
X152513880Y-90283880D01*
X152468670Y-90351541D01*
X152425585Y-90380330D01*
X152100729Y-90866511D01*
X151986655Y-91440000D01*
X152100729Y-92013489D01*
X152425585Y-92499670D01*
X152468670Y-92528459D01*
X152513880Y-92596120D01*
X152684314Y-92710000D01*
X152513880Y-92823880D01*
X152468670Y-92891541D01*
X152425585Y-92920330D01*
X152100729Y-93406511D01*
X151986655Y-93980000D01*
X152100729Y-94553489D01*
X152425585Y-95039670D01*
X152468670Y-95068459D01*
X152513880Y-95136120D01*
X152684314Y-95250000D01*
X152513880Y-95363880D01*
X152468670Y-95431541D01*
X152425585Y-95460330D01*
X152100729Y-95946511D01*
X151986655Y-96520000D01*
X152100729Y-97093489D01*
X152425585Y-97579670D01*
X152468670Y-97608459D01*
X152513880Y-97676120D01*
X152712340Y-97808726D01*
X152425585Y-98000330D01*
X152100729Y-98486511D01*
X151986655Y-99060000D01*
X152100729Y-99633489D01*
X152425585Y-100119670D01*
X152712340Y-100311274D01*
X152513880Y-100443880D01*
X152468670Y-100511541D01*
X152425585Y-100540330D01*
X152100729Y-101026511D01*
X151986655Y-101600000D01*
X152100729Y-102173489D01*
X152425585Y-102659670D01*
X152468670Y-102688459D01*
X152513880Y-102756120D01*
X152684314Y-102870000D01*
X152513880Y-102983880D01*
X152468670Y-103051541D01*
X152425585Y-103080330D01*
X152100729Y-103566511D01*
X151986655Y-104140000D01*
X152100729Y-104713489D01*
X152425585Y-105199670D01*
X152468670Y-105228459D01*
X152513880Y-105296120D01*
X152712340Y-105428726D01*
X152425585Y-105620330D01*
X152100729Y-106106511D01*
X151986655Y-106680000D01*
X152100729Y-107253489D01*
X152425585Y-107739670D01*
X152911766Y-108064526D01*
X153485255Y-108178600D01*
X153854745Y-108178600D01*
X154428234Y-108064526D01*
X154914415Y-107739670D01*
X155239271Y-107253489D01*
X155322555Y-106834794D01*
X156323878Y-107836117D01*
X156323880Y-107836120D01*
X156854313Y-108190543D01*
X157480000Y-108315000D01*
X170179995Y-108315000D01*
X170180000Y-108315001D01*
X170805688Y-108190543D01*
X171336120Y-107836120D01*
X173241120Y-105931119D01*
X173286329Y-105863459D01*
X173329415Y-105834670D01*
X173654271Y-105348489D01*
X173696930Y-105134026D01*
X183177642Y-105134026D01*
X183180291Y-105149791D01*
X183434268Y-105677036D01*
X183870680Y-106066954D01*
X184423087Y-106260184D01*
X184658000Y-106115924D01*
X184658000Y-104902000D01*
X184912000Y-104902000D01*
X184912000Y-106115924D01*
X185146913Y-106260184D01*
X185699320Y-106066954D01*
X186135732Y-105677036D01*
X186389709Y-105149791D01*
X186392358Y-105134026D01*
X186271217Y-104902000D01*
X184912000Y-104902000D01*
X184658000Y-104902000D01*
X183298783Y-104902000D01*
X183177642Y-105134026D01*
X173696930Y-105134026D01*
X173768345Y-104775000D01*
X173654271Y-104201511D01*
X173329415Y-103715330D01*
X173286330Y-103686541D01*
X173241120Y-103618880D01*
X173070686Y-103505000D01*
X173241120Y-103391120D01*
X173286330Y-103323459D01*
X173329415Y-103294670D01*
X173654271Y-102808489D01*
X173768345Y-102235000D01*
X173654271Y-101661511D01*
X173329415Y-101175330D01*
X173286330Y-101146541D01*
X173241120Y-101078880D01*
X173042660Y-100946274D01*
X173329415Y-100754670D01*
X173654271Y-100268489D01*
X173768345Y-99695000D01*
X173654271Y-99121511D01*
X173329415Y-98635330D01*
X173014634Y-98425000D01*
X173329415Y-98214670D01*
X173654271Y-97728489D01*
X173768345Y-97155000D01*
X173654271Y-96581511D01*
X173432762Y-96250000D01*
X175894995Y-96250000D01*
X175895000Y-96250001D01*
X176520688Y-96125543D01*
X177051120Y-95771120D01*
X180226120Y-92596120D01*
X180580543Y-92065688D01*
X180705001Y-91440000D01*
X180705000Y-91439995D01*
X180705000Y-82550000D01*
X180580543Y-81924313D01*
X180226120Y-81393880D01*
X180226117Y-81393878D01*
X177686120Y-78853880D01*
X177155688Y-78499457D01*
X176530000Y-78374999D01*
X176529995Y-78375000D01*
X166370005Y-78375000D01*
X166370000Y-78374999D01*
X165744312Y-78499457D01*
X165213880Y-78853880D01*
X155322554Y-88745206D01*
X155239271Y-88326511D01*
X154914415Y-87840330D01*
X154599634Y-87630000D01*
X154914415Y-87419670D01*
X155239271Y-86933489D01*
X155353345Y-86360000D01*
X155239271Y-85786511D01*
X154914415Y-85300330D01*
X154599634Y-85090000D01*
X154914415Y-84879670D01*
X155239271Y-84393489D01*
X155353345Y-83820000D01*
X155239271Y-83246511D01*
X154914415Y-82760330D01*
X154599634Y-82550000D01*
X154914415Y-82339670D01*
X155239271Y-81853489D01*
X155353345Y-81280000D01*
X155239271Y-80706511D01*
X154914415Y-80220330D01*
X154599634Y-80010000D01*
X154914415Y-79799670D01*
X155239271Y-79313489D01*
X155353345Y-78740000D01*
X155239271Y-78166511D01*
X154914415Y-77680330D01*
X154604931Y-77473539D01*
X155020732Y-77102036D01*
X155274709Y-76574791D01*
X155277358Y-76559026D01*
X155156217Y-76327000D01*
X153797000Y-76327000D01*
X153797000Y-76347000D01*
X153543000Y-76347000D01*
X153543000Y-76327000D01*
X152183783Y-76327000D01*
X152062642Y-76559026D01*
X152065291Y-76574791D01*
X152319268Y-77102036D01*
X152735069Y-77473539D01*
X152425585Y-77680330D01*
X152100729Y-78166511D01*
X151986655Y-78740000D01*
X147685000Y-78740000D01*
X147685000Y-78147240D01*
X150537239Y-75295000D01*
X152322585Y-75295000D01*
X152319268Y-75297964D01*
X152065291Y-75825209D01*
X152062642Y-75840974D01*
X152183783Y-76073000D01*
X153543000Y-76073000D01*
X153543000Y-76053000D01*
X153797000Y-76053000D01*
X153797000Y-76073000D01*
X155156217Y-76073000D01*
X155277358Y-75840974D01*
X155274709Y-75825209D01*
X155020732Y-75297964D01*
X154628914Y-74947889D01*
X154826120Y-74816120D01*
X154871330Y-74748459D01*
X154914415Y-74719670D01*
X155239271Y-74233489D01*
X155353345Y-73660000D01*
X155239271Y-73086511D01*
X154914415Y-72600330D01*
X154871330Y-72571541D01*
X154826120Y-72503880D01*
X154627660Y-72371274D01*
X154914415Y-72179670D01*
X155239271Y-71693489D01*
X155353345Y-71120000D01*
X155239271Y-70546511D01*
X154914415Y-70060330D01*
X154599634Y-69850000D01*
X154914415Y-69639670D01*
X155239271Y-69153489D01*
X155353345Y-68580000D01*
X155239271Y-68006511D01*
X154914415Y-67520330D01*
X154627660Y-67328726D01*
X154826120Y-67196120D01*
X154871330Y-67128459D01*
X154914415Y-67099670D01*
X155239271Y-66613489D01*
X155353345Y-66040000D01*
X155239271Y-65466511D01*
X154914415Y-64980330D01*
X154871330Y-64951541D01*
X154826120Y-64883880D01*
X154627660Y-64751274D01*
X154914415Y-64559670D01*
X155239271Y-64073489D01*
X155353345Y-63500000D01*
X155239271Y-62926511D01*
X154914415Y-62440330D01*
X154892220Y-62425500D01*
X155045698Y-62361927D01*
X155224327Y-62183299D01*
X155321000Y-61949910D01*
X155321000Y-61245750D01*
X155162250Y-61087000D01*
X153797000Y-61087000D01*
X153797000Y-61107000D01*
X153543000Y-61107000D01*
X153543000Y-61087000D01*
X152177750Y-61087000D01*
X152019000Y-61245750D01*
X152019000Y-61949910D01*
X152115673Y-62183299D01*
X152294302Y-62361927D01*
X152447780Y-62425500D01*
X152425585Y-62440330D01*
X152100729Y-62926511D01*
X151986655Y-63500000D01*
X152100729Y-64073489D01*
X152322238Y-64405000D01*
X149860005Y-64405000D01*
X149860000Y-64404999D01*
X149234313Y-64529457D01*
X148703880Y-64883880D01*
X148703878Y-64883883D01*
X139813880Y-73773880D01*
X139459457Y-74304312D01*
X139334999Y-74930000D01*
X139335000Y-74930005D01*
X139335000Y-107272760D01*
X134733880Y-111873880D01*
X134379457Y-112404312D01*
X134254999Y-113030000D01*
X134255000Y-113030005D01*
X134255000Y-119302585D01*
X134252036Y-119299268D01*
X133724791Y-119045291D01*
X133709026Y-119042642D01*
X133477000Y-119163783D01*
X133223000Y-119163783D01*
X132990974Y-119042642D01*
X132975209Y-119045291D01*
X132447964Y-119299268D01*
X132291093Y-119474845D01*
X132276762Y-119398683D01*
X132137690Y-119182559D01*
X131925490Y-119037569D01*
X131673600Y-118986560D01*
X129946400Y-118986560D01*
X129795255Y-119015000D01*
X89577240Y-119015000D01*
X56245000Y-85682760D01*
X56245000Y-49119016D01*
X58970590Y-49119016D01*
X59026271Y-49349611D01*
X59509078Y-49517622D01*
X60019428Y-49488083D01*
X60353729Y-49349611D01*
X60409410Y-49119016D01*
X59690000Y-48399605D01*
X58970590Y-49119016D01*
X56245000Y-49119016D01*
X56245000Y-48937240D01*
X57827239Y-47355000D01*
X58705652Y-47355000D01*
X58675522Y-47385130D01*
X58790982Y-47500590D01*
X58560389Y-47556271D01*
X58392378Y-48039078D01*
X58421917Y-48549428D01*
X58560389Y-48883729D01*
X58790984Y-48939410D01*
X59510395Y-48220000D01*
X59869605Y-48220000D01*
X60589016Y-48939410D01*
X60819611Y-48883729D01*
X60987622Y-48400922D01*
X60958083Y-47890572D01*
X60819611Y-47556271D01*
X60589016Y-47500590D01*
X59869605Y-48220000D01*
X59510395Y-48220000D01*
X59496252Y-48205858D01*
X59675858Y-48026252D01*
X59690000Y-48040395D01*
X60409410Y-47320984D01*
X60377585Y-47189184D01*
X60846120Y-46876120D01*
X61200543Y-46345687D01*
X61325000Y-45720000D01*
X61325000Y-43180000D01*
X61200543Y-42554313D01*
X60846120Y-42023880D01*
X60846117Y-42023878D01*
X58634630Y-39812390D01*
X58634630Y-39692844D01*
X58521619Y-39124701D01*
X58199792Y-38643052D01*
X57718143Y-38321225D01*
X57150000Y-38208214D01*
X56581857Y-38321225D01*
X56100208Y-38643052D01*
X55874484Y-38980873D01*
X55569989Y-38599976D01*
X55060810Y-38319351D01*
X54966832Y-38298460D01*
X54737000Y-38419786D01*
X54737000Y-40513000D01*
X54757000Y-40513000D01*
X54757000Y-40767000D01*
X54737000Y-40767000D01*
X54737000Y-42860214D01*
X54966832Y-42981540D01*
X55060810Y-42960649D01*
X55569989Y-42680024D01*
X55874484Y-42299127D01*
X56100208Y-42636948D01*
X56581857Y-42958775D01*
X57150000Y-43071786D01*
X57249712Y-43051952D01*
X58055000Y-43857239D01*
X58055000Y-44085000D01*
X57150000Y-44085000D01*
X56524313Y-44209457D01*
X55993880Y-44563880D01*
X55993878Y-44563883D01*
X53453880Y-47103880D01*
X53099457Y-47634312D01*
X52974999Y-48260000D01*
X50819466Y-48260000D01*
X50798083Y-47890572D01*
X50659611Y-47556271D01*
X50429016Y-47500590D01*
X49709605Y-48220000D01*
X49350395Y-48220000D01*
X48630984Y-47500590D01*
X48400389Y-47556271D01*
X48232378Y-48039078D01*
X45315000Y-48039078D01*
X45315000Y-36444346D01*
X45334346Y-36425000D01*
X48082760Y-36425000D01*
X50435000Y-38777239D01*
X50435000Y-39962761D01*
X48373880Y-42023880D01*
X48019457Y-42554312D01*
X47894999Y-43180000D01*
X47895000Y-43180005D01*
X47895000Y-45720000D01*
X48019457Y-46345687D01*
X48373880Y-46876120D01*
X48842415Y-47189184D01*
X48810590Y-47320984D01*
X49530000Y-48040395D01*
X50249410Y-47320984D01*
X50217585Y-47189184D01*
X50686120Y-46876120D01*
X51040543Y-46345687D01*
X51165000Y-45720000D01*
X51165000Y-43857240D01*
X51970288Y-43051952D01*
X52070000Y-43071786D01*
X52638143Y-42958775D01*
X53119792Y-42636948D01*
X53345516Y-42299127D01*
X53650011Y-42680024D01*
X54159190Y-42960649D01*
X54253168Y-42981540D01*
X54483000Y-42860214D01*
X54483000Y-40767000D01*
X54463000Y-40767000D01*
X54463000Y-40513000D01*
X54483000Y-40513000D01*
X54483000Y-38419786D01*
X54253168Y-38298460D01*
X54159190Y-38319351D01*
X53705000Y-38569670D01*
X53705000Y-38100005D01*
X53705001Y-38100000D01*
X53580543Y-37474313D01*
X53568098Y-37455687D01*
X53226120Y-36943880D01*
X53226117Y-36943878D01*
X52707239Y-36425000D01*
X58805654Y-36425000D01*
X65175000Y-42794346D01*
X65175000Y-86360000D01*
X65337517Y-87177029D01*
X65800327Y-87869673D01*
X81040327Y-103109673D01*
X81732971Y-103572483D01*
X82550000Y-103735000D01*
X95250000Y-103735000D01*
X96067029Y-103572483D01*
X96759673Y-103109673D01*
X97222483Y-102417029D01*
X97340991Y-101821249D01*
X98591199Y-100571040D01*
X98806000Y-100571040D01*
X99041317Y-100526762D01*
X99257441Y-100387690D01*
X99402431Y-100175490D01*
X99453440Y-99923600D01*
X99453440Y-98196400D01*
X99409162Y-97961083D01*
X99270090Y-97744959D01*
X99057890Y-97599969D01*
X98963073Y-97580768D01*
X99140732Y-97422036D01*
X99394709Y-96894791D01*
X99397358Y-96879026D01*
X99276217Y-96647000D01*
X97917000Y-96647000D01*
X97917000Y-96667000D01*
X97663000Y-96667000D01*
X97663000Y-96647000D01*
X97643000Y-96647000D01*
X97643000Y-96393000D01*
X97663000Y-96393000D01*
X97663000Y-96373000D01*
X97917000Y-96373000D01*
X97917000Y-96393000D01*
X99276217Y-96393000D01*
X99397358Y-96160974D01*
X99394709Y-96145209D01*
X99140732Y-95617964D01*
X98748914Y-95267889D01*
X98946120Y-95136120D01*
X98991330Y-95068459D01*
X99034415Y-95039670D01*
X99359271Y-94553489D01*
X99473345Y-93980000D01*
X99359271Y-93406511D01*
X99034415Y-92920330D01*
X98991330Y-92891541D01*
X98946120Y-92823880D01*
X98775686Y-92710000D01*
X98946120Y-92596120D01*
X98991330Y-92528459D01*
X99034415Y-92499670D01*
X99359271Y-92013489D01*
X99473345Y-91440000D01*
X99359271Y-90866511D01*
X99034415Y-90380330D01*
X98991330Y-90351541D01*
X98946120Y-90283880D01*
X98775686Y-90170000D01*
X98946120Y-90056120D01*
X98991330Y-89988459D01*
X99034415Y-89959670D01*
X99359271Y-89473489D01*
X99473345Y-88900000D01*
X99359271Y-88326511D01*
X99034415Y-87840330D01*
X98991330Y-87811541D01*
X98946120Y-87743880D01*
X98775686Y-87630000D01*
X98946120Y-87516120D01*
X98991330Y-87448459D01*
X99034415Y-87419670D01*
X99359271Y-86933489D01*
X99473345Y-86360000D01*
X99359271Y-85786511D01*
X99034415Y-85300330D01*
X98991330Y-85271541D01*
X98946120Y-85203880D01*
X98747660Y-85071274D01*
X99034415Y-84879670D01*
X99359271Y-84393489D01*
X99473345Y-83820000D01*
X99359271Y-83246511D01*
X99034415Y-82760330D01*
X98724931Y-82553539D01*
X99140732Y-82182036D01*
X99394709Y-81654791D01*
X99397358Y-81639026D01*
X99276217Y-81407000D01*
X97917000Y-81407000D01*
X97917000Y-81427000D01*
X97663000Y-81427000D01*
X97663000Y-81407000D01*
X96303783Y-81407000D01*
X96182642Y-81639026D01*
X96185291Y-81654791D01*
X96439268Y-82182036D01*
X96855069Y-82553539D01*
X96545585Y-82760330D01*
X96220729Y-83246511D01*
X96137445Y-83665206D01*
X94275060Y-81802820D01*
X93744628Y-81448397D01*
X93118940Y-81323939D01*
X93118935Y-81323940D01*
X91284069Y-81323940D01*
X90779170Y-80986577D01*
X90449361Y-80920974D01*
X96182642Y-80920974D01*
X96303783Y-81153000D01*
X97663000Y-81153000D01*
X97663000Y-79939076D01*
X97917000Y-79939076D01*
X97917000Y-81153000D01*
X99276217Y-81153000D01*
X99397358Y-80920974D01*
X99394709Y-80905209D01*
X99140732Y-80377964D01*
X98704320Y-79988046D01*
X98151913Y-79794816D01*
X97917000Y-79939076D01*
X97663000Y-79939076D01*
X97428087Y-79794816D01*
X96875680Y-79988046D01*
X96439268Y-80377964D01*
X96185291Y-80905209D01*
X96182642Y-80920974D01*
X90449361Y-80920974D01*
X89962191Y-80824070D01*
X87837809Y-80824070D01*
X87020830Y-80986577D01*
X86328228Y-81449359D01*
X85865446Y-82141961D01*
X85702939Y-82958940D01*
X85865446Y-83775919D01*
X86328228Y-84468521D01*
X87020830Y-84931303D01*
X87058872Y-84938870D01*
X87020830Y-84946437D01*
X86328228Y-85409219D01*
X85865446Y-86101821D01*
X85702939Y-86918800D01*
X85865446Y-87735779D01*
X86328228Y-88428381D01*
X87020830Y-88891163D01*
X87065257Y-88900000D01*
X87020830Y-88908837D01*
X86328228Y-89371619D01*
X85865446Y-90064221D01*
X85702939Y-90881200D01*
X85865446Y-91698179D01*
X86328228Y-92390781D01*
X87020830Y-92853563D01*
X87058872Y-92861130D01*
X87020830Y-92868697D01*
X86328228Y-93331479D01*
X85865446Y-94024081D01*
X85702939Y-94841060D01*
X85865446Y-95658039D01*
X86328228Y-96350641D01*
X87020830Y-96813423D01*
X87837809Y-96975930D01*
X88722631Y-96975930D01*
X89422818Y-97676117D01*
X89422820Y-97676120D01*
X89935379Y-98018600D01*
X89953253Y-98030543D01*
X90578940Y-98155001D01*
X90578945Y-98155000D01*
X92709995Y-98155000D01*
X92710000Y-98155001D01*
X93335688Y-98030543D01*
X93866120Y-97676120D01*
X94657239Y-96885000D01*
X95249995Y-96885000D01*
X95250000Y-96885001D01*
X95875688Y-96760543D01*
X96139000Y-96584604D01*
X96139000Y-96647002D01*
X96303782Y-96647002D01*
X96182642Y-96879026D01*
X96185291Y-96894791D01*
X96439268Y-97422036D01*
X96614845Y-97578907D01*
X96538683Y-97593238D01*
X96322559Y-97732310D01*
X96177569Y-97944510D01*
X96126560Y-98196400D01*
X96126560Y-98411201D01*
X95072760Y-99465000D01*
X83434346Y-99465000D01*
X69445000Y-85475654D01*
X69445000Y-49119016D01*
X71670590Y-49119016D01*
X71726271Y-49349611D01*
X72209078Y-49517622D01*
X72719428Y-49488083D01*
X73053729Y-49349611D01*
X73109410Y-49119016D01*
X81830590Y-49119016D01*
X81886271Y-49349611D01*
X82369078Y-49517622D01*
X82879428Y-49488083D01*
X83213729Y-49349611D01*
X83269410Y-49119016D01*
X82550000Y-48399605D01*
X81830590Y-49119016D01*
X73109410Y-49119016D01*
X72390000Y-48399605D01*
X71670590Y-49119016D01*
X69445000Y-49119016D01*
X69445000Y-48039078D01*
X71092378Y-48039078D01*
X71121917Y-48549428D01*
X71260389Y-48883729D01*
X71490984Y-48939410D01*
X72210395Y-48220000D01*
X72569605Y-48220000D01*
X73289016Y-48939410D01*
X73519611Y-48883729D01*
X73687622Y-48400922D01*
X73666679Y-48039078D01*
X81252378Y-48039078D01*
X81281917Y-48549428D01*
X81420389Y-48883729D01*
X81650984Y-48939410D01*
X82370395Y-48220000D01*
X81650984Y-47500590D01*
X81420389Y-47556271D01*
X81252378Y-48039078D01*
X73666679Y-48039078D01*
X73658083Y-47890572D01*
X73519611Y-47556271D01*
X73289016Y-47500590D01*
X72569605Y-48220000D01*
X72210395Y-48220000D01*
X71490984Y-47500590D01*
X71260389Y-47556271D01*
X71092378Y-48039078D01*
X69445000Y-48039078D01*
X69445000Y-41910000D01*
X69306818Y-41215310D01*
X69282483Y-41092970D01*
X68819673Y-40400327D01*
X64844346Y-36425000D01*
X68402760Y-36425000D01*
X72617760Y-40640000D01*
X71233880Y-42023880D01*
X70879457Y-42554312D01*
X70754999Y-43180000D01*
X70755000Y-43180005D01*
X70755000Y-45720000D01*
X70879457Y-46345687D01*
X71233880Y-46876120D01*
X71702415Y-47189184D01*
X71670590Y-47320984D01*
X72390000Y-48040395D01*
X73109410Y-47320984D01*
X73077585Y-47189184D01*
X73546120Y-46876120D01*
X73900543Y-46345687D01*
X74025000Y-45720000D01*
X74025000Y-43857240D01*
X74830288Y-43051952D01*
X74930000Y-43071786D01*
X75498143Y-42958775D01*
X75979792Y-42636948D01*
X76205516Y-42299127D01*
X76510011Y-42680024D01*
X77019190Y-42960649D01*
X77113168Y-42981540D01*
X77343000Y-42860214D01*
X77343000Y-40767000D01*
X77323000Y-40767000D01*
X77323000Y-40513000D01*
X77343000Y-40513000D01*
X77343000Y-38419786D01*
X77597000Y-38419786D01*
X77597000Y-40513000D01*
X77617000Y-40513000D01*
X77617000Y-40767000D01*
X77597000Y-40767000D01*
X77597000Y-42860214D01*
X77826832Y-42981540D01*
X77920810Y-42960649D01*
X78429989Y-42680024D01*
X78734484Y-42299127D01*
X78960208Y-42636948D01*
X79441857Y-42958775D01*
X80010000Y-43071786D01*
X80109712Y-43051952D01*
X80915000Y-43857239D01*
X80915000Y-45720000D01*
X81039457Y-46345687D01*
X81393880Y-46876120D01*
X81862415Y-47189184D01*
X81830590Y-47320984D01*
X82550000Y-48040395D01*
X82564142Y-48026252D01*
X82743748Y-48205858D01*
X82729605Y-48220000D01*
X83449016Y-48939410D01*
X83679611Y-48883729D01*
X83847622Y-48400922D01*
X83818083Y-47890572D01*
X83679611Y-47556271D01*
X83449018Y-47500590D01*
X83564478Y-47385130D01*
X83534348Y-47355000D01*
X85682760Y-47355000D01*
X100443878Y-62116117D01*
X100443880Y-62116120D01*
X100898716Y-62420031D01*
X100974313Y-62470543D01*
X101600000Y-62595001D01*
X101600005Y-62595000D01*
X111507386Y-62595000D01*
X111395000Y-63160002D01*
X111395000Y-63256953D01*
X111346655Y-63500000D01*
X111460729Y-64073489D01*
X111785585Y-64559670D01*
X111828670Y-64588459D01*
X111873880Y-64656120D01*
X112044314Y-64770000D01*
X111873880Y-64883880D01*
X111828670Y-64951541D01*
X111785585Y-64980330D01*
X111460729Y-65466511D01*
X111346655Y-66040000D01*
X111460729Y-66613489D01*
X111785585Y-67099670D01*
X111828670Y-67128459D01*
X111873880Y-67196120D01*
X112071086Y-67327889D01*
X111679268Y-67677964D01*
X111425291Y-68205209D01*
X111422642Y-68220974D01*
X111543783Y-68453000D01*
X112903000Y-68453000D01*
X112903000Y-68433000D01*
X113157000Y-68433000D01*
X113157000Y-68453000D01*
X114516217Y-68453000D01*
X114637358Y-68220974D01*
X114634709Y-68205209D01*
X114380732Y-67677964D01*
X114377415Y-67675000D01*
X116162760Y-67675000D01*
X119493878Y-71006117D01*
X119493880Y-71006120D01*
X123052761Y-74565000D01*
X113030000Y-74565000D01*
X112404313Y-74689457D01*
X111873880Y-75043880D01*
X111873878Y-75043883D01*
X109333880Y-77583880D01*
X108979457Y-78114312D01*
X108854999Y-78740000D01*
X108855000Y-78740005D01*
X108855000Y-81036953D01*
X108806655Y-81280000D01*
X108920729Y-81853489D01*
X109245585Y-82339670D01*
X109288670Y-82368459D01*
X109333880Y-82436120D01*
X109504314Y-82550000D01*
X109333880Y-82663880D01*
X109288670Y-82731541D01*
X109245585Y-82760330D01*
X108920729Y-83246511D01*
X108806655Y-83820000D01*
X108920729Y-84393489D01*
X109245585Y-84879670D01*
X109288670Y-84908459D01*
X109333880Y-84976120D01*
X109532340Y-85108726D01*
X109245585Y-85300330D01*
X108920729Y-85786511D01*
X108806655Y-86360000D01*
X108920729Y-86933489D01*
X109245585Y-87419670D01*
X109560366Y-87630000D01*
X109245585Y-87840330D01*
X108920729Y-88326511D01*
X108806655Y-88900000D01*
X108920729Y-89473489D01*
X109245585Y-89959670D01*
X109532340Y-90151274D01*
X109333880Y-90283880D01*
X109288670Y-90351541D01*
X109245585Y-90380330D01*
X108920729Y-90866511D01*
X108806655Y-91440000D01*
X108920729Y-92013489D01*
X109245585Y-92499670D01*
X109288670Y-92528459D01*
X109333880Y-92596120D01*
X109504314Y-92710000D01*
X109333880Y-92823880D01*
X109288670Y-92891541D01*
X109245585Y-92920330D01*
X108920729Y-93406511D01*
X108806655Y-93980000D01*
X108920729Y-94553489D01*
X109245585Y-95039670D01*
X109288670Y-95068459D01*
X109333880Y-95136120D01*
X109504314Y-95250000D01*
X109333880Y-95363880D01*
X109288670Y-95431541D01*
X109245585Y-95460330D01*
X108920729Y-95946511D01*
X108806655Y-96520000D01*
X108920729Y-97093489D01*
X109245585Y-97579670D01*
X109259913Y-97589243D01*
X109238683Y-97593238D01*
X109022559Y-97732310D01*
X108877569Y-97944510D01*
X108826560Y-98196400D01*
X108826560Y-99923600D01*
X108870838Y-100158917D01*
X109009910Y-100375041D01*
X109222110Y-100520031D01*
X109474000Y-100571040D01*
X111506000Y-100571040D01*
X111741317Y-100526762D01*
X111957441Y-100387690D01*
X112102431Y-100175490D01*
X112153440Y-99923600D01*
X112153440Y-98196400D01*
X112145650Y-98155000D01*
X120649995Y-98155000D01*
X120650000Y-98155001D01*
X121275688Y-98030543D01*
X121806120Y-97676120D01*
X123076117Y-96406122D01*
X123076120Y-96406120D01*
X123347797Y-95999526D01*
X123430543Y-95875688D01*
X123555000Y-95250000D01*
X123555000Y-93387240D01*
X124095000Y-92847240D01*
X124095000Y-100922761D01*
X121242760Y-103775000D01*
X107045000Y-103775000D01*
X107045000Y-76877240D01*
X109897239Y-74025000D01*
X111759995Y-74025000D01*
X111760000Y-74025001D01*
X112385688Y-73900543D01*
X112916120Y-73546120D01*
X114186119Y-72276120D01*
X114231328Y-72208460D01*
X114274415Y-72179670D01*
X114599271Y-71693489D01*
X114713345Y-71120000D01*
X114599271Y-70546511D01*
X114274415Y-70060330D01*
X114231327Y-70031540D01*
X114186119Y-69963881D01*
X113988913Y-69832112D01*
X114380732Y-69482036D01*
X114634709Y-68954791D01*
X114637358Y-68939026D01*
X114516217Y-68707000D01*
X113157000Y-68707000D01*
X113157000Y-68727000D01*
X112903000Y-68727000D01*
X112903000Y-68707000D01*
X111543783Y-68707000D01*
X111422642Y-68939026D01*
X111425291Y-68954791D01*
X111679268Y-69482036D01*
X112071087Y-69832111D01*
X111873880Y-69963881D01*
X111082760Y-70755000D01*
X109220005Y-70755000D01*
X109220000Y-70754999D01*
X108594313Y-70879457D01*
X108063880Y-71233880D01*
X108063878Y-71233883D01*
X104253880Y-75043880D01*
X103899457Y-75574312D01*
X103774999Y-76200000D01*
X103775000Y-76200005D01*
X103775000Y-105410000D01*
X103899457Y-106035687D01*
X104253880Y-106566120D01*
X104784313Y-106920543D01*
X105410000Y-107045000D01*
X121919995Y-107045000D01*
X121920000Y-107045001D01*
X122545688Y-106920543D01*
X123076120Y-106566120D01*
X126886117Y-102756122D01*
X126886120Y-102756120D01*
X127240543Y-102225687D01*
X127342348Y-101713881D01*
X127365001Y-101600000D01*
X127365000Y-101599995D01*
X127365000Y-93387240D01*
X129157445Y-91594794D01*
X129240729Y-92013489D01*
X129565585Y-92499670D01*
X129875069Y-92706461D01*
X129459268Y-93077964D01*
X129205291Y-93605209D01*
X129202642Y-93620974D01*
X129323783Y-93853000D01*
X130683000Y-93853000D01*
X130683000Y-93833000D01*
X130937000Y-93833000D01*
X130937000Y-93853000D01*
X132296217Y-93853000D01*
X132417358Y-93620974D01*
X132414709Y-93605209D01*
X132160732Y-93077964D01*
X131744931Y-92706461D01*
X132054415Y-92499670D01*
X132379271Y-92013489D01*
X132493345Y-91440000D01*
X132379271Y-90866511D01*
X132054415Y-90380330D01*
X131767660Y-90188726D01*
X131966120Y-90056120D01*
X132011330Y-89988459D01*
X132054415Y-89959670D01*
X132379271Y-89473489D01*
X132493345Y-88900000D01*
X132379271Y-88326511D01*
X132054415Y-87840330D01*
X132011330Y-87811541D01*
X131966120Y-87743880D01*
X131795686Y-87630000D01*
X131966120Y-87516120D01*
X132011330Y-87448459D01*
X132054415Y-87419670D01*
X132379271Y-86933489D01*
X132493345Y-86360000D01*
X132379271Y-85786511D01*
X132054415Y-85300330D01*
X132011330Y-85271541D01*
X131966120Y-85203880D01*
X131795686Y-85090000D01*
X131966120Y-84976120D01*
X132011330Y-84908459D01*
X132054415Y-84879670D01*
X132379271Y-84393489D01*
X132493345Y-83820000D01*
X132379271Y-83246511D01*
X132054415Y-82760330D01*
X132011330Y-82731541D01*
X131966120Y-82663880D01*
X131795686Y-82550000D01*
X131966120Y-82436120D01*
X132011330Y-82368459D01*
X132054415Y-82339670D01*
X132379271Y-81853489D01*
X132493345Y-81280000D01*
X132379271Y-80706511D01*
X132054415Y-80220330D01*
X132011330Y-80191541D01*
X131966120Y-80123880D01*
X131795686Y-80010000D01*
X131966120Y-79896120D01*
X132011330Y-79828459D01*
X132054415Y-79799670D01*
X132379271Y-79313489D01*
X132493345Y-78740000D01*
X132445000Y-78496953D01*
X132445000Y-78400007D01*
X132445001Y-78400002D01*
X132320543Y-77774314D01*
X132003617Y-77300001D01*
X132011330Y-77288459D01*
X132054415Y-77259670D01*
X132379271Y-76773489D01*
X132493345Y-76200000D01*
X132379271Y-75626511D01*
X132054415Y-75140330D01*
X132011330Y-75111541D01*
X131966120Y-75043880D01*
X131795686Y-74930000D01*
X131966120Y-74816120D01*
X132011330Y-74748459D01*
X132054415Y-74719670D01*
X132379271Y-74233489D01*
X132493345Y-73660000D01*
X132379271Y-73086511D01*
X132054415Y-72600330D01*
X132011330Y-72571541D01*
X131966120Y-72503880D01*
X131795686Y-72390000D01*
X131966120Y-72276120D01*
X132011330Y-72208459D01*
X132054415Y-72179670D01*
X132379271Y-71693489D01*
X132493345Y-71120000D01*
X132379271Y-70546511D01*
X132054415Y-70060330D01*
X132011330Y-70031541D01*
X131966120Y-69963880D01*
X131767660Y-69831274D01*
X132054415Y-69639670D01*
X132379271Y-69153489D01*
X132493345Y-68580000D01*
X132379271Y-68006511D01*
X132054415Y-67520330D01*
X131739634Y-67310000D01*
X132054415Y-67099670D01*
X132379271Y-66613489D01*
X132493345Y-66040000D01*
X132379271Y-65466511D01*
X132054415Y-64980330D01*
X131739634Y-64770000D01*
X132054415Y-64559670D01*
X132379271Y-64073489D01*
X132493345Y-63500000D01*
X132379271Y-62926511D01*
X132054415Y-62440330D01*
X132040087Y-62430757D01*
X132061317Y-62426762D01*
X132277441Y-62287690D01*
X132422431Y-62075490D01*
X132473440Y-61823600D01*
X132473440Y-60096400D01*
X132429162Y-59861083D01*
X132290090Y-59644959D01*
X132077890Y-59499969D01*
X131826000Y-59448960D01*
X129794000Y-59448960D01*
X129558683Y-59493238D01*
X129342559Y-59632310D01*
X129197569Y-59844510D01*
X129146560Y-60096400D01*
X129146560Y-61823600D01*
X129190838Y-62058917D01*
X129329910Y-62275041D01*
X129542110Y-62420031D01*
X129583439Y-62428400D01*
X129565585Y-62440330D01*
X129240729Y-62926511D01*
X129126655Y-63500000D01*
X129240729Y-64073489D01*
X129565585Y-64559670D01*
X129880366Y-64770000D01*
X129565585Y-64980330D01*
X129240729Y-65466511D01*
X129126655Y-66040000D01*
X129240729Y-66613489D01*
X129565585Y-67099670D01*
X129880366Y-67310000D01*
X129565585Y-67520330D01*
X129240729Y-68006511D01*
X129126655Y-68580000D01*
X129240729Y-69153489D01*
X129462238Y-69485000D01*
X128947240Y-69485000D01*
X124346120Y-64883880D01*
X123815688Y-64529457D01*
X123190000Y-64404999D01*
X123189995Y-64405000D01*
X122597239Y-64405000D01*
X120196122Y-62003882D01*
X119665690Y-61649459D01*
X119040002Y-61525001D01*
X119039997Y-61525002D01*
X114693440Y-61525002D01*
X114693440Y-60096400D01*
X114649162Y-59861083D01*
X114510090Y-59644959D01*
X114297890Y-59499969D01*
X114046000Y-59448960D01*
X113653188Y-59448960D01*
X113030000Y-59325000D01*
X102277239Y-59325000D01*
X90307240Y-47355000D01*
X122512760Y-47355000D01*
X134255000Y-59097239D01*
X134255000Y-102192761D01*
X133463880Y-102983880D01*
X133109457Y-103514312D01*
X132984999Y-104140000D01*
X132985000Y-104140005D01*
X132985000Y-104732761D01*
X132672760Y-105045000D01*
X132157762Y-105045000D01*
X132379271Y-104713489D01*
X132493345Y-104140000D01*
X132379271Y-103566511D01*
X132054415Y-103080330D01*
X131739634Y-102870000D01*
X132054415Y-102659670D01*
X132379271Y-102173489D01*
X132493345Y-101600000D01*
X132379271Y-101026511D01*
X132054415Y-100540330D01*
X131739634Y-100330000D01*
X132054415Y-100119670D01*
X132379271Y-99633489D01*
X132493345Y-99060000D01*
X132379271Y-98486511D01*
X132054415Y-98000330D01*
X131739634Y-97790000D01*
X132054415Y-97579670D01*
X132379271Y-97093489D01*
X132493345Y-96520000D01*
X132379271Y-95946511D01*
X132054415Y-95460330D01*
X131744931Y-95253539D01*
X132160732Y-94882036D01*
X132414709Y-94354791D01*
X132417358Y-94339026D01*
X132296217Y-94107000D01*
X130937000Y-94107000D01*
X130937000Y-94127000D01*
X130683000Y-94127000D01*
X130683000Y-94107000D01*
X129323783Y-94107000D01*
X129202642Y-94339026D01*
X129205291Y-94354791D01*
X129459268Y-94882036D01*
X129875069Y-95253539D01*
X129565585Y-95460330D01*
X129240729Y-95946511D01*
X129126655Y-96520000D01*
X129240729Y-97093489D01*
X129565585Y-97579670D01*
X129880366Y-97790000D01*
X129565585Y-98000330D01*
X129240729Y-98486511D01*
X129126655Y-99060000D01*
X129240729Y-99633489D01*
X129565585Y-100119670D01*
X129880366Y-100330000D01*
X129565585Y-100540330D01*
X129240729Y-101026511D01*
X129126655Y-101600000D01*
X129240729Y-102173489D01*
X129565585Y-102659670D01*
X129880366Y-102870000D01*
X129565585Y-103080330D01*
X129240729Y-103566511D01*
X129126655Y-104140000D01*
X129240729Y-104713489D01*
X129565585Y-105199670D01*
X129852340Y-105391274D01*
X129653880Y-105523880D01*
X129608670Y-105591541D01*
X129565585Y-105620330D01*
X129240729Y-106106511D01*
X129126655Y-106680000D01*
X129240729Y-107253489D01*
X129565585Y-107739670D01*
X129608670Y-107768459D01*
X129653880Y-107836120D01*
X130184313Y-108190543D01*
X130810000Y-108315000D01*
X133349995Y-108315000D01*
X133350000Y-108315001D01*
X133975688Y-108190543D01*
X134506120Y-107836120D01*
X135776117Y-106566122D01*
X135776120Y-106566120D01*
X136083220Y-106106511D01*
X136130543Y-106035688D01*
X136255000Y-105410000D01*
X136255000Y-104817240D01*
X137046117Y-104026122D01*
X137046120Y-104026120D01*
X137317797Y-103619526D01*
X137400543Y-103495688D01*
X137525000Y-102870000D01*
X137525000Y-59970090D01*
X152019000Y-59970090D01*
X152019000Y-60674250D01*
X152177750Y-60833000D01*
X153543000Y-60833000D01*
X153543000Y-59620150D01*
X153797000Y-59620150D01*
X153797000Y-60833000D01*
X155162250Y-60833000D01*
X155321000Y-60674250D01*
X155321000Y-59970090D01*
X155224327Y-59736701D01*
X155045698Y-59558073D01*
X154812309Y-59461400D01*
X153955750Y-59461400D01*
X153797000Y-59620150D01*
X153543000Y-59620150D01*
X153384250Y-59461400D01*
X152527691Y-59461400D01*
X152294302Y-59558073D01*
X152115673Y-59736701D01*
X152019000Y-59970090D01*
X137525000Y-59970090D01*
X137525000Y-58420000D01*
X137502348Y-58306120D01*
X137400543Y-57794312D01*
X137213913Y-57515001D01*
X137046120Y-57263880D01*
X137046117Y-57263878D01*
X124346120Y-44563880D01*
X123815688Y-44209457D01*
X123190000Y-44084999D01*
X123189995Y-44085000D01*
X86360005Y-44085000D01*
X86360000Y-44084999D01*
X86359995Y-44085000D01*
X84185000Y-44085000D01*
X84185000Y-43180000D01*
X84060543Y-42554313D01*
X83706120Y-42023880D01*
X83706117Y-42023878D01*
X81494630Y-39812390D01*
X81494630Y-39692844D01*
X81381619Y-39124701D01*
X81059792Y-38643052D01*
X80578143Y-38321225D01*
X80010000Y-38208214D01*
X79441857Y-38321225D01*
X78960208Y-38643052D01*
X78734484Y-38980873D01*
X78429989Y-38599976D01*
X77920810Y-38319351D01*
X77826832Y-38298460D01*
X77597000Y-38419786D01*
X77343000Y-38419786D01*
X77113168Y-38298460D01*
X77019190Y-38319351D01*
X76510011Y-38599976D01*
X76205516Y-38980873D01*
X75979792Y-38643052D01*
X75498143Y-38321225D01*
X74930000Y-38208214D01*
X74830288Y-38228048D01*
X73027240Y-36425000D01*
X128655654Y-36425000D01*
X145810327Y-53579673D01*
X146502971Y-54042483D01*
X147320000Y-54205000D01*
X160405654Y-54205000D01*
X182543391Y-76342737D01*
X182639457Y-76825688D01*
X182650000Y-76841467D01*
X182650000Y-82550000D01*
X182812517Y-83367029D01*
X183150000Y-83872108D01*
X183150000Y-85990959D01*
X183121560Y-86131400D01*
X183121560Y-87858600D01*
X183165838Y-88093917D01*
X183304910Y-88310041D01*
X183517110Y-88455031D01*
X183611927Y-88474232D01*
X183434268Y-88632964D01*
X183180291Y-89160209D01*
X183177642Y-89175974D01*
X183298783Y-89408000D01*
X184658000Y-89408000D01*
X184658000Y-89388000D01*
X184912000Y-89388000D01*
X184912000Y-89408000D01*
X184932000Y-89408000D01*
X184932000Y-89662000D01*
X184912000Y-89662000D01*
X184912000Y-89682000D01*
X184658000Y-89682000D01*
X184658000Y-89662000D01*
X183298783Y-89662000D01*
X183177642Y-89894026D01*
X183180291Y-89909791D01*
X183434268Y-90437036D01*
X183826086Y-90787111D01*
X183628880Y-90918880D01*
X183583670Y-90986541D01*
X183540585Y-91015330D01*
X183215729Y-91501511D01*
X183101655Y-92075000D01*
X183215729Y-92648489D01*
X183540585Y-93134670D01*
X183583670Y-93163459D01*
X183628880Y-93231120D01*
X183799314Y-93345000D01*
X183628880Y-93458880D01*
X183583670Y-93526541D01*
X183540585Y-93555330D01*
X183215729Y-94041511D01*
X183101655Y-94615000D01*
X183215729Y-95188489D01*
X183540585Y-95674670D01*
X183583670Y-95703459D01*
X183628880Y-95771120D01*
X183799314Y-95885000D01*
X183628880Y-95998880D01*
X183583670Y-96066541D01*
X183540585Y-96095330D01*
X183215729Y-96581511D01*
X183101655Y-97155000D01*
X183215729Y-97728489D01*
X183540585Y-98214670D01*
X183583670Y-98243459D01*
X183628880Y-98311120D01*
X183799314Y-98425000D01*
X183628880Y-98538880D01*
X183583670Y-98606541D01*
X183540585Y-98635330D01*
X183215729Y-99121511D01*
X183101655Y-99695000D01*
X183215729Y-100268489D01*
X183540585Y-100754670D01*
X183583670Y-100783459D01*
X183628880Y-100851120D01*
X183827340Y-100983726D01*
X183540585Y-101175330D01*
X183215729Y-101661511D01*
X183101655Y-102235000D01*
X183215729Y-102808489D01*
X183540585Y-103294670D01*
X183850069Y-103501461D01*
X183434268Y-103872964D01*
X183180291Y-104400209D01*
X183177642Y-104415974D01*
X183298783Y-104648000D01*
X184658000Y-104648000D01*
X184658000Y-104628000D01*
X184912000Y-104628000D01*
X184912000Y-104648000D01*
X186271217Y-104648000D01*
X186392358Y-104415974D01*
X186389709Y-104400209D01*
X186135732Y-103872964D01*
X185719931Y-103501461D01*
X186029415Y-103294670D01*
X186354271Y-102808489D01*
X186437555Y-102389794D01*
X188299938Y-104252177D01*
X188299940Y-104252180D01*
X188521482Y-104400209D01*
X188830372Y-104606603D01*
X189456060Y-104731060D01*
X193830931Y-104731060D01*
X194335830Y-105068423D01*
X195152809Y-105230930D01*
X197277191Y-105230930D01*
X198094170Y-105068423D01*
X198786772Y-104605641D01*
X199249554Y-103913039D01*
X199412061Y-103096060D01*
X199249554Y-102279081D01*
X198786772Y-101586479D01*
X198094170Y-101123697D01*
X198056128Y-101116130D01*
X198094170Y-101108563D01*
X198786772Y-100645781D01*
X199249554Y-99953179D01*
X199412061Y-99136200D01*
X199249554Y-98319221D01*
X198786772Y-97626619D01*
X198094170Y-97163837D01*
X198049743Y-97155000D01*
X198094170Y-97146163D01*
X198786772Y-96683381D01*
X199249554Y-95990779D01*
X199412061Y-95173800D01*
X199249554Y-94356821D01*
X198786772Y-93664219D01*
X198094170Y-93201437D01*
X198056128Y-93193870D01*
X198094170Y-93186303D01*
X198786772Y-92723521D01*
X199249554Y-92030919D01*
X199412061Y-91213940D01*
X199249554Y-90396961D01*
X198786772Y-89704359D01*
X198094170Y-89241577D01*
X197779172Y-89178920D01*
X197725543Y-88909313D01*
X197643228Y-88786120D01*
X197371120Y-88378880D01*
X197371117Y-88378878D01*
X196736120Y-87743880D01*
X196205688Y-87389457D01*
X195580000Y-87264999D01*
X195579995Y-87265000D01*
X189230005Y-87265000D01*
X189230000Y-87264999D01*
X188604312Y-87389457D01*
X188073880Y-87743880D01*
X186409762Y-89407998D01*
X186271218Y-89407998D01*
X186392358Y-89175974D01*
X186389709Y-89160209D01*
X186135732Y-88632964D01*
X185960155Y-88476093D01*
X186036317Y-88461762D01*
X186252441Y-88322690D01*
X186397431Y-88110490D01*
X186448440Y-87858600D01*
X186448440Y-86131400D01*
X186420000Y-85980255D01*
X186420000Y-83872108D01*
X186757483Y-83367029D01*
X186920000Y-82550000D01*
X186920000Y-75565000D01*
X186757483Y-74747971D01*
X186294673Y-74055327D01*
X162799673Y-50560327D01*
X162107029Y-50097517D01*
X161290000Y-49935000D01*
X148204346Y-49935000D01*
X131049673Y-32780327D01*
X130357029Y-32317517D01*
X129540000Y-32155000D01*
X44450000Y-32155000D01*
X43632970Y-32317517D01*
X42940327Y-32780327D01*
X41670327Y-34050327D01*
X41207517Y-34742971D01*
X41045000Y-35560000D01*
X41045000Y-51785560D01*
X40640000Y-51705000D01*
X38100000Y-51705000D01*
X37474313Y-51829457D01*
X36943880Y-52183880D01*
X36589457Y-52714313D01*
X36465000Y-53340000D01*
X35925000Y-53340000D01*
X35925000Y-50800000D01*
X35800543Y-50174313D01*
X35794320Y-50165000D01*
X35800543Y-50155687D01*
X35925000Y-49530000D01*
X35925000Y-48374346D01*
X37069673Y-47229673D01*
X37532483Y-46537029D01*
X37695000Y-45720000D01*
X37695000Y-38100000D01*
X37532483Y-37282971D01*
X37069673Y-36590327D01*
X33259673Y-32780327D01*
X32567029Y-32317517D01*
X31750000Y-32155000D01*
X31317082Y-32155000D01*
X31274290Y-32088499D01*
X31062090Y-31943509D01*
X30810200Y-31892500D01*
X27310080Y-31892500D01*
X27074763Y-31936778D01*
X26858639Y-32075850D01*
X26713649Y-32288050D01*
X26662640Y-32539940D01*
X26662640Y-36040060D01*
X26706918Y-36275377D01*
X26845990Y-36491501D01*
X27010550Y-36603940D01*
X26346150Y-36603940D01*
X26187400Y-36762690D01*
X25933400Y-36762690D01*
X25774650Y-36603940D01*
X25108728Y-36603940D01*
X25170418Y-36578387D01*
X25349047Y-36399759D01*
X25445720Y-36166370D01*
X25445720Y-34575750D01*
X25286970Y-34417000D01*
X23187660Y-34417000D01*
X22933660Y-34417000D01*
X22913660Y-34417000D01*
X22913660Y-34163000D01*
X22933660Y-34163000D01*
X22933660Y-32063690D01*
X23187660Y-32063690D01*
X23187660Y-34163000D01*
X25286970Y-34163000D01*
X25445720Y-34004250D01*
X25445720Y-32413630D01*
X25349047Y-32180241D01*
X25170418Y-32001613D01*
X24937029Y-31904940D01*
X23346410Y-31904940D01*
X23187660Y-32063690D01*
X22933660Y-32063690D01*
X22774910Y-31904940D01*
X21184291Y-31904940D01*
X21030000Y-31968849D01*
X21030000Y-28650000D01*
X221540000Y-28650000D01*
X221540000Y-146610000D01*
M02*
