G04 #@! TF.FileFunction,Copper,L1,Top,Signal*
%FSLAX46Y46*%
G04 Gerber Fmt 4.6, Leading zero omitted, Abs format (unit mm)*
G04 Created by KiCad (PCBNEW 4.0.2+dfsg1-stable) date mar 04 jul 2017 13:38:56 COT*
%MOMM*%
G01*
G04 APERTURE LIST*
%ADD10C,0.100000*%
%ADD11O,1.699260X3.500120*%
%ADD12R,1.300000X1.300000*%
%ADD13C,1.300000*%
%ADD14R,3.500120X3.500120*%
%ADD15R,2.032000X1.727200*%
%ADD16O,2.032000X1.727200*%
%ADD17O,5.001260X2.999740*%
%ADD18R,1.727200X2.032000*%
%ADD19O,1.727200X2.032000*%
%ADD20O,1.800860X3.500120*%
%ADD21C,2.540000*%
G04 APERTURE END LIST*
D10*
D11*
X54610000Y-40640000D03*
X52070000Y-40640000D03*
X57150000Y-40640000D03*
D12*
X72390000Y-45720000D03*
D13*
X72390000Y-48220000D03*
D12*
X82550000Y-45720000D03*
D13*
X82550000Y-48220000D03*
D12*
X49530000Y-45720000D03*
D13*
X49530000Y-48220000D03*
D12*
X59690000Y-45720000D03*
D13*
X59690000Y-48220000D03*
D14*
X29060140Y-34290000D03*
X23060660Y-34290000D03*
X26060400Y-38989000D03*
D15*
X130810000Y-60960000D03*
D16*
X130810000Y-63500000D03*
X130810000Y-66040000D03*
X130810000Y-68580000D03*
X130810000Y-71120000D03*
X130810000Y-73660000D03*
X130810000Y-76200000D03*
X130810000Y-78740000D03*
X130810000Y-81280000D03*
X130810000Y-83820000D03*
X130810000Y-86360000D03*
X130810000Y-88900000D03*
X130810000Y-91440000D03*
X130810000Y-93980000D03*
X130810000Y-96520000D03*
X130810000Y-99060000D03*
X130810000Y-101600000D03*
X130810000Y-104140000D03*
X130810000Y-106680000D03*
D15*
X153670000Y-60960000D03*
D16*
X153670000Y-63500000D03*
X153670000Y-66040000D03*
X153670000Y-68580000D03*
X153670000Y-71120000D03*
X153670000Y-73660000D03*
X153670000Y-76200000D03*
X153670000Y-78740000D03*
X153670000Y-81280000D03*
X153670000Y-83820000D03*
X153670000Y-86360000D03*
X153670000Y-88900000D03*
X153670000Y-91440000D03*
X153670000Y-93980000D03*
X153670000Y-96520000D03*
X153670000Y-99060000D03*
X153670000Y-101600000D03*
X153670000Y-104140000D03*
X153670000Y-106680000D03*
D15*
X172085000Y-86995000D03*
D16*
X172085000Y-89535000D03*
X172085000Y-92075000D03*
X172085000Y-94615000D03*
X172085000Y-97155000D03*
X172085000Y-99695000D03*
X172085000Y-102235000D03*
X172085000Y-104775000D03*
D15*
X184785000Y-86995000D03*
D16*
X184785000Y-89535000D03*
X184785000Y-92075000D03*
X184785000Y-94615000D03*
X184785000Y-97155000D03*
X184785000Y-99695000D03*
X184785000Y-102235000D03*
X184785000Y-104775000D03*
D15*
X110490000Y-99060000D03*
D16*
X110490000Y-96520000D03*
X110490000Y-93980000D03*
X110490000Y-91440000D03*
X110490000Y-88900000D03*
X110490000Y-86360000D03*
X110490000Y-83820000D03*
X110490000Y-81280000D03*
D15*
X97790000Y-99060000D03*
D16*
X97790000Y-96520000D03*
X97790000Y-93980000D03*
X97790000Y-91440000D03*
X97790000Y-88900000D03*
X97790000Y-86360000D03*
X97790000Y-83820000D03*
X97790000Y-81280000D03*
D17*
X196215000Y-95173800D03*
X196215000Y-99136200D03*
X196215000Y-91213940D03*
X196215000Y-103096060D03*
X88900000Y-90881200D03*
X88900000Y-86918800D03*
X88900000Y-94841060D03*
X88900000Y-82958940D03*
D18*
X130810000Y-120650000D03*
D19*
X133350000Y-120650000D03*
X135890000Y-120650000D03*
X138430000Y-120650000D03*
X140970000Y-120650000D03*
X143510000Y-120650000D03*
X146050000Y-120650000D03*
X148590000Y-120650000D03*
X151130000Y-120650000D03*
X153670000Y-120650000D03*
D20*
X146050000Y-133350000D03*
X148590000Y-133350000D03*
X151130000Y-133350000D03*
X153670000Y-133350000D03*
D11*
X77470000Y-40640000D03*
X74930000Y-40640000D03*
X80010000Y-40640000D03*
D15*
X113030000Y-60960000D03*
D16*
X113030000Y-63500000D03*
X113030000Y-66040000D03*
X113030000Y-68580000D03*
X113030000Y-71120000D03*
D21*
X30480000Y-50800000D03*
X40640000Y-55880000D03*
M02*
