<?xml version="1.0" standalone="no"?>
 <!DOCTYPE svg PUBLIC "-//W3C//DTD SVG 1.1//EN" 
 "http://www.w3.org/Graphics/SVG/1.1/DTD/svg11.dtd"> 
<svg xmlns="http://www.w3.org/2000/svg" version="1.1" 
    width="29.7002cm" height="21.0007cm" viewBox="0 0 116930 82680 ">
<title>SVG Picture created as Telescopio-F.Cu.svg date 2017/07/04 13:39:04 </title>
  <desc>Picture generated by PCBNEW </desc>
<g style="fill:#000000; fill-opacity:1;stroke:#000000; stroke-opacity:1;
stroke-linecap:round; stroke-linejoin:round; "
 transform="translate(0 0) scale(1 1)">
</g>
<g style="fill:#000000; fill-opacity:0.0; 
stroke:#000000; stroke-width:-0.000393701; stroke-opacity:1; 
stroke-linecap:round; stroke-linejoin:round;">
</g>
<g style="fill:#000000; fill-opacity:0.0; 
stroke:#000000; stroke-width:669; stroke-opacity:1; 
stroke-linecap:round; stroke-linejoin:round;">
<path d="M21500 16354
L21500 15645
" />
<path d="M20500 16354
L20500 15645
" />
<path d="M22500 16354
L22500 15645
" />
</g>
<g style="fill:#000000; fill-opacity:0.0; 
stroke:#000000; stroke-width:0; stroke-opacity:1; 
stroke-linecap:round; stroke-linejoin:round;">
</g>
<g style="fill:#000000; fill-opacity:1.0; 
stroke:#000000; stroke-width:0; stroke-opacity:1; 
stroke-linecap:round; stroke-linejoin:round;">
<polyline style="fill-rule:evenodd;"
points="28244,17744
28755,17744
28755,18255
28244,18255
28244,17744
" /> 
<circle cx="28500" cy="18984.3" r="255.906" /> 
</g>
<g style="fill:#000000; fill-opacity:1.0; 
stroke:#000000; stroke-width:39.3701; stroke-opacity:1; 
stroke-linecap:round; stroke-linejoin:round;">
</g>
<g style="fill:#000000; fill-opacity:1.0; 
stroke:#000000; stroke-width:0; stroke-opacity:1; 
stroke-linecap:round; stroke-linejoin:round;">
<polyline style="fill-rule:evenodd;"
points="32244,17744
32755,17744
32755,18255
32244,18255
32244,17744
" /> 
<circle cx="32500" cy="18984.3" r="255.906" /> 
</g>
<g style="fill:#000000; fill-opacity:1.0; 
stroke:#000000; stroke-width:39.3701; stroke-opacity:1; 
stroke-linecap:round; stroke-linejoin:round;">
</g>
<g style="fill:#000000; fill-opacity:1.0; 
stroke:#000000; stroke-width:0; stroke-opacity:1; 
stroke-linecap:round; stroke-linejoin:round;">
<polyline style="fill-rule:evenodd;"
points="19244,17744
19755,17744
19755,18255
19244,18255
19244,17744
" /> 
<circle cx="19500" cy="18984.3" r="255.906" /> 
</g>
<g style="fill:#000000; fill-opacity:1.0; 
stroke:#000000; stroke-width:39.3701; stroke-opacity:1; 
stroke-linecap:round; stroke-linejoin:round;">
</g>
<g style="fill:#000000; fill-opacity:1.0; 
stroke:#000000; stroke-width:0; stroke-opacity:1; 
stroke-linecap:round; stroke-linejoin:round;">
<polyline style="fill-rule:evenodd;"
points="23244,17744
23755,17744
23755,18255
23244,18255
23244,17744
" /> 
<circle cx="23500" cy="18984.3" r="255.906" /> 
</g>
<g style="fill:#000000; fill-opacity:1.0; 
stroke:#000000; stroke-width:39.3701; stroke-opacity:1; 
stroke-linecap:round; stroke-linejoin:round;">
</g>
<g style="fill:#000000; fill-opacity:1.0; 
stroke:#000000; stroke-width:0; stroke-opacity:1; 
stroke-linecap:round; stroke-linejoin:round;">
<polyline style="fill-rule:evenodd;"
points="10752,14189
10752,12811
12130,12811
12130,14189
10752,14189
" /> 
<polyline style="fill-rule:evenodd;"
points="8390,14189
8390,12811
9768,12811
9768,14189
8390,14189
" /> 
<polyline style="fill-rule:evenodd;"
points="9571,16039
9571,14661
10949,14661
10949,16039
9571,16039
" /> 
<polyline style="fill-rule:evenodd;"
points="51100,24340
51100,23660
51900,23660
51900,24340
51100,24340
" /> 
</g>
<g style="fill:#000000; fill-opacity:1.0; 
stroke:#000000; stroke-width:680; stroke-opacity:1; 
stroke-linecap:round; stroke-linejoin:round;">
</g>
<g style="fill:#000000; fill-opacity:0.0; 
stroke:#000000; stroke-width:680; stroke-opacity:1; 
stroke-linecap:round; stroke-linejoin:round;">
<path d="M51440 25000
L51560 25000
" />
<path d="M51440 26000
L51560 26000
" />
<path d="M51440 27000
L51560 27000
" />
<path d="M51440 28000
L51560 28000
" />
<path d="M51440 29000
L51560 29000
" />
<path d="M51440 30000
L51560 30000
" />
<path d="M51440 31000
L51560 31000
" />
<path d="M51440 32000
L51560 32000
" />
<path d="M51440 33000
L51560 33000
" />
<path d="M51440 34000
L51560 34000
" />
<path d="M51440 35000
L51560 35000
" />
<path d="M51440 36000
L51560 36000
" />
<path d="M51440 37000
L51560 37000
" />
<path d="M51440 38000
L51560 38000
" />
<path d="M51440 39000
L51560 39000
" />
<path d="M51440 40000
L51560 40000
" />
<path d="M51440 41000
L51560 41000
" />
<path d="M51440 42000
L51560 42000
" />
</g>
<g style="fill:#000000; fill-opacity:0.0; 
stroke:#000000; stroke-width:0; stroke-opacity:1; 
stroke-linecap:round; stroke-linejoin:round;">
</g>
<g style="fill:#000000; fill-opacity:1.0; 
stroke:#000000; stroke-width:0; stroke-opacity:1; 
stroke-linecap:round; stroke-linejoin:round;">
<polyline style="fill-rule:evenodd;"
points="60100,24340
60100,23660
60900,23660
60900,24340
60100,24340
" /> 
</g>
<g style="fill:#000000; fill-opacity:1.0; 
stroke:#000000; stroke-width:680; stroke-opacity:1; 
stroke-linecap:round; stroke-linejoin:round;">
</g>
<g style="fill:#000000; fill-opacity:0.0; 
stroke:#000000; stroke-width:680; stroke-opacity:1; 
stroke-linecap:round; stroke-linejoin:round;">
<path d="M60440 25000
L60560 25000
" />
<path d="M60440 26000
L60560 26000
" />
<path d="M60440 27000
L60560 27000
" />
<path d="M60440 28000
L60560 28000
" />
<path d="M60440 29000
L60560 29000
" />
<path d="M60440 30000
L60560 30000
" />
<path d="M60440 31000
L60560 31000
" />
<path d="M60440 32000
L60560 32000
" />
<path d="M60440 33000
L60560 33000
" />
<path d="M60440 34000
L60560 34000
" />
<path d="M60440 35000
L60560 35000
" />
<path d="M60440 36000
L60560 36000
" />
<path d="M60440 37000
L60560 37000
" />
<path d="M60440 38000
L60560 38000
" />
<path d="M60440 39000
L60560 39000
" />
<path d="M60440 40000
L60560 40000
" />
<path d="M60440 41000
L60560 41000
" />
<path d="M60440 42000
L60560 42000
" />
</g>
<g style="fill:#000000; fill-opacity:0.0; 
stroke:#000000; stroke-width:0; stroke-opacity:1; 
stroke-linecap:round; stroke-linejoin:round;">
</g>
<g style="fill:#000000; fill-opacity:1.0; 
stroke:#000000; stroke-width:0; stroke-opacity:1; 
stroke-linecap:round; stroke-linejoin:round;">
<polyline style="fill-rule:evenodd;"
points="67350,34590
67350,33910
68150,33910
68150,34590
67350,34590
" /> 
</g>
<g style="fill:#000000; fill-opacity:1.0; 
stroke:#000000; stroke-width:680; stroke-opacity:1; 
stroke-linecap:round; stroke-linejoin:round;">
</g>
<g style="fill:#000000; fill-opacity:0.0; 
stroke:#000000; stroke-width:680; stroke-opacity:1; 
stroke-linecap:round; stroke-linejoin:round;">
<path d="M67690 35250
L67810 35250
" />
<path d="M67690 36250
L67810 36250
" />
<path d="M67690 37250
L67810 37250
" />
<path d="M67690 38250
L67810 38250
" />
<path d="M67690 39250
L67810 39250
" />
<path d="M67690 40250
L67810 40250
" />
<path d="M67690 41250
L67810 41250
" />
</g>
<g style="fill:#000000; fill-opacity:0.0; 
stroke:#000000; stroke-width:0; stroke-opacity:1; 
stroke-linecap:round; stroke-linejoin:round;">
</g>
<g style="fill:#000000; fill-opacity:1.0; 
stroke:#000000; stroke-width:0; stroke-opacity:1; 
stroke-linecap:round; stroke-linejoin:round;">
<polyline style="fill-rule:evenodd;"
points="72350,34590
72350,33910
73150,33910
73150,34590
72350,34590
" /> 
</g>
<g style="fill:#000000; fill-opacity:1.0; 
stroke:#000000; stroke-width:680; stroke-opacity:1; 
stroke-linecap:round; stroke-linejoin:round;">
</g>
<g style="fill:#000000; fill-opacity:0.0; 
stroke:#000000; stroke-width:680; stroke-opacity:1; 
stroke-linecap:round; stroke-linejoin:round;">
<path d="M72690 35250
L72810 35250
" />
<path d="M72690 36250
L72810 36250
" />
<path d="M72690 37250
L72810 37250
" />
<path d="M72690 38250
L72810 38250
" />
<path d="M72690 39250
L72810 39250
" />
<path d="M72690 40250
L72810 40250
" />
<path d="M72690 41250
L72810 41250
" />
</g>
<g style="fill:#000000; fill-opacity:0.0; 
stroke:#000000; stroke-width:0; stroke-opacity:1; 
stroke-linecap:round; stroke-linejoin:round;">
</g>
<g style="fill:#000000; fill-opacity:1.0; 
stroke:#000000; stroke-width:0; stroke-opacity:1; 
stroke-linecap:round; stroke-linejoin:round;">
<polyline style="fill-rule:evenodd;"
points="43900,38660
43900,39340
43100,39340
43100,38660
43900,38660
" /> 
</g>
<g style="fill:#000000; fill-opacity:1.0; 
stroke:#000000; stroke-width:680; stroke-opacity:1; 
stroke-linecap:round; stroke-linejoin:round;">
</g>
<g style="fill:#000000; fill-opacity:0.0; 
stroke:#000000; stroke-width:680; stroke-opacity:1; 
stroke-linecap:round; stroke-linejoin:round;">
<path d="M43560 38000
L43440 38000
" />
<path d="M43560 37000
L43440 37000
" />
<path d="M43560 36000
L43440 36000
" />
<path d="M43560 35000
L43440 35000
" />
<path d="M43560 34000
L43440 34000
" />
<path d="M43560 33000
L43440 33000
" />
<path d="M43560 32000
L43440 32000
" />
</g>
<g style="fill:#000000; fill-opacity:0.0; 
stroke:#000000; stroke-width:0; stroke-opacity:1; 
stroke-linecap:round; stroke-linejoin:round;">
</g>
<g style="fill:#000000; fill-opacity:1.0; 
stroke:#000000; stroke-width:0; stroke-opacity:1; 
stroke-linecap:round; stroke-linejoin:round;">
<polyline style="fill-rule:evenodd;"
points="38900,38660
38900,39340
38100,39340
38100,38660
38900,38660
" /> 
</g>
<g style="fill:#000000; fill-opacity:1.0; 
stroke:#000000; stroke-width:680; stroke-opacity:1; 
stroke-linecap:round; stroke-linejoin:round;">
</g>
<g style="fill:#000000; fill-opacity:0.0; 
stroke:#000000; stroke-width:680; stroke-opacity:1; 
stroke-linecap:round; stroke-linejoin:round;">
<path d="M38560 38000
L38440 38000
" />
<path d="M38560 37000
L38440 37000
" />
<path d="M38560 36000
L38440 36000
" />
<path d="M38560 35000
L38440 35000
" />
<path d="M38560 34000
L38440 34000
" />
<path d="M38560 33000
L38440 33000
" />
<path d="M38560 32000
L38440 32000
" />
</g>
<g style="fill:#000000; fill-opacity:0.0; 
stroke:#000000; stroke-width:1181; stroke-opacity:1; 
stroke-linecap:round; stroke-linejoin:round;">
<path d="M77644 37470
L76856 37470
" />
<path d="M77644 39030
L76856 39030
" />
<path d="M77644 35911
L76856 35911
" />
<path d="M77644 40589
L76856 40589
" />
<path d="M34606 35780
L35394 35780
" />
<path d="M34606 34220
L35394 34220
" />
<path d="M34606 37339
L35394 37339
" />
<path d="M34606 32661
L35394 32661
" />
</g>
<g style="fill:#000000; fill-opacity:0.0; 
stroke:#000000; stroke-width:0; stroke-opacity:1; 
stroke-linecap:round; stroke-linejoin:round;">
</g>
<g style="fill:#000000; fill-opacity:1.0; 
stroke:#000000; stroke-width:0; stroke-opacity:1; 
stroke-linecap:round; stroke-linejoin:round;">
<polyline style="fill-rule:evenodd;"
points="51840,47900
51160,47900
51160,47100
51840,47100
51840,47900
" /> 
</g>
<g style="fill:#000000; fill-opacity:1.0; 
stroke:#000000; stroke-width:680; stroke-opacity:1; 
stroke-linecap:round; stroke-linejoin:round;">
</g>
<g style="fill:#000000; fill-opacity:0.0; 
stroke:#000000; stroke-width:680; stroke-opacity:1; 
stroke-linecap:round; stroke-linejoin:round;">
<path d="M52500 47560
L52500 47440
" />
<path d="M53500 47560
L53500 47440
" />
<path d="M54500 47560
L54500 47440
" />
<path d="M55500 47560
L55500 47440
" />
<path d="M56500 47560
L56500 47440
" />
<path d="M57500 47560
L57500 47440
" />
<path d="M58500 47560
L58500 47440
" />
<path d="M59500 47560
L59500 47440
" />
<path d="M60500 47560
L60500 47440
" />
</g>
<g style="fill:#000000; fill-opacity:0.0; 
stroke:#000000; stroke-width:709; stroke-opacity:1; 
stroke-linecap:round; stroke-linejoin:round;">
<path d="M57500 52165
L57500 52834
" />
<path d="M58500 52165
L58500 52834
" />
<path d="M59500 52165
L59500 52834
" />
<path d="M60500 52165
L60500 52834
" />
</g>
<g style="fill:#000000; fill-opacity:0.0; 
stroke:#000000; stroke-width:669; stroke-opacity:1; 
stroke-linecap:round; stroke-linejoin:round;">
<path d="M30500 16354
L30500 15645
" />
<path d="M29500 16354
L29500 15645
" />
<path d="M31500 16354
L31500 15645
" />
</g>
<g style="fill:#000000; fill-opacity:0.0; 
stroke:#000000; stroke-width:0; stroke-opacity:1; 
stroke-linecap:round; stroke-linejoin:round;">
</g>
<g style="fill:#000000; fill-opacity:1.0; 
stroke:#000000; stroke-width:0; stroke-opacity:1; 
stroke-linecap:round; stroke-linejoin:round;">
<polyline style="fill-rule:evenodd;"
points="44100,24340
44100,23660
44900,23660
44900,24340
44100,24340
" /> 
</g>
<g style="fill:#000000; fill-opacity:1.0; 
stroke:#000000; stroke-width:680; stroke-opacity:1; 
stroke-linecap:round; stroke-linejoin:round;">
</g>
<g style="fill:#000000; fill-opacity:0.0; 
stroke:#000000; stroke-width:680; stroke-opacity:1; 
stroke-linecap:round; stroke-linejoin:round;">
<path d="M44440 25000
L44560 25000
" />
<path d="M44440 26000
L44560 26000
" />
<path d="M44440 27000
L44560 27000
" />
<path d="M44440 28000
L44560 28000
" />
</g>
<g style="fill:#000000; fill-opacity:1.0; 
stroke:#000000; stroke-width:0; stroke-opacity:1; 
stroke-linecap:round; stroke-linejoin:round;">
<circle cx="12000" cy="20000" r="500" /> 
</g>
<g style="fill:#000000; fill-opacity:1.0; 
stroke:#000000; stroke-width:39.3701; stroke-opacity:1; 
stroke-linecap:round; stroke-linejoin:round;">
</g>
<g style="fill:#000000; fill-opacity:1.0; 
stroke:#000000; stroke-width:0; stroke-opacity:1; 
stroke-linecap:round; stroke-linejoin:round;">
<circle cx="16000" cy="22000" r="500" /> 
</g>
<g style="fill:#000000; fill-opacity:1.0; 
stroke:#000000; stroke-width:39.3701; stroke-opacity:1; 
stroke-linecap:round; stroke-linejoin:round;">
</g> 
</svg>
