G04 #@! TF.FileFunction,Legend,Top*
%FSLAX46Y46*%
G04 Gerber Fmt 4.6, Leading zero omitted, Abs format (unit mm)*
G04 Created by KiCad (PCBNEW 4.0.2+dfsg1-stable) date mar 04 jul 2017 13:38:56 COT*
%MOMM*%
G01*
G04 APERTURE LIST*
%ADD10C,0.100000*%
%ADD11C,0.200000*%
%ADD12C,0.150000*%
G04 APERTURE END LIST*
D10*
D11*
X222250000Y-27940000D02*
X220980000Y-27940000D01*
X222250000Y-147320000D02*
X222250000Y-27940000D01*
X215900000Y-147320000D02*
X222250000Y-147320000D01*
X20320000Y-147320000D02*
X215900000Y-147320000D01*
X20320000Y-137160000D02*
X20320000Y-147320000D01*
X20320000Y-27940000D02*
X20320000Y-137160000D01*
X220980000Y-27940000D02*
X20320000Y-27940000D01*
X128270000Y-107950000D02*
X128270000Y-59690000D01*
X156210000Y-107950000D02*
X128270000Y-107950000D01*
X156210000Y-59690000D02*
X156210000Y-107950000D01*
X128270000Y-59690000D02*
X156210000Y-59690000D01*
X186055000Y-85725000D02*
X186055000Y-106045000D01*
X170815000Y-85725000D02*
X186055000Y-85725000D01*
X170815000Y-106045000D02*
X170815000Y-85725000D01*
X186055000Y-106045000D02*
X170815000Y-106045000D01*
X111760000Y-100330000D02*
X111760000Y-99060000D01*
X96520000Y-100330000D02*
X111760000Y-100330000D01*
X96520000Y-80010000D02*
X96520000Y-100330000D01*
X111760000Y-80010000D02*
X96520000Y-80010000D01*
X111760000Y-100330000D02*
X111760000Y-80010000D01*
D12*
X59944000Y-38735000D02*
X58039000Y-38735000D01*
X55499000Y-38735000D02*
X56261000Y-38735000D01*
X53086000Y-38735000D02*
X52959000Y-38735000D01*
X53086000Y-38735000D02*
X53721000Y-38735000D01*
X49276000Y-38735000D02*
X51054000Y-38735000D01*
X49276000Y-42418000D02*
X50927000Y-42418000D01*
X53594000Y-42545000D02*
X52959000Y-42545000D01*
X56134000Y-42545000D02*
X55499000Y-42545000D01*
X59944000Y-42418000D02*
X58293000Y-42418000D01*
X53086000Y-37592000D02*
X53086000Y-38735000D01*
X56134000Y-37592000D02*
X56134000Y-38735000D01*
X59944000Y-38735000D02*
X59944000Y-42418000D01*
X49276000Y-42418000D02*
X49276000Y-38735000D01*
X59944000Y-37592000D02*
X59944000Y-38735000D01*
X49276000Y-38735000D02*
X49276000Y-37592000D01*
X54610000Y-37592000D02*
X49276000Y-37592000D01*
X54610000Y-37592000D02*
X59944000Y-37592000D01*
X74889000Y-47045000D02*
X69891000Y-47045000D01*
X74881000Y-47185000D02*
X69899000Y-47185000D01*
X74865000Y-47325000D02*
X72485000Y-47325000D01*
X72295000Y-47325000D02*
X69915000Y-47325000D01*
X74841000Y-47465000D02*
X72880000Y-47465000D01*
X71900000Y-47465000D02*
X69939000Y-47465000D01*
X74808000Y-47605000D02*
X73047000Y-47605000D01*
X71733000Y-47605000D02*
X69972000Y-47605000D01*
X74767000Y-47745000D02*
X73154000Y-47745000D01*
X71626000Y-47745000D02*
X70013000Y-47745000D01*
X74717000Y-47885000D02*
X73225000Y-47885000D01*
X71555000Y-47885000D02*
X70063000Y-47885000D01*
X74656000Y-48025000D02*
X73269000Y-48025000D01*
X71511000Y-48025000D02*
X70124000Y-48025000D01*
X74586000Y-48165000D02*
X73288000Y-48165000D01*
X71492000Y-48165000D02*
X70194000Y-48165000D01*
X74504000Y-48305000D02*
X73286000Y-48305000D01*
X71494000Y-48305000D02*
X70276000Y-48305000D01*
X74409000Y-48445000D02*
X73261000Y-48445000D01*
X71519000Y-48445000D02*
X70371000Y-48445000D01*
X74298000Y-48585000D02*
X73213000Y-48585000D01*
X71567000Y-48585000D02*
X70482000Y-48585000D01*
X74170000Y-48725000D02*
X73135000Y-48725000D01*
X71645000Y-48725000D02*
X70610000Y-48725000D01*
X74021000Y-48865000D02*
X73018000Y-48865000D01*
X71762000Y-48865000D02*
X70759000Y-48865000D01*
X73842000Y-49005000D02*
X72830000Y-49005000D01*
X71950000Y-49005000D02*
X70938000Y-49005000D01*
X73623000Y-49145000D02*
X71157000Y-49145000D01*
X73334000Y-49285000D02*
X71446000Y-49285000D01*
X72862000Y-49425000D02*
X71918000Y-49425000D01*
X73290000Y-48220000D02*
G75*
G03X73290000Y-48220000I-900000J0D01*
G01*
X74927500Y-46970000D02*
G75*
G03X74927500Y-46970000I-2537500J0D01*
G01*
X85049000Y-47045000D02*
X80051000Y-47045000D01*
X85041000Y-47185000D02*
X80059000Y-47185000D01*
X85025000Y-47325000D02*
X82645000Y-47325000D01*
X82455000Y-47325000D02*
X80075000Y-47325000D01*
X85001000Y-47465000D02*
X83040000Y-47465000D01*
X82060000Y-47465000D02*
X80099000Y-47465000D01*
X84968000Y-47605000D02*
X83207000Y-47605000D01*
X81893000Y-47605000D02*
X80132000Y-47605000D01*
X84927000Y-47745000D02*
X83314000Y-47745000D01*
X81786000Y-47745000D02*
X80173000Y-47745000D01*
X84877000Y-47885000D02*
X83385000Y-47885000D01*
X81715000Y-47885000D02*
X80223000Y-47885000D01*
X84816000Y-48025000D02*
X83429000Y-48025000D01*
X81671000Y-48025000D02*
X80284000Y-48025000D01*
X84746000Y-48165000D02*
X83448000Y-48165000D01*
X81652000Y-48165000D02*
X80354000Y-48165000D01*
X84664000Y-48305000D02*
X83446000Y-48305000D01*
X81654000Y-48305000D02*
X80436000Y-48305000D01*
X84569000Y-48445000D02*
X83421000Y-48445000D01*
X81679000Y-48445000D02*
X80531000Y-48445000D01*
X84458000Y-48585000D02*
X83373000Y-48585000D01*
X81727000Y-48585000D02*
X80642000Y-48585000D01*
X84330000Y-48725000D02*
X83295000Y-48725000D01*
X81805000Y-48725000D02*
X80770000Y-48725000D01*
X84181000Y-48865000D02*
X83178000Y-48865000D01*
X81922000Y-48865000D02*
X80919000Y-48865000D01*
X84002000Y-49005000D02*
X82990000Y-49005000D01*
X82110000Y-49005000D02*
X81098000Y-49005000D01*
X83783000Y-49145000D02*
X81317000Y-49145000D01*
X83494000Y-49285000D02*
X81606000Y-49285000D01*
X83022000Y-49425000D02*
X82078000Y-49425000D01*
X83450000Y-48220000D02*
G75*
G03X83450000Y-48220000I-900000J0D01*
G01*
X85087500Y-46970000D02*
G75*
G03X85087500Y-46970000I-2537500J0D01*
G01*
X52029000Y-47045000D02*
X47031000Y-47045000D01*
X52021000Y-47185000D02*
X47039000Y-47185000D01*
X52005000Y-47325000D02*
X49625000Y-47325000D01*
X49435000Y-47325000D02*
X47055000Y-47325000D01*
X51981000Y-47465000D02*
X50020000Y-47465000D01*
X49040000Y-47465000D02*
X47079000Y-47465000D01*
X51948000Y-47605000D02*
X50187000Y-47605000D01*
X48873000Y-47605000D02*
X47112000Y-47605000D01*
X51907000Y-47745000D02*
X50294000Y-47745000D01*
X48766000Y-47745000D02*
X47153000Y-47745000D01*
X51857000Y-47885000D02*
X50365000Y-47885000D01*
X48695000Y-47885000D02*
X47203000Y-47885000D01*
X51796000Y-48025000D02*
X50409000Y-48025000D01*
X48651000Y-48025000D02*
X47264000Y-48025000D01*
X51726000Y-48165000D02*
X50428000Y-48165000D01*
X48632000Y-48165000D02*
X47334000Y-48165000D01*
X51644000Y-48305000D02*
X50426000Y-48305000D01*
X48634000Y-48305000D02*
X47416000Y-48305000D01*
X51549000Y-48445000D02*
X50401000Y-48445000D01*
X48659000Y-48445000D02*
X47511000Y-48445000D01*
X51438000Y-48585000D02*
X50353000Y-48585000D01*
X48707000Y-48585000D02*
X47622000Y-48585000D01*
X51310000Y-48725000D02*
X50275000Y-48725000D01*
X48785000Y-48725000D02*
X47750000Y-48725000D01*
X51161000Y-48865000D02*
X50158000Y-48865000D01*
X48902000Y-48865000D02*
X47899000Y-48865000D01*
X50982000Y-49005000D02*
X49970000Y-49005000D01*
X49090000Y-49005000D02*
X48078000Y-49005000D01*
X50763000Y-49145000D02*
X48297000Y-49145000D01*
X50474000Y-49285000D02*
X48586000Y-49285000D01*
X50002000Y-49425000D02*
X49058000Y-49425000D01*
X50430000Y-48220000D02*
G75*
G03X50430000Y-48220000I-900000J0D01*
G01*
X52067500Y-46970000D02*
G75*
G03X52067500Y-46970000I-2537500J0D01*
G01*
X62189000Y-47045000D02*
X57191000Y-47045000D01*
X62181000Y-47185000D02*
X57199000Y-47185000D01*
X62165000Y-47325000D02*
X59785000Y-47325000D01*
X59595000Y-47325000D02*
X57215000Y-47325000D01*
X62141000Y-47465000D02*
X60180000Y-47465000D01*
X59200000Y-47465000D02*
X57239000Y-47465000D01*
X62108000Y-47605000D02*
X60347000Y-47605000D01*
X59033000Y-47605000D02*
X57272000Y-47605000D01*
X62067000Y-47745000D02*
X60454000Y-47745000D01*
X58926000Y-47745000D02*
X57313000Y-47745000D01*
X62017000Y-47885000D02*
X60525000Y-47885000D01*
X58855000Y-47885000D02*
X57363000Y-47885000D01*
X61956000Y-48025000D02*
X60569000Y-48025000D01*
X58811000Y-48025000D02*
X57424000Y-48025000D01*
X61886000Y-48165000D02*
X60588000Y-48165000D01*
X58792000Y-48165000D02*
X57494000Y-48165000D01*
X61804000Y-48305000D02*
X60586000Y-48305000D01*
X58794000Y-48305000D02*
X57576000Y-48305000D01*
X61709000Y-48445000D02*
X60561000Y-48445000D01*
X58819000Y-48445000D02*
X57671000Y-48445000D01*
X61598000Y-48585000D02*
X60513000Y-48585000D01*
X58867000Y-48585000D02*
X57782000Y-48585000D01*
X61470000Y-48725000D02*
X60435000Y-48725000D01*
X58945000Y-48725000D02*
X57910000Y-48725000D01*
X61321000Y-48865000D02*
X60318000Y-48865000D01*
X59062000Y-48865000D02*
X58059000Y-48865000D01*
X61142000Y-49005000D02*
X60130000Y-49005000D01*
X59250000Y-49005000D02*
X58238000Y-49005000D01*
X60923000Y-49145000D02*
X58457000Y-49145000D01*
X60634000Y-49285000D02*
X58746000Y-49285000D01*
X60162000Y-49425000D02*
X59218000Y-49425000D01*
X60590000Y-48220000D02*
G75*
G03X60590000Y-48220000I-900000J0D01*
G01*
X62227500Y-46970000D02*
G75*
G03X62227500Y-46970000I-2537500J0D01*
G01*
X18859500Y-29789120D02*
X18859500Y-38790880D01*
X15359380Y-29789120D02*
X15359380Y-38790880D01*
X15359380Y-38790880D02*
X29860240Y-38790880D01*
X29860240Y-38790880D02*
X29860240Y-29789120D01*
X29860240Y-29789120D02*
X15359380Y-29789120D01*
X132080000Y-62230000D02*
X132080000Y-107950000D01*
X132080000Y-107950000D02*
X129540000Y-107950000D01*
X129540000Y-107950000D02*
X129540000Y-62230000D01*
X132360000Y-59410000D02*
X132360000Y-60960000D01*
X132080000Y-62230000D02*
X129540000Y-62230000D01*
X129260000Y-60960000D02*
X129260000Y-59410000D01*
X129260000Y-59410000D02*
X132360000Y-59410000D01*
X154940000Y-62230000D02*
X154940000Y-107950000D01*
X154940000Y-107950000D02*
X152400000Y-107950000D01*
X152400000Y-107950000D02*
X152400000Y-62230000D01*
X155220000Y-59410000D02*
X155220000Y-60960000D01*
X154940000Y-62230000D02*
X152400000Y-62230000D01*
X152120000Y-60960000D02*
X152120000Y-59410000D01*
X152120000Y-59410000D02*
X155220000Y-59410000D01*
X173355000Y-88265000D02*
X173355000Y-106045000D01*
X173355000Y-106045000D02*
X170815000Y-106045000D01*
X170815000Y-106045000D02*
X170815000Y-88265000D01*
X173635000Y-85445000D02*
X173635000Y-86995000D01*
X173355000Y-88265000D02*
X170815000Y-88265000D01*
X170535000Y-86995000D02*
X170535000Y-85445000D01*
X170535000Y-85445000D02*
X173635000Y-85445000D01*
X186055000Y-88265000D02*
X186055000Y-106045000D01*
X186055000Y-106045000D02*
X183515000Y-106045000D01*
X183515000Y-106045000D02*
X183515000Y-88265000D01*
X186335000Y-85445000D02*
X186335000Y-86995000D01*
X186055000Y-88265000D02*
X183515000Y-88265000D01*
X183235000Y-86995000D02*
X183235000Y-85445000D01*
X183235000Y-85445000D02*
X186335000Y-85445000D01*
X109220000Y-97790000D02*
X109220000Y-80010000D01*
X109220000Y-80010000D02*
X111760000Y-80010000D01*
X111760000Y-80010000D02*
X111760000Y-97790000D01*
X108940000Y-100610000D02*
X108940000Y-99060000D01*
X109220000Y-97790000D02*
X111760000Y-97790000D01*
X112040000Y-99060000D02*
X112040000Y-100610000D01*
X112040000Y-100610000D02*
X108940000Y-100610000D01*
X96520000Y-97790000D02*
X96520000Y-80010000D01*
X96520000Y-80010000D02*
X99060000Y-80010000D01*
X99060000Y-80010000D02*
X99060000Y-97790000D01*
X96240000Y-100610000D02*
X96240000Y-99060000D01*
X96520000Y-97790000D02*
X99060000Y-97790000D01*
X99340000Y-99060000D02*
X99340000Y-100610000D01*
X99340000Y-100610000D02*
X96240000Y-100610000D01*
X201315320Y-104696260D02*
X201863960Y-104696260D01*
X201863960Y-104696260D02*
X201863960Y-89613740D01*
X201863960Y-89613740D02*
X201315320Y-89613740D01*
X194015360Y-89613740D02*
X191114680Y-89613740D01*
X191114680Y-89613740D02*
X191114680Y-100716080D01*
X198414640Y-104696260D02*
X201315320Y-104696260D01*
X201315320Y-104696260D02*
X201315320Y-89613740D01*
X201315320Y-89613740D02*
X198414640Y-89613740D01*
X191114680Y-100716080D02*
X191114680Y-103096060D01*
X191114680Y-103096060D02*
X191114680Y-104696260D01*
X191114680Y-104696260D02*
X194015360Y-104696260D01*
X83799680Y-81358740D02*
X83251040Y-81358740D01*
X83251040Y-81358740D02*
X83251040Y-96441260D01*
X83251040Y-96441260D02*
X83799680Y-96441260D01*
X91099640Y-96441260D02*
X94000320Y-96441260D01*
X94000320Y-96441260D02*
X94000320Y-85338920D01*
X86700360Y-81358740D02*
X83799680Y-81358740D01*
X83799680Y-81358740D02*
X83799680Y-96441260D01*
X83799680Y-96441260D02*
X86700360Y-96441260D01*
X94000320Y-85338920D02*
X94000320Y-82958940D01*
X94000320Y-82958940D02*
X94000320Y-81358740D01*
X94000320Y-81358740D02*
X91099640Y-81358740D01*
X132080000Y-119380000D02*
X154940000Y-119380000D01*
X154940000Y-119380000D02*
X154940000Y-121920000D01*
X154940000Y-121920000D02*
X132080000Y-121920000D01*
X129260000Y-119100000D02*
X130810000Y-119100000D01*
X132080000Y-119380000D02*
X132080000Y-121920000D01*
X130810000Y-122200000D02*
X129260000Y-122200000D01*
X129260000Y-122200000D02*
X129260000Y-119100000D01*
X154940000Y-130810000D02*
X144780000Y-130810000D01*
X154940000Y-135255000D02*
X154940000Y-136525000D01*
X144780000Y-131445000D02*
X144780000Y-130175000D01*
X144780000Y-130175000D02*
X154940000Y-130175000D01*
X154940000Y-130175000D02*
X154940000Y-131445000D01*
X154940000Y-136525000D02*
X144780000Y-136525000D01*
X144780000Y-136525000D02*
X144780000Y-135255000D01*
X82804000Y-38735000D02*
X80899000Y-38735000D01*
X78359000Y-38735000D02*
X79121000Y-38735000D01*
X75946000Y-38735000D02*
X75819000Y-38735000D01*
X75946000Y-38735000D02*
X76581000Y-38735000D01*
X72136000Y-38735000D02*
X73914000Y-38735000D01*
X72136000Y-42418000D02*
X73787000Y-42418000D01*
X76454000Y-42545000D02*
X75819000Y-42545000D01*
X78994000Y-42545000D02*
X78359000Y-42545000D01*
X82804000Y-42418000D02*
X81153000Y-42418000D01*
X75946000Y-37592000D02*
X75946000Y-38735000D01*
X78994000Y-37592000D02*
X78994000Y-38735000D01*
X82804000Y-38735000D02*
X82804000Y-42418000D01*
X72136000Y-42418000D02*
X72136000Y-38735000D01*
X82804000Y-37592000D02*
X82804000Y-38735000D01*
X72136000Y-38735000D02*
X72136000Y-37592000D01*
X77470000Y-37592000D02*
X72136000Y-37592000D01*
X77470000Y-37592000D02*
X82804000Y-37592000D01*
X111480000Y-60960000D02*
X111480000Y-59410000D01*
X111480000Y-59410000D02*
X114580000Y-59410000D01*
X114580000Y-59410000D02*
X114580000Y-60960000D01*
X114300000Y-62230000D02*
X114300000Y-72390000D01*
X114300000Y-72390000D02*
X111760000Y-72390000D01*
X111760000Y-72390000D02*
X111760000Y-62230000D01*
X114300000Y-62230000D02*
X111760000Y-62230000D01*
X41910000Y-47625000D02*
X41910000Y-59055000D01*
X41910000Y-59055000D02*
X41275000Y-59690000D01*
X41275000Y-59690000D02*
X29845000Y-59690000D01*
X29845000Y-59690000D02*
X29210000Y-59055000D01*
X29210000Y-59055000D02*
X29210000Y-47625000D01*
X29845000Y-46990000D02*
X41275000Y-46990000D01*
X41275000Y-46990000D02*
X41910000Y-47625000D01*
X29210000Y-47625000D02*
X29845000Y-46990000D01*
X53871905Y-36012381D02*
X53871905Y-35012381D01*
X54252858Y-35012381D01*
X54348096Y-35060000D01*
X54395715Y-35107619D01*
X54443334Y-35202857D01*
X54443334Y-35345714D01*
X54395715Y-35440952D01*
X54348096Y-35488571D01*
X54252858Y-35536190D01*
X53871905Y-35536190D01*
X54824286Y-35107619D02*
X54871905Y-35060000D01*
X54967143Y-35012381D01*
X55205239Y-35012381D01*
X55300477Y-35060000D01*
X55348096Y-35107619D01*
X55395715Y-35202857D01*
X55395715Y-35298095D01*
X55348096Y-35440952D01*
X54776667Y-36012381D01*
X55395715Y-36012381D01*
X76547143Y-47136666D02*
X76594762Y-47184285D01*
X76642381Y-47327142D01*
X76642381Y-47422380D01*
X76594762Y-47565238D01*
X76499524Y-47660476D01*
X76404286Y-47708095D01*
X76213810Y-47755714D01*
X76070952Y-47755714D01*
X75880476Y-47708095D01*
X75785238Y-47660476D01*
X75690000Y-47565238D01*
X75642381Y-47422380D01*
X75642381Y-47327142D01*
X75690000Y-47184285D01*
X75737619Y-47136666D01*
X76642381Y-46184285D02*
X76642381Y-46755714D01*
X76642381Y-46470000D02*
X75642381Y-46470000D01*
X75785238Y-46565238D01*
X75880476Y-46660476D01*
X75928095Y-46755714D01*
X86707143Y-47136666D02*
X86754762Y-47184285D01*
X86802381Y-47327142D01*
X86802381Y-47422380D01*
X86754762Y-47565238D01*
X86659524Y-47660476D01*
X86564286Y-47708095D01*
X86373810Y-47755714D01*
X86230952Y-47755714D01*
X86040476Y-47708095D01*
X85945238Y-47660476D01*
X85850000Y-47565238D01*
X85802381Y-47422380D01*
X85802381Y-47327142D01*
X85850000Y-47184285D01*
X85897619Y-47136666D01*
X85897619Y-46755714D02*
X85850000Y-46708095D01*
X85802381Y-46612857D01*
X85802381Y-46374761D01*
X85850000Y-46279523D01*
X85897619Y-46231904D01*
X85992857Y-46184285D01*
X86088095Y-46184285D01*
X86230952Y-46231904D01*
X86802381Y-46803333D01*
X86802381Y-46184285D01*
X53687143Y-47136666D02*
X53734762Y-47184285D01*
X53782381Y-47327142D01*
X53782381Y-47422380D01*
X53734762Y-47565238D01*
X53639524Y-47660476D01*
X53544286Y-47708095D01*
X53353810Y-47755714D01*
X53210952Y-47755714D01*
X53020476Y-47708095D01*
X52925238Y-47660476D01*
X52830000Y-47565238D01*
X52782381Y-47422380D01*
X52782381Y-47327142D01*
X52830000Y-47184285D01*
X52877619Y-47136666D01*
X52782381Y-46803333D02*
X52782381Y-46184285D01*
X53163333Y-46517619D01*
X53163333Y-46374761D01*
X53210952Y-46279523D01*
X53258571Y-46231904D01*
X53353810Y-46184285D01*
X53591905Y-46184285D01*
X53687143Y-46231904D01*
X53734762Y-46279523D01*
X53782381Y-46374761D01*
X53782381Y-46660476D01*
X53734762Y-46755714D01*
X53687143Y-46803333D01*
X63847143Y-47136666D02*
X63894762Y-47184285D01*
X63942381Y-47327142D01*
X63942381Y-47422380D01*
X63894762Y-47565238D01*
X63799524Y-47660476D01*
X63704286Y-47708095D01*
X63513810Y-47755714D01*
X63370952Y-47755714D01*
X63180476Y-47708095D01*
X63085238Y-47660476D01*
X62990000Y-47565238D01*
X62942381Y-47422380D01*
X62942381Y-47327142D01*
X62990000Y-47184285D01*
X63037619Y-47136666D01*
X63275714Y-46279523D02*
X63942381Y-46279523D01*
X62894762Y-46517619D02*
X63609048Y-46755714D01*
X63609048Y-46136666D01*
X33316183Y-35504285D02*
X33363802Y-35551904D01*
X33411421Y-35694761D01*
X33411421Y-35789999D01*
X33363802Y-35932857D01*
X33268564Y-36028095D01*
X33173326Y-36075714D01*
X32982850Y-36123333D01*
X32839992Y-36123333D01*
X32649516Y-36075714D01*
X32554278Y-36028095D01*
X32459040Y-35932857D01*
X32411421Y-35789999D01*
X32411421Y-35694761D01*
X32459040Y-35551904D01*
X32506659Y-35504285D01*
X32411421Y-34885238D02*
X32411421Y-34694761D01*
X32459040Y-34599523D01*
X32554278Y-34504285D01*
X32744754Y-34456666D01*
X33078088Y-34456666D01*
X33268564Y-34504285D01*
X33363802Y-34599523D01*
X33411421Y-34694761D01*
X33411421Y-34885238D01*
X33363802Y-34980476D01*
X33268564Y-35075714D01*
X33078088Y-35123333D01*
X32744754Y-35123333D01*
X32554278Y-35075714D01*
X32459040Y-34980476D01*
X32411421Y-34885238D01*
X33411421Y-34028095D02*
X32411421Y-34028095D01*
X33411421Y-33456666D01*
X32411421Y-33456666D01*
X33411421Y-32456666D02*
X33411421Y-33028095D01*
X33411421Y-32742381D02*
X32411421Y-32742381D01*
X32554278Y-32837619D01*
X32649516Y-32932857D01*
X32697135Y-33028095D01*
X130071905Y-56312381D02*
X130071905Y-55312381D01*
X130452858Y-55312381D01*
X130548096Y-55360000D01*
X130595715Y-55407619D01*
X130643334Y-55502857D01*
X130643334Y-55645714D01*
X130595715Y-55740952D01*
X130548096Y-55788571D01*
X130452858Y-55836190D01*
X130071905Y-55836190D01*
X131500477Y-55645714D02*
X131500477Y-56312381D01*
X131262381Y-55264762D02*
X131024286Y-55979048D01*
X131643334Y-55979048D01*
X152931905Y-56312381D02*
X152931905Y-55312381D01*
X153312858Y-55312381D01*
X153408096Y-55360000D01*
X153455715Y-55407619D01*
X153503334Y-55502857D01*
X153503334Y-55645714D01*
X153455715Y-55740952D01*
X153408096Y-55788571D01*
X153312858Y-55836190D01*
X152931905Y-55836190D01*
X154408096Y-55312381D02*
X153931905Y-55312381D01*
X153884286Y-55788571D01*
X153931905Y-55740952D01*
X154027143Y-55693333D01*
X154265239Y-55693333D01*
X154360477Y-55740952D01*
X154408096Y-55788571D01*
X154455715Y-55883810D01*
X154455715Y-56121905D01*
X154408096Y-56217143D01*
X154360477Y-56264762D01*
X154265239Y-56312381D01*
X154027143Y-56312381D01*
X153931905Y-56264762D01*
X153884286Y-56217143D01*
X171346905Y-82347381D02*
X171346905Y-81347381D01*
X171727858Y-81347381D01*
X171823096Y-81395000D01*
X171870715Y-81442619D01*
X171918334Y-81537857D01*
X171918334Y-81680714D01*
X171870715Y-81775952D01*
X171823096Y-81823571D01*
X171727858Y-81871190D01*
X171346905Y-81871190D01*
X172251667Y-81347381D02*
X172918334Y-81347381D01*
X172489762Y-82347381D01*
X184046905Y-82347381D02*
X184046905Y-81347381D01*
X184427858Y-81347381D01*
X184523096Y-81395000D01*
X184570715Y-81442619D01*
X184618334Y-81537857D01*
X184618334Y-81680714D01*
X184570715Y-81775952D01*
X184523096Y-81823571D01*
X184427858Y-81871190D01*
X184046905Y-81871190D01*
X185189762Y-81775952D02*
X185094524Y-81728333D01*
X185046905Y-81680714D01*
X184999286Y-81585476D01*
X184999286Y-81537857D01*
X185046905Y-81442619D01*
X185094524Y-81395000D01*
X185189762Y-81347381D01*
X185380239Y-81347381D01*
X185475477Y-81395000D01*
X185523096Y-81442619D01*
X185570715Y-81537857D01*
X185570715Y-81585476D01*
X185523096Y-81680714D01*
X185475477Y-81728333D01*
X185380239Y-81775952D01*
X185189762Y-81775952D01*
X185094524Y-81823571D01*
X185046905Y-81871190D01*
X184999286Y-81966429D01*
X184999286Y-82156905D01*
X185046905Y-82252143D01*
X185094524Y-82299762D01*
X185189762Y-82347381D01*
X185380239Y-82347381D01*
X185475477Y-82299762D01*
X185523096Y-82252143D01*
X185570715Y-82156905D01*
X185570715Y-81966429D01*
X185523096Y-81871190D01*
X185475477Y-81823571D01*
X185380239Y-81775952D01*
X109751905Y-104612381D02*
X109751905Y-103612381D01*
X110132858Y-103612381D01*
X110228096Y-103660000D01*
X110275715Y-103707619D01*
X110323334Y-103802857D01*
X110323334Y-103945714D01*
X110275715Y-104040952D01*
X110228096Y-104088571D01*
X110132858Y-104136190D01*
X109751905Y-104136190D01*
X110799524Y-104612381D02*
X110990000Y-104612381D01*
X111085239Y-104564762D01*
X111132858Y-104517143D01*
X111228096Y-104374286D01*
X111275715Y-104183810D01*
X111275715Y-103802857D01*
X111228096Y-103707619D01*
X111180477Y-103660000D01*
X111085239Y-103612381D01*
X110894762Y-103612381D01*
X110799524Y-103660000D01*
X110751905Y-103707619D01*
X110704286Y-103802857D01*
X110704286Y-104040952D01*
X110751905Y-104136190D01*
X110799524Y-104183810D01*
X110894762Y-104231429D01*
X111085239Y-104231429D01*
X111180477Y-104183810D01*
X111228096Y-104136190D01*
X111275715Y-104040952D01*
X96575714Y-104612381D02*
X96575714Y-103612381D01*
X96956667Y-103612381D01*
X97051905Y-103660000D01*
X97099524Y-103707619D01*
X97147143Y-103802857D01*
X97147143Y-103945714D01*
X97099524Y-104040952D01*
X97051905Y-104088571D01*
X96956667Y-104136190D01*
X96575714Y-104136190D01*
X98099524Y-104612381D02*
X97528095Y-104612381D01*
X97813809Y-104612381D02*
X97813809Y-103612381D01*
X97718571Y-103755238D01*
X97623333Y-103850476D01*
X97528095Y-103898095D01*
X98718571Y-103612381D02*
X98813810Y-103612381D01*
X98909048Y-103660000D01*
X98956667Y-103707619D01*
X99004286Y-103802857D01*
X99051905Y-103993333D01*
X99051905Y-104231429D01*
X99004286Y-104421905D01*
X98956667Y-104517143D01*
X98909048Y-104564762D01*
X98813810Y-104612381D01*
X98718571Y-104612381D01*
X98623333Y-104564762D01*
X98575714Y-104517143D01*
X98528095Y-104421905D01*
X98480476Y-104231429D01*
X98480476Y-103993333D01*
X98528095Y-103802857D01*
X98575714Y-103707619D01*
X98623333Y-103660000D01*
X98718571Y-103612381D01*
X204287381Y-98369286D02*
X203287381Y-98369286D01*
X203287381Y-97988333D01*
X203335000Y-97893095D01*
X203382619Y-97845476D01*
X203477857Y-97797857D01*
X203620714Y-97797857D01*
X203715952Y-97845476D01*
X203763571Y-97893095D01*
X203811190Y-97988333D01*
X203811190Y-98369286D01*
X204287381Y-96845476D02*
X204287381Y-97416905D01*
X204287381Y-97131191D02*
X203287381Y-97131191D01*
X203430238Y-97226429D01*
X203525476Y-97321667D01*
X203573095Y-97416905D01*
X203382619Y-96464524D02*
X203335000Y-96416905D01*
X203287381Y-96321667D01*
X203287381Y-96083571D01*
X203335000Y-95988333D01*
X203382619Y-95940714D01*
X203477857Y-95893095D01*
X203573095Y-95893095D01*
X203715952Y-95940714D01*
X204287381Y-96512143D01*
X204287381Y-95893095D01*
X81732381Y-90114286D02*
X80732381Y-90114286D01*
X80732381Y-89733333D01*
X80780000Y-89638095D01*
X80827619Y-89590476D01*
X80922857Y-89542857D01*
X81065714Y-89542857D01*
X81160952Y-89590476D01*
X81208571Y-89638095D01*
X81256190Y-89733333D01*
X81256190Y-90114286D01*
X81732381Y-88590476D02*
X81732381Y-89161905D01*
X81732381Y-88876191D02*
X80732381Y-88876191D01*
X80875238Y-88971429D01*
X80970476Y-89066667D01*
X81018095Y-89161905D01*
X80732381Y-88257143D02*
X80732381Y-87638095D01*
X81113333Y-87971429D01*
X81113333Y-87828571D01*
X81160952Y-87733333D01*
X81208571Y-87685714D01*
X81303810Y-87638095D01*
X81541905Y-87638095D01*
X81637143Y-87685714D01*
X81684762Y-87733333D01*
X81732381Y-87828571D01*
X81732381Y-88114286D01*
X81684762Y-88209524D01*
X81637143Y-88257143D01*
X126162381Y-121864286D02*
X125162381Y-121864286D01*
X125162381Y-121483333D01*
X125210000Y-121388095D01*
X125257619Y-121340476D01*
X125352857Y-121292857D01*
X125495714Y-121292857D01*
X125590952Y-121340476D01*
X125638571Y-121388095D01*
X125686190Y-121483333D01*
X125686190Y-121864286D01*
X125162381Y-120388095D02*
X125162381Y-120864286D01*
X125638571Y-120911905D01*
X125590952Y-120864286D01*
X125543333Y-120769048D01*
X125543333Y-120530952D01*
X125590952Y-120435714D01*
X125638571Y-120388095D01*
X125733810Y-120340476D01*
X125971905Y-120340476D01*
X126067143Y-120388095D01*
X126114762Y-120435714D01*
X126162381Y-120530952D01*
X126162381Y-120769048D01*
X126114762Y-120864286D01*
X126067143Y-120911905D01*
X126162381Y-119388095D02*
X126162381Y-119959524D01*
X126162381Y-119673810D02*
X125162381Y-119673810D01*
X125305238Y-119769048D01*
X125400476Y-119864286D01*
X125448095Y-119959524D01*
X148645714Y-128722381D02*
X148645714Y-127722381D01*
X149026667Y-127722381D01*
X149121905Y-127770000D01*
X149169524Y-127817619D01*
X149217143Y-127912857D01*
X149217143Y-128055714D01*
X149169524Y-128150952D01*
X149121905Y-128198571D01*
X149026667Y-128246190D01*
X148645714Y-128246190D01*
X150121905Y-127722381D02*
X149645714Y-127722381D01*
X149598095Y-128198571D01*
X149645714Y-128150952D01*
X149740952Y-128103333D01*
X149979048Y-128103333D01*
X150074286Y-128150952D01*
X150121905Y-128198571D01*
X150169524Y-128293810D01*
X150169524Y-128531905D01*
X150121905Y-128627143D01*
X150074286Y-128674762D01*
X149979048Y-128722381D01*
X149740952Y-128722381D01*
X149645714Y-128674762D01*
X149598095Y-128627143D01*
X150788571Y-127722381D02*
X150883810Y-127722381D01*
X150979048Y-127770000D01*
X151026667Y-127817619D01*
X151074286Y-127912857D01*
X151121905Y-128103333D01*
X151121905Y-128341429D01*
X151074286Y-128531905D01*
X151026667Y-128627143D01*
X150979048Y-128674762D01*
X150883810Y-128722381D01*
X150788571Y-128722381D01*
X150693333Y-128674762D01*
X150645714Y-128627143D01*
X150598095Y-128531905D01*
X150550476Y-128341429D01*
X150550476Y-128103333D01*
X150598095Y-127912857D01*
X150645714Y-127817619D01*
X150693333Y-127770000D01*
X150788571Y-127722381D01*
X76731905Y-36012381D02*
X76731905Y-35012381D01*
X77112858Y-35012381D01*
X77208096Y-35060000D01*
X77255715Y-35107619D01*
X77303334Y-35202857D01*
X77303334Y-35345714D01*
X77255715Y-35440952D01*
X77208096Y-35488571D01*
X77112858Y-35536190D01*
X76731905Y-35536190D01*
X78255715Y-36012381D02*
X77684286Y-36012381D01*
X77970000Y-36012381D02*
X77970000Y-35012381D01*
X77874762Y-35155238D01*
X77779524Y-35250476D01*
X77684286Y-35298095D01*
X112291905Y-56312381D02*
X112291905Y-55312381D01*
X112672858Y-55312381D01*
X112768096Y-55360000D01*
X112815715Y-55407619D01*
X112863334Y-55502857D01*
X112863334Y-55645714D01*
X112815715Y-55740952D01*
X112768096Y-55788571D01*
X112672858Y-55836190D01*
X112291905Y-55836190D01*
X113196667Y-55312381D02*
X113815715Y-55312381D01*
X113482381Y-55693333D01*
X113625239Y-55693333D01*
X113720477Y-55740952D01*
X113768096Y-55788571D01*
X113815715Y-55883810D01*
X113815715Y-56121905D01*
X113768096Y-56217143D01*
X113720477Y-56264762D01*
X113625239Y-56312381D01*
X113339524Y-56312381D01*
X113244286Y-56264762D01*
X113196667Y-56217143D01*
X35496667Y-48664762D02*
X35639524Y-48712381D01*
X35877620Y-48712381D01*
X35972858Y-48664762D01*
X36020477Y-48617143D01*
X36068096Y-48521905D01*
X36068096Y-48426667D01*
X36020477Y-48331429D01*
X35972858Y-48283810D01*
X35877620Y-48236190D01*
X35687143Y-48188571D01*
X35591905Y-48140952D01*
X35544286Y-48093333D01*
X35496667Y-47998095D01*
X35496667Y-47902857D01*
X35544286Y-47807619D01*
X35591905Y-47760000D01*
X35687143Y-47712381D01*
X35925239Y-47712381D01*
X36068096Y-47760000D01*
X36401429Y-47712381D02*
X36639524Y-48712381D01*
X36830001Y-47998095D01*
X37020477Y-48712381D01*
X37258572Y-47712381D01*
X38163334Y-48712381D02*
X37591905Y-48712381D01*
X37877619Y-48712381D02*
X37877619Y-47712381D01*
X37782381Y-47855238D01*
X37687143Y-47950476D01*
X37591905Y-47998095D01*
M02*
